M48
; DRILL file {KiCad 5.1.8-db9833491~87~ubuntu20.04.1} date Wed Nov 25 01:05:03 2020
; FORMAT={-:-/ absolute / inch / decimal}
; #@! TF.CreationDate,2020-11-25T01:05:03+01:00
; #@! TF.GenerationSoftware,Kicad,Pcbnew,5.1.8-db9833491~87~ubuntu20.04.1
; #@! TF.FileFunction,Plated,1,2,PTH
FMAT,2
INCH
T1C0.0157
T2C0.0236
T3C0.0354
T4C0.0394
%
G90
G05
T1
X5.031Y-4.5984
X5.0311Y-4.3386
X5.0315Y-4.374
X5.0315Y-4.563
X5.0512Y-4.4685
X5.139Y-4.4685
X5.1921Y-4.3661
X5.1921Y-4.5709
X5.3122Y-4.5799
X5.4394Y-4.2299
X5.6421Y-4.7831
X5.6713Y-4.439
X5.7051Y-4.7476
X5.774Y-4.7567
X5.8894Y-4.4783
X5.8898Y-4.4185
X5.9248Y-5.0894
X6.0197Y-5.0508
X6.1299Y-4.5787
X6.187Y-4.8016
X6.3425Y-4.9291
X6.352Y-4.689
X6.3913Y-4.6091
X6.4961Y-5.2744
X6.4984Y-4.226
X6.5516Y-4.3264
X6.5655Y-4.3827
X6.6374Y-4.3039
X6.7039Y-5.1528
X6.7106Y-4.2754
X6.728Y-4.1909
X6.7445Y-4.8492
X6.7713Y-5.1445
X6.7874Y-3.9244
X6.7874Y-4.0244
X6.7874Y-4.1244
X6.7874Y-4.4236
X6.7874Y-4.5236
X7.7795Y-3.9256
X7.7795Y-4.1256
X7.7795Y-4.5236
X7.7795Y-4.6236
X7.7795Y-4.7232
X7.7795Y-4.8236
X7.7795Y-4.9236
X7.7795Y-5.0236
X7.7795Y-5.1236
X7.7795Y-4.4236
T3
X5.0Y-3.8189
X5.0Y-3.8689
X5.0Y-3.9189
X5.0Y-3.9689
T4
X5.6283Y-4.8876
X5.6283Y-4.9876
X5.6283Y-5.0876
X5.7283Y-4.8876
X5.7283Y-4.9876
X5.7283Y-5.0876
T2
G00X4.7902Y-4.298
M15
G01X4.7665Y-4.298
M16
G05
G00X4.7902Y-4.6382
M15
G01X4.7665Y-4.6382
M16
G05
G00X4.9646Y-4.298
M15
G01X4.9213Y-4.298
M16
G05
G00X4.9646Y-4.6382
M15
G01X4.9213Y-4.6382
M16
G05
T4
G00X4.9606Y-5.0
M15
G01X4.9606Y-5.0787
M16
G05
G00X5.0394Y-5.2244
M15
G01X5.1181Y-5.2244
M16
G05
G00X5.1969Y-5.0
M15
G01X5.1969Y-5.0787
M16
G05
T0
M30
