G04 #@! TF.GenerationSoftware,KiCad,Pcbnew,5.1.8-db9833491~87~ubuntu20.04.1*
G04 #@! TF.CreationDate,2020-11-25T01:05:05+01:00*
G04 #@! TF.ProjectId,otto,6f74746f-2e6b-4696-9361-645f70636258,v1.0*
G04 #@! TF.SameCoordinates,Original*
G04 #@! TF.FileFunction,Legend,Top*
G04 #@! TF.FilePolarity,Positive*
%FSLAX46Y46*%
G04 Gerber Fmt 4.6, Leading zero omitted, Abs format (unit mm)*
G04 Created by KiCad (PCBNEW 5.1.8-db9833491~87~ubuntu20.04.1) date 2020-11-25 01:05:05*
%MOMM*%
%LPD*%
G01*
G04 APERTURE LIST*
%ADD10C,0.300000*%
%ADD11C,0.120000*%
%ADD12C,0.150000*%
%ADD13C,0.100000*%
G04 APERTURE END LIST*
D10*
X144479142Y-92504761D02*
X144860095Y-92504761D01*
X145050571Y-92600000D01*
X145241047Y-92790476D01*
X145336285Y-93171428D01*
X145336285Y-93838095D01*
X145241047Y-94219047D01*
X145050571Y-94409523D01*
X144860095Y-94504761D01*
X144479142Y-94504761D01*
X144288666Y-94409523D01*
X144098190Y-94219047D01*
X144002952Y-93838095D01*
X144002952Y-93171428D01*
X144098190Y-92790476D01*
X144288666Y-92600000D01*
X144479142Y-92504761D01*
X145907714Y-93171428D02*
X146669619Y-93171428D01*
X146193428Y-92504761D02*
X146193428Y-94219047D01*
X146288666Y-94409523D01*
X146479142Y-94504761D01*
X146669619Y-94504761D01*
X147050571Y-93171428D02*
X147812476Y-93171428D01*
X147336285Y-92504761D02*
X147336285Y-94219047D01*
X147431523Y-94409523D01*
X147622000Y-94504761D01*
X147812476Y-94504761D01*
X148764857Y-94504761D02*
X148574380Y-94409523D01*
X148479142Y-94314285D01*
X148383904Y-94123809D01*
X148383904Y-93552380D01*
X148479142Y-93361904D01*
X148574380Y-93266666D01*
X148764857Y-93171428D01*
X149050571Y-93171428D01*
X149241047Y-93266666D01*
X149336285Y-93361904D01*
X149431523Y-93552380D01*
X149431523Y-94123809D01*
X149336285Y-94314285D01*
X149241047Y-94409523D01*
X149050571Y-94504761D01*
X148764857Y-94504761D01*
X151622000Y-93171428D02*
X152098190Y-94504761D01*
X152574380Y-93171428D01*
X154383904Y-94504761D02*
X153241047Y-94504761D01*
X153812476Y-94504761D02*
X153812476Y-92504761D01*
X153622000Y-92790476D01*
X153431523Y-92980952D01*
X153241047Y-93076190D01*
X155241047Y-94314285D02*
X155336285Y-94409523D01*
X155241047Y-94504761D01*
X155145809Y-94409523D01*
X155241047Y-94314285D01*
X155241047Y-94504761D01*
X156574380Y-92504761D02*
X156764857Y-92504761D01*
X156955333Y-92600000D01*
X157050571Y-92695238D01*
X157145809Y-92885714D01*
X157241047Y-93266666D01*
X157241047Y-93742857D01*
X157145809Y-94123809D01*
X157050571Y-94314285D01*
X156955333Y-94409523D01*
X156764857Y-94504761D01*
X156574380Y-94504761D01*
X156383904Y-94409523D01*
X156288666Y-94314285D01*
X156193428Y-94123809D01*
X156098190Y-93742857D01*
X156098190Y-93266666D01*
X156193428Y-92885714D01*
X156288666Y-92695238D01*
X156383904Y-92600000D01*
X156574380Y-92504761D01*
X141955333Y-96471428D02*
X142336285Y-97804761D01*
X142717238Y-96852380D01*
X143098190Y-97804761D01*
X143479142Y-96471428D01*
X144050571Y-96471428D02*
X144431523Y-97804761D01*
X144812476Y-96852380D01*
X145193428Y-97804761D01*
X145574380Y-96471428D01*
X146145809Y-96471428D02*
X146526761Y-97804761D01*
X146907714Y-96852380D01*
X147288666Y-97804761D01*
X147669619Y-96471428D01*
X148431523Y-97614285D02*
X148526761Y-97709523D01*
X148431523Y-97804761D01*
X148336285Y-97709523D01*
X148431523Y-97614285D01*
X148431523Y-97804761D01*
X149288666Y-95995238D02*
X149383904Y-95900000D01*
X149574380Y-95804761D01*
X150050571Y-95804761D01*
X150241047Y-95900000D01*
X150336285Y-95995238D01*
X150431523Y-96185714D01*
X150431523Y-96376190D01*
X150336285Y-96661904D01*
X149193428Y-97804761D01*
X150431523Y-97804761D01*
X151288666Y-97042857D02*
X152812476Y-97042857D01*
X154145809Y-95804761D02*
X154336285Y-95804761D01*
X154526761Y-95900000D01*
X154622000Y-95995238D01*
X154717238Y-96185714D01*
X154812476Y-96566666D01*
X154812476Y-97042857D01*
X154717238Y-97423809D01*
X154622000Y-97614285D01*
X154526761Y-97709523D01*
X154336285Y-97804761D01*
X154145809Y-97804761D01*
X153955333Y-97709523D01*
X153860095Y-97614285D01*
X153764857Y-97423809D01*
X153669619Y-97042857D01*
X153669619Y-96566666D01*
X153764857Y-96185714D01*
X153860095Y-95995238D01*
X153955333Y-95900000D01*
X154145809Y-95804761D01*
X155669619Y-97614285D02*
X155764857Y-97709523D01*
X155669619Y-97804761D01*
X155574380Y-97709523D01*
X155669619Y-97614285D01*
X155669619Y-97804761D01*
X157479142Y-97804761D02*
X157479142Y-95804761D01*
X157479142Y-97709523D02*
X157288666Y-97804761D01*
X156907714Y-97804761D01*
X156717238Y-97709523D01*
X156622000Y-97614285D01*
X156526761Y-97423809D01*
X156526761Y-96852380D01*
X156622000Y-96661904D01*
X156717238Y-96566666D01*
X156907714Y-96471428D01*
X157288666Y-96471428D01*
X157479142Y-96566666D01*
X158431523Y-97804761D02*
X158431523Y-95804761D01*
X158622000Y-97042857D02*
X159193428Y-97804761D01*
X159193428Y-96471428D02*
X158431523Y-97233333D01*
X135375000Y-124757142D02*
X135517857Y-124828571D01*
X135803571Y-124828571D01*
X135946428Y-124757142D01*
X136017857Y-124614285D01*
X136017857Y-124542857D01*
X135946428Y-124400000D01*
X135803571Y-124328571D01*
X135589285Y-124328571D01*
X135446428Y-124257142D01*
X135375000Y-124114285D01*
X135375000Y-124042857D01*
X135446428Y-123900000D01*
X135589285Y-123828571D01*
X135803571Y-123828571D01*
X135946428Y-123900000D01*
X136517857Y-123828571D02*
X136803571Y-124828571D01*
X137089285Y-124114285D01*
X137375000Y-124828571D01*
X137660714Y-123828571D01*
X138875000Y-124757142D02*
X138732142Y-124828571D01*
X138446428Y-124828571D01*
X138303571Y-124757142D01*
X138232142Y-124685714D01*
X138160714Y-124542857D01*
X138160714Y-124114285D01*
X138232142Y-123971428D01*
X138303571Y-123900000D01*
X138446428Y-123828571D01*
X138732142Y-123828571D01*
X138875000Y-123900000D01*
X139732142Y-124828571D02*
X139589285Y-124757142D01*
X139517857Y-124614285D01*
X139517857Y-123328571D01*
X140303571Y-124828571D02*
X140303571Y-123328571D01*
X140446428Y-124257142D02*
X140875000Y-124828571D01*
X140875000Y-123828571D02*
X140303571Y-124400000D01*
X135253571Y-127257142D02*
X135396428Y-127328571D01*
X135682142Y-127328571D01*
X135825000Y-127257142D01*
X135896428Y-127114285D01*
X135896428Y-127042857D01*
X135825000Y-126900000D01*
X135682142Y-126828571D01*
X135467857Y-126828571D01*
X135325000Y-126757142D01*
X135253571Y-126614285D01*
X135253571Y-126542857D01*
X135325000Y-126400000D01*
X135467857Y-126328571D01*
X135682142Y-126328571D01*
X135825000Y-126400000D01*
X136396428Y-126328571D02*
X136682142Y-127328571D01*
X136967857Y-126614285D01*
X137253571Y-127328571D01*
X137539285Y-126328571D01*
X138753571Y-127328571D02*
X138753571Y-125828571D01*
X138753571Y-127257142D02*
X138610714Y-127328571D01*
X138325000Y-127328571D01*
X138182142Y-127257142D01*
X138110714Y-127185714D01*
X138039285Y-127042857D01*
X138039285Y-126614285D01*
X138110714Y-126471428D01*
X138182142Y-126400000D01*
X138325000Y-126328571D01*
X138610714Y-126328571D01*
X138753571Y-126400000D01*
X139467857Y-127328571D02*
X139467857Y-126328571D01*
X139467857Y-125828571D02*
X139396428Y-125900000D01*
X139467857Y-125971428D01*
X139539285Y-125900000D01*
X139467857Y-125828571D01*
X139467857Y-125971428D01*
X140396428Y-127328571D02*
X140253571Y-127257142D01*
X140182142Y-127185714D01*
X140110714Y-127042857D01*
X140110714Y-126614285D01*
X140182142Y-126471428D01*
X140253571Y-126400000D01*
X140396428Y-126328571D01*
X140610714Y-126328571D01*
X140753571Y-126400000D01*
X140825000Y-126471428D01*
X140896428Y-126614285D01*
X140896428Y-127042857D01*
X140825000Y-127185714D01*
X140753571Y-127257142D01*
X140610714Y-127328571D01*
X140396428Y-127328571D01*
X138189285Y-128878571D02*
X138189285Y-130092857D01*
X138117857Y-130235714D01*
X138046428Y-130307142D01*
X137903571Y-130378571D01*
X137689285Y-130378571D01*
X137546428Y-130307142D01*
X138189285Y-129807142D02*
X138046428Y-129878571D01*
X137760714Y-129878571D01*
X137617857Y-129807142D01*
X137546428Y-129735714D01*
X137475000Y-129592857D01*
X137475000Y-129164285D01*
X137546428Y-129021428D01*
X137617857Y-128950000D01*
X137760714Y-128878571D01*
X138046428Y-128878571D01*
X138189285Y-128950000D01*
X138903571Y-128878571D02*
X138903571Y-129878571D01*
X138903571Y-129021428D02*
X138975000Y-128950000D01*
X139117857Y-128878571D01*
X139332142Y-128878571D01*
X139475000Y-128950000D01*
X139546428Y-129092857D01*
X139546428Y-129878571D01*
X140903571Y-129878571D02*
X140903571Y-128378571D01*
X140903571Y-129807142D02*
X140760714Y-129878571D01*
X140475000Y-129878571D01*
X140332142Y-129807142D01*
X140260714Y-129735714D01*
X140189285Y-129592857D01*
X140189285Y-129164285D01*
X140260714Y-129021428D01*
X140332142Y-128950000D01*
X140475000Y-128878571D01*
X140760714Y-128878571D01*
X140903571Y-128950000D01*
X148014285Y-128678571D02*
X148014285Y-129892857D01*
X147942857Y-130035714D01*
X147871428Y-130107142D01*
X147728571Y-130178571D01*
X147514285Y-130178571D01*
X147371428Y-130107142D01*
X148014285Y-129607142D02*
X147871428Y-129678571D01*
X147585714Y-129678571D01*
X147442857Y-129607142D01*
X147371428Y-129535714D01*
X147300000Y-129392857D01*
X147300000Y-128964285D01*
X147371428Y-128821428D01*
X147442857Y-128750000D01*
X147585714Y-128678571D01*
X147871428Y-128678571D01*
X148014285Y-128750000D01*
X148728571Y-128678571D02*
X148728571Y-129678571D01*
X148728571Y-128821428D02*
X148800000Y-128750000D01*
X148942857Y-128678571D01*
X149157142Y-128678571D01*
X149300000Y-128750000D01*
X149371428Y-128892857D01*
X149371428Y-129678571D01*
X150728571Y-129678571D02*
X150728571Y-128178571D01*
X150728571Y-129607142D02*
X150585714Y-129678571D01*
X150300000Y-129678571D01*
X150157142Y-129607142D01*
X150085714Y-129535714D01*
X150014285Y-129392857D01*
X150014285Y-128964285D01*
X150085714Y-128821428D01*
X150157142Y-128750000D01*
X150300000Y-128678571D01*
X150585714Y-128678571D01*
X150728571Y-128750000D01*
X147510714Y-124828571D02*
X147510714Y-123828571D01*
X147510714Y-124114285D02*
X147582142Y-123971428D01*
X147653571Y-123900000D01*
X147796428Y-123828571D01*
X147939285Y-123828571D01*
X148296428Y-124828571D02*
X149082142Y-123828571D01*
X148296428Y-123828571D02*
X149082142Y-124828571D01*
X147332142Y-126378571D02*
X147903571Y-126378571D01*
X147546428Y-125878571D02*
X147546428Y-127164285D01*
X147617857Y-127307142D01*
X147760714Y-127378571D01*
X147903571Y-127378571D01*
X148260714Y-127378571D02*
X149046428Y-126378571D01*
X148260714Y-126378571D02*
X149046428Y-127378571D01*
D11*
X172500000Y-128709420D02*
X172500000Y-128990580D01*
X171480000Y-128709420D02*
X171480000Y-128990580D01*
X159362779Y-123190000D02*
X159037221Y-123190000D01*
X159362779Y-124210000D02*
X159037221Y-124210000D01*
X144560000Y-109940000D02*
X144140000Y-109940000D01*
X144560000Y-117060000D02*
X144560000Y-116640000D01*
X144560000Y-116640000D02*
X145940000Y-116640000D01*
X137440000Y-117060000D02*
X137860000Y-117060000D01*
X137440000Y-109940000D02*
X137860000Y-109940000D01*
X144560000Y-117060000D02*
X144140000Y-117060000D01*
X144560000Y-109940000D02*
X144560000Y-110360000D01*
X137440000Y-109940000D02*
X137440000Y-110360000D01*
X137440000Y-117060000D02*
X137440000Y-116640000D01*
X130212779Y-110390000D02*
X129887221Y-110390000D01*
X130212779Y-111410000D02*
X129887221Y-111410000D01*
X135882779Y-117920000D02*
X135557221Y-117920000D01*
X135882779Y-116900000D02*
X135557221Y-116900000D01*
X144400000Y-118607221D02*
X144400000Y-118932779D01*
X145420000Y-118607221D02*
X145420000Y-118932779D01*
X136570000Y-108382779D02*
X136570000Y-108057221D01*
X137590000Y-108382779D02*
X137590000Y-108057221D01*
X147607221Y-112750000D02*
X147932779Y-112750000D01*
X147607221Y-111730000D02*
X147932779Y-111730000D01*
X147607221Y-114260000D02*
X147932779Y-114260000D01*
X147607221Y-113240000D02*
X147932779Y-113240000D01*
X130212779Y-116610000D02*
X129887221Y-116610000D01*
X130212779Y-115590000D02*
X129887221Y-115590000D01*
X141730000Y-120537221D02*
X141730000Y-120862779D01*
X142750000Y-120537221D02*
X142750000Y-120862779D01*
X122620000Y-103882779D02*
X122620000Y-103557221D01*
X121600000Y-103882779D02*
X121600000Y-103557221D01*
X123100000Y-103882779D02*
X123100000Y-103557221D01*
X124120000Y-103882779D02*
X124120000Y-103557221D01*
X125620000Y-103882779D02*
X125620000Y-103557221D01*
X124600000Y-103882779D02*
X124600000Y-103557221D01*
X159362779Y-127210000D02*
X159037221Y-127210000D01*
X159362779Y-126190000D02*
X159037221Y-126190000D01*
X128545000Y-96345000D02*
X128080000Y-96345000D01*
X125920000Y-96345000D02*
X125455000Y-96345000D01*
X125919571Y-101159479D02*
G75*
G02*
X125920000Y-96650316I1080429J2254479D01*
G01*
X128080429Y-101159479D02*
G75*
G03*
X128080000Y-96650316I-1080429J2254479D01*
G01*
X125919173Y-101692815D02*
G75*
G02*
X125455170Y-96345000I1080827J2787815D01*
G01*
X128080827Y-101692815D02*
G75*
G03*
X128544830Y-96345000I-1080827J2787815D01*
G01*
X159037221Y-125710000D02*
X159362779Y-125710000D01*
X159037221Y-124690000D02*
X159362779Y-124690000D01*
X146830000Y-130555000D02*
X145500000Y-130555000D01*
X146830000Y-129225000D02*
X146830000Y-130555000D01*
X144230000Y-130555000D02*
X141630000Y-130555000D01*
X144230000Y-127955000D02*
X144230000Y-130555000D01*
X146830000Y-127955000D02*
X144230000Y-127955000D01*
X141630000Y-130555000D02*
X141630000Y-122815000D01*
X146830000Y-127955000D02*
X146830000Y-122815000D01*
X146830000Y-122815000D02*
X141630000Y-122815000D01*
X157210000Y-121560000D02*
X157210000Y-117350000D01*
X154190000Y-121560000D02*
X157210000Y-121560000D01*
X154190000Y-117350000D02*
X154190000Y-121560000D01*
X132900000Y-123400000D02*
X132900000Y-126000000D01*
X118200000Y-123400000D02*
X132900000Y-123400000D01*
X132900000Y-132600000D02*
X131000000Y-132600000D01*
X132900000Y-129900000D02*
X132900000Y-132600000D01*
X118200000Y-132600000D02*
X118200000Y-123400000D01*
X127000000Y-132600000D02*
X118200000Y-132600000D01*
X132050000Y-123200000D02*
X133100000Y-123200000D01*
X133100000Y-124250000D02*
X133100000Y-123200000D01*
X154870000Y-127690000D02*
X160880000Y-127690000D01*
X157120000Y-134510000D02*
X160880000Y-134510000D01*
X160880000Y-127690000D02*
X160880000Y-128950000D01*
X160880000Y-134510000D02*
X160880000Y-133250000D01*
X154410000Y-132850000D02*
X154410000Y-128640000D01*
X154410000Y-128640000D02*
X151390000Y-128640000D01*
X151390000Y-128640000D02*
X151390000Y-132850000D01*
X163540000Y-128640000D02*
X163540000Y-132850000D01*
X166560000Y-128640000D02*
X163540000Y-128640000D01*
X166560000Y-132850000D02*
X166560000Y-128640000D01*
X169570000Y-128591422D02*
X169570000Y-129108578D01*
X170990000Y-128591422D02*
X170990000Y-129108578D01*
X163010000Y-119358578D02*
X163010000Y-118841422D01*
X161590000Y-119358578D02*
X161590000Y-118841422D01*
X159461252Y-121225000D02*
X158938748Y-121225000D01*
X159461252Y-122695000D02*
X158938748Y-122695000D01*
X118520000Y-108790000D02*
X118520000Y-118190000D01*
X124320000Y-118190000D02*
X122320000Y-118190000D01*
X120420000Y-118190000D02*
X118520000Y-118190000D01*
X124320000Y-108790000D02*
X122320000Y-108790000D01*
X120420000Y-108790000D02*
X118520000Y-108790000D01*
X129560000Y-115110000D02*
X132010000Y-115110000D01*
X131360000Y-111890000D02*
X129560000Y-111890000D01*
X191350000Y-100165000D02*
X193890000Y-100165000D01*
X193890000Y-131915000D02*
X193890000Y-100165000D01*
X191350000Y-95085000D02*
X191350000Y-100165000D01*
X176110000Y-95085000D02*
X191350000Y-95085000D01*
X176110000Y-131915000D02*
X176110000Y-95085000D01*
X193890000Y-131915000D02*
X176110000Y-131915000D01*
D12*
X194890000Y-96990000D02*
G75*
G03*
X194890000Y-96990000I-1000000J0D01*
G01*
D13*
X172900000Y-94150000D02*
X197100000Y-94150000D01*
X172900000Y-132850000D02*
X172900000Y-94150000D01*
X197100000Y-132850000D02*
X172900000Y-132850000D01*
X197100000Y-94150000D02*
X197100000Y-132850000D01*
D11*
X158350000Y-120710000D02*
X160800000Y-120710000D01*
X160150000Y-117490000D02*
X158350000Y-117490000D01*
X151000000Y-131240580D02*
X151000000Y-130959420D01*
X149980000Y-131240580D02*
X149980000Y-130959420D01*
X145915000Y-118508748D02*
X145915000Y-119031252D01*
X147385000Y-118508748D02*
X147385000Y-119031252D01*
D12*
X172337142Y-126362857D02*
X172384761Y-126410476D01*
X172432380Y-126553333D01*
X172432380Y-126648571D01*
X172384761Y-126791428D01*
X172289523Y-126886666D01*
X172194285Y-126934285D01*
X172003809Y-126981904D01*
X171860952Y-126981904D01*
X171670476Y-126934285D01*
X171575238Y-126886666D01*
X171480000Y-126791428D01*
X171432380Y-126648571D01*
X171432380Y-126553333D01*
X171480000Y-126410476D01*
X171527619Y-126362857D01*
X172432380Y-125410476D02*
X172432380Y-125981904D01*
X172432380Y-125696190D02*
X171432380Y-125696190D01*
X171575238Y-125791428D01*
X171670476Y-125886666D01*
X171718095Y-125981904D01*
X171527619Y-125029523D02*
X171480000Y-124981904D01*
X171432380Y-124886666D01*
X171432380Y-124648571D01*
X171480000Y-124553333D01*
X171527619Y-124505714D01*
X171622857Y-124458095D01*
X171718095Y-124458095D01*
X171860952Y-124505714D01*
X172432380Y-125077142D01*
X172432380Y-124458095D01*
X155787142Y-124132380D02*
X155453809Y-123656190D01*
X155215714Y-124132380D02*
X155215714Y-123132380D01*
X155596666Y-123132380D01*
X155691904Y-123180000D01*
X155739523Y-123227619D01*
X155787142Y-123322857D01*
X155787142Y-123465714D01*
X155739523Y-123560952D01*
X155691904Y-123608571D01*
X155596666Y-123656190D01*
X155215714Y-123656190D01*
X156739523Y-124132380D02*
X156168095Y-124132380D01*
X156453809Y-124132380D02*
X156453809Y-123132380D01*
X156358571Y-123275238D01*
X156263333Y-123370476D01*
X156168095Y-123418095D01*
X157072857Y-123132380D02*
X157691904Y-123132380D01*
X157358571Y-123513333D01*
X157501428Y-123513333D01*
X157596666Y-123560952D01*
X157644285Y-123608571D01*
X157691904Y-123703809D01*
X157691904Y-123941904D01*
X157644285Y-124037142D01*
X157596666Y-124084761D01*
X157501428Y-124132380D01*
X157215714Y-124132380D01*
X157120476Y-124084761D01*
X157072857Y-124037142D01*
X138708095Y-118902380D02*
X138708095Y-119711904D01*
X138755714Y-119807142D01*
X138803333Y-119854761D01*
X138898571Y-119902380D01*
X139089047Y-119902380D01*
X139184285Y-119854761D01*
X139231904Y-119807142D01*
X139279523Y-119711904D01*
X139279523Y-118902380D01*
X139660476Y-118902380D02*
X140279523Y-118902380D01*
X139946190Y-119283333D01*
X140089047Y-119283333D01*
X140184285Y-119330952D01*
X140231904Y-119378571D01*
X140279523Y-119473809D01*
X140279523Y-119711904D01*
X140231904Y-119807142D01*
X140184285Y-119854761D01*
X140089047Y-119902380D01*
X139803333Y-119902380D01*
X139708095Y-119854761D01*
X139660476Y-119807142D01*
X129873333Y-110012380D02*
X129540000Y-109536190D01*
X129301904Y-110012380D02*
X129301904Y-109012380D01*
X129682857Y-109012380D01*
X129778095Y-109060000D01*
X129825714Y-109107619D01*
X129873333Y-109202857D01*
X129873333Y-109345714D01*
X129825714Y-109440952D01*
X129778095Y-109488571D01*
X129682857Y-109536190D01*
X129301904Y-109536190D01*
X130825714Y-110012380D02*
X130254285Y-110012380D01*
X130540000Y-110012380D02*
X130540000Y-109012380D01*
X130444761Y-109155238D01*
X130349523Y-109250476D01*
X130254285Y-109298095D01*
X135533333Y-119257142D02*
X135485714Y-119304761D01*
X135342857Y-119352380D01*
X135247619Y-119352380D01*
X135104761Y-119304761D01*
X135009523Y-119209523D01*
X134961904Y-119114285D01*
X134914285Y-118923809D01*
X134914285Y-118780952D01*
X134961904Y-118590476D01*
X135009523Y-118495238D01*
X135104761Y-118400000D01*
X135247619Y-118352380D01*
X135342857Y-118352380D01*
X135485714Y-118400000D01*
X135533333Y-118447619D01*
X135866666Y-118352380D02*
X136485714Y-118352380D01*
X136152380Y-118733333D01*
X136295238Y-118733333D01*
X136390476Y-118780952D01*
X136438095Y-118828571D01*
X136485714Y-118923809D01*
X136485714Y-119161904D01*
X136438095Y-119257142D01*
X136390476Y-119304761D01*
X136295238Y-119352380D01*
X136009523Y-119352380D01*
X135914285Y-119304761D01*
X135866666Y-119257142D01*
X146433333Y-119127142D02*
X146385714Y-119174761D01*
X146242857Y-119222380D01*
X146147619Y-119222380D01*
X146004761Y-119174761D01*
X145909523Y-119079523D01*
X145861904Y-118984285D01*
X145814285Y-118793809D01*
X145814285Y-118650952D01*
X145861904Y-118460476D01*
X145909523Y-118365238D01*
X146004761Y-118270000D01*
X146147619Y-118222380D01*
X146242857Y-118222380D01*
X146385714Y-118270000D01*
X146433333Y-118317619D01*
X147290476Y-118555714D02*
X147290476Y-119222380D01*
X147052380Y-118174761D02*
X146814285Y-118889047D01*
X147433333Y-118889047D01*
X135283333Y-108577142D02*
X135235714Y-108624761D01*
X135092857Y-108672380D01*
X134997619Y-108672380D01*
X134854761Y-108624761D01*
X134759523Y-108529523D01*
X134711904Y-108434285D01*
X134664285Y-108243809D01*
X134664285Y-108100952D01*
X134711904Y-107910476D01*
X134759523Y-107815238D01*
X134854761Y-107720000D01*
X134997619Y-107672380D01*
X135092857Y-107672380D01*
X135235714Y-107720000D01*
X135283333Y-107767619D01*
X136188095Y-107672380D02*
X135711904Y-107672380D01*
X135664285Y-108148571D01*
X135711904Y-108100952D01*
X135807142Y-108053333D01*
X136045238Y-108053333D01*
X136140476Y-108100952D01*
X136188095Y-108148571D01*
X136235714Y-108243809D01*
X136235714Y-108481904D01*
X136188095Y-108577142D01*
X136140476Y-108624761D01*
X136045238Y-108672380D01*
X135807142Y-108672380D01*
X135711904Y-108624761D01*
X135664285Y-108577142D01*
X147613333Y-111277142D02*
X147565714Y-111324761D01*
X147422857Y-111372380D01*
X147327619Y-111372380D01*
X147184761Y-111324761D01*
X147089523Y-111229523D01*
X147041904Y-111134285D01*
X146994285Y-110943809D01*
X146994285Y-110800952D01*
X147041904Y-110610476D01*
X147089523Y-110515238D01*
X147184761Y-110420000D01*
X147327619Y-110372380D01*
X147422857Y-110372380D01*
X147565714Y-110420000D01*
X147613333Y-110467619D01*
X148470476Y-110372380D02*
X148280000Y-110372380D01*
X148184761Y-110420000D01*
X148137142Y-110467619D01*
X148041904Y-110610476D01*
X147994285Y-110800952D01*
X147994285Y-111181904D01*
X148041904Y-111277142D01*
X148089523Y-111324761D01*
X148184761Y-111372380D01*
X148375238Y-111372380D01*
X148470476Y-111324761D01*
X148518095Y-111277142D01*
X148565714Y-111181904D01*
X148565714Y-110943809D01*
X148518095Y-110848571D01*
X148470476Y-110800952D01*
X148375238Y-110753333D01*
X148184761Y-110753333D01*
X148089523Y-110800952D01*
X148041904Y-110848571D01*
X147994285Y-110943809D01*
X147613333Y-115567142D02*
X147565714Y-115614761D01*
X147422857Y-115662380D01*
X147327619Y-115662380D01*
X147184761Y-115614761D01*
X147089523Y-115519523D01*
X147041904Y-115424285D01*
X146994285Y-115233809D01*
X146994285Y-115090952D01*
X147041904Y-114900476D01*
X147089523Y-114805238D01*
X147184761Y-114710000D01*
X147327619Y-114662380D01*
X147422857Y-114662380D01*
X147565714Y-114710000D01*
X147613333Y-114757619D01*
X147946666Y-114662380D02*
X148613333Y-114662380D01*
X148184761Y-115662380D01*
X129893333Y-117952380D02*
X129560000Y-117476190D01*
X129321904Y-117952380D02*
X129321904Y-116952380D01*
X129702857Y-116952380D01*
X129798095Y-117000000D01*
X129845714Y-117047619D01*
X129893333Y-117142857D01*
X129893333Y-117285714D01*
X129845714Y-117380952D01*
X129798095Y-117428571D01*
X129702857Y-117476190D01*
X129321904Y-117476190D01*
X130274285Y-117047619D02*
X130321904Y-117000000D01*
X130417142Y-116952380D01*
X130655238Y-116952380D01*
X130750476Y-117000000D01*
X130798095Y-117047619D01*
X130845714Y-117142857D01*
X130845714Y-117238095D01*
X130798095Y-117380952D01*
X130226666Y-117952380D01*
X130845714Y-117952380D01*
X140423333Y-121652380D02*
X140090000Y-121176190D01*
X139851904Y-121652380D02*
X139851904Y-120652380D01*
X140232857Y-120652380D01*
X140328095Y-120700000D01*
X140375714Y-120747619D01*
X140423333Y-120842857D01*
X140423333Y-120985714D01*
X140375714Y-121080952D01*
X140328095Y-121128571D01*
X140232857Y-121176190D01*
X139851904Y-121176190D01*
X140756666Y-120652380D02*
X141375714Y-120652380D01*
X141042380Y-121033333D01*
X141185238Y-121033333D01*
X141280476Y-121080952D01*
X141328095Y-121128571D01*
X141375714Y-121223809D01*
X141375714Y-121461904D01*
X141328095Y-121557142D01*
X141280476Y-121604761D01*
X141185238Y-121652380D01*
X140899523Y-121652380D01*
X140804285Y-121604761D01*
X140756666Y-121557142D01*
X122552380Y-106366666D02*
X122076190Y-106700000D01*
X122552380Y-106938095D02*
X121552380Y-106938095D01*
X121552380Y-106557142D01*
X121600000Y-106461904D01*
X121647619Y-106414285D01*
X121742857Y-106366666D01*
X121885714Y-106366666D01*
X121980952Y-106414285D01*
X122028571Y-106461904D01*
X122076190Y-106557142D01*
X122076190Y-106938095D01*
X121885714Y-105509523D02*
X122552380Y-105509523D01*
X121504761Y-105747619D02*
X122219047Y-105985714D01*
X122219047Y-105366666D01*
X124062380Y-106366666D02*
X123586190Y-106700000D01*
X124062380Y-106938095D02*
X123062380Y-106938095D01*
X123062380Y-106557142D01*
X123110000Y-106461904D01*
X123157619Y-106414285D01*
X123252857Y-106366666D01*
X123395714Y-106366666D01*
X123490952Y-106414285D01*
X123538571Y-106461904D01*
X123586190Y-106557142D01*
X123586190Y-106938095D01*
X123062380Y-105461904D02*
X123062380Y-105938095D01*
X123538571Y-105985714D01*
X123490952Y-105938095D01*
X123443333Y-105842857D01*
X123443333Y-105604761D01*
X123490952Y-105509523D01*
X123538571Y-105461904D01*
X123633809Y-105414285D01*
X123871904Y-105414285D01*
X123967142Y-105461904D01*
X124014761Y-105509523D01*
X124062380Y-105604761D01*
X124062380Y-105842857D01*
X124014761Y-105938095D01*
X123967142Y-105985714D01*
X125552380Y-106366666D02*
X125076190Y-106700000D01*
X125552380Y-106938095D02*
X124552380Y-106938095D01*
X124552380Y-106557142D01*
X124600000Y-106461904D01*
X124647619Y-106414285D01*
X124742857Y-106366666D01*
X124885714Y-106366666D01*
X124980952Y-106414285D01*
X125028571Y-106461904D01*
X125076190Y-106557142D01*
X125076190Y-106938095D01*
X124552380Y-105509523D02*
X124552380Y-105700000D01*
X124600000Y-105795238D01*
X124647619Y-105842857D01*
X124790476Y-105938095D01*
X124980952Y-105985714D01*
X125361904Y-105985714D01*
X125457142Y-105938095D01*
X125504761Y-105890476D01*
X125552380Y-105795238D01*
X125552380Y-105604761D01*
X125504761Y-105509523D01*
X125457142Y-105461904D01*
X125361904Y-105414285D01*
X125123809Y-105414285D01*
X125028571Y-105461904D01*
X124980952Y-105509523D01*
X124933333Y-105604761D01*
X124933333Y-105795238D01*
X124980952Y-105890476D01*
X125028571Y-105938095D01*
X125123809Y-105985714D01*
X156533333Y-127152380D02*
X156200000Y-126676190D01*
X155961904Y-127152380D02*
X155961904Y-126152380D01*
X156342857Y-126152380D01*
X156438095Y-126200000D01*
X156485714Y-126247619D01*
X156533333Y-126342857D01*
X156533333Y-126485714D01*
X156485714Y-126580952D01*
X156438095Y-126628571D01*
X156342857Y-126676190D01*
X155961904Y-126676190D01*
X156866666Y-126152380D02*
X157533333Y-126152380D01*
X157104761Y-127152380D01*
X126331904Y-95292380D02*
X126331904Y-94292380D01*
X126570000Y-94292380D01*
X126712857Y-94340000D01*
X126808095Y-94435238D01*
X126855714Y-94530476D01*
X126903333Y-94720952D01*
X126903333Y-94863809D01*
X126855714Y-95054285D01*
X126808095Y-95149523D01*
X126712857Y-95244761D01*
X126570000Y-95292380D01*
X126331904Y-95292380D01*
X127855714Y-95292380D02*
X127284285Y-95292380D01*
X127570000Y-95292380D02*
X127570000Y-94292380D01*
X127474761Y-94435238D01*
X127379523Y-94530476D01*
X127284285Y-94578095D01*
X156533333Y-125652380D02*
X156200000Y-125176190D01*
X155961904Y-125652380D02*
X155961904Y-124652380D01*
X156342857Y-124652380D01*
X156438095Y-124700000D01*
X156485714Y-124747619D01*
X156533333Y-124842857D01*
X156533333Y-124985714D01*
X156485714Y-125080952D01*
X156438095Y-125128571D01*
X156342857Y-125176190D01*
X155961904Y-125176190D01*
X157104761Y-125080952D02*
X157009523Y-125033333D01*
X156961904Y-124985714D01*
X156914285Y-124890476D01*
X156914285Y-124842857D01*
X156961904Y-124747619D01*
X157009523Y-124700000D01*
X157104761Y-124652380D01*
X157295238Y-124652380D01*
X157390476Y-124700000D01*
X157438095Y-124747619D01*
X157485714Y-124842857D01*
X157485714Y-124890476D01*
X157438095Y-124985714D01*
X157390476Y-125033333D01*
X157295238Y-125080952D01*
X157104761Y-125080952D01*
X157009523Y-125128571D01*
X156961904Y-125176190D01*
X156914285Y-125271428D01*
X156914285Y-125461904D01*
X156961904Y-125557142D01*
X157009523Y-125604761D01*
X157104761Y-125652380D01*
X157295238Y-125652380D01*
X157390476Y-125604761D01*
X157438095Y-125557142D01*
X157485714Y-125461904D01*
X157485714Y-125271428D01*
X157438095Y-125176190D01*
X157390476Y-125128571D01*
X157295238Y-125080952D01*
X143926666Y-131362380D02*
X143926666Y-132076666D01*
X143879047Y-132219523D01*
X143783809Y-132314761D01*
X143640952Y-132362380D01*
X143545714Y-132362380D01*
X144355238Y-131457619D02*
X144402857Y-131410000D01*
X144498095Y-131362380D01*
X144736190Y-131362380D01*
X144831428Y-131410000D01*
X144879047Y-131457619D01*
X144926666Y-131552857D01*
X144926666Y-131648095D01*
X144879047Y-131790952D01*
X144307619Y-132362380D01*
X144926666Y-132362380D01*
X153023333Y-119457142D02*
X152975714Y-119504761D01*
X152832857Y-119552380D01*
X152737619Y-119552380D01*
X152594761Y-119504761D01*
X152499523Y-119409523D01*
X152451904Y-119314285D01*
X152404285Y-119123809D01*
X152404285Y-118980952D01*
X152451904Y-118790476D01*
X152499523Y-118695238D01*
X152594761Y-118600000D01*
X152737619Y-118552380D01*
X152832857Y-118552380D01*
X152975714Y-118600000D01*
X153023333Y-118647619D01*
X153594761Y-118980952D02*
X153499523Y-118933333D01*
X153451904Y-118885714D01*
X153404285Y-118790476D01*
X153404285Y-118742857D01*
X153451904Y-118647619D01*
X153499523Y-118600000D01*
X153594761Y-118552380D01*
X153785238Y-118552380D01*
X153880476Y-118600000D01*
X153928095Y-118647619D01*
X153975714Y-118742857D01*
X153975714Y-118790476D01*
X153928095Y-118885714D01*
X153880476Y-118933333D01*
X153785238Y-118980952D01*
X153594761Y-118980952D01*
X153499523Y-119028571D01*
X153451904Y-119076190D01*
X153404285Y-119171428D01*
X153404285Y-119361904D01*
X153451904Y-119457142D01*
X153499523Y-119504761D01*
X153594761Y-119552380D01*
X153785238Y-119552380D01*
X153880476Y-119504761D01*
X153928095Y-119457142D01*
X153975714Y-119361904D01*
X153975714Y-119171428D01*
X153928095Y-119076190D01*
X153880476Y-119028571D01*
X153785238Y-118980952D01*
X125666666Y-121952380D02*
X125666666Y-122666666D01*
X125619047Y-122809523D01*
X125523809Y-122904761D01*
X125380952Y-122952380D01*
X125285714Y-122952380D01*
X126047619Y-121952380D02*
X126666666Y-121952380D01*
X126333333Y-122333333D01*
X126476190Y-122333333D01*
X126571428Y-122380952D01*
X126619047Y-122428571D01*
X126666666Y-122523809D01*
X126666666Y-122761904D01*
X126619047Y-122857142D01*
X126571428Y-122904761D01*
X126476190Y-122952380D01*
X126190476Y-122952380D01*
X126095238Y-122904761D01*
X126047619Y-122857142D01*
X158308095Y-135052380D02*
X158308095Y-135861904D01*
X158355714Y-135957142D01*
X158403333Y-136004761D01*
X158498571Y-136052380D01*
X158689047Y-136052380D01*
X158784285Y-136004761D01*
X158831904Y-135957142D01*
X158879523Y-135861904D01*
X158879523Y-135052380D01*
X159879523Y-136052380D02*
X159308095Y-136052380D01*
X159593809Y-136052380D02*
X159593809Y-135052380D01*
X159498571Y-135195238D01*
X159403333Y-135290476D01*
X159308095Y-135338095D01*
X152693333Y-134627142D02*
X152645714Y-134674761D01*
X152502857Y-134722380D01*
X152407619Y-134722380D01*
X152264761Y-134674761D01*
X152169523Y-134579523D01*
X152121904Y-134484285D01*
X152074285Y-134293809D01*
X152074285Y-134150952D01*
X152121904Y-133960476D01*
X152169523Y-133865238D01*
X152264761Y-133770000D01*
X152407619Y-133722380D01*
X152502857Y-133722380D01*
X152645714Y-133770000D01*
X152693333Y-133817619D01*
X153645714Y-134722380D02*
X153074285Y-134722380D01*
X153360000Y-134722380D02*
X153360000Y-133722380D01*
X153264761Y-133865238D01*
X153169523Y-133960476D01*
X153074285Y-134008095D01*
X164933333Y-128357142D02*
X164885714Y-128404761D01*
X164742857Y-128452380D01*
X164647619Y-128452380D01*
X164504761Y-128404761D01*
X164409523Y-128309523D01*
X164361904Y-128214285D01*
X164314285Y-128023809D01*
X164314285Y-127880952D01*
X164361904Y-127690476D01*
X164409523Y-127595238D01*
X164504761Y-127500000D01*
X164647619Y-127452380D01*
X164742857Y-127452380D01*
X164885714Y-127500000D01*
X164933333Y-127547619D01*
X165314285Y-127547619D02*
X165361904Y-127500000D01*
X165457142Y-127452380D01*
X165695238Y-127452380D01*
X165790476Y-127500000D01*
X165838095Y-127547619D01*
X165885714Y-127642857D01*
X165885714Y-127738095D01*
X165838095Y-127880952D01*
X165266666Y-128452380D01*
X165885714Y-128452380D01*
X170647142Y-126392857D02*
X170694761Y-126440476D01*
X170742380Y-126583333D01*
X170742380Y-126678571D01*
X170694761Y-126821428D01*
X170599523Y-126916666D01*
X170504285Y-126964285D01*
X170313809Y-127011904D01*
X170170952Y-127011904D01*
X169980476Y-126964285D01*
X169885238Y-126916666D01*
X169790000Y-126821428D01*
X169742380Y-126678571D01*
X169742380Y-126583333D01*
X169790000Y-126440476D01*
X169837619Y-126392857D01*
X170742380Y-125440476D02*
X170742380Y-126011904D01*
X170742380Y-125726190D02*
X169742380Y-125726190D01*
X169885238Y-125821428D01*
X169980476Y-125916666D01*
X170028095Y-126011904D01*
X169742380Y-124821428D02*
X169742380Y-124726190D01*
X169790000Y-124630952D01*
X169837619Y-124583333D01*
X169932857Y-124535714D01*
X170123333Y-124488095D01*
X170361428Y-124488095D01*
X170551904Y-124535714D01*
X170647142Y-124583333D01*
X170694761Y-124630952D01*
X170742380Y-124726190D01*
X170742380Y-124821428D01*
X170694761Y-124916666D01*
X170647142Y-124964285D01*
X170551904Y-125011904D01*
X170361428Y-125059523D01*
X170123333Y-125059523D01*
X169932857Y-125011904D01*
X169837619Y-124964285D01*
X169790000Y-124916666D01*
X169742380Y-124821428D01*
X163907142Y-119457142D02*
X163859523Y-119504761D01*
X163716666Y-119552380D01*
X163621428Y-119552380D01*
X163478571Y-119504761D01*
X163383333Y-119409523D01*
X163335714Y-119314285D01*
X163288095Y-119123809D01*
X163288095Y-118980952D01*
X163335714Y-118790476D01*
X163383333Y-118695238D01*
X163478571Y-118600000D01*
X163621428Y-118552380D01*
X163716666Y-118552380D01*
X163859523Y-118600000D01*
X163907142Y-118647619D01*
X164859523Y-119552380D02*
X164288095Y-119552380D01*
X164573809Y-119552380D02*
X164573809Y-118552380D01*
X164478571Y-118695238D01*
X164383333Y-118790476D01*
X164288095Y-118838095D01*
X165811904Y-119552380D02*
X165240476Y-119552380D01*
X165526190Y-119552380D02*
X165526190Y-118552380D01*
X165430952Y-118695238D01*
X165335714Y-118790476D01*
X165240476Y-118838095D01*
X161623333Y-122317142D02*
X161575714Y-122364761D01*
X161432857Y-122412380D01*
X161337619Y-122412380D01*
X161194761Y-122364761D01*
X161099523Y-122269523D01*
X161051904Y-122174285D01*
X161004285Y-121983809D01*
X161004285Y-121840952D01*
X161051904Y-121650476D01*
X161099523Y-121555238D01*
X161194761Y-121460000D01*
X161337619Y-121412380D01*
X161432857Y-121412380D01*
X161575714Y-121460000D01*
X161623333Y-121507619D01*
X162099523Y-122412380D02*
X162290000Y-122412380D01*
X162385238Y-122364761D01*
X162432857Y-122317142D01*
X162528095Y-122174285D01*
X162575714Y-121983809D01*
X162575714Y-121602857D01*
X162528095Y-121507619D01*
X162480476Y-121460000D01*
X162385238Y-121412380D01*
X162194761Y-121412380D01*
X162099523Y-121460000D01*
X162051904Y-121507619D01*
X162004285Y-121602857D01*
X162004285Y-121840952D01*
X162051904Y-121936190D01*
X162099523Y-121983809D01*
X162194761Y-122031428D01*
X162385238Y-122031428D01*
X162480476Y-121983809D01*
X162528095Y-121936190D01*
X162575714Y-121840952D01*
X127517380Y-113823333D02*
X128231666Y-113823333D01*
X128374523Y-113870952D01*
X128469761Y-113966190D01*
X128517380Y-114109047D01*
X128517380Y-114204285D01*
X128517380Y-112823333D02*
X128517380Y-113394761D01*
X128517380Y-113109047D02*
X127517380Y-113109047D01*
X127660238Y-113204285D01*
X127755476Y-113299523D01*
X127803095Y-113394761D01*
X132468095Y-112952380D02*
X132468095Y-113761904D01*
X132515714Y-113857142D01*
X132563333Y-113904761D01*
X132658571Y-113952380D01*
X132849047Y-113952380D01*
X132944285Y-113904761D01*
X132991904Y-113857142D01*
X133039523Y-113761904D01*
X133039523Y-112952380D01*
X133468095Y-113047619D02*
X133515714Y-113000000D01*
X133610952Y-112952380D01*
X133849047Y-112952380D01*
X133944285Y-113000000D01*
X133991904Y-113047619D01*
X134039523Y-113142857D01*
X134039523Y-113238095D01*
X133991904Y-113380952D01*
X133420476Y-113952380D01*
X134039523Y-113952380D01*
X171602380Y-96311904D02*
X172411904Y-96311904D01*
X172507142Y-96264285D01*
X172554761Y-96216666D01*
X172602380Y-96121428D01*
X172602380Y-95930952D01*
X172554761Y-95835714D01*
X172507142Y-95788095D01*
X172411904Y-95740476D01*
X171602380Y-95740476D01*
X171935714Y-94835714D02*
X172602380Y-94835714D01*
X171554761Y-95073809D02*
X172269047Y-95311904D01*
X172269047Y-94692857D01*
X158498095Y-116052380D02*
X158498095Y-116861904D01*
X158545714Y-116957142D01*
X158593333Y-117004761D01*
X158688571Y-117052380D01*
X158879047Y-117052380D01*
X158974285Y-117004761D01*
X159021904Y-116957142D01*
X159069523Y-116861904D01*
X159069523Y-116052380D01*
X160021904Y-116052380D02*
X159545714Y-116052380D01*
X159498095Y-116528571D01*
X159545714Y-116480952D01*
X159640952Y-116433333D01*
X159879047Y-116433333D01*
X159974285Y-116480952D01*
X160021904Y-116528571D01*
X160069523Y-116623809D01*
X160069523Y-116861904D01*
X160021904Y-116957142D01*
X159974285Y-117004761D01*
X159879047Y-117052380D01*
X159640952Y-117052380D01*
X159545714Y-117004761D01*
X159498095Y-116957142D01*
X150887142Y-135192857D02*
X150934761Y-135240476D01*
X150982380Y-135383333D01*
X150982380Y-135478571D01*
X150934761Y-135621428D01*
X150839523Y-135716666D01*
X150744285Y-135764285D01*
X150553809Y-135811904D01*
X150410952Y-135811904D01*
X150220476Y-135764285D01*
X150125238Y-135716666D01*
X150030000Y-135621428D01*
X149982380Y-135478571D01*
X149982380Y-135383333D01*
X150030000Y-135240476D01*
X150077619Y-135192857D01*
X150982380Y-134240476D02*
X150982380Y-134811904D01*
X150982380Y-134526190D02*
X149982380Y-134526190D01*
X150125238Y-134621428D01*
X150220476Y-134716666D01*
X150268095Y-134811904D01*
X149982380Y-133907142D02*
X149982380Y-133288095D01*
X150363333Y-133621428D01*
X150363333Y-133478571D01*
X150410952Y-133383333D01*
X150458571Y-133335714D01*
X150553809Y-133288095D01*
X150791904Y-133288095D01*
X150887142Y-133335714D01*
X150934761Y-133383333D01*
X150982380Y-133478571D01*
X150982380Y-133764285D01*
X150934761Y-133859523D01*
X150887142Y-133907142D01*
X148687142Y-119412857D02*
X148734761Y-119460476D01*
X148782380Y-119603333D01*
X148782380Y-119698571D01*
X148734761Y-119841428D01*
X148639523Y-119936666D01*
X148544285Y-119984285D01*
X148353809Y-120031904D01*
X148210952Y-120031904D01*
X148020476Y-119984285D01*
X147925238Y-119936666D01*
X147830000Y-119841428D01*
X147782380Y-119698571D01*
X147782380Y-119603333D01*
X147830000Y-119460476D01*
X147877619Y-119412857D01*
X148782380Y-118460476D02*
X148782380Y-119031904D01*
X148782380Y-118746190D02*
X147782380Y-118746190D01*
X147925238Y-118841428D01*
X148020476Y-118936666D01*
X148068095Y-119031904D01*
X148115714Y-117603333D02*
X148782380Y-117603333D01*
X147734761Y-117841428D02*
X148449047Y-118079523D01*
X148449047Y-117460476D01*
M02*
