G04 #@! TF.GenerationSoftware,KiCad,Pcbnew,5.1.8-db9833491~87~ubuntu20.04.1*
G04 #@! TF.CreationDate,2020-11-25T01:05:05+01:00*
G04 #@! TF.ProjectId,otto,6f74746f-2e6b-4696-9361-645f70636258,v1.0*
G04 #@! TF.SameCoordinates,Original*
G04 #@! TF.FileFunction,Paste,Top*
G04 #@! TF.FilePolarity,Positive*
%FSLAX46Y46*%
G04 Gerber Fmt 4.6, Leading zero omitted, Abs format (unit mm)*
G04 Created by KiCad (PCBNEW 5.1.8-db9833491~87~ubuntu20.04.1) date 2020-11-25 01:05:05*
%MOMM*%
%LPD*%
G01*
G04 APERTURE LIST*
%ADD10R,1.300000X0.250000*%
%ADD11R,0.250000X1.300000*%
%ADD12R,2.000000X3.800000*%
%ADD13R,2.000000X1.500000*%
%ADD14R,1.450000X0.300000*%
%ADD15R,1.450000X0.600000*%
%ADD16R,1.060000X0.650000*%
%ADD17R,1.500000X1.500000*%
G04 APERTURE END LIST*
G36*
G01*
X171740000Y-129175000D02*
X172240000Y-129175000D01*
G75*
G02*
X172465000Y-129400000I0J-225000D01*
G01*
X172465000Y-129850000D01*
G75*
G02*
X172240000Y-130075000I-225000J0D01*
G01*
X171740000Y-130075000D01*
G75*
G02*
X171515000Y-129850000I0J225000D01*
G01*
X171515000Y-129400000D01*
G75*
G02*
X171740000Y-129175000I225000J0D01*
G01*
G37*
G36*
G01*
X171740000Y-127625000D02*
X172240000Y-127625000D01*
G75*
G02*
X172465000Y-127850000I0J-225000D01*
G01*
X172465000Y-128300000D01*
G75*
G02*
X172240000Y-128525000I-225000J0D01*
G01*
X171740000Y-128525000D01*
G75*
G02*
X171515000Y-128300000I0J225000D01*
G01*
X171515000Y-127850000D01*
G75*
G02*
X171740000Y-127625000I225000J0D01*
G01*
G37*
G36*
G01*
X160425000Y-123443750D02*
X160425000Y-123956250D01*
G75*
G02*
X160206250Y-124175000I-218750J0D01*
G01*
X159768750Y-124175000D01*
G75*
G02*
X159550000Y-123956250I0J218750D01*
G01*
X159550000Y-123443750D01*
G75*
G02*
X159768750Y-123225000I218750J0D01*
G01*
X160206250Y-123225000D01*
G75*
G02*
X160425000Y-123443750I0J-218750D01*
G01*
G37*
G36*
G01*
X158850000Y-123443750D02*
X158850000Y-123956250D01*
G75*
G02*
X158631250Y-124175000I-218750J0D01*
G01*
X158193750Y-124175000D01*
G75*
G02*
X157975000Y-123956250I0J218750D01*
G01*
X157975000Y-123443750D01*
G75*
G02*
X158193750Y-123225000I218750J0D01*
G01*
X158631250Y-123225000D01*
G75*
G02*
X158850000Y-123443750I0J-218750D01*
G01*
G37*
D10*
X145350000Y-116250000D03*
X145350000Y-115750000D03*
X145350000Y-115250000D03*
X145350000Y-114750000D03*
X145350000Y-114250000D03*
X145350000Y-113750000D03*
X145350000Y-113250000D03*
X145350000Y-112750000D03*
X145350000Y-112250000D03*
X145350000Y-111750000D03*
X145350000Y-111250000D03*
X145350000Y-110750000D03*
D11*
X143750000Y-109150000D03*
X143250000Y-109150000D03*
X142750000Y-109150000D03*
X142250000Y-109150000D03*
X141750000Y-109150000D03*
X141250000Y-109150000D03*
X140750000Y-109150000D03*
X140250000Y-109150000D03*
X139750000Y-109150000D03*
X139250000Y-109150000D03*
X138750000Y-109150000D03*
X138250000Y-109150000D03*
D10*
X136650000Y-110750000D03*
X136650000Y-111250000D03*
X136650000Y-111750000D03*
X136650000Y-112250000D03*
X136650000Y-112750000D03*
X136650000Y-113250000D03*
X136650000Y-113750000D03*
X136650000Y-114250000D03*
X136650000Y-114750000D03*
X136650000Y-115250000D03*
X136650000Y-115750000D03*
X136650000Y-116250000D03*
D11*
X138250000Y-117850000D03*
X138750000Y-117850000D03*
X139250000Y-117850000D03*
X139750000Y-117850000D03*
X140250000Y-117850000D03*
X140750000Y-117850000D03*
X141250000Y-117850000D03*
X141750000Y-117850000D03*
X142250000Y-117850000D03*
X142750000Y-117850000D03*
X143250000Y-117850000D03*
X143750000Y-117850000D03*
G36*
G01*
X131275000Y-110643750D02*
X131275000Y-111156250D01*
G75*
G02*
X131056250Y-111375000I-218750J0D01*
G01*
X130618750Y-111375000D01*
G75*
G02*
X130400000Y-111156250I0J218750D01*
G01*
X130400000Y-110643750D01*
G75*
G02*
X130618750Y-110425000I218750J0D01*
G01*
X131056250Y-110425000D01*
G75*
G02*
X131275000Y-110643750I0J-218750D01*
G01*
G37*
G36*
G01*
X129700000Y-110643750D02*
X129700000Y-111156250D01*
G75*
G02*
X129481250Y-111375000I-218750J0D01*
G01*
X129043750Y-111375000D01*
G75*
G02*
X128825000Y-111156250I0J218750D01*
G01*
X128825000Y-110643750D01*
G75*
G02*
X129043750Y-110425000I218750J0D01*
G01*
X129481250Y-110425000D01*
G75*
G02*
X129700000Y-110643750I0J-218750D01*
G01*
G37*
G36*
G01*
X135370000Y-117153750D02*
X135370000Y-117666250D01*
G75*
G02*
X135151250Y-117885000I-218750J0D01*
G01*
X134713750Y-117885000D01*
G75*
G02*
X134495000Y-117666250I0J218750D01*
G01*
X134495000Y-117153750D01*
G75*
G02*
X134713750Y-116935000I218750J0D01*
G01*
X135151250Y-116935000D01*
G75*
G02*
X135370000Y-117153750I0J-218750D01*
G01*
G37*
G36*
G01*
X136945000Y-117153750D02*
X136945000Y-117666250D01*
G75*
G02*
X136726250Y-117885000I-218750J0D01*
G01*
X136288750Y-117885000D01*
G75*
G02*
X136070000Y-117666250I0J218750D01*
G01*
X136070000Y-117153750D01*
G75*
G02*
X136288750Y-116935000I218750J0D01*
G01*
X136726250Y-116935000D01*
G75*
G02*
X136945000Y-117153750I0J-218750D01*
G01*
G37*
G36*
G01*
X144653750Y-117545000D02*
X145166250Y-117545000D01*
G75*
G02*
X145385000Y-117763750I0J-218750D01*
G01*
X145385000Y-118201250D01*
G75*
G02*
X145166250Y-118420000I-218750J0D01*
G01*
X144653750Y-118420000D01*
G75*
G02*
X144435000Y-118201250I0J218750D01*
G01*
X144435000Y-117763750D01*
G75*
G02*
X144653750Y-117545000I218750J0D01*
G01*
G37*
G36*
G01*
X144653750Y-119120000D02*
X145166250Y-119120000D01*
G75*
G02*
X145385000Y-119338750I0J-218750D01*
G01*
X145385000Y-119776250D01*
G75*
G02*
X145166250Y-119995000I-218750J0D01*
G01*
X144653750Y-119995000D01*
G75*
G02*
X144435000Y-119776250I0J218750D01*
G01*
X144435000Y-119338750D01*
G75*
G02*
X144653750Y-119120000I218750J0D01*
G01*
G37*
G36*
G01*
X137336250Y-107870000D02*
X136823750Y-107870000D01*
G75*
G02*
X136605000Y-107651250I0J218750D01*
G01*
X136605000Y-107213750D01*
G75*
G02*
X136823750Y-106995000I218750J0D01*
G01*
X137336250Y-106995000D01*
G75*
G02*
X137555000Y-107213750I0J-218750D01*
G01*
X137555000Y-107651250D01*
G75*
G02*
X137336250Y-107870000I-218750J0D01*
G01*
G37*
G36*
G01*
X137336250Y-109445000D02*
X136823750Y-109445000D01*
G75*
G02*
X136605000Y-109226250I0J218750D01*
G01*
X136605000Y-108788750D01*
G75*
G02*
X136823750Y-108570000I218750J0D01*
G01*
X137336250Y-108570000D01*
G75*
G02*
X137555000Y-108788750I0J-218750D01*
G01*
X137555000Y-109226250D01*
G75*
G02*
X137336250Y-109445000I-218750J0D01*
G01*
G37*
G36*
G01*
X146545000Y-112496250D02*
X146545000Y-111983750D01*
G75*
G02*
X146763750Y-111765000I218750J0D01*
G01*
X147201250Y-111765000D01*
G75*
G02*
X147420000Y-111983750I0J-218750D01*
G01*
X147420000Y-112496250D01*
G75*
G02*
X147201250Y-112715000I-218750J0D01*
G01*
X146763750Y-112715000D01*
G75*
G02*
X146545000Y-112496250I0J218750D01*
G01*
G37*
G36*
G01*
X148120000Y-112496250D02*
X148120000Y-111983750D01*
G75*
G02*
X148338750Y-111765000I218750J0D01*
G01*
X148776250Y-111765000D01*
G75*
G02*
X148995000Y-111983750I0J-218750D01*
G01*
X148995000Y-112496250D01*
G75*
G02*
X148776250Y-112715000I-218750J0D01*
G01*
X148338750Y-112715000D01*
G75*
G02*
X148120000Y-112496250I0J218750D01*
G01*
G37*
G36*
G01*
X146545000Y-114006250D02*
X146545000Y-113493750D01*
G75*
G02*
X146763750Y-113275000I218750J0D01*
G01*
X147201250Y-113275000D01*
G75*
G02*
X147420000Y-113493750I0J-218750D01*
G01*
X147420000Y-114006250D01*
G75*
G02*
X147201250Y-114225000I-218750J0D01*
G01*
X146763750Y-114225000D01*
G75*
G02*
X146545000Y-114006250I0J218750D01*
G01*
G37*
G36*
G01*
X148120000Y-114006250D02*
X148120000Y-113493750D01*
G75*
G02*
X148338750Y-113275000I218750J0D01*
G01*
X148776250Y-113275000D01*
G75*
G02*
X148995000Y-113493750I0J-218750D01*
G01*
X148995000Y-114006250D01*
G75*
G02*
X148776250Y-114225000I-218750J0D01*
G01*
X148338750Y-114225000D01*
G75*
G02*
X148120000Y-114006250I0J218750D01*
G01*
G37*
G36*
G01*
X129700000Y-115843750D02*
X129700000Y-116356250D01*
G75*
G02*
X129481250Y-116575000I-218750J0D01*
G01*
X129043750Y-116575000D01*
G75*
G02*
X128825000Y-116356250I0J218750D01*
G01*
X128825000Y-115843750D01*
G75*
G02*
X129043750Y-115625000I218750J0D01*
G01*
X129481250Y-115625000D01*
G75*
G02*
X129700000Y-115843750I0J-218750D01*
G01*
G37*
G36*
G01*
X131275000Y-115843750D02*
X131275000Y-116356250D01*
G75*
G02*
X131056250Y-116575000I-218750J0D01*
G01*
X130618750Y-116575000D01*
G75*
G02*
X130400000Y-116356250I0J218750D01*
G01*
X130400000Y-115843750D01*
G75*
G02*
X130618750Y-115625000I218750J0D01*
G01*
X131056250Y-115625000D01*
G75*
G02*
X131275000Y-115843750I0J-218750D01*
G01*
G37*
G36*
G01*
X141983750Y-119475000D02*
X142496250Y-119475000D01*
G75*
G02*
X142715000Y-119693750I0J-218750D01*
G01*
X142715000Y-120131250D01*
G75*
G02*
X142496250Y-120350000I-218750J0D01*
G01*
X141983750Y-120350000D01*
G75*
G02*
X141765000Y-120131250I0J218750D01*
G01*
X141765000Y-119693750D01*
G75*
G02*
X141983750Y-119475000I218750J0D01*
G01*
G37*
G36*
G01*
X141983750Y-121050000D02*
X142496250Y-121050000D01*
G75*
G02*
X142715000Y-121268750I0J-218750D01*
G01*
X142715000Y-121706250D01*
G75*
G02*
X142496250Y-121925000I-218750J0D01*
G01*
X141983750Y-121925000D01*
G75*
G02*
X141765000Y-121706250I0J218750D01*
G01*
X141765000Y-121268750D01*
G75*
G02*
X141983750Y-121050000I218750J0D01*
G01*
G37*
G36*
G01*
X122366250Y-104945000D02*
X121853750Y-104945000D01*
G75*
G02*
X121635000Y-104726250I0J218750D01*
G01*
X121635000Y-104288750D01*
G75*
G02*
X121853750Y-104070000I218750J0D01*
G01*
X122366250Y-104070000D01*
G75*
G02*
X122585000Y-104288750I0J-218750D01*
G01*
X122585000Y-104726250D01*
G75*
G02*
X122366250Y-104945000I-218750J0D01*
G01*
G37*
G36*
G01*
X122366250Y-103370000D02*
X121853750Y-103370000D01*
G75*
G02*
X121635000Y-103151250I0J218750D01*
G01*
X121635000Y-102713750D01*
G75*
G02*
X121853750Y-102495000I218750J0D01*
G01*
X122366250Y-102495000D01*
G75*
G02*
X122585000Y-102713750I0J-218750D01*
G01*
X122585000Y-103151250D01*
G75*
G02*
X122366250Y-103370000I-218750J0D01*
G01*
G37*
G36*
G01*
X123866250Y-103370000D02*
X123353750Y-103370000D01*
G75*
G02*
X123135000Y-103151250I0J218750D01*
G01*
X123135000Y-102713750D01*
G75*
G02*
X123353750Y-102495000I218750J0D01*
G01*
X123866250Y-102495000D01*
G75*
G02*
X124085000Y-102713750I0J-218750D01*
G01*
X124085000Y-103151250D01*
G75*
G02*
X123866250Y-103370000I-218750J0D01*
G01*
G37*
G36*
G01*
X123866250Y-104945000D02*
X123353750Y-104945000D01*
G75*
G02*
X123135000Y-104726250I0J218750D01*
G01*
X123135000Y-104288750D01*
G75*
G02*
X123353750Y-104070000I218750J0D01*
G01*
X123866250Y-104070000D01*
G75*
G02*
X124085000Y-104288750I0J-218750D01*
G01*
X124085000Y-104726250D01*
G75*
G02*
X123866250Y-104945000I-218750J0D01*
G01*
G37*
G36*
G01*
X125366250Y-104945000D02*
X124853750Y-104945000D01*
G75*
G02*
X124635000Y-104726250I0J218750D01*
G01*
X124635000Y-104288750D01*
G75*
G02*
X124853750Y-104070000I218750J0D01*
G01*
X125366250Y-104070000D01*
G75*
G02*
X125585000Y-104288750I0J-218750D01*
G01*
X125585000Y-104726250D01*
G75*
G02*
X125366250Y-104945000I-218750J0D01*
G01*
G37*
G36*
G01*
X125366250Y-103370000D02*
X124853750Y-103370000D01*
G75*
G02*
X124635000Y-103151250I0J218750D01*
G01*
X124635000Y-102713750D01*
G75*
G02*
X124853750Y-102495000I218750J0D01*
G01*
X125366250Y-102495000D01*
G75*
G02*
X125585000Y-102713750I0J-218750D01*
G01*
X125585000Y-103151250D01*
G75*
G02*
X125366250Y-103370000I-218750J0D01*
G01*
G37*
G36*
G01*
X158850000Y-126443750D02*
X158850000Y-126956250D01*
G75*
G02*
X158631250Y-127175000I-218750J0D01*
G01*
X158193750Y-127175000D01*
G75*
G02*
X157975000Y-126956250I0J218750D01*
G01*
X157975000Y-126443750D01*
G75*
G02*
X158193750Y-126225000I218750J0D01*
G01*
X158631250Y-126225000D01*
G75*
G02*
X158850000Y-126443750I0J-218750D01*
G01*
G37*
G36*
G01*
X160425000Y-126443750D02*
X160425000Y-126956250D01*
G75*
G02*
X160206250Y-127175000I-218750J0D01*
G01*
X159768750Y-127175000D01*
G75*
G02*
X159550000Y-126956250I0J218750D01*
G01*
X159550000Y-126443750D01*
G75*
G02*
X159768750Y-126225000I218750J0D01*
G01*
X160206250Y-126225000D01*
G75*
G02*
X160425000Y-126443750I0J-218750D01*
G01*
G37*
G36*
G01*
X157975000Y-125456250D02*
X157975000Y-124943750D01*
G75*
G02*
X158193750Y-124725000I218750J0D01*
G01*
X158631250Y-124725000D01*
G75*
G02*
X158850000Y-124943750I0J-218750D01*
G01*
X158850000Y-125456250D01*
G75*
G02*
X158631250Y-125675000I-218750J0D01*
G01*
X158193750Y-125675000D01*
G75*
G02*
X157975000Y-125456250I0J218750D01*
G01*
G37*
G36*
G01*
X159550000Y-125456250D02*
X159550000Y-124943750D01*
G75*
G02*
X159768750Y-124725000I218750J0D01*
G01*
X160206250Y-124725000D01*
G75*
G02*
X160425000Y-124943750I0J-218750D01*
G01*
X160425000Y-125456250D01*
G75*
G02*
X160206250Y-125675000I-218750J0D01*
G01*
X159768750Y-125675000D01*
G75*
G02*
X159550000Y-125456250I0J218750D01*
G01*
G37*
G36*
G01*
X156625001Y-121300000D02*
X154774999Y-121300000D01*
G75*
G02*
X154525000Y-121050001I0J249999D01*
G01*
X154525000Y-120224999D01*
G75*
G02*
X154774999Y-119975000I249999J0D01*
G01*
X156625001Y-119975000D01*
G75*
G02*
X156875000Y-120224999I0J-249999D01*
G01*
X156875000Y-121050001D01*
G75*
G02*
X156625001Y-121300000I-249999J0D01*
G01*
G37*
G36*
G01*
X156625001Y-118225000D02*
X154774999Y-118225000D01*
G75*
G02*
X154525000Y-117975001I0J249999D01*
G01*
X154525000Y-117149999D01*
G75*
G02*
X154774999Y-116900000I249999J0D01*
G01*
X156625001Y-116900000D01*
G75*
G02*
X156875000Y-117149999I0J-249999D01*
G01*
X156875000Y-117975001D01*
G75*
G02*
X156625001Y-118225000I-249999J0D01*
G01*
G37*
D12*
X162120000Y-131100000D03*
D13*
X155820000Y-131100000D03*
X155820000Y-133400000D03*
X155820000Y-128800000D03*
G36*
G01*
X151974999Y-131975000D02*
X153825001Y-131975000D01*
G75*
G02*
X154075000Y-132224999I0J-249999D01*
G01*
X154075000Y-133050001D01*
G75*
G02*
X153825001Y-133300000I-249999J0D01*
G01*
X151974999Y-133300000D01*
G75*
G02*
X151725000Y-133050001I0J249999D01*
G01*
X151725000Y-132224999D01*
G75*
G02*
X151974999Y-131975000I249999J0D01*
G01*
G37*
G36*
G01*
X151974999Y-128900000D02*
X153825001Y-128900000D01*
G75*
G02*
X154075000Y-129149999I0J-249999D01*
G01*
X154075000Y-129975001D01*
G75*
G02*
X153825001Y-130225000I-249999J0D01*
G01*
X151974999Y-130225000D01*
G75*
G02*
X151725000Y-129975001I0J249999D01*
G01*
X151725000Y-129149999D01*
G75*
G02*
X151974999Y-128900000I249999J0D01*
G01*
G37*
G36*
G01*
X164124999Y-128900000D02*
X165975001Y-128900000D01*
G75*
G02*
X166225000Y-129149999I0J-249999D01*
G01*
X166225000Y-129975001D01*
G75*
G02*
X165975001Y-130225000I-249999J0D01*
G01*
X164124999Y-130225000D01*
G75*
G02*
X163875000Y-129975001I0J249999D01*
G01*
X163875000Y-129149999D01*
G75*
G02*
X164124999Y-128900000I249999J0D01*
G01*
G37*
G36*
G01*
X164124999Y-131975000D02*
X165975001Y-131975000D01*
G75*
G02*
X166225000Y-132224999I0J-249999D01*
G01*
X166225000Y-133050001D01*
G75*
G02*
X165975001Y-133300000I-249999J0D01*
G01*
X164124999Y-133300000D01*
G75*
G02*
X163875000Y-133050001I0J249999D01*
G01*
X163875000Y-132224999D01*
G75*
G02*
X164124999Y-131975000I249999J0D01*
G01*
G37*
G36*
G01*
X169823750Y-127425000D02*
X170736250Y-127425000D01*
G75*
G02*
X170980000Y-127668750I0J-243750D01*
G01*
X170980000Y-128156250D01*
G75*
G02*
X170736250Y-128400000I-243750J0D01*
G01*
X169823750Y-128400000D01*
G75*
G02*
X169580000Y-128156250I0J243750D01*
G01*
X169580000Y-127668750D01*
G75*
G02*
X169823750Y-127425000I243750J0D01*
G01*
G37*
G36*
G01*
X169823750Y-129300000D02*
X170736250Y-129300000D01*
G75*
G02*
X170980000Y-129543750I0J-243750D01*
G01*
X170980000Y-130031250D01*
G75*
G02*
X170736250Y-130275000I-243750J0D01*
G01*
X169823750Y-130275000D01*
G75*
G02*
X169580000Y-130031250I0J243750D01*
G01*
X169580000Y-129543750D01*
G75*
G02*
X169823750Y-129300000I243750J0D01*
G01*
G37*
G36*
G01*
X162756250Y-120525000D02*
X161843750Y-120525000D01*
G75*
G02*
X161600000Y-120281250I0J243750D01*
G01*
X161600000Y-119793750D01*
G75*
G02*
X161843750Y-119550000I243750J0D01*
G01*
X162756250Y-119550000D01*
G75*
G02*
X163000000Y-119793750I0J-243750D01*
G01*
X163000000Y-120281250D01*
G75*
G02*
X162756250Y-120525000I-243750J0D01*
G01*
G37*
G36*
G01*
X162756250Y-118650000D02*
X161843750Y-118650000D01*
G75*
G02*
X161600000Y-118406250I0J243750D01*
G01*
X161600000Y-117918750D01*
G75*
G02*
X161843750Y-117675000I243750J0D01*
G01*
X162756250Y-117675000D01*
G75*
G02*
X163000000Y-117918750I0J-243750D01*
G01*
X163000000Y-118406250D01*
G75*
G02*
X162756250Y-118650000I-243750J0D01*
G01*
G37*
G36*
G01*
X160650000Y-121485000D02*
X160650000Y-122435000D01*
G75*
G02*
X160400000Y-122685000I-250000J0D01*
G01*
X159900000Y-122685000D01*
G75*
G02*
X159650000Y-122435000I0J250000D01*
G01*
X159650000Y-121485000D01*
G75*
G02*
X159900000Y-121235000I250000J0D01*
G01*
X160400000Y-121235000D01*
G75*
G02*
X160650000Y-121485000I0J-250000D01*
G01*
G37*
G36*
G01*
X158750000Y-121485000D02*
X158750000Y-122435000D01*
G75*
G02*
X158500000Y-122685000I-250000J0D01*
G01*
X158000000Y-122685000D01*
G75*
G02*
X157750000Y-122435000I0J250000D01*
G01*
X157750000Y-121485000D01*
G75*
G02*
X158000000Y-121235000I250000J0D01*
G01*
X158500000Y-121235000D01*
G75*
G02*
X158750000Y-121485000I0J-250000D01*
G01*
G37*
D14*
X126465000Y-113240000D03*
X126465000Y-115240000D03*
X126465000Y-114740000D03*
X126465000Y-114240000D03*
X126465000Y-113740000D03*
X126465000Y-112740000D03*
X126465000Y-112240000D03*
X126465000Y-111740000D03*
D15*
X126465000Y-116740000D03*
X126465000Y-115940000D03*
X126465000Y-111040000D03*
X126465000Y-110240000D03*
X126465000Y-110240000D03*
X126465000Y-111040000D03*
X126465000Y-115940000D03*
X126465000Y-116740000D03*
D16*
X131560000Y-114450000D03*
X131560000Y-113500000D03*
X131560000Y-112550000D03*
X129360000Y-112550000D03*
X129360000Y-114450000D03*
X129360000Y-113500000D03*
D17*
X196250000Y-119980000D03*
X196250000Y-122520000D03*
X196250000Y-125060000D03*
X196250000Y-127600000D03*
X196250000Y-130140000D03*
X173750000Y-130140000D03*
X173750000Y-127600000D03*
X173750000Y-125060000D03*
X173750000Y-122520000D03*
X173750000Y-119980000D03*
X173750000Y-117440000D03*
X173750000Y-114900000D03*
X173750000Y-112360000D03*
X173750000Y-104760000D03*
X173750000Y-102220000D03*
X173750000Y-99680000D03*
X196250000Y-117440000D03*
X196250000Y-114900000D03*
X196250000Y-112360000D03*
X196250000Y-104790000D03*
X196250000Y-102250000D03*
X196250000Y-99710000D03*
D16*
X160350000Y-120050000D03*
X160350000Y-119100000D03*
X160350000Y-118150000D03*
X158150000Y-118150000D03*
X158150000Y-120050000D03*
G36*
G01*
X150740000Y-132325000D02*
X150240000Y-132325000D01*
G75*
G02*
X150015000Y-132100000I0J225000D01*
G01*
X150015000Y-131650000D01*
G75*
G02*
X150240000Y-131425000I225000J0D01*
G01*
X150740000Y-131425000D01*
G75*
G02*
X150965000Y-131650000I0J-225000D01*
G01*
X150965000Y-132100000D01*
G75*
G02*
X150740000Y-132325000I-225000J0D01*
G01*
G37*
G36*
G01*
X150740000Y-130775000D02*
X150240000Y-130775000D01*
G75*
G02*
X150015000Y-130550000I0J225000D01*
G01*
X150015000Y-130100000D01*
G75*
G02*
X150240000Y-129875000I225000J0D01*
G01*
X150740000Y-129875000D01*
G75*
G02*
X150965000Y-130100000I0J-225000D01*
G01*
X150965000Y-130550000D01*
G75*
G02*
X150740000Y-130775000I-225000J0D01*
G01*
G37*
G36*
G01*
X146175000Y-117320000D02*
X147125000Y-117320000D01*
G75*
G02*
X147375000Y-117570000I0J-250000D01*
G01*
X147375000Y-118070000D01*
G75*
G02*
X147125000Y-118320000I-250000J0D01*
G01*
X146175000Y-118320000D01*
G75*
G02*
X145925000Y-118070000I0J250000D01*
G01*
X145925000Y-117570000D01*
G75*
G02*
X146175000Y-117320000I250000J0D01*
G01*
G37*
G36*
G01*
X146175000Y-119220000D02*
X147125000Y-119220000D01*
G75*
G02*
X147375000Y-119470000I0J-250000D01*
G01*
X147375000Y-119970000D01*
G75*
G02*
X147125000Y-120220000I-250000J0D01*
G01*
X146175000Y-120220000D01*
G75*
G02*
X145925000Y-119970000I0J250000D01*
G01*
X145925000Y-119470000D01*
G75*
G02*
X146175000Y-119220000I250000J0D01*
G01*
G37*
M02*
