G04 #@! TF.GenerationSoftware,KiCad,Pcbnew,5.1.8-db9833491~87~ubuntu20.04.1*
G04 #@! TF.CreationDate,2020-11-25T01:05:05+01:00*
G04 #@! TF.ProjectId,otto,6f74746f-2e6b-4696-9361-645f70636258,v1.0*
G04 #@! TF.SameCoordinates,Original*
G04 #@! TF.FileFunction,Copper,L2,Bot*
G04 #@! TF.FilePolarity,Positive*
%FSLAX46Y46*%
G04 Gerber Fmt 4.6, Leading zero omitted, Abs format (unit mm)*
G04 Created by KiCad (PCBNEW 5.1.8-db9833491~87~ubuntu20.04.1) date 2020-11-25 01:05:05*
%MOMM*%
%LPD*%
G01*
G04 APERTURE LIST*
G04 #@! TA.AperFunction,ComponentPad*
%ADD10O,1.800000X1.070000*%
G04 #@! TD*
G04 #@! TA.AperFunction,ComponentPad*
%ADD11R,1.800000X1.070000*%
G04 #@! TD*
G04 #@! TA.AperFunction,ComponentPad*
%ADD12R,1.700000X1.700000*%
G04 #@! TD*
G04 #@! TA.AperFunction,ComponentPad*
%ADD13O,1.700000X1.700000*%
G04 #@! TD*
G04 #@! TA.AperFunction,ComponentPad*
%ADD14R,3.500000X3.500000*%
G04 #@! TD*
G04 #@! TA.AperFunction,ComponentPad*
%ADD15O,1.600000X1.000000*%
G04 #@! TD*
G04 #@! TA.AperFunction,ComponentPad*
%ADD16O,2.100000X1.000000*%
G04 #@! TD*
G04 #@! TA.AperFunction,ViaPad*
%ADD17C,0.800000*%
G04 #@! TD*
G04 #@! TA.AperFunction,ViaPad*
%ADD18C,0.600000*%
G04 #@! TD*
G04 #@! TA.AperFunction,Conductor*
%ADD19C,0.500000*%
G04 #@! TD*
G04 #@! TA.AperFunction,Conductor*
%ADD20C,0.250000*%
G04 #@! TD*
G04 #@! TA.AperFunction,Conductor*
%ADD21C,0.254000*%
G04 #@! TD*
G04 #@! TA.AperFunction,Conductor*
%ADD22C,0.100000*%
G04 #@! TD*
G04 APERTURE END LIST*
D10*
X127000000Y-100810000D03*
X127000000Y-99540000D03*
X127000000Y-98270000D03*
D11*
X127000000Y-97000000D03*
D12*
X145500000Y-129225000D03*
D13*
X142960000Y-129225000D03*
X145500000Y-126685000D03*
X142960000Y-126685000D03*
X145500000Y-124145000D03*
X142960000Y-124145000D03*
D14*
X132000000Y-128000000D03*
G04 #@! TA.AperFunction,ComponentPad*
G36*
G01*
X124500000Y-129000000D02*
X124500000Y-127000000D01*
G75*
G02*
X125250000Y-126250000I750000J0D01*
G01*
X126750000Y-126250000D01*
G75*
G02*
X127500000Y-127000000I0J-750000D01*
G01*
X127500000Y-129000000D01*
G75*
G02*
X126750000Y-129750000I-750000J0D01*
G01*
X125250000Y-129750000D01*
G75*
G02*
X124500000Y-129000000I0J750000D01*
G01*
G37*
G04 #@! TD.AperFunction*
G04 #@! TA.AperFunction,ComponentPad*
G36*
G01*
X127250000Y-133575000D02*
X127250000Y-131825000D01*
G75*
G02*
X128125000Y-130950000I875000J0D01*
G01*
X129875000Y-130950000D01*
G75*
G02*
X130750000Y-131825000I0J-875000D01*
G01*
X130750000Y-133575000D01*
G75*
G02*
X129875000Y-134450000I-875000J0D01*
G01*
X128125000Y-134450000D01*
G75*
G02*
X127250000Y-133575000I0J875000D01*
G01*
G37*
G04 #@! TD.AperFunction*
D15*
X121370000Y-117810000D03*
X121370000Y-109170000D03*
D16*
X125550000Y-109170000D03*
X125550000Y-117810000D03*
D17*
X171990000Y-130670000D03*
D18*
X130530002Y-113500000D03*
X144050006Y-112750000D03*
D17*
X138160000Y-107439998D03*
X144910000Y-120590000D03*
X134930000Y-116330000D03*
X149600001Y-112230000D03*
X161100000Y-125200000D03*
X155700000Y-116300000D03*
X131880000Y-116100000D03*
X131879998Y-110900000D03*
X170280000Y-130880000D03*
X149590000Y-113750002D03*
X143310000Y-121490000D03*
X165000000Y-133970000D03*
X152899986Y-128290000D03*
X127788313Y-116799927D03*
X127788890Y-110200066D03*
X150490000Y-129270000D03*
X157150000Y-121960000D03*
X161340000Y-119100004D03*
X172400000Y-114900000D03*
X172400000Y-112360000D03*
X172400000Y-104760000D03*
X172400000Y-102220000D03*
X172400000Y-99680000D03*
X197600000Y-99710000D03*
X197600000Y-104790000D03*
X197600000Y-130140000D03*
X146660000Y-120820000D03*
X162339996Y-117070000D03*
D18*
X127800000Y-111100000D03*
X127800000Y-115900000D03*
X128300000Y-113500000D03*
D17*
X197600000Y-114900000D03*
X165060000Y-107340000D03*
X197600000Y-119970000D03*
X168590000Y-109320000D03*
X197600000Y-117440000D03*
X170450000Y-108594990D03*
X197600000Y-122520000D03*
X166410000Y-109890000D03*
X197600024Y-112360024D03*
X170890000Y-106450000D03*
X197600000Y-127600000D03*
X171310000Y-123170000D03*
X197600000Y-125060000D03*
X166764303Y-111320000D03*
D19*
X127800000Y-115900000D02*
X128300000Y-115400000D01*
X128300000Y-113075736D02*
X128300000Y-113500000D01*
X128300000Y-111600000D02*
X128300000Y-113075736D01*
X128300000Y-115400000D02*
X128300000Y-113924264D01*
X128300000Y-113924264D02*
X128300000Y-113500000D01*
X127800000Y-111100000D02*
X128300000Y-111600000D01*
D20*
X190040000Y-107340000D02*
X197600000Y-114900000D01*
X165060000Y-107340000D02*
X190040000Y-107340000D01*
X186950000Y-109320000D02*
X197600000Y-119970000D01*
X168590000Y-109320000D02*
X186950000Y-109320000D01*
X188754990Y-108594990D02*
X170450000Y-108594990D01*
X197600000Y-117440000D02*
X188754990Y-108594990D01*
X185369999Y-110289999D02*
X197600000Y-122520000D01*
X166809999Y-110289999D02*
X185369999Y-110289999D01*
X166410000Y-109890000D02*
X166809999Y-110289999D01*
X191690000Y-106450000D02*
X197600024Y-112360024D01*
X170890000Y-106450000D02*
X191690000Y-106450000D01*
X175740000Y-127600000D02*
X197600000Y-127600000D01*
X171310000Y-123170000D02*
X175740000Y-127600000D01*
X197600000Y-125060000D02*
X183860000Y-111320000D01*
X183860000Y-111320000D02*
X166764303Y-111320000D01*
D21*
X199315001Y-136315000D02*
X120685000Y-136315000D01*
X120685000Y-134450000D01*
X126611928Y-134450000D01*
X126624188Y-134574482D01*
X126660498Y-134694180D01*
X126719463Y-134804494D01*
X126798815Y-134901185D01*
X126895506Y-134980537D01*
X127005820Y-135039502D01*
X127125518Y-135075812D01*
X127250000Y-135088072D01*
X128714250Y-135085000D01*
X128873000Y-134926250D01*
X128873000Y-132827000D01*
X129127000Y-132827000D01*
X129127000Y-134926250D01*
X129285750Y-135085000D01*
X130750000Y-135088072D01*
X130874482Y-135075812D01*
X130994180Y-135039502D01*
X131104494Y-134980537D01*
X131201185Y-134901185D01*
X131280537Y-134804494D01*
X131339502Y-134694180D01*
X131375812Y-134574482D01*
X131388072Y-134450000D01*
X131385000Y-132985750D01*
X131226250Y-132827000D01*
X129127000Y-132827000D01*
X128873000Y-132827000D01*
X126773750Y-132827000D01*
X126615000Y-132985750D01*
X126611928Y-134450000D01*
X120685000Y-134450000D01*
X120685000Y-129750000D01*
X123861928Y-129750000D01*
X123874188Y-129874482D01*
X123910498Y-129994180D01*
X123969463Y-130104494D01*
X124048815Y-130201185D01*
X124145506Y-130280537D01*
X124255820Y-130339502D01*
X124375518Y-130375812D01*
X124500000Y-130388072D01*
X125714250Y-130385000D01*
X125873000Y-130226250D01*
X125873000Y-128127000D01*
X126127000Y-128127000D01*
X126127000Y-130226250D01*
X126285750Y-130385000D01*
X126956805Y-130386698D01*
X126895506Y-130419463D01*
X126798815Y-130498815D01*
X126719463Y-130595506D01*
X126660498Y-130705820D01*
X126624188Y-130825518D01*
X126611928Y-130950000D01*
X126615000Y-132414250D01*
X126773750Y-132573000D01*
X128873000Y-132573000D01*
X128873000Y-130473750D01*
X129127000Y-130473750D01*
X129127000Y-132573000D01*
X131226250Y-132573000D01*
X131385000Y-132414250D01*
X131388072Y-130950000D01*
X131375812Y-130825518D01*
X131339502Y-130705820D01*
X131280537Y-130595506D01*
X131201185Y-130498815D01*
X131104494Y-130419463D01*
X131045767Y-130388072D01*
X133750000Y-130388072D01*
X133874482Y-130375812D01*
X133994180Y-130339502D01*
X134104494Y-130280537D01*
X134201185Y-130201185D01*
X134280537Y-130104494D01*
X134339502Y-129994180D01*
X134375812Y-129874482D01*
X134388072Y-129750000D01*
X134388072Y-129581890D01*
X141518524Y-129581890D01*
X141563175Y-129729099D01*
X141688359Y-129991920D01*
X141862412Y-130225269D01*
X142078645Y-130420178D01*
X142328748Y-130569157D01*
X142603109Y-130666481D01*
X142833000Y-130545814D01*
X142833000Y-129352000D01*
X143087000Y-129352000D01*
X143087000Y-130545814D01*
X143316891Y-130666481D01*
X143591252Y-130569157D01*
X143841355Y-130420178D01*
X144037502Y-130243374D01*
X144060498Y-130319180D01*
X144119463Y-130429494D01*
X144198815Y-130526185D01*
X144295506Y-130605537D01*
X144405820Y-130664502D01*
X144525518Y-130700812D01*
X144650000Y-130713072D01*
X145214250Y-130710000D01*
X145373000Y-130551250D01*
X145373000Y-129352000D01*
X145627000Y-129352000D01*
X145627000Y-130551250D01*
X145785750Y-130710000D01*
X146350000Y-130713072D01*
X146474482Y-130700812D01*
X146594180Y-130664502D01*
X146704494Y-130605537D01*
X146801185Y-130526185D01*
X146880537Y-130429494D01*
X146939502Y-130319180D01*
X146975812Y-130199482D01*
X146988072Y-130075000D01*
X146985000Y-129510750D01*
X146826250Y-129352000D01*
X145627000Y-129352000D01*
X145373000Y-129352000D01*
X143087000Y-129352000D01*
X142833000Y-129352000D01*
X141639845Y-129352000D01*
X141518524Y-129581890D01*
X134388072Y-129581890D01*
X134388072Y-126250000D01*
X134375812Y-126125518D01*
X134339502Y-126005820D01*
X134280537Y-125895506D01*
X134201185Y-125798815D01*
X134104494Y-125719463D01*
X133994180Y-125660498D01*
X133874482Y-125624188D01*
X133750000Y-125611928D01*
X130250000Y-125611928D01*
X130125518Y-125624188D01*
X130005820Y-125660498D01*
X129895506Y-125719463D01*
X129798815Y-125798815D01*
X129719463Y-125895506D01*
X129660498Y-126005820D01*
X129624188Y-126125518D01*
X129611928Y-126250000D01*
X129611928Y-129750000D01*
X129624188Y-129874482D01*
X129660498Y-129994180D01*
X129719463Y-130104494D01*
X129798815Y-130201185D01*
X129895506Y-130280537D01*
X129957345Y-130313591D01*
X129285750Y-130315000D01*
X129127000Y-130473750D01*
X128873000Y-130473750D01*
X128714250Y-130315000D01*
X127793633Y-130313069D01*
X127854494Y-130280537D01*
X127951185Y-130201185D01*
X128030537Y-130104494D01*
X128089502Y-129994180D01*
X128125812Y-129874482D01*
X128138072Y-129750000D01*
X128135000Y-128285750D01*
X127976250Y-128127000D01*
X126127000Y-128127000D01*
X125873000Y-128127000D01*
X124023750Y-128127000D01*
X123865000Y-128285750D01*
X123861928Y-129750000D01*
X120685000Y-129750000D01*
X120685000Y-126250000D01*
X123861928Y-126250000D01*
X123865000Y-127714250D01*
X124023750Y-127873000D01*
X125873000Y-127873000D01*
X125873000Y-125773750D01*
X126127000Y-125773750D01*
X126127000Y-127873000D01*
X127976250Y-127873000D01*
X128135000Y-127714250D01*
X128138072Y-126250000D01*
X128125812Y-126125518D01*
X128089502Y-126005820D01*
X128030537Y-125895506D01*
X127951185Y-125798815D01*
X127854494Y-125719463D01*
X127744180Y-125660498D01*
X127624482Y-125624188D01*
X127500000Y-125611928D01*
X126285750Y-125615000D01*
X126127000Y-125773750D01*
X125873000Y-125773750D01*
X125714250Y-125615000D01*
X124500000Y-125611928D01*
X124375518Y-125624188D01*
X124255820Y-125660498D01*
X124145506Y-125719463D01*
X124048815Y-125798815D01*
X123969463Y-125895506D01*
X123910498Y-126005820D01*
X123874188Y-126125518D01*
X123861928Y-126250000D01*
X120685000Y-126250000D01*
X120685000Y-123998740D01*
X141475000Y-123998740D01*
X141475000Y-124291260D01*
X141532068Y-124578158D01*
X141644010Y-124848411D01*
X141806525Y-125091632D01*
X142013368Y-125298475D01*
X142187760Y-125415000D01*
X142013368Y-125531525D01*
X141806525Y-125738368D01*
X141644010Y-125981589D01*
X141532068Y-126251842D01*
X141475000Y-126538740D01*
X141475000Y-126831260D01*
X141532068Y-127118158D01*
X141644010Y-127388411D01*
X141806525Y-127631632D01*
X142013368Y-127838475D01*
X142195534Y-127960195D01*
X142078645Y-128029822D01*
X141862412Y-128224731D01*
X141688359Y-128458080D01*
X141563175Y-128720901D01*
X141518524Y-128868110D01*
X141639845Y-129098000D01*
X142833000Y-129098000D01*
X142833000Y-129078000D01*
X143087000Y-129078000D01*
X143087000Y-129098000D01*
X145373000Y-129098000D01*
X145373000Y-129078000D01*
X145627000Y-129078000D01*
X145627000Y-129098000D01*
X146826250Y-129098000D01*
X146985000Y-128939250D01*
X146988072Y-128375000D01*
X146975812Y-128250518D01*
X146939502Y-128130820D01*
X146880537Y-128020506D01*
X146801185Y-127923815D01*
X146704494Y-127844463D01*
X146594180Y-127785498D01*
X146521620Y-127763487D01*
X146653475Y-127631632D01*
X146815990Y-127388411D01*
X146927932Y-127118158D01*
X146985000Y-126831260D01*
X146985000Y-126538740D01*
X146927932Y-126251842D01*
X146815990Y-125981589D01*
X146653475Y-125738368D01*
X146446632Y-125531525D01*
X146272240Y-125415000D01*
X146446632Y-125298475D01*
X146653475Y-125091632D01*
X146815990Y-124848411D01*
X146927932Y-124578158D01*
X146985000Y-124291260D01*
X146985000Y-123998740D01*
X146927932Y-123711842D01*
X146815990Y-123441589D01*
X146653475Y-123198368D01*
X146523168Y-123068061D01*
X170275000Y-123068061D01*
X170275000Y-123271939D01*
X170314774Y-123471898D01*
X170392795Y-123660256D01*
X170506063Y-123829774D01*
X170650226Y-123973937D01*
X170819744Y-124087205D01*
X171008102Y-124165226D01*
X171208061Y-124205000D01*
X171270199Y-124205000D01*
X175176201Y-128111003D01*
X175199999Y-128140001D01*
X175228997Y-128163799D01*
X175315723Y-128234974D01*
X175410718Y-128285750D01*
X175447753Y-128305546D01*
X175591014Y-128349003D01*
X175702667Y-128360000D01*
X175702676Y-128360000D01*
X175739999Y-128363676D01*
X175777322Y-128360000D01*
X196896289Y-128360000D01*
X196940226Y-128403937D01*
X197109744Y-128517205D01*
X197298102Y-128595226D01*
X197498061Y-128635000D01*
X197701939Y-128635000D01*
X197901898Y-128595226D01*
X198090256Y-128517205D01*
X198259774Y-128403937D01*
X198403937Y-128259774D01*
X198517205Y-128090256D01*
X198595226Y-127901898D01*
X198635000Y-127701939D01*
X198635000Y-127498061D01*
X198595226Y-127298102D01*
X198517205Y-127109744D01*
X198403937Y-126940226D01*
X198259774Y-126796063D01*
X198090256Y-126682795D01*
X197901898Y-126604774D01*
X197701939Y-126565000D01*
X197498061Y-126565000D01*
X197298102Y-126604774D01*
X197109744Y-126682795D01*
X196940226Y-126796063D01*
X196896289Y-126840000D01*
X176054802Y-126840000D01*
X172345000Y-123130199D01*
X172345000Y-123068061D01*
X172305226Y-122868102D01*
X172227205Y-122679744D01*
X172113937Y-122510226D01*
X171969774Y-122366063D01*
X171800256Y-122252795D01*
X171611898Y-122174774D01*
X171411939Y-122135000D01*
X171208061Y-122135000D01*
X171008102Y-122174774D01*
X170819744Y-122252795D01*
X170650226Y-122366063D01*
X170506063Y-122510226D01*
X170392795Y-122679744D01*
X170314774Y-122868102D01*
X170275000Y-123068061D01*
X146523168Y-123068061D01*
X146446632Y-122991525D01*
X146203411Y-122829010D01*
X145933158Y-122717068D01*
X145646260Y-122660000D01*
X145353740Y-122660000D01*
X145066842Y-122717068D01*
X144796589Y-122829010D01*
X144553368Y-122991525D01*
X144346525Y-123198368D01*
X144230000Y-123372760D01*
X144113475Y-123198368D01*
X143906632Y-122991525D01*
X143663411Y-122829010D01*
X143393158Y-122717068D01*
X143106260Y-122660000D01*
X142813740Y-122660000D01*
X142526842Y-122717068D01*
X142256589Y-122829010D01*
X142013368Y-122991525D01*
X141806525Y-123198368D01*
X141644010Y-123441589D01*
X141532068Y-123711842D01*
X141475000Y-123998740D01*
X120685000Y-123998740D01*
X120685000Y-118879282D01*
X120847501Y-118928577D01*
X121014248Y-118945000D01*
X121725752Y-118945000D01*
X121892499Y-118928577D01*
X122106447Y-118863676D01*
X122303623Y-118758284D01*
X122476449Y-118616449D01*
X122618284Y-118443623D01*
X122723676Y-118246447D01*
X122788577Y-118032499D01*
X122810491Y-117810000D01*
X123859509Y-117810000D01*
X123881423Y-118032499D01*
X123946324Y-118246447D01*
X124051716Y-118443623D01*
X124193551Y-118616449D01*
X124366377Y-118758284D01*
X124563553Y-118863676D01*
X124777501Y-118928577D01*
X124944248Y-118945000D01*
X126155752Y-118945000D01*
X126322499Y-118928577D01*
X126536447Y-118863676D01*
X126733623Y-118758284D01*
X126906449Y-118616449D01*
X127048284Y-118443623D01*
X127153676Y-118246447D01*
X127218577Y-118032499D01*
X127240491Y-117810000D01*
X127218577Y-117587501D01*
X127153676Y-117373553D01*
X127048284Y-117176377D01*
X126906449Y-117003551D01*
X126733623Y-116861716D01*
X126536447Y-116756324D01*
X126322499Y-116691423D01*
X126155752Y-116675000D01*
X125936904Y-116675000D01*
X125943108Y-116660022D01*
X125980000Y-116474552D01*
X125980000Y-116285448D01*
X125943108Y-116099978D01*
X125870741Y-115925269D01*
X125765681Y-115768036D01*
X125631964Y-115634319D01*
X125474731Y-115529259D01*
X125300022Y-115456892D01*
X125114552Y-115420000D01*
X124925448Y-115420000D01*
X124739978Y-115456892D01*
X124565269Y-115529259D01*
X124408036Y-115634319D01*
X124274319Y-115768036D01*
X124169259Y-115925269D01*
X124096892Y-116099978D01*
X124060000Y-116285448D01*
X124060000Y-116474552D01*
X124096892Y-116660022D01*
X124169259Y-116834731D01*
X124250715Y-116956638D01*
X124193551Y-117003551D01*
X124051716Y-117176377D01*
X123946324Y-117373553D01*
X123881423Y-117587501D01*
X123859509Y-117810000D01*
X122810491Y-117810000D01*
X122788577Y-117587501D01*
X122723676Y-117373553D01*
X122618284Y-117176377D01*
X122476449Y-117003551D01*
X122303623Y-116861716D01*
X122106447Y-116756324D01*
X121892499Y-116691423D01*
X121725752Y-116675000D01*
X121014248Y-116675000D01*
X120847501Y-116691423D01*
X120685000Y-116740718D01*
X120685000Y-110239282D01*
X120847501Y-110288577D01*
X121014248Y-110305000D01*
X121725752Y-110305000D01*
X121892499Y-110288577D01*
X122106447Y-110223676D01*
X122303623Y-110118284D01*
X122476449Y-109976449D01*
X122618284Y-109803623D01*
X122723676Y-109606447D01*
X122788577Y-109392499D01*
X122810491Y-109170000D01*
X123859509Y-109170000D01*
X123881423Y-109392499D01*
X123946324Y-109606447D01*
X124051716Y-109803623D01*
X124193551Y-109976449D01*
X124250715Y-110023362D01*
X124169259Y-110145269D01*
X124096892Y-110319978D01*
X124060000Y-110505448D01*
X124060000Y-110694552D01*
X124096892Y-110880022D01*
X124169259Y-111054731D01*
X124274319Y-111211964D01*
X124408036Y-111345681D01*
X124565269Y-111450741D01*
X124739978Y-111523108D01*
X124925448Y-111560000D01*
X125114552Y-111560000D01*
X125300022Y-111523108D01*
X125474731Y-111450741D01*
X125631964Y-111345681D01*
X125765681Y-111211964D01*
X125870741Y-111054731D01*
X125890134Y-111007911D01*
X126865000Y-111007911D01*
X126865000Y-111192089D01*
X126900932Y-111372729D01*
X126971414Y-111542889D01*
X127073738Y-111696028D01*
X127203972Y-111826262D01*
X127357111Y-111928586D01*
X127391077Y-111942655D01*
X127415000Y-111966578D01*
X127415001Y-113032250D01*
X127415000Y-113032260D01*
X127415000Y-113193308D01*
X127400932Y-113227271D01*
X127365000Y-113407911D01*
X127365000Y-113592089D01*
X127400932Y-113772729D01*
X127415000Y-113806692D01*
X127415000Y-113967740D01*
X127415001Y-113967750D01*
X127415000Y-115033422D01*
X127391077Y-115057345D01*
X127357111Y-115071414D01*
X127203972Y-115173738D01*
X127073738Y-115303972D01*
X126971414Y-115457111D01*
X126900932Y-115627271D01*
X126865000Y-115807911D01*
X126865000Y-115992089D01*
X126900932Y-116172729D01*
X126971414Y-116342889D01*
X127073738Y-116496028D01*
X127203972Y-116626262D01*
X127357111Y-116728586D01*
X127527271Y-116799068D01*
X127707911Y-116835000D01*
X127892089Y-116835000D01*
X128072729Y-116799068D01*
X128242889Y-116728586D01*
X128396028Y-116626262D01*
X128526262Y-116496028D01*
X128628586Y-116342889D01*
X128642655Y-116308923D01*
X128895045Y-116056533D01*
X128928817Y-116028817D01*
X129039411Y-115894059D01*
X129121589Y-115740313D01*
X129172195Y-115573490D01*
X129185000Y-115443477D01*
X129185000Y-115443469D01*
X129189281Y-115400000D01*
X129185000Y-115356531D01*
X129185000Y-113806692D01*
X129199068Y-113772729D01*
X129235000Y-113592089D01*
X129235000Y-113407911D01*
X129199068Y-113227271D01*
X129185000Y-113193308D01*
X129185000Y-111643469D01*
X129189281Y-111600000D01*
X129185000Y-111556531D01*
X129185000Y-111556523D01*
X129172195Y-111426510D01*
X129121589Y-111259687D01*
X129039411Y-111105941D01*
X128928817Y-110971183D01*
X128895045Y-110943467D01*
X128642655Y-110691077D01*
X128628586Y-110657111D01*
X128526262Y-110503972D01*
X128396028Y-110373738D01*
X128242889Y-110271414D01*
X128072729Y-110200932D01*
X127892089Y-110165000D01*
X127707911Y-110165000D01*
X127527271Y-110200932D01*
X127357111Y-110271414D01*
X127203972Y-110373738D01*
X127073738Y-110503972D01*
X126971414Y-110657111D01*
X126900932Y-110827271D01*
X126865000Y-111007911D01*
X125890134Y-111007911D01*
X125943108Y-110880022D01*
X125980000Y-110694552D01*
X125980000Y-110505448D01*
X125943108Y-110319978D01*
X125936904Y-110305000D01*
X126155752Y-110305000D01*
X126322499Y-110288577D01*
X126536447Y-110223676D01*
X126733623Y-110118284D01*
X126906449Y-109976449D01*
X127048284Y-109803623D01*
X127153676Y-109606447D01*
X127218577Y-109392499D01*
X127240491Y-109170000D01*
X127218577Y-108947501D01*
X127153676Y-108733553D01*
X127048284Y-108536377D01*
X126906449Y-108363551D01*
X126733623Y-108221716D01*
X126536447Y-108116324D01*
X126322499Y-108051423D01*
X126155752Y-108035000D01*
X124944248Y-108035000D01*
X124777501Y-108051423D01*
X124563553Y-108116324D01*
X124366377Y-108221716D01*
X124193551Y-108363551D01*
X124051716Y-108536377D01*
X123946324Y-108733553D01*
X123881423Y-108947501D01*
X123859509Y-109170000D01*
X122810491Y-109170000D01*
X122788577Y-108947501D01*
X122723676Y-108733553D01*
X122618284Y-108536377D01*
X122476449Y-108363551D01*
X122303623Y-108221716D01*
X122106447Y-108116324D01*
X121892499Y-108051423D01*
X121725752Y-108035000D01*
X121014248Y-108035000D01*
X120847501Y-108051423D01*
X120685000Y-108100718D01*
X120685000Y-107238061D01*
X164025000Y-107238061D01*
X164025000Y-107441939D01*
X164064774Y-107641898D01*
X164142795Y-107830256D01*
X164256063Y-107999774D01*
X164400226Y-108143937D01*
X164569744Y-108257205D01*
X164758102Y-108335226D01*
X164958061Y-108375000D01*
X165161939Y-108375000D01*
X165361898Y-108335226D01*
X165550256Y-108257205D01*
X165719774Y-108143937D01*
X165763711Y-108100000D01*
X169535958Y-108100000D01*
X169532795Y-108104734D01*
X169454774Y-108293092D01*
X169415000Y-108493051D01*
X169415000Y-108560000D01*
X169293711Y-108560000D01*
X169249774Y-108516063D01*
X169080256Y-108402795D01*
X168891898Y-108324774D01*
X168691939Y-108285000D01*
X168488061Y-108285000D01*
X168288102Y-108324774D01*
X168099744Y-108402795D01*
X167930226Y-108516063D01*
X167786063Y-108660226D01*
X167672795Y-108829744D01*
X167594774Y-109018102D01*
X167555000Y-109218061D01*
X167555000Y-109421939D01*
X167576494Y-109529999D01*
X167381159Y-109529999D01*
X167327205Y-109399744D01*
X167213937Y-109230226D01*
X167069774Y-109086063D01*
X166900256Y-108972795D01*
X166711898Y-108894774D01*
X166511939Y-108855000D01*
X166308061Y-108855000D01*
X166108102Y-108894774D01*
X165919744Y-108972795D01*
X165750226Y-109086063D01*
X165606063Y-109230226D01*
X165492795Y-109399744D01*
X165414774Y-109588102D01*
X165375000Y-109788061D01*
X165375000Y-109991939D01*
X165414774Y-110191898D01*
X165492795Y-110380256D01*
X165606063Y-110549774D01*
X165750226Y-110693937D01*
X165879932Y-110780604D01*
X165847098Y-110829744D01*
X165769077Y-111018102D01*
X165729303Y-111218061D01*
X165729303Y-111421939D01*
X165769077Y-111621898D01*
X165847098Y-111810256D01*
X165960366Y-111979774D01*
X166104529Y-112123937D01*
X166274047Y-112237205D01*
X166462405Y-112315226D01*
X166662364Y-112355000D01*
X166866242Y-112355000D01*
X167066201Y-112315226D01*
X167254559Y-112237205D01*
X167424077Y-112123937D01*
X167468014Y-112080000D01*
X183545199Y-112080000D01*
X196565000Y-125099802D01*
X196565000Y-125161939D01*
X196604774Y-125361898D01*
X196682795Y-125550256D01*
X196796063Y-125719774D01*
X196940226Y-125863937D01*
X197109744Y-125977205D01*
X197298102Y-126055226D01*
X197498061Y-126095000D01*
X197701939Y-126095000D01*
X197901898Y-126055226D01*
X198090256Y-125977205D01*
X198259774Y-125863937D01*
X198403937Y-125719774D01*
X198517205Y-125550256D01*
X198595226Y-125361898D01*
X198635000Y-125161939D01*
X198635000Y-124958061D01*
X198595226Y-124758102D01*
X198517205Y-124569744D01*
X198403937Y-124400226D01*
X198259774Y-124256063D01*
X198090256Y-124142795D01*
X197901898Y-124064774D01*
X197701939Y-124025000D01*
X197639802Y-124025000D01*
X184664800Y-111049999D01*
X185055198Y-111049999D01*
X196565000Y-122559802D01*
X196565000Y-122621939D01*
X196604774Y-122821898D01*
X196682795Y-123010256D01*
X196796063Y-123179774D01*
X196940226Y-123323937D01*
X197109744Y-123437205D01*
X197298102Y-123515226D01*
X197498061Y-123555000D01*
X197701939Y-123555000D01*
X197901898Y-123515226D01*
X198090256Y-123437205D01*
X198259774Y-123323937D01*
X198403937Y-123179774D01*
X198517205Y-123010256D01*
X198595226Y-122821898D01*
X198635000Y-122621939D01*
X198635000Y-122418061D01*
X198595226Y-122218102D01*
X198517205Y-122029744D01*
X198403937Y-121860226D01*
X198259774Y-121716063D01*
X198090256Y-121602795D01*
X197901898Y-121524774D01*
X197701939Y-121485000D01*
X197639802Y-121485000D01*
X186234801Y-110080000D01*
X186635199Y-110080000D01*
X196565000Y-120009803D01*
X196565000Y-120071939D01*
X196604774Y-120271898D01*
X196682795Y-120460256D01*
X196796063Y-120629774D01*
X196940226Y-120773937D01*
X197109744Y-120887205D01*
X197298102Y-120965226D01*
X197498061Y-121005000D01*
X197701939Y-121005000D01*
X197901898Y-120965226D01*
X198090256Y-120887205D01*
X198259774Y-120773937D01*
X198403937Y-120629774D01*
X198517205Y-120460256D01*
X198595226Y-120271898D01*
X198635000Y-120071939D01*
X198635000Y-119868061D01*
X198595226Y-119668102D01*
X198517205Y-119479744D01*
X198403937Y-119310226D01*
X198259774Y-119166063D01*
X198090256Y-119052795D01*
X197901898Y-118974774D01*
X197701939Y-118935000D01*
X197639803Y-118935000D01*
X196965884Y-118261081D01*
X197109744Y-118357205D01*
X197298102Y-118435226D01*
X197498061Y-118475000D01*
X197701939Y-118475000D01*
X197901898Y-118435226D01*
X198090256Y-118357205D01*
X198259774Y-118243937D01*
X198403937Y-118099774D01*
X198517205Y-117930256D01*
X198595226Y-117741898D01*
X198635000Y-117541939D01*
X198635000Y-117338061D01*
X198595226Y-117138102D01*
X198517205Y-116949744D01*
X198403937Y-116780226D01*
X198259774Y-116636063D01*
X198090256Y-116522795D01*
X197901898Y-116444774D01*
X197701939Y-116405000D01*
X197639802Y-116405000D01*
X189334801Y-108100000D01*
X189725199Y-108100000D01*
X196565000Y-114939802D01*
X196565000Y-115001939D01*
X196604774Y-115201898D01*
X196682795Y-115390256D01*
X196796063Y-115559774D01*
X196940226Y-115703937D01*
X197109744Y-115817205D01*
X197298102Y-115895226D01*
X197498061Y-115935000D01*
X197701939Y-115935000D01*
X197901898Y-115895226D01*
X198090256Y-115817205D01*
X198259774Y-115703937D01*
X198403937Y-115559774D01*
X198517205Y-115390256D01*
X198595226Y-115201898D01*
X198635000Y-115001939D01*
X198635000Y-114798061D01*
X198595226Y-114598102D01*
X198517205Y-114409744D01*
X198403937Y-114240226D01*
X198259774Y-114096063D01*
X198090256Y-113982795D01*
X197901898Y-113904774D01*
X197701939Y-113865000D01*
X197639802Y-113865000D01*
X190984801Y-107210000D01*
X191375199Y-107210000D01*
X196565024Y-112399826D01*
X196565024Y-112461963D01*
X196604798Y-112661922D01*
X196682819Y-112850280D01*
X196796087Y-113019798D01*
X196940250Y-113163961D01*
X197109768Y-113277229D01*
X197298126Y-113355250D01*
X197498085Y-113395024D01*
X197701963Y-113395024D01*
X197901922Y-113355250D01*
X198090280Y-113277229D01*
X198259798Y-113163961D01*
X198403961Y-113019798D01*
X198517229Y-112850280D01*
X198595250Y-112661922D01*
X198635024Y-112461963D01*
X198635024Y-112258085D01*
X198595250Y-112058126D01*
X198517229Y-111869768D01*
X198403961Y-111700250D01*
X198259798Y-111556087D01*
X198090280Y-111442819D01*
X197901922Y-111364798D01*
X197701963Y-111325024D01*
X197639826Y-111325024D01*
X192253804Y-105939003D01*
X192230001Y-105909999D01*
X192114276Y-105815026D01*
X191982247Y-105744454D01*
X191838986Y-105700997D01*
X191727333Y-105690000D01*
X191727322Y-105690000D01*
X191690000Y-105686324D01*
X191652678Y-105690000D01*
X171593711Y-105690000D01*
X171549774Y-105646063D01*
X171380256Y-105532795D01*
X171191898Y-105454774D01*
X170991939Y-105415000D01*
X170788061Y-105415000D01*
X170588102Y-105454774D01*
X170399744Y-105532795D01*
X170230226Y-105646063D01*
X170086063Y-105790226D01*
X169972795Y-105959744D01*
X169894774Y-106148102D01*
X169855000Y-106348061D01*
X169855000Y-106551939D01*
X169860582Y-106580000D01*
X165763711Y-106580000D01*
X165719774Y-106536063D01*
X165550256Y-106422795D01*
X165361898Y-106344774D01*
X165161939Y-106305000D01*
X164958061Y-106305000D01*
X164758102Y-106344774D01*
X164569744Y-106422795D01*
X164400226Y-106536063D01*
X164256063Y-106680226D01*
X164142795Y-106849744D01*
X164064774Y-107038102D01*
X164025000Y-107238061D01*
X120685000Y-107238061D01*
X120685000Y-99540000D01*
X125459339Y-99540000D01*
X125481929Y-99769360D01*
X125548831Y-99989906D01*
X125647766Y-100175000D01*
X125548831Y-100360094D01*
X125481929Y-100580640D01*
X125459339Y-100810000D01*
X125481929Y-101039360D01*
X125548831Y-101259906D01*
X125657474Y-101463162D01*
X125803682Y-101641318D01*
X125981838Y-101787526D01*
X126185094Y-101896169D01*
X126405640Y-101963071D01*
X126577523Y-101980000D01*
X127422477Y-101980000D01*
X127594360Y-101963071D01*
X127814906Y-101896169D01*
X128018162Y-101787526D01*
X128196318Y-101641318D01*
X128342526Y-101463162D01*
X128451169Y-101259906D01*
X128518071Y-101039360D01*
X128540661Y-100810000D01*
X128518071Y-100580640D01*
X128451169Y-100360094D01*
X128352234Y-100175000D01*
X128451169Y-99989906D01*
X128518071Y-99769360D01*
X128540661Y-99540000D01*
X128518071Y-99310640D01*
X128451169Y-99090094D01*
X128350846Y-98902404D01*
X128408377Y-98814421D01*
X128493900Y-98577383D01*
X128368244Y-98397000D01*
X127627560Y-98397000D01*
X127594360Y-98386929D01*
X127422477Y-98370000D01*
X126577523Y-98370000D01*
X126405640Y-98386929D01*
X126372440Y-98397000D01*
X125631756Y-98397000D01*
X125506100Y-98577383D01*
X125591623Y-98814421D01*
X125649154Y-98902404D01*
X125548831Y-99090094D01*
X125481929Y-99310640D01*
X125459339Y-99540000D01*
X120685000Y-99540000D01*
X120685000Y-96465000D01*
X125461928Y-96465000D01*
X125461928Y-97535000D01*
X125474188Y-97659482D01*
X125510498Y-97779180D01*
X125547385Y-97848190D01*
X125506100Y-97962617D01*
X125631756Y-98143000D01*
X125916800Y-98143000D01*
X125975518Y-98160812D01*
X126100000Y-98173072D01*
X127900000Y-98173072D01*
X128024482Y-98160812D01*
X128083200Y-98143000D01*
X128368244Y-98143000D01*
X128493900Y-97962617D01*
X128452615Y-97848190D01*
X128489502Y-97779180D01*
X128525812Y-97659482D01*
X128538072Y-97535000D01*
X128538072Y-96465000D01*
X128525812Y-96340518D01*
X128489502Y-96220820D01*
X128430537Y-96110506D01*
X128351185Y-96013815D01*
X128254494Y-95934463D01*
X128144180Y-95875498D01*
X128024482Y-95839188D01*
X127900000Y-95826928D01*
X126100000Y-95826928D01*
X125975518Y-95839188D01*
X125855820Y-95875498D01*
X125745506Y-95934463D01*
X125648815Y-96013815D01*
X125569463Y-96110506D01*
X125510498Y-96220820D01*
X125474188Y-96340518D01*
X125461928Y-96465000D01*
X120685000Y-96465000D01*
X120685000Y-90685000D01*
X199315000Y-90685000D01*
X199315001Y-136315000D01*
G04 #@! TA.AperFunction,Conductor*
D22*
G36*
X199315001Y-136315000D02*
G01*
X120685000Y-136315000D01*
X120685000Y-134450000D01*
X126611928Y-134450000D01*
X126624188Y-134574482D01*
X126660498Y-134694180D01*
X126719463Y-134804494D01*
X126798815Y-134901185D01*
X126895506Y-134980537D01*
X127005820Y-135039502D01*
X127125518Y-135075812D01*
X127250000Y-135088072D01*
X128714250Y-135085000D01*
X128873000Y-134926250D01*
X128873000Y-132827000D01*
X129127000Y-132827000D01*
X129127000Y-134926250D01*
X129285750Y-135085000D01*
X130750000Y-135088072D01*
X130874482Y-135075812D01*
X130994180Y-135039502D01*
X131104494Y-134980537D01*
X131201185Y-134901185D01*
X131280537Y-134804494D01*
X131339502Y-134694180D01*
X131375812Y-134574482D01*
X131388072Y-134450000D01*
X131385000Y-132985750D01*
X131226250Y-132827000D01*
X129127000Y-132827000D01*
X128873000Y-132827000D01*
X126773750Y-132827000D01*
X126615000Y-132985750D01*
X126611928Y-134450000D01*
X120685000Y-134450000D01*
X120685000Y-129750000D01*
X123861928Y-129750000D01*
X123874188Y-129874482D01*
X123910498Y-129994180D01*
X123969463Y-130104494D01*
X124048815Y-130201185D01*
X124145506Y-130280537D01*
X124255820Y-130339502D01*
X124375518Y-130375812D01*
X124500000Y-130388072D01*
X125714250Y-130385000D01*
X125873000Y-130226250D01*
X125873000Y-128127000D01*
X126127000Y-128127000D01*
X126127000Y-130226250D01*
X126285750Y-130385000D01*
X126956805Y-130386698D01*
X126895506Y-130419463D01*
X126798815Y-130498815D01*
X126719463Y-130595506D01*
X126660498Y-130705820D01*
X126624188Y-130825518D01*
X126611928Y-130950000D01*
X126615000Y-132414250D01*
X126773750Y-132573000D01*
X128873000Y-132573000D01*
X128873000Y-130473750D01*
X129127000Y-130473750D01*
X129127000Y-132573000D01*
X131226250Y-132573000D01*
X131385000Y-132414250D01*
X131388072Y-130950000D01*
X131375812Y-130825518D01*
X131339502Y-130705820D01*
X131280537Y-130595506D01*
X131201185Y-130498815D01*
X131104494Y-130419463D01*
X131045767Y-130388072D01*
X133750000Y-130388072D01*
X133874482Y-130375812D01*
X133994180Y-130339502D01*
X134104494Y-130280537D01*
X134201185Y-130201185D01*
X134280537Y-130104494D01*
X134339502Y-129994180D01*
X134375812Y-129874482D01*
X134388072Y-129750000D01*
X134388072Y-129581890D01*
X141518524Y-129581890D01*
X141563175Y-129729099D01*
X141688359Y-129991920D01*
X141862412Y-130225269D01*
X142078645Y-130420178D01*
X142328748Y-130569157D01*
X142603109Y-130666481D01*
X142833000Y-130545814D01*
X142833000Y-129352000D01*
X143087000Y-129352000D01*
X143087000Y-130545814D01*
X143316891Y-130666481D01*
X143591252Y-130569157D01*
X143841355Y-130420178D01*
X144037502Y-130243374D01*
X144060498Y-130319180D01*
X144119463Y-130429494D01*
X144198815Y-130526185D01*
X144295506Y-130605537D01*
X144405820Y-130664502D01*
X144525518Y-130700812D01*
X144650000Y-130713072D01*
X145214250Y-130710000D01*
X145373000Y-130551250D01*
X145373000Y-129352000D01*
X145627000Y-129352000D01*
X145627000Y-130551250D01*
X145785750Y-130710000D01*
X146350000Y-130713072D01*
X146474482Y-130700812D01*
X146594180Y-130664502D01*
X146704494Y-130605537D01*
X146801185Y-130526185D01*
X146880537Y-130429494D01*
X146939502Y-130319180D01*
X146975812Y-130199482D01*
X146988072Y-130075000D01*
X146985000Y-129510750D01*
X146826250Y-129352000D01*
X145627000Y-129352000D01*
X145373000Y-129352000D01*
X143087000Y-129352000D01*
X142833000Y-129352000D01*
X141639845Y-129352000D01*
X141518524Y-129581890D01*
X134388072Y-129581890D01*
X134388072Y-126250000D01*
X134375812Y-126125518D01*
X134339502Y-126005820D01*
X134280537Y-125895506D01*
X134201185Y-125798815D01*
X134104494Y-125719463D01*
X133994180Y-125660498D01*
X133874482Y-125624188D01*
X133750000Y-125611928D01*
X130250000Y-125611928D01*
X130125518Y-125624188D01*
X130005820Y-125660498D01*
X129895506Y-125719463D01*
X129798815Y-125798815D01*
X129719463Y-125895506D01*
X129660498Y-126005820D01*
X129624188Y-126125518D01*
X129611928Y-126250000D01*
X129611928Y-129750000D01*
X129624188Y-129874482D01*
X129660498Y-129994180D01*
X129719463Y-130104494D01*
X129798815Y-130201185D01*
X129895506Y-130280537D01*
X129957345Y-130313591D01*
X129285750Y-130315000D01*
X129127000Y-130473750D01*
X128873000Y-130473750D01*
X128714250Y-130315000D01*
X127793633Y-130313069D01*
X127854494Y-130280537D01*
X127951185Y-130201185D01*
X128030537Y-130104494D01*
X128089502Y-129994180D01*
X128125812Y-129874482D01*
X128138072Y-129750000D01*
X128135000Y-128285750D01*
X127976250Y-128127000D01*
X126127000Y-128127000D01*
X125873000Y-128127000D01*
X124023750Y-128127000D01*
X123865000Y-128285750D01*
X123861928Y-129750000D01*
X120685000Y-129750000D01*
X120685000Y-126250000D01*
X123861928Y-126250000D01*
X123865000Y-127714250D01*
X124023750Y-127873000D01*
X125873000Y-127873000D01*
X125873000Y-125773750D01*
X126127000Y-125773750D01*
X126127000Y-127873000D01*
X127976250Y-127873000D01*
X128135000Y-127714250D01*
X128138072Y-126250000D01*
X128125812Y-126125518D01*
X128089502Y-126005820D01*
X128030537Y-125895506D01*
X127951185Y-125798815D01*
X127854494Y-125719463D01*
X127744180Y-125660498D01*
X127624482Y-125624188D01*
X127500000Y-125611928D01*
X126285750Y-125615000D01*
X126127000Y-125773750D01*
X125873000Y-125773750D01*
X125714250Y-125615000D01*
X124500000Y-125611928D01*
X124375518Y-125624188D01*
X124255820Y-125660498D01*
X124145506Y-125719463D01*
X124048815Y-125798815D01*
X123969463Y-125895506D01*
X123910498Y-126005820D01*
X123874188Y-126125518D01*
X123861928Y-126250000D01*
X120685000Y-126250000D01*
X120685000Y-123998740D01*
X141475000Y-123998740D01*
X141475000Y-124291260D01*
X141532068Y-124578158D01*
X141644010Y-124848411D01*
X141806525Y-125091632D01*
X142013368Y-125298475D01*
X142187760Y-125415000D01*
X142013368Y-125531525D01*
X141806525Y-125738368D01*
X141644010Y-125981589D01*
X141532068Y-126251842D01*
X141475000Y-126538740D01*
X141475000Y-126831260D01*
X141532068Y-127118158D01*
X141644010Y-127388411D01*
X141806525Y-127631632D01*
X142013368Y-127838475D01*
X142195534Y-127960195D01*
X142078645Y-128029822D01*
X141862412Y-128224731D01*
X141688359Y-128458080D01*
X141563175Y-128720901D01*
X141518524Y-128868110D01*
X141639845Y-129098000D01*
X142833000Y-129098000D01*
X142833000Y-129078000D01*
X143087000Y-129078000D01*
X143087000Y-129098000D01*
X145373000Y-129098000D01*
X145373000Y-129078000D01*
X145627000Y-129078000D01*
X145627000Y-129098000D01*
X146826250Y-129098000D01*
X146985000Y-128939250D01*
X146988072Y-128375000D01*
X146975812Y-128250518D01*
X146939502Y-128130820D01*
X146880537Y-128020506D01*
X146801185Y-127923815D01*
X146704494Y-127844463D01*
X146594180Y-127785498D01*
X146521620Y-127763487D01*
X146653475Y-127631632D01*
X146815990Y-127388411D01*
X146927932Y-127118158D01*
X146985000Y-126831260D01*
X146985000Y-126538740D01*
X146927932Y-126251842D01*
X146815990Y-125981589D01*
X146653475Y-125738368D01*
X146446632Y-125531525D01*
X146272240Y-125415000D01*
X146446632Y-125298475D01*
X146653475Y-125091632D01*
X146815990Y-124848411D01*
X146927932Y-124578158D01*
X146985000Y-124291260D01*
X146985000Y-123998740D01*
X146927932Y-123711842D01*
X146815990Y-123441589D01*
X146653475Y-123198368D01*
X146523168Y-123068061D01*
X170275000Y-123068061D01*
X170275000Y-123271939D01*
X170314774Y-123471898D01*
X170392795Y-123660256D01*
X170506063Y-123829774D01*
X170650226Y-123973937D01*
X170819744Y-124087205D01*
X171008102Y-124165226D01*
X171208061Y-124205000D01*
X171270199Y-124205000D01*
X175176201Y-128111003D01*
X175199999Y-128140001D01*
X175228997Y-128163799D01*
X175315723Y-128234974D01*
X175410718Y-128285750D01*
X175447753Y-128305546D01*
X175591014Y-128349003D01*
X175702667Y-128360000D01*
X175702676Y-128360000D01*
X175739999Y-128363676D01*
X175777322Y-128360000D01*
X196896289Y-128360000D01*
X196940226Y-128403937D01*
X197109744Y-128517205D01*
X197298102Y-128595226D01*
X197498061Y-128635000D01*
X197701939Y-128635000D01*
X197901898Y-128595226D01*
X198090256Y-128517205D01*
X198259774Y-128403937D01*
X198403937Y-128259774D01*
X198517205Y-128090256D01*
X198595226Y-127901898D01*
X198635000Y-127701939D01*
X198635000Y-127498061D01*
X198595226Y-127298102D01*
X198517205Y-127109744D01*
X198403937Y-126940226D01*
X198259774Y-126796063D01*
X198090256Y-126682795D01*
X197901898Y-126604774D01*
X197701939Y-126565000D01*
X197498061Y-126565000D01*
X197298102Y-126604774D01*
X197109744Y-126682795D01*
X196940226Y-126796063D01*
X196896289Y-126840000D01*
X176054802Y-126840000D01*
X172345000Y-123130199D01*
X172345000Y-123068061D01*
X172305226Y-122868102D01*
X172227205Y-122679744D01*
X172113937Y-122510226D01*
X171969774Y-122366063D01*
X171800256Y-122252795D01*
X171611898Y-122174774D01*
X171411939Y-122135000D01*
X171208061Y-122135000D01*
X171008102Y-122174774D01*
X170819744Y-122252795D01*
X170650226Y-122366063D01*
X170506063Y-122510226D01*
X170392795Y-122679744D01*
X170314774Y-122868102D01*
X170275000Y-123068061D01*
X146523168Y-123068061D01*
X146446632Y-122991525D01*
X146203411Y-122829010D01*
X145933158Y-122717068D01*
X145646260Y-122660000D01*
X145353740Y-122660000D01*
X145066842Y-122717068D01*
X144796589Y-122829010D01*
X144553368Y-122991525D01*
X144346525Y-123198368D01*
X144230000Y-123372760D01*
X144113475Y-123198368D01*
X143906632Y-122991525D01*
X143663411Y-122829010D01*
X143393158Y-122717068D01*
X143106260Y-122660000D01*
X142813740Y-122660000D01*
X142526842Y-122717068D01*
X142256589Y-122829010D01*
X142013368Y-122991525D01*
X141806525Y-123198368D01*
X141644010Y-123441589D01*
X141532068Y-123711842D01*
X141475000Y-123998740D01*
X120685000Y-123998740D01*
X120685000Y-118879282D01*
X120847501Y-118928577D01*
X121014248Y-118945000D01*
X121725752Y-118945000D01*
X121892499Y-118928577D01*
X122106447Y-118863676D01*
X122303623Y-118758284D01*
X122476449Y-118616449D01*
X122618284Y-118443623D01*
X122723676Y-118246447D01*
X122788577Y-118032499D01*
X122810491Y-117810000D01*
X123859509Y-117810000D01*
X123881423Y-118032499D01*
X123946324Y-118246447D01*
X124051716Y-118443623D01*
X124193551Y-118616449D01*
X124366377Y-118758284D01*
X124563553Y-118863676D01*
X124777501Y-118928577D01*
X124944248Y-118945000D01*
X126155752Y-118945000D01*
X126322499Y-118928577D01*
X126536447Y-118863676D01*
X126733623Y-118758284D01*
X126906449Y-118616449D01*
X127048284Y-118443623D01*
X127153676Y-118246447D01*
X127218577Y-118032499D01*
X127240491Y-117810000D01*
X127218577Y-117587501D01*
X127153676Y-117373553D01*
X127048284Y-117176377D01*
X126906449Y-117003551D01*
X126733623Y-116861716D01*
X126536447Y-116756324D01*
X126322499Y-116691423D01*
X126155752Y-116675000D01*
X125936904Y-116675000D01*
X125943108Y-116660022D01*
X125980000Y-116474552D01*
X125980000Y-116285448D01*
X125943108Y-116099978D01*
X125870741Y-115925269D01*
X125765681Y-115768036D01*
X125631964Y-115634319D01*
X125474731Y-115529259D01*
X125300022Y-115456892D01*
X125114552Y-115420000D01*
X124925448Y-115420000D01*
X124739978Y-115456892D01*
X124565269Y-115529259D01*
X124408036Y-115634319D01*
X124274319Y-115768036D01*
X124169259Y-115925269D01*
X124096892Y-116099978D01*
X124060000Y-116285448D01*
X124060000Y-116474552D01*
X124096892Y-116660022D01*
X124169259Y-116834731D01*
X124250715Y-116956638D01*
X124193551Y-117003551D01*
X124051716Y-117176377D01*
X123946324Y-117373553D01*
X123881423Y-117587501D01*
X123859509Y-117810000D01*
X122810491Y-117810000D01*
X122788577Y-117587501D01*
X122723676Y-117373553D01*
X122618284Y-117176377D01*
X122476449Y-117003551D01*
X122303623Y-116861716D01*
X122106447Y-116756324D01*
X121892499Y-116691423D01*
X121725752Y-116675000D01*
X121014248Y-116675000D01*
X120847501Y-116691423D01*
X120685000Y-116740718D01*
X120685000Y-110239282D01*
X120847501Y-110288577D01*
X121014248Y-110305000D01*
X121725752Y-110305000D01*
X121892499Y-110288577D01*
X122106447Y-110223676D01*
X122303623Y-110118284D01*
X122476449Y-109976449D01*
X122618284Y-109803623D01*
X122723676Y-109606447D01*
X122788577Y-109392499D01*
X122810491Y-109170000D01*
X123859509Y-109170000D01*
X123881423Y-109392499D01*
X123946324Y-109606447D01*
X124051716Y-109803623D01*
X124193551Y-109976449D01*
X124250715Y-110023362D01*
X124169259Y-110145269D01*
X124096892Y-110319978D01*
X124060000Y-110505448D01*
X124060000Y-110694552D01*
X124096892Y-110880022D01*
X124169259Y-111054731D01*
X124274319Y-111211964D01*
X124408036Y-111345681D01*
X124565269Y-111450741D01*
X124739978Y-111523108D01*
X124925448Y-111560000D01*
X125114552Y-111560000D01*
X125300022Y-111523108D01*
X125474731Y-111450741D01*
X125631964Y-111345681D01*
X125765681Y-111211964D01*
X125870741Y-111054731D01*
X125890134Y-111007911D01*
X126865000Y-111007911D01*
X126865000Y-111192089D01*
X126900932Y-111372729D01*
X126971414Y-111542889D01*
X127073738Y-111696028D01*
X127203972Y-111826262D01*
X127357111Y-111928586D01*
X127391077Y-111942655D01*
X127415000Y-111966578D01*
X127415001Y-113032250D01*
X127415000Y-113032260D01*
X127415000Y-113193308D01*
X127400932Y-113227271D01*
X127365000Y-113407911D01*
X127365000Y-113592089D01*
X127400932Y-113772729D01*
X127415000Y-113806692D01*
X127415000Y-113967740D01*
X127415001Y-113967750D01*
X127415000Y-115033422D01*
X127391077Y-115057345D01*
X127357111Y-115071414D01*
X127203972Y-115173738D01*
X127073738Y-115303972D01*
X126971414Y-115457111D01*
X126900932Y-115627271D01*
X126865000Y-115807911D01*
X126865000Y-115992089D01*
X126900932Y-116172729D01*
X126971414Y-116342889D01*
X127073738Y-116496028D01*
X127203972Y-116626262D01*
X127357111Y-116728586D01*
X127527271Y-116799068D01*
X127707911Y-116835000D01*
X127892089Y-116835000D01*
X128072729Y-116799068D01*
X128242889Y-116728586D01*
X128396028Y-116626262D01*
X128526262Y-116496028D01*
X128628586Y-116342889D01*
X128642655Y-116308923D01*
X128895045Y-116056533D01*
X128928817Y-116028817D01*
X129039411Y-115894059D01*
X129121589Y-115740313D01*
X129172195Y-115573490D01*
X129185000Y-115443477D01*
X129185000Y-115443469D01*
X129189281Y-115400000D01*
X129185000Y-115356531D01*
X129185000Y-113806692D01*
X129199068Y-113772729D01*
X129235000Y-113592089D01*
X129235000Y-113407911D01*
X129199068Y-113227271D01*
X129185000Y-113193308D01*
X129185000Y-111643469D01*
X129189281Y-111600000D01*
X129185000Y-111556531D01*
X129185000Y-111556523D01*
X129172195Y-111426510D01*
X129121589Y-111259687D01*
X129039411Y-111105941D01*
X128928817Y-110971183D01*
X128895045Y-110943467D01*
X128642655Y-110691077D01*
X128628586Y-110657111D01*
X128526262Y-110503972D01*
X128396028Y-110373738D01*
X128242889Y-110271414D01*
X128072729Y-110200932D01*
X127892089Y-110165000D01*
X127707911Y-110165000D01*
X127527271Y-110200932D01*
X127357111Y-110271414D01*
X127203972Y-110373738D01*
X127073738Y-110503972D01*
X126971414Y-110657111D01*
X126900932Y-110827271D01*
X126865000Y-111007911D01*
X125890134Y-111007911D01*
X125943108Y-110880022D01*
X125980000Y-110694552D01*
X125980000Y-110505448D01*
X125943108Y-110319978D01*
X125936904Y-110305000D01*
X126155752Y-110305000D01*
X126322499Y-110288577D01*
X126536447Y-110223676D01*
X126733623Y-110118284D01*
X126906449Y-109976449D01*
X127048284Y-109803623D01*
X127153676Y-109606447D01*
X127218577Y-109392499D01*
X127240491Y-109170000D01*
X127218577Y-108947501D01*
X127153676Y-108733553D01*
X127048284Y-108536377D01*
X126906449Y-108363551D01*
X126733623Y-108221716D01*
X126536447Y-108116324D01*
X126322499Y-108051423D01*
X126155752Y-108035000D01*
X124944248Y-108035000D01*
X124777501Y-108051423D01*
X124563553Y-108116324D01*
X124366377Y-108221716D01*
X124193551Y-108363551D01*
X124051716Y-108536377D01*
X123946324Y-108733553D01*
X123881423Y-108947501D01*
X123859509Y-109170000D01*
X122810491Y-109170000D01*
X122788577Y-108947501D01*
X122723676Y-108733553D01*
X122618284Y-108536377D01*
X122476449Y-108363551D01*
X122303623Y-108221716D01*
X122106447Y-108116324D01*
X121892499Y-108051423D01*
X121725752Y-108035000D01*
X121014248Y-108035000D01*
X120847501Y-108051423D01*
X120685000Y-108100718D01*
X120685000Y-107238061D01*
X164025000Y-107238061D01*
X164025000Y-107441939D01*
X164064774Y-107641898D01*
X164142795Y-107830256D01*
X164256063Y-107999774D01*
X164400226Y-108143937D01*
X164569744Y-108257205D01*
X164758102Y-108335226D01*
X164958061Y-108375000D01*
X165161939Y-108375000D01*
X165361898Y-108335226D01*
X165550256Y-108257205D01*
X165719774Y-108143937D01*
X165763711Y-108100000D01*
X169535958Y-108100000D01*
X169532795Y-108104734D01*
X169454774Y-108293092D01*
X169415000Y-108493051D01*
X169415000Y-108560000D01*
X169293711Y-108560000D01*
X169249774Y-108516063D01*
X169080256Y-108402795D01*
X168891898Y-108324774D01*
X168691939Y-108285000D01*
X168488061Y-108285000D01*
X168288102Y-108324774D01*
X168099744Y-108402795D01*
X167930226Y-108516063D01*
X167786063Y-108660226D01*
X167672795Y-108829744D01*
X167594774Y-109018102D01*
X167555000Y-109218061D01*
X167555000Y-109421939D01*
X167576494Y-109529999D01*
X167381159Y-109529999D01*
X167327205Y-109399744D01*
X167213937Y-109230226D01*
X167069774Y-109086063D01*
X166900256Y-108972795D01*
X166711898Y-108894774D01*
X166511939Y-108855000D01*
X166308061Y-108855000D01*
X166108102Y-108894774D01*
X165919744Y-108972795D01*
X165750226Y-109086063D01*
X165606063Y-109230226D01*
X165492795Y-109399744D01*
X165414774Y-109588102D01*
X165375000Y-109788061D01*
X165375000Y-109991939D01*
X165414774Y-110191898D01*
X165492795Y-110380256D01*
X165606063Y-110549774D01*
X165750226Y-110693937D01*
X165879932Y-110780604D01*
X165847098Y-110829744D01*
X165769077Y-111018102D01*
X165729303Y-111218061D01*
X165729303Y-111421939D01*
X165769077Y-111621898D01*
X165847098Y-111810256D01*
X165960366Y-111979774D01*
X166104529Y-112123937D01*
X166274047Y-112237205D01*
X166462405Y-112315226D01*
X166662364Y-112355000D01*
X166866242Y-112355000D01*
X167066201Y-112315226D01*
X167254559Y-112237205D01*
X167424077Y-112123937D01*
X167468014Y-112080000D01*
X183545199Y-112080000D01*
X196565000Y-125099802D01*
X196565000Y-125161939D01*
X196604774Y-125361898D01*
X196682795Y-125550256D01*
X196796063Y-125719774D01*
X196940226Y-125863937D01*
X197109744Y-125977205D01*
X197298102Y-126055226D01*
X197498061Y-126095000D01*
X197701939Y-126095000D01*
X197901898Y-126055226D01*
X198090256Y-125977205D01*
X198259774Y-125863937D01*
X198403937Y-125719774D01*
X198517205Y-125550256D01*
X198595226Y-125361898D01*
X198635000Y-125161939D01*
X198635000Y-124958061D01*
X198595226Y-124758102D01*
X198517205Y-124569744D01*
X198403937Y-124400226D01*
X198259774Y-124256063D01*
X198090256Y-124142795D01*
X197901898Y-124064774D01*
X197701939Y-124025000D01*
X197639802Y-124025000D01*
X184664800Y-111049999D01*
X185055198Y-111049999D01*
X196565000Y-122559802D01*
X196565000Y-122621939D01*
X196604774Y-122821898D01*
X196682795Y-123010256D01*
X196796063Y-123179774D01*
X196940226Y-123323937D01*
X197109744Y-123437205D01*
X197298102Y-123515226D01*
X197498061Y-123555000D01*
X197701939Y-123555000D01*
X197901898Y-123515226D01*
X198090256Y-123437205D01*
X198259774Y-123323937D01*
X198403937Y-123179774D01*
X198517205Y-123010256D01*
X198595226Y-122821898D01*
X198635000Y-122621939D01*
X198635000Y-122418061D01*
X198595226Y-122218102D01*
X198517205Y-122029744D01*
X198403937Y-121860226D01*
X198259774Y-121716063D01*
X198090256Y-121602795D01*
X197901898Y-121524774D01*
X197701939Y-121485000D01*
X197639802Y-121485000D01*
X186234801Y-110080000D01*
X186635199Y-110080000D01*
X196565000Y-120009803D01*
X196565000Y-120071939D01*
X196604774Y-120271898D01*
X196682795Y-120460256D01*
X196796063Y-120629774D01*
X196940226Y-120773937D01*
X197109744Y-120887205D01*
X197298102Y-120965226D01*
X197498061Y-121005000D01*
X197701939Y-121005000D01*
X197901898Y-120965226D01*
X198090256Y-120887205D01*
X198259774Y-120773937D01*
X198403937Y-120629774D01*
X198517205Y-120460256D01*
X198595226Y-120271898D01*
X198635000Y-120071939D01*
X198635000Y-119868061D01*
X198595226Y-119668102D01*
X198517205Y-119479744D01*
X198403937Y-119310226D01*
X198259774Y-119166063D01*
X198090256Y-119052795D01*
X197901898Y-118974774D01*
X197701939Y-118935000D01*
X197639803Y-118935000D01*
X196965884Y-118261081D01*
X197109744Y-118357205D01*
X197298102Y-118435226D01*
X197498061Y-118475000D01*
X197701939Y-118475000D01*
X197901898Y-118435226D01*
X198090256Y-118357205D01*
X198259774Y-118243937D01*
X198403937Y-118099774D01*
X198517205Y-117930256D01*
X198595226Y-117741898D01*
X198635000Y-117541939D01*
X198635000Y-117338061D01*
X198595226Y-117138102D01*
X198517205Y-116949744D01*
X198403937Y-116780226D01*
X198259774Y-116636063D01*
X198090256Y-116522795D01*
X197901898Y-116444774D01*
X197701939Y-116405000D01*
X197639802Y-116405000D01*
X189334801Y-108100000D01*
X189725199Y-108100000D01*
X196565000Y-114939802D01*
X196565000Y-115001939D01*
X196604774Y-115201898D01*
X196682795Y-115390256D01*
X196796063Y-115559774D01*
X196940226Y-115703937D01*
X197109744Y-115817205D01*
X197298102Y-115895226D01*
X197498061Y-115935000D01*
X197701939Y-115935000D01*
X197901898Y-115895226D01*
X198090256Y-115817205D01*
X198259774Y-115703937D01*
X198403937Y-115559774D01*
X198517205Y-115390256D01*
X198595226Y-115201898D01*
X198635000Y-115001939D01*
X198635000Y-114798061D01*
X198595226Y-114598102D01*
X198517205Y-114409744D01*
X198403937Y-114240226D01*
X198259774Y-114096063D01*
X198090256Y-113982795D01*
X197901898Y-113904774D01*
X197701939Y-113865000D01*
X197639802Y-113865000D01*
X190984801Y-107210000D01*
X191375199Y-107210000D01*
X196565024Y-112399826D01*
X196565024Y-112461963D01*
X196604798Y-112661922D01*
X196682819Y-112850280D01*
X196796087Y-113019798D01*
X196940250Y-113163961D01*
X197109768Y-113277229D01*
X197298126Y-113355250D01*
X197498085Y-113395024D01*
X197701963Y-113395024D01*
X197901922Y-113355250D01*
X198090280Y-113277229D01*
X198259798Y-113163961D01*
X198403961Y-113019798D01*
X198517229Y-112850280D01*
X198595250Y-112661922D01*
X198635024Y-112461963D01*
X198635024Y-112258085D01*
X198595250Y-112058126D01*
X198517229Y-111869768D01*
X198403961Y-111700250D01*
X198259798Y-111556087D01*
X198090280Y-111442819D01*
X197901922Y-111364798D01*
X197701963Y-111325024D01*
X197639826Y-111325024D01*
X192253804Y-105939003D01*
X192230001Y-105909999D01*
X192114276Y-105815026D01*
X191982247Y-105744454D01*
X191838986Y-105700997D01*
X191727333Y-105690000D01*
X191727322Y-105690000D01*
X191690000Y-105686324D01*
X191652678Y-105690000D01*
X171593711Y-105690000D01*
X171549774Y-105646063D01*
X171380256Y-105532795D01*
X171191898Y-105454774D01*
X170991939Y-105415000D01*
X170788061Y-105415000D01*
X170588102Y-105454774D01*
X170399744Y-105532795D01*
X170230226Y-105646063D01*
X170086063Y-105790226D01*
X169972795Y-105959744D01*
X169894774Y-106148102D01*
X169855000Y-106348061D01*
X169855000Y-106551939D01*
X169860582Y-106580000D01*
X165763711Y-106580000D01*
X165719774Y-106536063D01*
X165550256Y-106422795D01*
X165361898Y-106344774D01*
X165161939Y-106305000D01*
X164958061Y-106305000D01*
X164758102Y-106344774D01*
X164569744Y-106422795D01*
X164400226Y-106536063D01*
X164256063Y-106680226D01*
X164142795Y-106849744D01*
X164064774Y-107038102D01*
X164025000Y-107238061D01*
X120685000Y-107238061D01*
X120685000Y-99540000D01*
X125459339Y-99540000D01*
X125481929Y-99769360D01*
X125548831Y-99989906D01*
X125647766Y-100175000D01*
X125548831Y-100360094D01*
X125481929Y-100580640D01*
X125459339Y-100810000D01*
X125481929Y-101039360D01*
X125548831Y-101259906D01*
X125657474Y-101463162D01*
X125803682Y-101641318D01*
X125981838Y-101787526D01*
X126185094Y-101896169D01*
X126405640Y-101963071D01*
X126577523Y-101980000D01*
X127422477Y-101980000D01*
X127594360Y-101963071D01*
X127814906Y-101896169D01*
X128018162Y-101787526D01*
X128196318Y-101641318D01*
X128342526Y-101463162D01*
X128451169Y-101259906D01*
X128518071Y-101039360D01*
X128540661Y-100810000D01*
X128518071Y-100580640D01*
X128451169Y-100360094D01*
X128352234Y-100175000D01*
X128451169Y-99989906D01*
X128518071Y-99769360D01*
X128540661Y-99540000D01*
X128518071Y-99310640D01*
X128451169Y-99090094D01*
X128350846Y-98902404D01*
X128408377Y-98814421D01*
X128493900Y-98577383D01*
X128368244Y-98397000D01*
X127627560Y-98397000D01*
X127594360Y-98386929D01*
X127422477Y-98370000D01*
X126577523Y-98370000D01*
X126405640Y-98386929D01*
X126372440Y-98397000D01*
X125631756Y-98397000D01*
X125506100Y-98577383D01*
X125591623Y-98814421D01*
X125649154Y-98902404D01*
X125548831Y-99090094D01*
X125481929Y-99310640D01*
X125459339Y-99540000D01*
X120685000Y-99540000D01*
X120685000Y-96465000D01*
X125461928Y-96465000D01*
X125461928Y-97535000D01*
X125474188Y-97659482D01*
X125510498Y-97779180D01*
X125547385Y-97848190D01*
X125506100Y-97962617D01*
X125631756Y-98143000D01*
X125916800Y-98143000D01*
X125975518Y-98160812D01*
X126100000Y-98173072D01*
X127900000Y-98173072D01*
X128024482Y-98160812D01*
X128083200Y-98143000D01*
X128368244Y-98143000D01*
X128493900Y-97962617D01*
X128452615Y-97848190D01*
X128489502Y-97779180D01*
X128525812Y-97659482D01*
X128538072Y-97535000D01*
X128538072Y-96465000D01*
X128525812Y-96340518D01*
X128489502Y-96220820D01*
X128430537Y-96110506D01*
X128351185Y-96013815D01*
X128254494Y-95934463D01*
X128144180Y-95875498D01*
X128024482Y-95839188D01*
X127900000Y-95826928D01*
X126100000Y-95826928D01*
X125975518Y-95839188D01*
X125855820Y-95875498D01*
X125745506Y-95934463D01*
X125648815Y-96013815D01*
X125569463Y-96110506D01*
X125510498Y-96220820D01*
X125474188Y-96340518D01*
X125461928Y-96465000D01*
X120685000Y-96465000D01*
X120685000Y-90685000D01*
X199315000Y-90685000D01*
X199315001Y-136315000D01*
G37*
G04 #@! TD.AperFunction*
D21*
X199315001Y-136315000D02*
X120685000Y-136315000D01*
X120685000Y-134450000D01*
X126611928Y-134450000D01*
X126624188Y-134574482D01*
X126660498Y-134694180D01*
X126719463Y-134804494D01*
X126798815Y-134901185D01*
X126895506Y-134980537D01*
X127005820Y-135039502D01*
X127125518Y-135075812D01*
X127250000Y-135088072D01*
X128714250Y-135085000D01*
X128873000Y-134926250D01*
X128873000Y-132827000D01*
X129127000Y-132827000D01*
X129127000Y-134926250D01*
X129285750Y-135085000D01*
X130750000Y-135088072D01*
X130874482Y-135075812D01*
X130994180Y-135039502D01*
X131104494Y-134980537D01*
X131201185Y-134901185D01*
X131280537Y-134804494D01*
X131339502Y-134694180D01*
X131375812Y-134574482D01*
X131388072Y-134450000D01*
X131385000Y-132985750D01*
X131226250Y-132827000D01*
X129127000Y-132827000D01*
X128873000Y-132827000D01*
X126773750Y-132827000D01*
X126615000Y-132985750D01*
X126611928Y-134450000D01*
X120685000Y-134450000D01*
X120685000Y-129750000D01*
X123861928Y-129750000D01*
X123874188Y-129874482D01*
X123910498Y-129994180D01*
X123969463Y-130104494D01*
X124048815Y-130201185D01*
X124145506Y-130280537D01*
X124255820Y-130339502D01*
X124375518Y-130375812D01*
X124500000Y-130388072D01*
X125714250Y-130385000D01*
X125873000Y-130226250D01*
X125873000Y-128127000D01*
X126127000Y-128127000D01*
X126127000Y-130226250D01*
X126285750Y-130385000D01*
X126956805Y-130386698D01*
X126895506Y-130419463D01*
X126798815Y-130498815D01*
X126719463Y-130595506D01*
X126660498Y-130705820D01*
X126624188Y-130825518D01*
X126611928Y-130950000D01*
X126615000Y-132414250D01*
X126773750Y-132573000D01*
X128873000Y-132573000D01*
X128873000Y-130473750D01*
X129127000Y-130473750D01*
X129127000Y-132573000D01*
X131226250Y-132573000D01*
X131385000Y-132414250D01*
X131388072Y-130950000D01*
X131375812Y-130825518D01*
X131339502Y-130705820D01*
X131280537Y-130595506D01*
X131201185Y-130498815D01*
X131104494Y-130419463D01*
X131045767Y-130388072D01*
X133750000Y-130388072D01*
X133874482Y-130375812D01*
X133994180Y-130339502D01*
X134104494Y-130280537D01*
X134201185Y-130201185D01*
X134280537Y-130104494D01*
X134339502Y-129994180D01*
X134375812Y-129874482D01*
X134388072Y-129750000D01*
X134388072Y-129581890D01*
X141518524Y-129581890D01*
X141563175Y-129729099D01*
X141688359Y-129991920D01*
X141862412Y-130225269D01*
X142078645Y-130420178D01*
X142328748Y-130569157D01*
X142603109Y-130666481D01*
X142833000Y-130545814D01*
X142833000Y-129352000D01*
X143087000Y-129352000D01*
X143087000Y-130545814D01*
X143316891Y-130666481D01*
X143591252Y-130569157D01*
X143841355Y-130420178D01*
X144037502Y-130243374D01*
X144060498Y-130319180D01*
X144119463Y-130429494D01*
X144198815Y-130526185D01*
X144295506Y-130605537D01*
X144405820Y-130664502D01*
X144525518Y-130700812D01*
X144650000Y-130713072D01*
X145214250Y-130710000D01*
X145373000Y-130551250D01*
X145373000Y-129352000D01*
X145627000Y-129352000D01*
X145627000Y-130551250D01*
X145785750Y-130710000D01*
X146350000Y-130713072D01*
X146474482Y-130700812D01*
X146594180Y-130664502D01*
X146704494Y-130605537D01*
X146801185Y-130526185D01*
X146880537Y-130429494D01*
X146939502Y-130319180D01*
X146975812Y-130199482D01*
X146988072Y-130075000D01*
X146985000Y-129510750D01*
X146826250Y-129352000D01*
X145627000Y-129352000D01*
X145373000Y-129352000D01*
X143087000Y-129352000D01*
X142833000Y-129352000D01*
X141639845Y-129352000D01*
X141518524Y-129581890D01*
X134388072Y-129581890D01*
X134388072Y-126250000D01*
X134375812Y-126125518D01*
X134339502Y-126005820D01*
X134280537Y-125895506D01*
X134201185Y-125798815D01*
X134104494Y-125719463D01*
X133994180Y-125660498D01*
X133874482Y-125624188D01*
X133750000Y-125611928D01*
X130250000Y-125611928D01*
X130125518Y-125624188D01*
X130005820Y-125660498D01*
X129895506Y-125719463D01*
X129798815Y-125798815D01*
X129719463Y-125895506D01*
X129660498Y-126005820D01*
X129624188Y-126125518D01*
X129611928Y-126250000D01*
X129611928Y-129750000D01*
X129624188Y-129874482D01*
X129660498Y-129994180D01*
X129719463Y-130104494D01*
X129798815Y-130201185D01*
X129895506Y-130280537D01*
X129957345Y-130313591D01*
X129285750Y-130315000D01*
X129127000Y-130473750D01*
X128873000Y-130473750D01*
X128714250Y-130315000D01*
X127793633Y-130313069D01*
X127854494Y-130280537D01*
X127951185Y-130201185D01*
X128030537Y-130104494D01*
X128089502Y-129994180D01*
X128125812Y-129874482D01*
X128138072Y-129750000D01*
X128135000Y-128285750D01*
X127976250Y-128127000D01*
X126127000Y-128127000D01*
X125873000Y-128127000D01*
X124023750Y-128127000D01*
X123865000Y-128285750D01*
X123861928Y-129750000D01*
X120685000Y-129750000D01*
X120685000Y-126250000D01*
X123861928Y-126250000D01*
X123865000Y-127714250D01*
X124023750Y-127873000D01*
X125873000Y-127873000D01*
X125873000Y-125773750D01*
X126127000Y-125773750D01*
X126127000Y-127873000D01*
X127976250Y-127873000D01*
X128135000Y-127714250D01*
X128138072Y-126250000D01*
X128125812Y-126125518D01*
X128089502Y-126005820D01*
X128030537Y-125895506D01*
X127951185Y-125798815D01*
X127854494Y-125719463D01*
X127744180Y-125660498D01*
X127624482Y-125624188D01*
X127500000Y-125611928D01*
X126285750Y-125615000D01*
X126127000Y-125773750D01*
X125873000Y-125773750D01*
X125714250Y-125615000D01*
X124500000Y-125611928D01*
X124375518Y-125624188D01*
X124255820Y-125660498D01*
X124145506Y-125719463D01*
X124048815Y-125798815D01*
X123969463Y-125895506D01*
X123910498Y-126005820D01*
X123874188Y-126125518D01*
X123861928Y-126250000D01*
X120685000Y-126250000D01*
X120685000Y-123998740D01*
X141475000Y-123998740D01*
X141475000Y-124291260D01*
X141532068Y-124578158D01*
X141644010Y-124848411D01*
X141806525Y-125091632D01*
X142013368Y-125298475D01*
X142187760Y-125415000D01*
X142013368Y-125531525D01*
X141806525Y-125738368D01*
X141644010Y-125981589D01*
X141532068Y-126251842D01*
X141475000Y-126538740D01*
X141475000Y-126831260D01*
X141532068Y-127118158D01*
X141644010Y-127388411D01*
X141806525Y-127631632D01*
X142013368Y-127838475D01*
X142195534Y-127960195D01*
X142078645Y-128029822D01*
X141862412Y-128224731D01*
X141688359Y-128458080D01*
X141563175Y-128720901D01*
X141518524Y-128868110D01*
X141639845Y-129098000D01*
X142833000Y-129098000D01*
X142833000Y-129078000D01*
X143087000Y-129078000D01*
X143087000Y-129098000D01*
X145373000Y-129098000D01*
X145373000Y-129078000D01*
X145627000Y-129078000D01*
X145627000Y-129098000D01*
X146826250Y-129098000D01*
X146985000Y-128939250D01*
X146988072Y-128375000D01*
X146975812Y-128250518D01*
X146939502Y-128130820D01*
X146880537Y-128020506D01*
X146801185Y-127923815D01*
X146704494Y-127844463D01*
X146594180Y-127785498D01*
X146521620Y-127763487D01*
X146653475Y-127631632D01*
X146815990Y-127388411D01*
X146927932Y-127118158D01*
X146985000Y-126831260D01*
X146985000Y-126538740D01*
X146927932Y-126251842D01*
X146815990Y-125981589D01*
X146653475Y-125738368D01*
X146446632Y-125531525D01*
X146272240Y-125415000D01*
X146446632Y-125298475D01*
X146653475Y-125091632D01*
X146815990Y-124848411D01*
X146927932Y-124578158D01*
X146985000Y-124291260D01*
X146985000Y-123998740D01*
X146927932Y-123711842D01*
X146815990Y-123441589D01*
X146653475Y-123198368D01*
X146523168Y-123068061D01*
X170275000Y-123068061D01*
X170275000Y-123271939D01*
X170314774Y-123471898D01*
X170392795Y-123660256D01*
X170506063Y-123829774D01*
X170650226Y-123973937D01*
X170819744Y-124087205D01*
X171008102Y-124165226D01*
X171208061Y-124205000D01*
X171270199Y-124205000D01*
X175176201Y-128111003D01*
X175199999Y-128140001D01*
X175228997Y-128163799D01*
X175315723Y-128234974D01*
X175410718Y-128285750D01*
X175447753Y-128305546D01*
X175591014Y-128349003D01*
X175702667Y-128360000D01*
X175702676Y-128360000D01*
X175739999Y-128363676D01*
X175777322Y-128360000D01*
X196896289Y-128360000D01*
X196940226Y-128403937D01*
X197109744Y-128517205D01*
X197298102Y-128595226D01*
X197498061Y-128635000D01*
X197701939Y-128635000D01*
X197901898Y-128595226D01*
X198090256Y-128517205D01*
X198259774Y-128403937D01*
X198403937Y-128259774D01*
X198517205Y-128090256D01*
X198595226Y-127901898D01*
X198635000Y-127701939D01*
X198635000Y-127498061D01*
X198595226Y-127298102D01*
X198517205Y-127109744D01*
X198403937Y-126940226D01*
X198259774Y-126796063D01*
X198090256Y-126682795D01*
X197901898Y-126604774D01*
X197701939Y-126565000D01*
X197498061Y-126565000D01*
X197298102Y-126604774D01*
X197109744Y-126682795D01*
X196940226Y-126796063D01*
X196896289Y-126840000D01*
X176054802Y-126840000D01*
X172345000Y-123130199D01*
X172345000Y-123068061D01*
X172305226Y-122868102D01*
X172227205Y-122679744D01*
X172113937Y-122510226D01*
X171969774Y-122366063D01*
X171800256Y-122252795D01*
X171611898Y-122174774D01*
X171411939Y-122135000D01*
X171208061Y-122135000D01*
X171008102Y-122174774D01*
X170819744Y-122252795D01*
X170650226Y-122366063D01*
X170506063Y-122510226D01*
X170392795Y-122679744D01*
X170314774Y-122868102D01*
X170275000Y-123068061D01*
X146523168Y-123068061D01*
X146446632Y-122991525D01*
X146203411Y-122829010D01*
X145933158Y-122717068D01*
X145646260Y-122660000D01*
X145353740Y-122660000D01*
X145066842Y-122717068D01*
X144796589Y-122829010D01*
X144553368Y-122991525D01*
X144346525Y-123198368D01*
X144230000Y-123372760D01*
X144113475Y-123198368D01*
X143906632Y-122991525D01*
X143663411Y-122829010D01*
X143393158Y-122717068D01*
X143106260Y-122660000D01*
X142813740Y-122660000D01*
X142526842Y-122717068D01*
X142256589Y-122829010D01*
X142013368Y-122991525D01*
X141806525Y-123198368D01*
X141644010Y-123441589D01*
X141532068Y-123711842D01*
X141475000Y-123998740D01*
X120685000Y-123998740D01*
X120685000Y-118879282D01*
X120847501Y-118928577D01*
X121014248Y-118945000D01*
X121725752Y-118945000D01*
X121892499Y-118928577D01*
X122106447Y-118863676D01*
X122303623Y-118758284D01*
X122476449Y-118616449D01*
X122618284Y-118443623D01*
X122723676Y-118246447D01*
X122788577Y-118032499D01*
X122810491Y-117810000D01*
X123859509Y-117810000D01*
X123881423Y-118032499D01*
X123946324Y-118246447D01*
X124051716Y-118443623D01*
X124193551Y-118616449D01*
X124366377Y-118758284D01*
X124563553Y-118863676D01*
X124777501Y-118928577D01*
X124944248Y-118945000D01*
X126155752Y-118945000D01*
X126322499Y-118928577D01*
X126536447Y-118863676D01*
X126733623Y-118758284D01*
X126906449Y-118616449D01*
X127048284Y-118443623D01*
X127153676Y-118246447D01*
X127218577Y-118032499D01*
X127240491Y-117810000D01*
X127218577Y-117587501D01*
X127153676Y-117373553D01*
X127048284Y-117176377D01*
X126906449Y-117003551D01*
X126733623Y-116861716D01*
X126536447Y-116756324D01*
X126322499Y-116691423D01*
X126155752Y-116675000D01*
X125936904Y-116675000D01*
X125943108Y-116660022D01*
X125980000Y-116474552D01*
X125980000Y-116285448D01*
X125943108Y-116099978D01*
X125870741Y-115925269D01*
X125765681Y-115768036D01*
X125631964Y-115634319D01*
X125474731Y-115529259D01*
X125300022Y-115456892D01*
X125114552Y-115420000D01*
X124925448Y-115420000D01*
X124739978Y-115456892D01*
X124565269Y-115529259D01*
X124408036Y-115634319D01*
X124274319Y-115768036D01*
X124169259Y-115925269D01*
X124096892Y-116099978D01*
X124060000Y-116285448D01*
X124060000Y-116474552D01*
X124096892Y-116660022D01*
X124169259Y-116834731D01*
X124250715Y-116956638D01*
X124193551Y-117003551D01*
X124051716Y-117176377D01*
X123946324Y-117373553D01*
X123881423Y-117587501D01*
X123859509Y-117810000D01*
X122810491Y-117810000D01*
X122788577Y-117587501D01*
X122723676Y-117373553D01*
X122618284Y-117176377D01*
X122476449Y-117003551D01*
X122303623Y-116861716D01*
X122106447Y-116756324D01*
X121892499Y-116691423D01*
X121725752Y-116675000D01*
X121014248Y-116675000D01*
X120847501Y-116691423D01*
X120685000Y-116740718D01*
X120685000Y-110239282D01*
X120847501Y-110288577D01*
X121014248Y-110305000D01*
X121725752Y-110305000D01*
X121892499Y-110288577D01*
X122106447Y-110223676D01*
X122303623Y-110118284D01*
X122476449Y-109976449D01*
X122618284Y-109803623D01*
X122723676Y-109606447D01*
X122788577Y-109392499D01*
X122810491Y-109170000D01*
X123859509Y-109170000D01*
X123881423Y-109392499D01*
X123946324Y-109606447D01*
X124051716Y-109803623D01*
X124193551Y-109976449D01*
X124250715Y-110023362D01*
X124169259Y-110145269D01*
X124096892Y-110319978D01*
X124060000Y-110505448D01*
X124060000Y-110694552D01*
X124096892Y-110880022D01*
X124169259Y-111054731D01*
X124274319Y-111211964D01*
X124408036Y-111345681D01*
X124565269Y-111450741D01*
X124739978Y-111523108D01*
X124925448Y-111560000D01*
X125114552Y-111560000D01*
X125300022Y-111523108D01*
X125474731Y-111450741D01*
X125631964Y-111345681D01*
X125765681Y-111211964D01*
X125870741Y-111054731D01*
X125890134Y-111007911D01*
X126865000Y-111007911D01*
X126865000Y-111192089D01*
X126900932Y-111372729D01*
X126971414Y-111542889D01*
X127073738Y-111696028D01*
X127203972Y-111826262D01*
X127357111Y-111928586D01*
X127391077Y-111942655D01*
X127415000Y-111966578D01*
X127415001Y-113032250D01*
X127415000Y-113032260D01*
X127415000Y-113193308D01*
X127400932Y-113227271D01*
X127365000Y-113407911D01*
X127365000Y-113592089D01*
X127400932Y-113772729D01*
X127415000Y-113806692D01*
X127415000Y-113967740D01*
X127415001Y-113967750D01*
X127415000Y-115033422D01*
X127391077Y-115057345D01*
X127357111Y-115071414D01*
X127203972Y-115173738D01*
X127073738Y-115303972D01*
X126971414Y-115457111D01*
X126900932Y-115627271D01*
X126865000Y-115807911D01*
X126865000Y-115992089D01*
X126900932Y-116172729D01*
X126971414Y-116342889D01*
X127073738Y-116496028D01*
X127203972Y-116626262D01*
X127357111Y-116728586D01*
X127527271Y-116799068D01*
X127707911Y-116835000D01*
X127892089Y-116835000D01*
X128072729Y-116799068D01*
X128242889Y-116728586D01*
X128396028Y-116626262D01*
X128526262Y-116496028D01*
X128628586Y-116342889D01*
X128642655Y-116308923D01*
X128895045Y-116056533D01*
X128928817Y-116028817D01*
X129039411Y-115894059D01*
X129121589Y-115740313D01*
X129172195Y-115573490D01*
X129185000Y-115443477D01*
X129185000Y-115443469D01*
X129189281Y-115400000D01*
X129185000Y-115356531D01*
X129185000Y-113806692D01*
X129199068Y-113772729D01*
X129235000Y-113592089D01*
X129235000Y-113407911D01*
X129199068Y-113227271D01*
X129185000Y-113193308D01*
X129185000Y-111643469D01*
X129189281Y-111600000D01*
X129185000Y-111556531D01*
X129185000Y-111556523D01*
X129172195Y-111426510D01*
X129121589Y-111259687D01*
X129039411Y-111105941D01*
X128928817Y-110971183D01*
X128895045Y-110943467D01*
X128642655Y-110691077D01*
X128628586Y-110657111D01*
X128526262Y-110503972D01*
X128396028Y-110373738D01*
X128242889Y-110271414D01*
X128072729Y-110200932D01*
X127892089Y-110165000D01*
X127707911Y-110165000D01*
X127527271Y-110200932D01*
X127357111Y-110271414D01*
X127203972Y-110373738D01*
X127073738Y-110503972D01*
X126971414Y-110657111D01*
X126900932Y-110827271D01*
X126865000Y-111007911D01*
X125890134Y-111007911D01*
X125943108Y-110880022D01*
X125980000Y-110694552D01*
X125980000Y-110505448D01*
X125943108Y-110319978D01*
X125936904Y-110305000D01*
X126155752Y-110305000D01*
X126322499Y-110288577D01*
X126536447Y-110223676D01*
X126733623Y-110118284D01*
X126906449Y-109976449D01*
X127048284Y-109803623D01*
X127153676Y-109606447D01*
X127218577Y-109392499D01*
X127240491Y-109170000D01*
X127218577Y-108947501D01*
X127153676Y-108733553D01*
X127048284Y-108536377D01*
X126906449Y-108363551D01*
X126733623Y-108221716D01*
X126536447Y-108116324D01*
X126322499Y-108051423D01*
X126155752Y-108035000D01*
X124944248Y-108035000D01*
X124777501Y-108051423D01*
X124563553Y-108116324D01*
X124366377Y-108221716D01*
X124193551Y-108363551D01*
X124051716Y-108536377D01*
X123946324Y-108733553D01*
X123881423Y-108947501D01*
X123859509Y-109170000D01*
X122810491Y-109170000D01*
X122788577Y-108947501D01*
X122723676Y-108733553D01*
X122618284Y-108536377D01*
X122476449Y-108363551D01*
X122303623Y-108221716D01*
X122106447Y-108116324D01*
X121892499Y-108051423D01*
X121725752Y-108035000D01*
X121014248Y-108035000D01*
X120847501Y-108051423D01*
X120685000Y-108100718D01*
X120685000Y-107238061D01*
X164025000Y-107238061D01*
X164025000Y-107441939D01*
X164064774Y-107641898D01*
X164142795Y-107830256D01*
X164256063Y-107999774D01*
X164400226Y-108143937D01*
X164569744Y-108257205D01*
X164758102Y-108335226D01*
X164958061Y-108375000D01*
X165161939Y-108375000D01*
X165361898Y-108335226D01*
X165550256Y-108257205D01*
X165719774Y-108143937D01*
X165763711Y-108100000D01*
X169535958Y-108100000D01*
X169532795Y-108104734D01*
X169454774Y-108293092D01*
X169415000Y-108493051D01*
X169415000Y-108560000D01*
X169293711Y-108560000D01*
X169249774Y-108516063D01*
X169080256Y-108402795D01*
X168891898Y-108324774D01*
X168691939Y-108285000D01*
X168488061Y-108285000D01*
X168288102Y-108324774D01*
X168099744Y-108402795D01*
X167930226Y-108516063D01*
X167786063Y-108660226D01*
X167672795Y-108829744D01*
X167594774Y-109018102D01*
X167555000Y-109218061D01*
X167555000Y-109421939D01*
X167576494Y-109529999D01*
X167381159Y-109529999D01*
X167327205Y-109399744D01*
X167213937Y-109230226D01*
X167069774Y-109086063D01*
X166900256Y-108972795D01*
X166711898Y-108894774D01*
X166511939Y-108855000D01*
X166308061Y-108855000D01*
X166108102Y-108894774D01*
X165919744Y-108972795D01*
X165750226Y-109086063D01*
X165606063Y-109230226D01*
X165492795Y-109399744D01*
X165414774Y-109588102D01*
X165375000Y-109788061D01*
X165375000Y-109991939D01*
X165414774Y-110191898D01*
X165492795Y-110380256D01*
X165606063Y-110549774D01*
X165750226Y-110693937D01*
X165879932Y-110780604D01*
X165847098Y-110829744D01*
X165769077Y-111018102D01*
X165729303Y-111218061D01*
X165729303Y-111421939D01*
X165769077Y-111621898D01*
X165847098Y-111810256D01*
X165960366Y-111979774D01*
X166104529Y-112123937D01*
X166274047Y-112237205D01*
X166462405Y-112315226D01*
X166662364Y-112355000D01*
X166866242Y-112355000D01*
X167066201Y-112315226D01*
X167254559Y-112237205D01*
X167424077Y-112123937D01*
X167468014Y-112080000D01*
X183545199Y-112080000D01*
X196565000Y-125099802D01*
X196565000Y-125161939D01*
X196604774Y-125361898D01*
X196682795Y-125550256D01*
X196796063Y-125719774D01*
X196940226Y-125863937D01*
X197109744Y-125977205D01*
X197298102Y-126055226D01*
X197498061Y-126095000D01*
X197701939Y-126095000D01*
X197901898Y-126055226D01*
X198090256Y-125977205D01*
X198259774Y-125863937D01*
X198403937Y-125719774D01*
X198517205Y-125550256D01*
X198595226Y-125361898D01*
X198635000Y-125161939D01*
X198635000Y-124958061D01*
X198595226Y-124758102D01*
X198517205Y-124569744D01*
X198403937Y-124400226D01*
X198259774Y-124256063D01*
X198090256Y-124142795D01*
X197901898Y-124064774D01*
X197701939Y-124025000D01*
X197639802Y-124025000D01*
X184664800Y-111049999D01*
X185055198Y-111049999D01*
X196565000Y-122559802D01*
X196565000Y-122621939D01*
X196604774Y-122821898D01*
X196682795Y-123010256D01*
X196796063Y-123179774D01*
X196940226Y-123323937D01*
X197109744Y-123437205D01*
X197298102Y-123515226D01*
X197498061Y-123555000D01*
X197701939Y-123555000D01*
X197901898Y-123515226D01*
X198090256Y-123437205D01*
X198259774Y-123323937D01*
X198403937Y-123179774D01*
X198517205Y-123010256D01*
X198595226Y-122821898D01*
X198635000Y-122621939D01*
X198635000Y-122418061D01*
X198595226Y-122218102D01*
X198517205Y-122029744D01*
X198403937Y-121860226D01*
X198259774Y-121716063D01*
X198090256Y-121602795D01*
X197901898Y-121524774D01*
X197701939Y-121485000D01*
X197639802Y-121485000D01*
X186234801Y-110080000D01*
X186635199Y-110080000D01*
X196565000Y-120009803D01*
X196565000Y-120071939D01*
X196604774Y-120271898D01*
X196682795Y-120460256D01*
X196796063Y-120629774D01*
X196940226Y-120773937D01*
X197109744Y-120887205D01*
X197298102Y-120965226D01*
X197498061Y-121005000D01*
X197701939Y-121005000D01*
X197901898Y-120965226D01*
X198090256Y-120887205D01*
X198259774Y-120773937D01*
X198403937Y-120629774D01*
X198517205Y-120460256D01*
X198595226Y-120271898D01*
X198635000Y-120071939D01*
X198635000Y-119868061D01*
X198595226Y-119668102D01*
X198517205Y-119479744D01*
X198403937Y-119310226D01*
X198259774Y-119166063D01*
X198090256Y-119052795D01*
X197901898Y-118974774D01*
X197701939Y-118935000D01*
X197639803Y-118935000D01*
X196965884Y-118261081D01*
X197109744Y-118357205D01*
X197298102Y-118435226D01*
X197498061Y-118475000D01*
X197701939Y-118475000D01*
X197901898Y-118435226D01*
X198090256Y-118357205D01*
X198259774Y-118243937D01*
X198403937Y-118099774D01*
X198517205Y-117930256D01*
X198595226Y-117741898D01*
X198635000Y-117541939D01*
X198635000Y-117338061D01*
X198595226Y-117138102D01*
X198517205Y-116949744D01*
X198403937Y-116780226D01*
X198259774Y-116636063D01*
X198090256Y-116522795D01*
X197901898Y-116444774D01*
X197701939Y-116405000D01*
X197639802Y-116405000D01*
X189334801Y-108100000D01*
X189725199Y-108100000D01*
X196565000Y-114939802D01*
X196565000Y-115001939D01*
X196604774Y-115201898D01*
X196682795Y-115390256D01*
X196796063Y-115559774D01*
X196940226Y-115703937D01*
X197109744Y-115817205D01*
X197298102Y-115895226D01*
X197498061Y-115935000D01*
X197701939Y-115935000D01*
X197901898Y-115895226D01*
X198090256Y-115817205D01*
X198259774Y-115703937D01*
X198403937Y-115559774D01*
X198517205Y-115390256D01*
X198595226Y-115201898D01*
X198635000Y-115001939D01*
X198635000Y-114798061D01*
X198595226Y-114598102D01*
X198517205Y-114409744D01*
X198403937Y-114240226D01*
X198259774Y-114096063D01*
X198090256Y-113982795D01*
X197901898Y-113904774D01*
X197701939Y-113865000D01*
X197639802Y-113865000D01*
X190984801Y-107210000D01*
X191375199Y-107210000D01*
X196565024Y-112399826D01*
X196565024Y-112461963D01*
X196604798Y-112661922D01*
X196682819Y-112850280D01*
X196796087Y-113019798D01*
X196940250Y-113163961D01*
X197109768Y-113277229D01*
X197298126Y-113355250D01*
X197498085Y-113395024D01*
X197701963Y-113395024D01*
X197901922Y-113355250D01*
X198090280Y-113277229D01*
X198259798Y-113163961D01*
X198403961Y-113019798D01*
X198517229Y-112850280D01*
X198595250Y-112661922D01*
X198635024Y-112461963D01*
X198635024Y-112258085D01*
X198595250Y-112058126D01*
X198517229Y-111869768D01*
X198403961Y-111700250D01*
X198259798Y-111556087D01*
X198090280Y-111442819D01*
X197901922Y-111364798D01*
X197701963Y-111325024D01*
X197639826Y-111325024D01*
X192253804Y-105939003D01*
X192230001Y-105909999D01*
X192114276Y-105815026D01*
X191982247Y-105744454D01*
X191838986Y-105700997D01*
X191727333Y-105690000D01*
X191727322Y-105690000D01*
X191690000Y-105686324D01*
X191652678Y-105690000D01*
X171593711Y-105690000D01*
X171549774Y-105646063D01*
X171380256Y-105532795D01*
X171191898Y-105454774D01*
X170991939Y-105415000D01*
X170788061Y-105415000D01*
X170588102Y-105454774D01*
X170399744Y-105532795D01*
X170230226Y-105646063D01*
X170086063Y-105790226D01*
X169972795Y-105959744D01*
X169894774Y-106148102D01*
X169855000Y-106348061D01*
X169855000Y-106551939D01*
X169860582Y-106580000D01*
X165763711Y-106580000D01*
X165719774Y-106536063D01*
X165550256Y-106422795D01*
X165361898Y-106344774D01*
X165161939Y-106305000D01*
X164958061Y-106305000D01*
X164758102Y-106344774D01*
X164569744Y-106422795D01*
X164400226Y-106536063D01*
X164256063Y-106680226D01*
X164142795Y-106849744D01*
X164064774Y-107038102D01*
X164025000Y-107238061D01*
X120685000Y-107238061D01*
X120685000Y-99540000D01*
X125459339Y-99540000D01*
X125481929Y-99769360D01*
X125548831Y-99989906D01*
X125647766Y-100175000D01*
X125548831Y-100360094D01*
X125481929Y-100580640D01*
X125459339Y-100810000D01*
X125481929Y-101039360D01*
X125548831Y-101259906D01*
X125657474Y-101463162D01*
X125803682Y-101641318D01*
X125981838Y-101787526D01*
X126185094Y-101896169D01*
X126405640Y-101963071D01*
X126577523Y-101980000D01*
X127422477Y-101980000D01*
X127594360Y-101963071D01*
X127814906Y-101896169D01*
X128018162Y-101787526D01*
X128196318Y-101641318D01*
X128342526Y-101463162D01*
X128451169Y-101259906D01*
X128518071Y-101039360D01*
X128540661Y-100810000D01*
X128518071Y-100580640D01*
X128451169Y-100360094D01*
X128352234Y-100175000D01*
X128451169Y-99989906D01*
X128518071Y-99769360D01*
X128540661Y-99540000D01*
X128518071Y-99310640D01*
X128451169Y-99090094D01*
X128350846Y-98902404D01*
X128408377Y-98814421D01*
X128493900Y-98577383D01*
X128368244Y-98397000D01*
X127627560Y-98397000D01*
X127594360Y-98386929D01*
X127422477Y-98370000D01*
X126577523Y-98370000D01*
X126405640Y-98386929D01*
X126372440Y-98397000D01*
X125631756Y-98397000D01*
X125506100Y-98577383D01*
X125591623Y-98814421D01*
X125649154Y-98902404D01*
X125548831Y-99090094D01*
X125481929Y-99310640D01*
X125459339Y-99540000D01*
X120685000Y-99540000D01*
X120685000Y-96465000D01*
X125461928Y-96465000D01*
X125461928Y-97535000D01*
X125474188Y-97659482D01*
X125510498Y-97779180D01*
X125547385Y-97848190D01*
X125506100Y-97962617D01*
X125631756Y-98143000D01*
X125916800Y-98143000D01*
X125975518Y-98160812D01*
X126100000Y-98173072D01*
X127900000Y-98173072D01*
X128024482Y-98160812D01*
X128083200Y-98143000D01*
X128368244Y-98143000D01*
X128493900Y-97962617D01*
X128452615Y-97848190D01*
X128489502Y-97779180D01*
X128525812Y-97659482D01*
X128538072Y-97535000D01*
X128538072Y-96465000D01*
X128525812Y-96340518D01*
X128489502Y-96220820D01*
X128430537Y-96110506D01*
X128351185Y-96013815D01*
X128254494Y-95934463D01*
X128144180Y-95875498D01*
X128024482Y-95839188D01*
X127900000Y-95826928D01*
X126100000Y-95826928D01*
X125975518Y-95839188D01*
X125855820Y-95875498D01*
X125745506Y-95934463D01*
X125648815Y-96013815D01*
X125569463Y-96110506D01*
X125510498Y-96220820D01*
X125474188Y-96340518D01*
X125461928Y-96465000D01*
X120685000Y-96465000D01*
X120685000Y-90685000D01*
X199315000Y-90685000D01*
X199315001Y-136315000D01*
G04 #@! TA.AperFunction,Conductor*
D22*
G36*
X199315001Y-136315000D02*
G01*
X120685000Y-136315000D01*
X120685000Y-134450000D01*
X126611928Y-134450000D01*
X126624188Y-134574482D01*
X126660498Y-134694180D01*
X126719463Y-134804494D01*
X126798815Y-134901185D01*
X126895506Y-134980537D01*
X127005820Y-135039502D01*
X127125518Y-135075812D01*
X127250000Y-135088072D01*
X128714250Y-135085000D01*
X128873000Y-134926250D01*
X128873000Y-132827000D01*
X129127000Y-132827000D01*
X129127000Y-134926250D01*
X129285750Y-135085000D01*
X130750000Y-135088072D01*
X130874482Y-135075812D01*
X130994180Y-135039502D01*
X131104494Y-134980537D01*
X131201185Y-134901185D01*
X131280537Y-134804494D01*
X131339502Y-134694180D01*
X131375812Y-134574482D01*
X131388072Y-134450000D01*
X131385000Y-132985750D01*
X131226250Y-132827000D01*
X129127000Y-132827000D01*
X128873000Y-132827000D01*
X126773750Y-132827000D01*
X126615000Y-132985750D01*
X126611928Y-134450000D01*
X120685000Y-134450000D01*
X120685000Y-129750000D01*
X123861928Y-129750000D01*
X123874188Y-129874482D01*
X123910498Y-129994180D01*
X123969463Y-130104494D01*
X124048815Y-130201185D01*
X124145506Y-130280537D01*
X124255820Y-130339502D01*
X124375518Y-130375812D01*
X124500000Y-130388072D01*
X125714250Y-130385000D01*
X125873000Y-130226250D01*
X125873000Y-128127000D01*
X126127000Y-128127000D01*
X126127000Y-130226250D01*
X126285750Y-130385000D01*
X126956805Y-130386698D01*
X126895506Y-130419463D01*
X126798815Y-130498815D01*
X126719463Y-130595506D01*
X126660498Y-130705820D01*
X126624188Y-130825518D01*
X126611928Y-130950000D01*
X126615000Y-132414250D01*
X126773750Y-132573000D01*
X128873000Y-132573000D01*
X128873000Y-130473750D01*
X129127000Y-130473750D01*
X129127000Y-132573000D01*
X131226250Y-132573000D01*
X131385000Y-132414250D01*
X131388072Y-130950000D01*
X131375812Y-130825518D01*
X131339502Y-130705820D01*
X131280537Y-130595506D01*
X131201185Y-130498815D01*
X131104494Y-130419463D01*
X131045767Y-130388072D01*
X133750000Y-130388072D01*
X133874482Y-130375812D01*
X133994180Y-130339502D01*
X134104494Y-130280537D01*
X134201185Y-130201185D01*
X134280537Y-130104494D01*
X134339502Y-129994180D01*
X134375812Y-129874482D01*
X134388072Y-129750000D01*
X134388072Y-129581890D01*
X141518524Y-129581890D01*
X141563175Y-129729099D01*
X141688359Y-129991920D01*
X141862412Y-130225269D01*
X142078645Y-130420178D01*
X142328748Y-130569157D01*
X142603109Y-130666481D01*
X142833000Y-130545814D01*
X142833000Y-129352000D01*
X143087000Y-129352000D01*
X143087000Y-130545814D01*
X143316891Y-130666481D01*
X143591252Y-130569157D01*
X143841355Y-130420178D01*
X144037502Y-130243374D01*
X144060498Y-130319180D01*
X144119463Y-130429494D01*
X144198815Y-130526185D01*
X144295506Y-130605537D01*
X144405820Y-130664502D01*
X144525518Y-130700812D01*
X144650000Y-130713072D01*
X145214250Y-130710000D01*
X145373000Y-130551250D01*
X145373000Y-129352000D01*
X145627000Y-129352000D01*
X145627000Y-130551250D01*
X145785750Y-130710000D01*
X146350000Y-130713072D01*
X146474482Y-130700812D01*
X146594180Y-130664502D01*
X146704494Y-130605537D01*
X146801185Y-130526185D01*
X146880537Y-130429494D01*
X146939502Y-130319180D01*
X146975812Y-130199482D01*
X146988072Y-130075000D01*
X146985000Y-129510750D01*
X146826250Y-129352000D01*
X145627000Y-129352000D01*
X145373000Y-129352000D01*
X143087000Y-129352000D01*
X142833000Y-129352000D01*
X141639845Y-129352000D01*
X141518524Y-129581890D01*
X134388072Y-129581890D01*
X134388072Y-126250000D01*
X134375812Y-126125518D01*
X134339502Y-126005820D01*
X134280537Y-125895506D01*
X134201185Y-125798815D01*
X134104494Y-125719463D01*
X133994180Y-125660498D01*
X133874482Y-125624188D01*
X133750000Y-125611928D01*
X130250000Y-125611928D01*
X130125518Y-125624188D01*
X130005820Y-125660498D01*
X129895506Y-125719463D01*
X129798815Y-125798815D01*
X129719463Y-125895506D01*
X129660498Y-126005820D01*
X129624188Y-126125518D01*
X129611928Y-126250000D01*
X129611928Y-129750000D01*
X129624188Y-129874482D01*
X129660498Y-129994180D01*
X129719463Y-130104494D01*
X129798815Y-130201185D01*
X129895506Y-130280537D01*
X129957345Y-130313591D01*
X129285750Y-130315000D01*
X129127000Y-130473750D01*
X128873000Y-130473750D01*
X128714250Y-130315000D01*
X127793633Y-130313069D01*
X127854494Y-130280537D01*
X127951185Y-130201185D01*
X128030537Y-130104494D01*
X128089502Y-129994180D01*
X128125812Y-129874482D01*
X128138072Y-129750000D01*
X128135000Y-128285750D01*
X127976250Y-128127000D01*
X126127000Y-128127000D01*
X125873000Y-128127000D01*
X124023750Y-128127000D01*
X123865000Y-128285750D01*
X123861928Y-129750000D01*
X120685000Y-129750000D01*
X120685000Y-126250000D01*
X123861928Y-126250000D01*
X123865000Y-127714250D01*
X124023750Y-127873000D01*
X125873000Y-127873000D01*
X125873000Y-125773750D01*
X126127000Y-125773750D01*
X126127000Y-127873000D01*
X127976250Y-127873000D01*
X128135000Y-127714250D01*
X128138072Y-126250000D01*
X128125812Y-126125518D01*
X128089502Y-126005820D01*
X128030537Y-125895506D01*
X127951185Y-125798815D01*
X127854494Y-125719463D01*
X127744180Y-125660498D01*
X127624482Y-125624188D01*
X127500000Y-125611928D01*
X126285750Y-125615000D01*
X126127000Y-125773750D01*
X125873000Y-125773750D01*
X125714250Y-125615000D01*
X124500000Y-125611928D01*
X124375518Y-125624188D01*
X124255820Y-125660498D01*
X124145506Y-125719463D01*
X124048815Y-125798815D01*
X123969463Y-125895506D01*
X123910498Y-126005820D01*
X123874188Y-126125518D01*
X123861928Y-126250000D01*
X120685000Y-126250000D01*
X120685000Y-123998740D01*
X141475000Y-123998740D01*
X141475000Y-124291260D01*
X141532068Y-124578158D01*
X141644010Y-124848411D01*
X141806525Y-125091632D01*
X142013368Y-125298475D01*
X142187760Y-125415000D01*
X142013368Y-125531525D01*
X141806525Y-125738368D01*
X141644010Y-125981589D01*
X141532068Y-126251842D01*
X141475000Y-126538740D01*
X141475000Y-126831260D01*
X141532068Y-127118158D01*
X141644010Y-127388411D01*
X141806525Y-127631632D01*
X142013368Y-127838475D01*
X142195534Y-127960195D01*
X142078645Y-128029822D01*
X141862412Y-128224731D01*
X141688359Y-128458080D01*
X141563175Y-128720901D01*
X141518524Y-128868110D01*
X141639845Y-129098000D01*
X142833000Y-129098000D01*
X142833000Y-129078000D01*
X143087000Y-129078000D01*
X143087000Y-129098000D01*
X145373000Y-129098000D01*
X145373000Y-129078000D01*
X145627000Y-129078000D01*
X145627000Y-129098000D01*
X146826250Y-129098000D01*
X146985000Y-128939250D01*
X146988072Y-128375000D01*
X146975812Y-128250518D01*
X146939502Y-128130820D01*
X146880537Y-128020506D01*
X146801185Y-127923815D01*
X146704494Y-127844463D01*
X146594180Y-127785498D01*
X146521620Y-127763487D01*
X146653475Y-127631632D01*
X146815990Y-127388411D01*
X146927932Y-127118158D01*
X146985000Y-126831260D01*
X146985000Y-126538740D01*
X146927932Y-126251842D01*
X146815990Y-125981589D01*
X146653475Y-125738368D01*
X146446632Y-125531525D01*
X146272240Y-125415000D01*
X146446632Y-125298475D01*
X146653475Y-125091632D01*
X146815990Y-124848411D01*
X146927932Y-124578158D01*
X146985000Y-124291260D01*
X146985000Y-123998740D01*
X146927932Y-123711842D01*
X146815990Y-123441589D01*
X146653475Y-123198368D01*
X146523168Y-123068061D01*
X170275000Y-123068061D01*
X170275000Y-123271939D01*
X170314774Y-123471898D01*
X170392795Y-123660256D01*
X170506063Y-123829774D01*
X170650226Y-123973937D01*
X170819744Y-124087205D01*
X171008102Y-124165226D01*
X171208061Y-124205000D01*
X171270199Y-124205000D01*
X175176201Y-128111003D01*
X175199999Y-128140001D01*
X175228997Y-128163799D01*
X175315723Y-128234974D01*
X175410718Y-128285750D01*
X175447753Y-128305546D01*
X175591014Y-128349003D01*
X175702667Y-128360000D01*
X175702676Y-128360000D01*
X175739999Y-128363676D01*
X175777322Y-128360000D01*
X196896289Y-128360000D01*
X196940226Y-128403937D01*
X197109744Y-128517205D01*
X197298102Y-128595226D01*
X197498061Y-128635000D01*
X197701939Y-128635000D01*
X197901898Y-128595226D01*
X198090256Y-128517205D01*
X198259774Y-128403937D01*
X198403937Y-128259774D01*
X198517205Y-128090256D01*
X198595226Y-127901898D01*
X198635000Y-127701939D01*
X198635000Y-127498061D01*
X198595226Y-127298102D01*
X198517205Y-127109744D01*
X198403937Y-126940226D01*
X198259774Y-126796063D01*
X198090256Y-126682795D01*
X197901898Y-126604774D01*
X197701939Y-126565000D01*
X197498061Y-126565000D01*
X197298102Y-126604774D01*
X197109744Y-126682795D01*
X196940226Y-126796063D01*
X196896289Y-126840000D01*
X176054802Y-126840000D01*
X172345000Y-123130199D01*
X172345000Y-123068061D01*
X172305226Y-122868102D01*
X172227205Y-122679744D01*
X172113937Y-122510226D01*
X171969774Y-122366063D01*
X171800256Y-122252795D01*
X171611898Y-122174774D01*
X171411939Y-122135000D01*
X171208061Y-122135000D01*
X171008102Y-122174774D01*
X170819744Y-122252795D01*
X170650226Y-122366063D01*
X170506063Y-122510226D01*
X170392795Y-122679744D01*
X170314774Y-122868102D01*
X170275000Y-123068061D01*
X146523168Y-123068061D01*
X146446632Y-122991525D01*
X146203411Y-122829010D01*
X145933158Y-122717068D01*
X145646260Y-122660000D01*
X145353740Y-122660000D01*
X145066842Y-122717068D01*
X144796589Y-122829010D01*
X144553368Y-122991525D01*
X144346525Y-123198368D01*
X144230000Y-123372760D01*
X144113475Y-123198368D01*
X143906632Y-122991525D01*
X143663411Y-122829010D01*
X143393158Y-122717068D01*
X143106260Y-122660000D01*
X142813740Y-122660000D01*
X142526842Y-122717068D01*
X142256589Y-122829010D01*
X142013368Y-122991525D01*
X141806525Y-123198368D01*
X141644010Y-123441589D01*
X141532068Y-123711842D01*
X141475000Y-123998740D01*
X120685000Y-123998740D01*
X120685000Y-118879282D01*
X120847501Y-118928577D01*
X121014248Y-118945000D01*
X121725752Y-118945000D01*
X121892499Y-118928577D01*
X122106447Y-118863676D01*
X122303623Y-118758284D01*
X122476449Y-118616449D01*
X122618284Y-118443623D01*
X122723676Y-118246447D01*
X122788577Y-118032499D01*
X122810491Y-117810000D01*
X123859509Y-117810000D01*
X123881423Y-118032499D01*
X123946324Y-118246447D01*
X124051716Y-118443623D01*
X124193551Y-118616449D01*
X124366377Y-118758284D01*
X124563553Y-118863676D01*
X124777501Y-118928577D01*
X124944248Y-118945000D01*
X126155752Y-118945000D01*
X126322499Y-118928577D01*
X126536447Y-118863676D01*
X126733623Y-118758284D01*
X126906449Y-118616449D01*
X127048284Y-118443623D01*
X127153676Y-118246447D01*
X127218577Y-118032499D01*
X127240491Y-117810000D01*
X127218577Y-117587501D01*
X127153676Y-117373553D01*
X127048284Y-117176377D01*
X126906449Y-117003551D01*
X126733623Y-116861716D01*
X126536447Y-116756324D01*
X126322499Y-116691423D01*
X126155752Y-116675000D01*
X125936904Y-116675000D01*
X125943108Y-116660022D01*
X125980000Y-116474552D01*
X125980000Y-116285448D01*
X125943108Y-116099978D01*
X125870741Y-115925269D01*
X125765681Y-115768036D01*
X125631964Y-115634319D01*
X125474731Y-115529259D01*
X125300022Y-115456892D01*
X125114552Y-115420000D01*
X124925448Y-115420000D01*
X124739978Y-115456892D01*
X124565269Y-115529259D01*
X124408036Y-115634319D01*
X124274319Y-115768036D01*
X124169259Y-115925269D01*
X124096892Y-116099978D01*
X124060000Y-116285448D01*
X124060000Y-116474552D01*
X124096892Y-116660022D01*
X124169259Y-116834731D01*
X124250715Y-116956638D01*
X124193551Y-117003551D01*
X124051716Y-117176377D01*
X123946324Y-117373553D01*
X123881423Y-117587501D01*
X123859509Y-117810000D01*
X122810491Y-117810000D01*
X122788577Y-117587501D01*
X122723676Y-117373553D01*
X122618284Y-117176377D01*
X122476449Y-117003551D01*
X122303623Y-116861716D01*
X122106447Y-116756324D01*
X121892499Y-116691423D01*
X121725752Y-116675000D01*
X121014248Y-116675000D01*
X120847501Y-116691423D01*
X120685000Y-116740718D01*
X120685000Y-110239282D01*
X120847501Y-110288577D01*
X121014248Y-110305000D01*
X121725752Y-110305000D01*
X121892499Y-110288577D01*
X122106447Y-110223676D01*
X122303623Y-110118284D01*
X122476449Y-109976449D01*
X122618284Y-109803623D01*
X122723676Y-109606447D01*
X122788577Y-109392499D01*
X122810491Y-109170000D01*
X123859509Y-109170000D01*
X123881423Y-109392499D01*
X123946324Y-109606447D01*
X124051716Y-109803623D01*
X124193551Y-109976449D01*
X124250715Y-110023362D01*
X124169259Y-110145269D01*
X124096892Y-110319978D01*
X124060000Y-110505448D01*
X124060000Y-110694552D01*
X124096892Y-110880022D01*
X124169259Y-111054731D01*
X124274319Y-111211964D01*
X124408036Y-111345681D01*
X124565269Y-111450741D01*
X124739978Y-111523108D01*
X124925448Y-111560000D01*
X125114552Y-111560000D01*
X125300022Y-111523108D01*
X125474731Y-111450741D01*
X125631964Y-111345681D01*
X125765681Y-111211964D01*
X125870741Y-111054731D01*
X125890134Y-111007911D01*
X126865000Y-111007911D01*
X126865000Y-111192089D01*
X126900932Y-111372729D01*
X126971414Y-111542889D01*
X127073738Y-111696028D01*
X127203972Y-111826262D01*
X127357111Y-111928586D01*
X127391077Y-111942655D01*
X127415000Y-111966578D01*
X127415001Y-113032250D01*
X127415000Y-113032260D01*
X127415000Y-113193308D01*
X127400932Y-113227271D01*
X127365000Y-113407911D01*
X127365000Y-113592089D01*
X127400932Y-113772729D01*
X127415000Y-113806692D01*
X127415000Y-113967740D01*
X127415001Y-113967750D01*
X127415000Y-115033422D01*
X127391077Y-115057345D01*
X127357111Y-115071414D01*
X127203972Y-115173738D01*
X127073738Y-115303972D01*
X126971414Y-115457111D01*
X126900932Y-115627271D01*
X126865000Y-115807911D01*
X126865000Y-115992089D01*
X126900932Y-116172729D01*
X126971414Y-116342889D01*
X127073738Y-116496028D01*
X127203972Y-116626262D01*
X127357111Y-116728586D01*
X127527271Y-116799068D01*
X127707911Y-116835000D01*
X127892089Y-116835000D01*
X128072729Y-116799068D01*
X128242889Y-116728586D01*
X128396028Y-116626262D01*
X128526262Y-116496028D01*
X128628586Y-116342889D01*
X128642655Y-116308923D01*
X128895045Y-116056533D01*
X128928817Y-116028817D01*
X129039411Y-115894059D01*
X129121589Y-115740313D01*
X129172195Y-115573490D01*
X129185000Y-115443477D01*
X129185000Y-115443469D01*
X129189281Y-115400000D01*
X129185000Y-115356531D01*
X129185000Y-113806692D01*
X129199068Y-113772729D01*
X129235000Y-113592089D01*
X129235000Y-113407911D01*
X129199068Y-113227271D01*
X129185000Y-113193308D01*
X129185000Y-111643469D01*
X129189281Y-111600000D01*
X129185000Y-111556531D01*
X129185000Y-111556523D01*
X129172195Y-111426510D01*
X129121589Y-111259687D01*
X129039411Y-111105941D01*
X128928817Y-110971183D01*
X128895045Y-110943467D01*
X128642655Y-110691077D01*
X128628586Y-110657111D01*
X128526262Y-110503972D01*
X128396028Y-110373738D01*
X128242889Y-110271414D01*
X128072729Y-110200932D01*
X127892089Y-110165000D01*
X127707911Y-110165000D01*
X127527271Y-110200932D01*
X127357111Y-110271414D01*
X127203972Y-110373738D01*
X127073738Y-110503972D01*
X126971414Y-110657111D01*
X126900932Y-110827271D01*
X126865000Y-111007911D01*
X125890134Y-111007911D01*
X125943108Y-110880022D01*
X125980000Y-110694552D01*
X125980000Y-110505448D01*
X125943108Y-110319978D01*
X125936904Y-110305000D01*
X126155752Y-110305000D01*
X126322499Y-110288577D01*
X126536447Y-110223676D01*
X126733623Y-110118284D01*
X126906449Y-109976449D01*
X127048284Y-109803623D01*
X127153676Y-109606447D01*
X127218577Y-109392499D01*
X127240491Y-109170000D01*
X127218577Y-108947501D01*
X127153676Y-108733553D01*
X127048284Y-108536377D01*
X126906449Y-108363551D01*
X126733623Y-108221716D01*
X126536447Y-108116324D01*
X126322499Y-108051423D01*
X126155752Y-108035000D01*
X124944248Y-108035000D01*
X124777501Y-108051423D01*
X124563553Y-108116324D01*
X124366377Y-108221716D01*
X124193551Y-108363551D01*
X124051716Y-108536377D01*
X123946324Y-108733553D01*
X123881423Y-108947501D01*
X123859509Y-109170000D01*
X122810491Y-109170000D01*
X122788577Y-108947501D01*
X122723676Y-108733553D01*
X122618284Y-108536377D01*
X122476449Y-108363551D01*
X122303623Y-108221716D01*
X122106447Y-108116324D01*
X121892499Y-108051423D01*
X121725752Y-108035000D01*
X121014248Y-108035000D01*
X120847501Y-108051423D01*
X120685000Y-108100718D01*
X120685000Y-107238061D01*
X164025000Y-107238061D01*
X164025000Y-107441939D01*
X164064774Y-107641898D01*
X164142795Y-107830256D01*
X164256063Y-107999774D01*
X164400226Y-108143937D01*
X164569744Y-108257205D01*
X164758102Y-108335226D01*
X164958061Y-108375000D01*
X165161939Y-108375000D01*
X165361898Y-108335226D01*
X165550256Y-108257205D01*
X165719774Y-108143937D01*
X165763711Y-108100000D01*
X169535958Y-108100000D01*
X169532795Y-108104734D01*
X169454774Y-108293092D01*
X169415000Y-108493051D01*
X169415000Y-108560000D01*
X169293711Y-108560000D01*
X169249774Y-108516063D01*
X169080256Y-108402795D01*
X168891898Y-108324774D01*
X168691939Y-108285000D01*
X168488061Y-108285000D01*
X168288102Y-108324774D01*
X168099744Y-108402795D01*
X167930226Y-108516063D01*
X167786063Y-108660226D01*
X167672795Y-108829744D01*
X167594774Y-109018102D01*
X167555000Y-109218061D01*
X167555000Y-109421939D01*
X167576494Y-109529999D01*
X167381159Y-109529999D01*
X167327205Y-109399744D01*
X167213937Y-109230226D01*
X167069774Y-109086063D01*
X166900256Y-108972795D01*
X166711898Y-108894774D01*
X166511939Y-108855000D01*
X166308061Y-108855000D01*
X166108102Y-108894774D01*
X165919744Y-108972795D01*
X165750226Y-109086063D01*
X165606063Y-109230226D01*
X165492795Y-109399744D01*
X165414774Y-109588102D01*
X165375000Y-109788061D01*
X165375000Y-109991939D01*
X165414774Y-110191898D01*
X165492795Y-110380256D01*
X165606063Y-110549774D01*
X165750226Y-110693937D01*
X165879932Y-110780604D01*
X165847098Y-110829744D01*
X165769077Y-111018102D01*
X165729303Y-111218061D01*
X165729303Y-111421939D01*
X165769077Y-111621898D01*
X165847098Y-111810256D01*
X165960366Y-111979774D01*
X166104529Y-112123937D01*
X166274047Y-112237205D01*
X166462405Y-112315226D01*
X166662364Y-112355000D01*
X166866242Y-112355000D01*
X167066201Y-112315226D01*
X167254559Y-112237205D01*
X167424077Y-112123937D01*
X167468014Y-112080000D01*
X183545199Y-112080000D01*
X196565000Y-125099802D01*
X196565000Y-125161939D01*
X196604774Y-125361898D01*
X196682795Y-125550256D01*
X196796063Y-125719774D01*
X196940226Y-125863937D01*
X197109744Y-125977205D01*
X197298102Y-126055226D01*
X197498061Y-126095000D01*
X197701939Y-126095000D01*
X197901898Y-126055226D01*
X198090256Y-125977205D01*
X198259774Y-125863937D01*
X198403937Y-125719774D01*
X198517205Y-125550256D01*
X198595226Y-125361898D01*
X198635000Y-125161939D01*
X198635000Y-124958061D01*
X198595226Y-124758102D01*
X198517205Y-124569744D01*
X198403937Y-124400226D01*
X198259774Y-124256063D01*
X198090256Y-124142795D01*
X197901898Y-124064774D01*
X197701939Y-124025000D01*
X197639802Y-124025000D01*
X184664800Y-111049999D01*
X185055198Y-111049999D01*
X196565000Y-122559802D01*
X196565000Y-122621939D01*
X196604774Y-122821898D01*
X196682795Y-123010256D01*
X196796063Y-123179774D01*
X196940226Y-123323937D01*
X197109744Y-123437205D01*
X197298102Y-123515226D01*
X197498061Y-123555000D01*
X197701939Y-123555000D01*
X197901898Y-123515226D01*
X198090256Y-123437205D01*
X198259774Y-123323937D01*
X198403937Y-123179774D01*
X198517205Y-123010256D01*
X198595226Y-122821898D01*
X198635000Y-122621939D01*
X198635000Y-122418061D01*
X198595226Y-122218102D01*
X198517205Y-122029744D01*
X198403937Y-121860226D01*
X198259774Y-121716063D01*
X198090256Y-121602795D01*
X197901898Y-121524774D01*
X197701939Y-121485000D01*
X197639802Y-121485000D01*
X186234801Y-110080000D01*
X186635199Y-110080000D01*
X196565000Y-120009803D01*
X196565000Y-120071939D01*
X196604774Y-120271898D01*
X196682795Y-120460256D01*
X196796063Y-120629774D01*
X196940226Y-120773937D01*
X197109744Y-120887205D01*
X197298102Y-120965226D01*
X197498061Y-121005000D01*
X197701939Y-121005000D01*
X197901898Y-120965226D01*
X198090256Y-120887205D01*
X198259774Y-120773937D01*
X198403937Y-120629774D01*
X198517205Y-120460256D01*
X198595226Y-120271898D01*
X198635000Y-120071939D01*
X198635000Y-119868061D01*
X198595226Y-119668102D01*
X198517205Y-119479744D01*
X198403937Y-119310226D01*
X198259774Y-119166063D01*
X198090256Y-119052795D01*
X197901898Y-118974774D01*
X197701939Y-118935000D01*
X197639803Y-118935000D01*
X196965884Y-118261081D01*
X197109744Y-118357205D01*
X197298102Y-118435226D01*
X197498061Y-118475000D01*
X197701939Y-118475000D01*
X197901898Y-118435226D01*
X198090256Y-118357205D01*
X198259774Y-118243937D01*
X198403937Y-118099774D01*
X198517205Y-117930256D01*
X198595226Y-117741898D01*
X198635000Y-117541939D01*
X198635000Y-117338061D01*
X198595226Y-117138102D01*
X198517205Y-116949744D01*
X198403937Y-116780226D01*
X198259774Y-116636063D01*
X198090256Y-116522795D01*
X197901898Y-116444774D01*
X197701939Y-116405000D01*
X197639802Y-116405000D01*
X189334801Y-108100000D01*
X189725199Y-108100000D01*
X196565000Y-114939802D01*
X196565000Y-115001939D01*
X196604774Y-115201898D01*
X196682795Y-115390256D01*
X196796063Y-115559774D01*
X196940226Y-115703937D01*
X197109744Y-115817205D01*
X197298102Y-115895226D01*
X197498061Y-115935000D01*
X197701939Y-115935000D01*
X197901898Y-115895226D01*
X198090256Y-115817205D01*
X198259774Y-115703937D01*
X198403937Y-115559774D01*
X198517205Y-115390256D01*
X198595226Y-115201898D01*
X198635000Y-115001939D01*
X198635000Y-114798061D01*
X198595226Y-114598102D01*
X198517205Y-114409744D01*
X198403937Y-114240226D01*
X198259774Y-114096063D01*
X198090256Y-113982795D01*
X197901898Y-113904774D01*
X197701939Y-113865000D01*
X197639802Y-113865000D01*
X190984801Y-107210000D01*
X191375199Y-107210000D01*
X196565024Y-112399826D01*
X196565024Y-112461963D01*
X196604798Y-112661922D01*
X196682819Y-112850280D01*
X196796087Y-113019798D01*
X196940250Y-113163961D01*
X197109768Y-113277229D01*
X197298126Y-113355250D01*
X197498085Y-113395024D01*
X197701963Y-113395024D01*
X197901922Y-113355250D01*
X198090280Y-113277229D01*
X198259798Y-113163961D01*
X198403961Y-113019798D01*
X198517229Y-112850280D01*
X198595250Y-112661922D01*
X198635024Y-112461963D01*
X198635024Y-112258085D01*
X198595250Y-112058126D01*
X198517229Y-111869768D01*
X198403961Y-111700250D01*
X198259798Y-111556087D01*
X198090280Y-111442819D01*
X197901922Y-111364798D01*
X197701963Y-111325024D01*
X197639826Y-111325024D01*
X192253804Y-105939003D01*
X192230001Y-105909999D01*
X192114276Y-105815026D01*
X191982247Y-105744454D01*
X191838986Y-105700997D01*
X191727333Y-105690000D01*
X191727322Y-105690000D01*
X191690000Y-105686324D01*
X191652678Y-105690000D01*
X171593711Y-105690000D01*
X171549774Y-105646063D01*
X171380256Y-105532795D01*
X171191898Y-105454774D01*
X170991939Y-105415000D01*
X170788061Y-105415000D01*
X170588102Y-105454774D01*
X170399744Y-105532795D01*
X170230226Y-105646063D01*
X170086063Y-105790226D01*
X169972795Y-105959744D01*
X169894774Y-106148102D01*
X169855000Y-106348061D01*
X169855000Y-106551939D01*
X169860582Y-106580000D01*
X165763711Y-106580000D01*
X165719774Y-106536063D01*
X165550256Y-106422795D01*
X165361898Y-106344774D01*
X165161939Y-106305000D01*
X164958061Y-106305000D01*
X164758102Y-106344774D01*
X164569744Y-106422795D01*
X164400226Y-106536063D01*
X164256063Y-106680226D01*
X164142795Y-106849744D01*
X164064774Y-107038102D01*
X164025000Y-107238061D01*
X120685000Y-107238061D01*
X120685000Y-99540000D01*
X125459339Y-99540000D01*
X125481929Y-99769360D01*
X125548831Y-99989906D01*
X125647766Y-100175000D01*
X125548831Y-100360094D01*
X125481929Y-100580640D01*
X125459339Y-100810000D01*
X125481929Y-101039360D01*
X125548831Y-101259906D01*
X125657474Y-101463162D01*
X125803682Y-101641318D01*
X125981838Y-101787526D01*
X126185094Y-101896169D01*
X126405640Y-101963071D01*
X126577523Y-101980000D01*
X127422477Y-101980000D01*
X127594360Y-101963071D01*
X127814906Y-101896169D01*
X128018162Y-101787526D01*
X128196318Y-101641318D01*
X128342526Y-101463162D01*
X128451169Y-101259906D01*
X128518071Y-101039360D01*
X128540661Y-100810000D01*
X128518071Y-100580640D01*
X128451169Y-100360094D01*
X128352234Y-100175000D01*
X128451169Y-99989906D01*
X128518071Y-99769360D01*
X128540661Y-99540000D01*
X128518071Y-99310640D01*
X128451169Y-99090094D01*
X128350846Y-98902404D01*
X128408377Y-98814421D01*
X128493900Y-98577383D01*
X128368244Y-98397000D01*
X127627560Y-98397000D01*
X127594360Y-98386929D01*
X127422477Y-98370000D01*
X126577523Y-98370000D01*
X126405640Y-98386929D01*
X126372440Y-98397000D01*
X125631756Y-98397000D01*
X125506100Y-98577383D01*
X125591623Y-98814421D01*
X125649154Y-98902404D01*
X125548831Y-99090094D01*
X125481929Y-99310640D01*
X125459339Y-99540000D01*
X120685000Y-99540000D01*
X120685000Y-96465000D01*
X125461928Y-96465000D01*
X125461928Y-97535000D01*
X125474188Y-97659482D01*
X125510498Y-97779180D01*
X125547385Y-97848190D01*
X125506100Y-97962617D01*
X125631756Y-98143000D01*
X125916800Y-98143000D01*
X125975518Y-98160812D01*
X126100000Y-98173072D01*
X127900000Y-98173072D01*
X128024482Y-98160812D01*
X128083200Y-98143000D01*
X128368244Y-98143000D01*
X128493900Y-97962617D01*
X128452615Y-97848190D01*
X128489502Y-97779180D01*
X128525812Y-97659482D01*
X128538072Y-97535000D01*
X128538072Y-96465000D01*
X128525812Y-96340518D01*
X128489502Y-96220820D01*
X128430537Y-96110506D01*
X128351185Y-96013815D01*
X128254494Y-95934463D01*
X128144180Y-95875498D01*
X128024482Y-95839188D01*
X127900000Y-95826928D01*
X126100000Y-95826928D01*
X125975518Y-95839188D01*
X125855820Y-95875498D01*
X125745506Y-95934463D01*
X125648815Y-96013815D01*
X125569463Y-96110506D01*
X125510498Y-96220820D01*
X125474188Y-96340518D01*
X125461928Y-96465000D01*
X120685000Y-96465000D01*
X120685000Y-90685000D01*
X199315000Y-90685000D01*
X199315001Y-136315000D01*
G37*
G04 #@! TD.AperFunction*
M02*
