G04 #@! TF.GenerationSoftware,KiCad,Pcbnew,5.1.8-db9833491~87~ubuntu20.04.1*
G04 #@! TF.CreationDate,2020-11-25T01:05:05+01:00*
G04 #@! TF.ProjectId,otto,6f74746f-2e6b-4696-9361-645f70636258,v1.0*
G04 #@! TF.SameCoordinates,Original*
G04 #@! TF.FileFunction,Copper,L1,Top*
G04 #@! TF.FilePolarity,Positive*
%FSLAX46Y46*%
G04 Gerber Fmt 4.6, Leading zero omitted, Abs format (unit mm)*
G04 Created by KiCad (PCBNEW 5.1.8-db9833491~87~ubuntu20.04.1) date 2020-11-25 01:05:05*
%MOMM*%
%LPD*%
G01*
G04 APERTURE LIST*
G04 #@! TA.AperFunction,SMDPad,CuDef*
%ADD10R,1.300000X0.250000*%
G04 #@! TD*
G04 #@! TA.AperFunction,SMDPad,CuDef*
%ADD11R,0.250000X1.300000*%
G04 #@! TD*
G04 #@! TA.AperFunction,ComponentPad*
%ADD12O,1.800000X1.070000*%
G04 #@! TD*
G04 #@! TA.AperFunction,ComponentPad*
%ADD13R,1.800000X1.070000*%
G04 #@! TD*
G04 #@! TA.AperFunction,ComponentPad*
%ADD14R,1.700000X1.700000*%
G04 #@! TD*
G04 #@! TA.AperFunction,ComponentPad*
%ADD15O,1.700000X1.700000*%
G04 #@! TD*
G04 #@! TA.AperFunction,ComponentPad*
%ADD16R,3.500000X3.500000*%
G04 #@! TD*
G04 #@! TA.AperFunction,SMDPad,CuDef*
%ADD17R,2.000000X3.800000*%
G04 #@! TD*
G04 #@! TA.AperFunction,SMDPad,CuDef*
%ADD18R,2.000000X1.500000*%
G04 #@! TD*
G04 #@! TA.AperFunction,ComponentPad*
%ADD19O,1.600000X1.000000*%
G04 #@! TD*
G04 #@! TA.AperFunction,ComponentPad*
%ADD20O,2.100000X1.000000*%
G04 #@! TD*
G04 #@! TA.AperFunction,SMDPad,CuDef*
%ADD21R,1.450000X0.300000*%
G04 #@! TD*
G04 #@! TA.AperFunction,SMDPad,CuDef*
%ADD22R,1.450000X0.600000*%
G04 #@! TD*
G04 #@! TA.AperFunction,SMDPad,CuDef*
%ADD23R,1.060000X0.650000*%
G04 #@! TD*
G04 #@! TA.AperFunction,SMDPad,CuDef*
%ADD24R,1.500000X1.500000*%
G04 #@! TD*
G04 #@! TA.AperFunction,ViaPad*
%ADD25C,0.800000*%
G04 #@! TD*
G04 #@! TA.AperFunction,ViaPad*
%ADD26C,0.600000*%
G04 #@! TD*
G04 #@! TA.AperFunction,Conductor*
%ADD27C,0.500000*%
G04 #@! TD*
G04 #@! TA.AperFunction,Conductor*
%ADD28C,0.250000*%
G04 #@! TD*
G04 #@! TA.AperFunction,Conductor*
%ADD29C,1.000000*%
G04 #@! TD*
G04 #@! TA.AperFunction,Conductor*
%ADD30C,0.750000*%
G04 #@! TD*
G04 #@! TA.AperFunction,Conductor*
%ADD31C,0.254000*%
G04 #@! TD*
G04 #@! TA.AperFunction,Conductor*
%ADD32C,0.100000*%
G04 #@! TD*
G04 APERTURE END LIST*
G04 #@! TA.AperFunction,SMDPad,CuDef*
G36*
G01*
X171740000Y-129175000D02*
X172240000Y-129175000D01*
G75*
G02*
X172465000Y-129400000I0J-225000D01*
G01*
X172465000Y-129850000D01*
G75*
G02*
X172240000Y-130075000I-225000J0D01*
G01*
X171740000Y-130075000D01*
G75*
G02*
X171515000Y-129850000I0J225000D01*
G01*
X171515000Y-129400000D01*
G75*
G02*
X171740000Y-129175000I225000J0D01*
G01*
G37*
G04 #@! TD.AperFunction*
G04 #@! TA.AperFunction,SMDPad,CuDef*
G36*
G01*
X171740000Y-127625000D02*
X172240000Y-127625000D01*
G75*
G02*
X172465000Y-127850000I0J-225000D01*
G01*
X172465000Y-128300000D01*
G75*
G02*
X172240000Y-128525000I-225000J0D01*
G01*
X171740000Y-128525000D01*
G75*
G02*
X171515000Y-128300000I0J225000D01*
G01*
X171515000Y-127850000D01*
G75*
G02*
X171740000Y-127625000I225000J0D01*
G01*
G37*
G04 #@! TD.AperFunction*
G04 #@! TA.AperFunction,SMDPad,CuDef*
G36*
G01*
X160425000Y-123443750D02*
X160425000Y-123956250D01*
G75*
G02*
X160206250Y-124175000I-218750J0D01*
G01*
X159768750Y-124175000D01*
G75*
G02*
X159550000Y-123956250I0J218750D01*
G01*
X159550000Y-123443750D01*
G75*
G02*
X159768750Y-123225000I218750J0D01*
G01*
X160206250Y-123225000D01*
G75*
G02*
X160425000Y-123443750I0J-218750D01*
G01*
G37*
G04 #@! TD.AperFunction*
G04 #@! TA.AperFunction,SMDPad,CuDef*
G36*
G01*
X158850000Y-123443750D02*
X158850000Y-123956250D01*
G75*
G02*
X158631250Y-124175000I-218750J0D01*
G01*
X158193750Y-124175000D01*
G75*
G02*
X157975000Y-123956250I0J218750D01*
G01*
X157975000Y-123443750D01*
G75*
G02*
X158193750Y-123225000I218750J0D01*
G01*
X158631250Y-123225000D01*
G75*
G02*
X158850000Y-123443750I0J-218750D01*
G01*
G37*
G04 #@! TD.AperFunction*
D10*
X145350000Y-116250000D03*
X145350000Y-115750000D03*
X145350000Y-115250000D03*
X145350000Y-114750000D03*
X145350000Y-114250000D03*
X145350000Y-113750000D03*
X145350000Y-113250000D03*
X145350000Y-112750000D03*
X145350000Y-112250000D03*
X145350000Y-111750000D03*
X145350000Y-111250000D03*
X145350000Y-110750000D03*
D11*
X143750000Y-109150000D03*
X143250000Y-109150000D03*
X142750000Y-109150000D03*
X142250000Y-109150000D03*
X141750000Y-109150000D03*
X141250000Y-109150000D03*
X140750000Y-109150000D03*
X140250000Y-109150000D03*
X139750000Y-109150000D03*
X139250000Y-109150000D03*
X138750000Y-109150000D03*
X138250000Y-109150000D03*
D10*
X136650000Y-110750000D03*
X136650000Y-111250000D03*
X136650000Y-111750000D03*
X136650000Y-112250000D03*
X136650000Y-112750000D03*
X136650000Y-113250000D03*
X136650000Y-113750000D03*
X136650000Y-114250000D03*
X136650000Y-114750000D03*
X136650000Y-115250000D03*
X136650000Y-115750000D03*
X136650000Y-116250000D03*
D11*
X138250000Y-117850000D03*
X138750000Y-117850000D03*
X139250000Y-117850000D03*
X139750000Y-117850000D03*
X140250000Y-117850000D03*
X140750000Y-117850000D03*
X141250000Y-117850000D03*
X141750000Y-117850000D03*
X142250000Y-117850000D03*
X142750000Y-117850000D03*
X143250000Y-117850000D03*
X143750000Y-117850000D03*
G04 #@! TA.AperFunction,SMDPad,CuDef*
G36*
G01*
X131275000Y-110643750D02*
X131275000Y-111156250D01*
G75*
G02*
X131056250Y-111375000I-218750J0D01*
G01*
X130618750Y-111375000D01*
G75*
G02*
X130400000Y-111156250I0J218750D01*
G01*
X130400000Y-110643750D01*
G75*
G02*
X130618750Y-110425000I218750J0D01*
G01*
X131056250Y-110425000D01*
G75*
G02*
X131275000Y-110643750I0J-218750D01*
G01*
G37*
G04 #@! TD.AperFunction*
G04 #@! TA.AperFunction,SMDPad,CuDef*
G36*
G01*
X129700000Y-110643750D02*
X129700000Y-111156250D01*
G75*
G02*
X129481250Y-111375000I-218750J0D01*
G01*
X129043750Y-111375000D01*
G75*
G02*
X128825000Y-111156250I0J218750D01*
G01*
X128825000Y-110643750D01*
G75*
G02*
X129043750Y-110425000I218750J0D01*
G01*
X129481250Y-110425000D01*
G75*
G02*
X129700000Y-110643750I0J-218750D01*
G01*
G37*
G04 #@! TD.AperFunction*
G04 #@! TA.AperFunction,SMDPad,CuDef*
G36*
G01*
X135370000Y-117153750D02*
X135370000Y-117666250D01*
G75*
G02*
X135151250Y-117885000I-218750J0D01*
G01*
X134713750Y-117885000D01*
G75*
G02*
X134495000Y-117666250I0J218750D01*
G01*
X134495000Y-117153750D01*
G75*
G02*
X134713750Y-116935000I218750J0D01*
G01*
X135151250Y-116935000D01*
G75*
G02*
X135370000Y-117153750I0J-218750D01*
G01*
G37*
G04 #@! TD.AperFunction*
G04 #@! TA.AperFunction,SMDPad,CuDef*
G36*
G01*
X136945000Y-117153750D02*
X136945000Y-117666250D01*
G75*
G02*
X136726250Y-117885000I-218750J0D01*
G01*
X136288750Y-117885000D01*
G75*
G02*
X136070000Y-117666250I0J218750D01*
G01*
X136070000Y-117153750D01*
G75*
G02*
X136288750Y-116935000I218750J0D01*
G01*
X136726250Y-116935000D01*
G75*
G02*
X136945000Y-117153750I0J-218750D01*
G01*
G37*
G04 #@! TD.AperFunction*
G04 #@! TA.AperFunction,SMDPad,CuDef*
G36*
G01*
X144653750Y-117545000D02*
X145166250Y-117545000D01*
G75*
G02*
X145385000Y-117763750I0J-218750D01*
G01*
X145385000Y-118201250D01*
G75*
G02*
X145166250Y-118420000I-218750J0D01*
G01*
X144653750Y-118420000D01*
G75*
G02*
X144435000Y-118201250I0J218750D01*
G01*
X144435000Y-117763750D01*
G75*
G02*
X144653750Y-117545000I218750J0D01*
G01*
G37*
G04 #@! TD.AperFunction*
G04 #@! TA.AperFunction,SMDPad,CuDef*
G36*
G01*
X144653750Y-119120000D02*
X145166250Y-119120000D01*
G75*
G02*
X145385000Y-119338750I0J-218750D01*
G01*
X145385000Y-119776250D01*
G75*
G02*
X145166250Y-119995000I-218750J0D01*
G01*
X144653750Y-119995000D01*
G75*
G02*
X144435000Y-119776250I0J218750D01*
G01*
X144435000Y-119338750D01*
G75*
G02*
X144653750Y-119120000I218750J0D01*
G01*
G37*
G04 #@! TD.AperFunction*
G04 #@! TA.AperFunction,SMDPad,CuDef*
G36*
G01*
X137336250Y-107870000D02*
X136823750Y-107870000D01*
G75*
G02*
X136605000Y-107651250I0J218750D01*
G01*
X136605000Y-107213750D01*
G75*
G02*
X136823750Y-106995000I218750J0D01*
G01*
X137336250Y-106995000D01*
G75*
G02*
X137555000Y-107213750I0J-218750D01*
G01*
X137555000Y-107651250D01*
G75*
G02*
X137336250Y-107870000I-218750J0D01*
G01*
G37*
G04 #@! TD.AperFunction*
G04 #@! TA.AperFunction,SMDPad,CuDef*
G36*
G01*
X137336250Y-109445000D02*
X136823750Y-109445000D01*
G75*
G02*
X136605000Y-109226250I0J218750D01*
G01*
X136605000Y-108788750D01*
G75*
G02*
X136823750Y-108570000I218750J0D01*
G01*
X137336250Y-108570000D01*
G75*
G02*
X137555000Y-108788750I0J-218750D01*
G01*
X137555000Y-109226250D01*
G75*
G02*
X137336250Y-109445000I-218750J0D01*
G01*
G37*
G04 #@! TD.AperFunction*
G04 #@! TA.AperFunction,SMDPad,CuDef*
G36*
G01*
X146545000Y-112496250D02*
X146545000Y-111983750D01*
G75*
G02*
X146763750Y-111765000I218750J0D01*
G01*
X147201250Y-111765000D01*
G75*
G02*
X147420000Y-111983750I0J-218750D01*
G01*
X147420000Y-112496250D01*
G75*
G02*
X147201250Y-112715000I-218750J0D01*
G01*
X146763750Y-112715000D01*
G75*
G02*
X146545000Y-112496250I0J218750D01*
G01*
G37*
G04 #@! TD.AperFunction*
G04 #@! TA.AperFunction,SMDPad,CuDef*
G36*
G01*
X148120000Y-112496250D02*
X148120000Y-111983750D01*
G75*
G02*
X148338750Y-111765000I218750J0D01*
G01*
X148776250Y-111765000D01*
G75*
G02*
X148995000Y-111983750I0J-218750D01*
G01*
X148995000Y-112496250D01*
G75*
G02*
X148776250Y-112715000I-218750J0D01*
G01*
X148338750Y-112715000D01*
G75*
G02*
X148120000Y-112496250I0J218750D01*
G01*
G37*
G04 #@! TD.AperFunction*
G04 #@! TA.AperFunction,SMDPad,CuDef*
G36*
G01*
X146545000Y-114006250D02*
X146545000Y-113493750D01*
G75*
G02*
X146763750Y-113275000I218750J0D01*
G01*
X147201250Y-113275000D01*
G75*
G02*
X147420000Y-113493750I0J-218750D01*
G01*
X147420000Y-114006250D01*
G75*
G02*
X147201250Y-114225000I-218750J0D01*
G01*
X146763750Y-114225000D01*
G75*
G02*
X146545000Y-114006250I0J218750D01*
G01*
G37*
G04 #@! TD.AperFunction*
G04 #@! TA.AperFunction,SMDPad,CuDef*
G36*
G01*
X148120000Y-114006250D02*
X148120000Y-113493750D01*
G75*
G02*
X148338750Y-113275000I218750J0D01*
G01*
X148776250Y-113275000D01*
G75*
G02*
X148995000Y-113493750I0J-218750D01*
G01*
X148995000Y-114006250D01*
G75*
G02*
X148776250Y-114225000I-218750J0D01*
G01*
X148338750Y-114225000D01*
G75*
G02*
X148120000Y-114006250I0J218750D01*
G01*
G37*
G04 #@! TD.AperFunction*
G04 #@! TA.AperFunction,SMDPad,CuDef*
G36*
G01*
X129700000Y-115843750D02*
X129700000Y-116356250D01*
G75*
G02*
X129481250Y-116575000I-218750J0D01*
G01*
X129043750Y-116575000D01*
G75*
G02*
X128825000Y-116356250I0J218750D01*
G01*
X128825000Y-115843750D01*
G75*
G02*
X129043750Y-115625000I218750J0D01*
G01*
X129481250Y-115625000D01*
G75*
G02*
X129700000Y-115843750I0J-218750D01*
G01*
G37*
G04 #@! TD.AperFunction*
G04 #@! TA.AperFunction,SMDPad,CuDef*
G36*
G01*
X131275000Y-115843750D02*
X131275000Y-116356250D01*
G75*
G02*
X131056250Y-116575000I-218750J0D01*
G01*
X130618750Y-116575000D01*
G75*
G02*
X130400000Y-116356250I0J218750D01*
G01*
X130400000Y-115843750D01*
G75*
G02*
X130618750Y-115625000I218750J0D01*
G01*
X131056250Y-115625000D01*
G75*
G02*
X131275000Y-115843750I0J-218750D01*
G01*
G37*
G04 #@! TD.AperFunction*
G04 #@! TA.AperFunction,SMDPad,CuDef*
G36*
G01*
X141983750Y-119475000D02*
X142496250Y-119475000D01*
G75*
G02*
X142715000Y-119693750I0J-218750D01*
G01*
X142715000Y-120131250D01*
G75*
G02*
X142496250Y-120350000I-218750J0D01*
G01*
X141983750Y-120350000D01*
G75*
G02*
X141765000Y-120131250I0J218750D01*
G01*
X141765000Y-119693750D01*
G75*
G02*
X141983750Y-119475000I218750J0D01*
G01*
G37*
G04 #@! TD.AperFunction*
G04 #@! TA.AperFunction,SMDPad,CuDef*
G36*
G01*
X141983750Y-121050000D02*
X142496250Y-121050000D01*
G75*
G02*
X142715000Y-121268750I0J-218750D01*
G01*
X142715000Y-121706250D01*
G75*
G02*
X142496250Y-121925000I-218750J0D01*
G01*
X141983750Y-121925000D01*
G75*
G02*
X141765000Y-121706250I0J218750D01*
G01*
X141765000Y-121268750D01*
G75*
G02*
X141983750Y-121050000I218750J0D01*
G01*
G37*
G04 #@! TD.AperFunction*
G04 #@! TA.AperFunction,SMDPad,CuDef*
G36*
G01*
X122366250Y-104945000D02*
X121853750Y-104945000D01*
G75*
G02*
X121635000Y-104726250I0J218750D01*
G01*
X121635000Y-104288750D01*
G75*
G02*
X121853750Y-104070000I218750J0D01*
G01*
X122366250Y-104070000D01*
G75*
G02*
X122585000Y-104288750I0J-218750D01*
G01*
X122585000Y-104726250D01*
G75*
G02*
X122366250Y-104945000I-218750J0D01*
G01*
G37*
G04 #@! TD.AperFunction*
G04 #@! TA.AperFunction,SMDPad,CuDef*
G36*
G01*
X122366250Y-103370000D02*
X121853750Y-103370000D01*
G75*
G02*
X121635000Y-103151250I0J218750D01*
G01*
X121635000Y-102713750D01*
G75*
G02*
X121853750Y-102495000I218750J0D01*
G01*
X122366250Y-102495000D01*
G75*
G02*
X122585000Y-102713750I0J-218750D01*
G01*
X122585000Y-103151250D01*
G75*
G02*
X122366250Y-103370000I-218750J0D01*
G01*
G37*
G04 #@! TD.AperFunction*
G04 #@! TA.AperFunction,SMDPad,CuDef*
G36*
G01*
X123866250Y-103370000D02*
X123353750Y-103370000D01*
G75*
G02*
X123135000Y-103151250I0J218750D01*
G01*
X123135000Y-102713750D01*
G75*
G02*
X123353750Y-102495000I218750J0D01*
G01*
X123866250Y-102495000D01*
G75*
G02*
X124085000Y-102713750I0J-218750D01*
G01*
X124085000Y-103151250D01*
G75*
G02*
X123866250Y-103370000I-218750J0D01*
G01*
G37*
G04 #@! TD.AperFunction*
G04 #@! TA.AperFunction,SMDPad,CuDef*
G36*
G01*
X123866250Y-104945000D02*
X123353750Y-104945000D01*
G75*
G02*
X123135000Y-104726250I0J218750D01*
G01*
X123135000Y-104288750D01*
G75*
G02*
X123353750Y-104070000I218750J0D01*
G01*
X123866250Y-104070000D01*
G75*
G02*
X124085000Y-104288750I0J-218750D01*
G01*
X124085000Y-104726250D01*
G75*
G02*
X123866250Y-104945000I-218750J0D01*
G01*
G37*
G04 #@! TD.AperFunction*
G04 #@! TA.AperFunction,SMDPad,CuDef*
G36*
G01*
X125366250Y-104945000D02*
X124853750Y-104945000D01*
G75*
G02*
X124635000Y-104726250I0J218750D01*
G01*
X124635000Y-104288750D01*
G75*
G02*
X124853750Y-104070000I218750J0D01*
G01*
X125366250Y-104070000D01*
G75*
G02*
X125585000Y-104288750I0J-218750D01*
G01*
X125585000Y-104726250D01*
G75*
G02*
X125366250Y-104945000I-218750J0D01*
G01*
G37*
G04 #@! TD.AperFunction*
G04 #@! TA.AperFunction,SMDPad,CuDef*
G36*
G01*
X125366250Y-103370000D02*
X124853750Y-103370000D01*
G75*
G02*
X124635000Y-103151250I0J218750D01*
G01*
X124635000Y-102713750D01*
G75*
G02*
X124853750Y-102495000I218750J0D01*
G01*
X125366250Y-102495000D01*
G75*
G02*
X125585000Y-102713750I0J-218750D01*
G01*
X125585000Y-103151250D01*
G75*
G02*
X125366250Y-103370000I-218750J0D01*
G01*
G37*
G04 #@! TD.AperFunction*
G04 #@! TA.AperFunction,SMDPad,CuDef*
G36*
G01*
X158850000Y-126443750D02*
X158850000Y-126956250D01*
G75*
G02*
X158631250Y-127175000I-218750J0D01*
G01*
X158193750Y-127175000D01*
G75*
G02*
X157975000Y-126956250I0J218750D01*
G01*
X157975000Y-126443750D01*
G75*
G02*
X158193750Y-126225000I218750J0D01*
G01*
X158631250Y-126225000D01*
G75*
G02*
X158850000Y-126443750I0J-218750D01*
G01*
G37*
G04 #@! TD.AperFunction*
G04 #@! TA.AperFunction,SMDPad,CuDef*
G36*
G01*
X160425000Y-126443750D02*
X160425000Y-126956250D01*
G75*
G02*
X160206250Y-127175000I-218750J0D01*
G01*
X159768750Y-127175000D01*
G75*
G02*
X159550000Y-126956250I0J218750D01*
G01*
X159550000Y-126443750D01*
G75*
G02*
X159768750Y-126225000I218750J0D01*
G01*
X160206250Y-126225000D01*
G75*
G02*
X160425000Y-126443750I0J-218750D01*
G01*
G37*
G04 #@! TD.AperFunction*
D12*
X127000000Y-100810000D03*
X127000000Y-99540000D03*
X127000000Y-98270000D03*
D13*
X127000000Y-97000000D03*
G04 #@! TA.AperFunction,SMDPad,CuDef*
G36*
G01*
X157975000Y-125456250D02*
X157975000Y-124943750D01*
G75*
G02*
X158193750Y-124725000I218750J0D01*
G01*
X158631250Y-124725000D01*
G75*
G02*
X158850000Y-124943750I0J-218750D01*
G01*
X158850000Y-125456250D01*
G75*
G02*
X158631250Y-125675000I-218750J0D01*
G01*
X158193750Y-125675000D01*
G75*
G02*
X157975000Y-125456250I0J218750D01*
G01*
G37*
G04 #@! TD.AperFunction*
G04 #@! TA.AperFunction,SMDPad,CuDef*
G36*
G01*
X159550000Y-125456250D02*
X159550000Y-124943750D01*
G75*
G02*
X159768750Y-124725000I218750J0D01*
G01*
X160206250Y-124725000D01*
G75*
G02*
X160425000Y-124943750I0J-218750D01*
G01*
X160425000Y-125456250D01*
G75*
G02*
X160206250Y-125675000I-218750J0D01*
G01*
X159768750Y-125675000D01*
G75*
G02*
X159550000Y-125456250I0J218750D01*
G01*
G37*
G04 #@! TD.AperFunction*
D14*
X145500000Y-129225000D03*
D15*
X142960000Y-129225000D03*
X145500000Y-126685000D03*
X142960000Y-126685000D03*
X145500000Y-124145000D03*
X142960000Y-124145000D03*
G04 #@! TA.AperFunction,SMDPad,CuDef*
G36*
G01*
X156625001Y-121300000D02*
X154774999Y-121300000D01*
G75*
G02*
X154525000Y-121050001I0J249999D01*
G01*
X154525000Y-120224999D01*
G75*
G02*
X154774999Y-119975000I249999J0D01*
G01*
X156625001Y-119975000D01*
G75*
G02*
X156875000Y-120224999I0J-249999D01*
G01*
X156875000Y-121050001D01*
G75*
G02*
X156625001Y-121300000I-249999J0D01*
G01*
G37*
G04 #@! TD.AperFunction*
G04 #@! TA.AperFunction,SMDPad,CuDef*
G36*
G01*
X156625001Y-118225000D02*
X154774999Y-118225000D01*
G75*
G02*
X154525000Y-117975001I0J249999D01*
G01*
X154525000Y-117149999D01*
G75*
G02*
X154774999Y-116900000I249999J0D01*
G01*
X156625001Y-116900000D01*
G75*
G02*
X156875000Y-117149999I0J-249999D01*
G01*
X156875000Y-117975001D01*
G75*
G02*
X156625001Y-118225000I-249999J0D01*
G01*
G37*
G04 #@! TD.AperFunction*
D16*
X132000000Y-128000000D03*
G04 #@! TA.AperFunction,ComponentPad*
G36*
G01*
X124500000Y-129000000D02*
X124500000Y-127000000D01*
G75*
G02*
X125250000Y-126250000I750000J0D01*
G01*
X126750000Y-126250000D01*
G75*
G02*
X127500000Y-127000000I0J-750000D01*
G01*
X127500000Y-129000000D01*
G75*
G02*
X126750000Y-129750000I-750000J0D01*
G01*
X125250000Y-129750000D01*
G75*
G02*
X124500000Y-129000000I0J750000D01*
G01*
G37*
G04 #@! TD.AperFunction*
G04 #@! TA.AperFunction,ComponentPad*
G36*
G01*
X127250000Y-133575000D02*
X127250000Y-131825000D01*
G75*
G02*
X128125000Y-130950000I875000J0D01*
G01*
X129875000Y-130950000D01*
G75*
G02*
X130750000Y-131825000I0J-875000D01*
G01*
X130750000Y-133575000D01*
G75*
G02*
X129875000Y-134450000I-875000J0D01*
G01*
X128125000Y-134450000D01*
G75*
G02*
X127250000Y-133575000I0J875000D01*
G01*
G37*
G04 #@! TD.AperFunction*
D17*
X162120000Y-131100000D03*
D18*
X155820000Y-131100000D03*
X155820000Y-133400000D03*
X155820000Y-128800000D03*
G04 #@! TA.AperFunction,SMDPad,CuDef*
G36*
G01*
X151974999Y-131975000D02*
X153825001Y-131975000D01*
G75*
G02*
X154075000Y-132224999I0J-249999D01*
G01*
X154075000Y-133050001D01*
G75*
G02*
X153825001Y-133300000I-249999J0D01*
G01*
X151974999Y-133300000D01*
G75*
G02*
X151725000Y-133050001I0J249999D01*
G01*
X151725000Y-132224999D01*
G75*
G02*
X151974999Y-131975000I249999J0D01*
G01*
G37*
G04 #@! TD.AperFunction*
G04 #@! TA.AperFunction,SMDPad,CuDef*
G36*
G01*
X151974999Y-128900000D02*
X153825001Y-128900000D01*
G75*
G02*
X154075000Y-129149999I0J-249999D01*
G01*
X154075000Y-129975001D01*
G75*
G02*
X153825001Y-130225000I-249999J0D01*
G01*
X151974999Y-130225000D01*
G75*
G02*
X151725000Y-129975001I0J249999D01*
G01*
X151725000Y-129149999D01*
G75*
G02*
X151974999Y-128900000I249999J0D01*
G01*
G37*
G04 #@! TD.AperFunction*
G04 #@! TA.AperFunction,SMDPad,CuDef*
G36*
G01*
X164124999Y-128900000D02*
X165975001Y-128900000D01*
G75*
G02*
X166225000Y-129149999I0J-249999D01*
G01*
X166225000Y-129975001D01*
G75*
G02*
X165975001Y-130225000I-249999J0D01*
G01*
X164124999Y-130225000D01*
G75*
G02*
X163875000Y-129975001I0J249999D01*
G01*
X163875000Y-129149999D01*
G75*
G02*
X164124999Y-128900000I249999J0D01*
G01*
G37*
G04 #@! TD.AperFunction*
G04 #@! TA.AperFunction,SMDPad,CuDef*
G36*
G01*
X164124999Y-131975000D02*
X165975001Y-131975000D01*
G75*
G02*
X166225000Y-132224999I0J-249999D01*
G01*
X166225000Y-133050001D01*
G75*
G02*
X165975001Y-133300000I-249999J0D01*
G01*
X164124999Y-133300000D01*
G75*
G02*
X163875000Y-133050001I0J249999D01*
G01*
X163875000Y-132224999D01*
G75*
G02*
X164124999Y-131975000I249999J0D01*
G01*
G37*
G04 #@! TD.AperFunction*
G04 #@! TA.AperFunction,SMDPad,CuDef*
G36*
G01*
X169823750Y-127425000D02*
X170736250Y-127425000D01*
G75*
G02*
X170980000Y-127668750I0J-243750D01*
G01*
X170980000Y-128156250D01*
G75*
G02*
X170736250Y-128400000I-243750J0D01*
G01*
X169823750Y-128400000D01*
G75*
G02*
X169580000Y-128156250I0J243750D01*
G01*
X169580000Y-127668750D01*
G75*
G02*
X169823750Y-127425000I243750J0D01*
G01*
G37*
G04 #@! TD.AperFunction*
G04 #@! TA.AperFunction,SMDPad,CuDef*
G36*
G01*
X169823750Y-129300000D02*
X170736250Y-129300000D01*
G75*
G02*
X170980000Y-129543750I0J-243750D01*
G01*
X170980000Y-130031250D01*
G75*
G02*
X170736250Y-130275000I-243750J0D01*
G01*
X169823750Y-130275000D01*
G75*
G02*
X169580000Y-130031250I0J243750D01*
G01*
X169580000Y-129543750D01*
G75*
G02*
X169823750Y-129300000I243750J0D01*
G01*
G37*
G04 #@! TD.AperFunction*
G04 #@! TA.AperFunction,SMDPad,CuDef*
G36*
G01*
X162756250Y-120525000D02*
X161843750Y-120525000D01*
G75*
G02*
X161600000Y-120281250I0J243750D01*
G01*
X161600000Y-119793750D01*
G75*
G02*
X161843750Y-119550000I243750J0D01*
G01*
X162756250Y-119550000D01*
G75*
G02*
X163000000Y-119793750I0J-243750D01*
G01*
X163000000Y-120281250D01*
G75*
G02*
X162756250Y-120525000I-243750J0D01*
G01*
G37*
G04 #@! TD.AperFunction*
G04 #@! TA.AperFunction,SMDPad,CuDef*
G36*
G01*
X162756250Y-118650000D02*
X161843750Y-118650000D01*
G75*
G02*
X161600000Y-118406250I0J243750D01*
G01*
X161600000Y-117918750D01*
G75*
G02*
X161843750Y-117675000I243750J0D01*
G01*
X162756250Y-117675000D01*
G75*
G02*
X163000000Y-117918750I0J-243750D01*
G01*
X163000000Y-118406250D01*
G75*
G02*
X162756250Y-118650000I-243750J0D01*
G01*
G37*
G04 #@! TD.AperFunction*
G04 #@! TA.AperFunction,SMDPad,CuDef*
G36*
G01*
X160650000Y-121485000D02*
X160650000Y-122435000D01*
G75*
G02*
X160400000Y-122685000I-250000J0D01*
G01*
X159900000Y-122685000D01*
G75*
G02*
X159650000Y-122435000I0J250000D01*
G01*
X159650000Y-121485000D01*
G75*
G02*
X159900000Y-121235000I250000J0D01*
G01*
X160400000Y-121235000D01*
G75*
G02*
X160650000Y-121485000I0J-250000D01*
G01*
G37*
G04 #@! TD.AperFunction*
G04 #@! TA.AperFunction,SMDPad,CuDef*
G36*
G01*
X158750000Y-121485000D02*
X158750000Y-122435000D01*
G75*
G02*
X158500000Y-122685000I-250000J0D01*
G01*
X158000000Y-122685000D01*
G75*
G02*
X157750000Y-122435000I0J250000D01*
G01*
X157750000Y-121485000D01*
G75*
G02*
X158000000Y-121235000I250000J0D01*
G01*
X158500000Y-121235000D01*
G75*
G02*
X158750000Y-121485000I0J-250000D01*
G01*
G37*
G04 #@! TD.AperFunction*
D19*
X121370000Y-117810000D03*
X121370000Y-109170000D03*
D20*
X125550000Y-109170000D03*
X125550000Y-117810000D03*
D21*
X126465000Y-113240000D03*
X126465000Y-115240000D03*
X126465000Y-114740000D03*
X126465000Y-114240000D03*
X126465000Y-113740000D03*
X126465000Y-112740000D03*
X126465000Y-112240000D03*
X126465000Y-111740000D03*
D22*
X126465000Y-116740000D03*
X126465000Y-115940000D03*
X126465000Y-111040000D03*
X126465000Y-110240000D03*
X126465000Y-110240000D03*
X126465000Y-111040000D03*
X126465000Y-115940000D03*
X126465000Y-116740000D03*
D23*
X131560000Y-114450000D03*
X131560000Y-113500000D03*
X131560000Y-112550000D03*
X129360000Y-112550000D03*
X129360000Y-114450000D03*
X129360000Y-113500000D03*
D24*
X196250000Y-119980000D03*
X196250000Y-122520000D03*
X196250000Y-125060000D03*
X196250000Y-127600000D03*
X196250000Y-130140000D03*
X173750000Y-130140000D03*
X173750000Y-127600000D03*
X173750000Y-125060000D03*
X173750000Y-122520000D03*
X173750000Y-119980000D03*
X173750000Y-117440000D03*
X173750000Y-114900000D03*
X173750000Y-112360000D03*
X173750000Y-104760000D03*
X173750000Y-102220000D03*
X173750000Y-99680000D03*
X196250000Y-117440000D03*
X196250000Y-114900000D03*
X196250000Y-112360000D03*
X196250000Y-104790000D03*
X196250000Y-102250000D03*
X196250000Y-99710000D03*
D23*
X160350000Y-120050000D03*
X160350000Y-119100000D03*
X160350000Y-118150000D03*
X158150000Y-118150000D03*
X158150000Y-120050000D03*
G04 #@! TA.AperFunction,SMDPad,CuDef*
G36*
G01*
X150740000Y-132325000D02*
X150240000Y-132325000D01*
G75*
G02*
X150015000Y-132100000I0J225000D01*
G01*
X150015000Y-131650000D01*
G75*
G02*
X150240000Y-131425000I225000J0D01*
G01*
X150740000Y-131425000D01*
G75*
G02*
X150965000Y-131650000I0J-225000D01*
G01*
X150965000Y-132100000D01*
G75*
G02*
X150740000Y-132325000I-225000J0D01*
G01*
G37*
G04 #@! TD.AperFunction*
G04 #@! TA.AperFunction,SMDPad,CuDef*
G36*
G01*
X150740000Y-130775000D02*
X150240000Y-130775000D01*
G75*
G02*
X150015000Y-130550000I0J225000D01*
G01*
X150015000Y-130100000D01*
G75*
G02*
X150240000Y-129875000I225000J0D01*
G01*
X150740000Y-129875000D01*
G75*
G02*
X150965000Y-130100000I0J-225000D01*
G01*
X150965000Y-130550000D01*
G75*
G02*
X150740000Y-130775000I-225000J0D01*
G01*
G37*
G04 #@! TD.AperFunction*
G04 #@! TA.AperFunction,SMDPad,CuDef*
G36*
G01*
X146175000Y-117320000D02*
X147125000Y-117320000D01*
G75*
G02*
X147375000Y-117570000I0J-250000D01*
G01*
X147375000Y-118070000D01*
G75*
G02*
X147125000Y-118320000I-250000J0D01*
G01*
X146175000Y-118320000D01*
G75*
G02*
X145925000Y-118070000I0J250000D01*
G01*
X145925000Y-117570000D01*
G75*
G02*
X146175000Y-117320000I250000J0D01*
G01*
G37*
G04 #@! TD.AperFunction*
G04 #@! TA.AperFunction,SMDPad,CuDef*
G36*
G01*
X146175000Y-119220000D02*
X147125000Y-119220000D01*
G75*
G02*
X147375000Y-119470000I0J-250000D01*
G01*
X147375000Y-119970000D01*
G75*
G02*
X147125000Y-120220000I-250000J0D01*
G01*
X146175000Y-120220000D01*
G75*
G02*
X145925000Y-119970000I0J250000D01*
G01*
X145925000Y-119470000D01*
G75*
G02*
X146175000Y-119220000I250000J0D01*
G01*
G37*
G04 #@! TD.AperFunction*
D25*
X171990000Y-130670000D03*
D26*
X130530002Y-113500000D03*
X144050006Y-112750000D03*
D25*
X138160000Y-107439998D03*
X144910000Y-120590000D03*
X134930000Y-116330000D03*
X149600001Y-112230000D03*
X161100000Y-125200000D03*
X155700000Y-116300000D03*
X131880000Y-116100000D03*
X131879998Y-110900000D03*
X170280000Y-130880000D03*
X149590000Y-113750002D03*
X143310000Y-121490000D03*
X165000000Y-133970000D03*
X152899986Y-128290000D03*
X127788313Y-116799927D03*
X127788890Y-110200066D03*
X150490000Y-129270000D03*
X157150000Y-121960000D03*
X161340000Y-119100004D03*
X172400000Y-114900000D03*
X172400000Y-112360000D03*
X172400000Y-104760000D03*
X172400000Y-102220000D03*
X172400000Y-99680000D03*
X197600000Y-99710000D03*
X197600000Y-104790000D03*
X197600000Y-130140000D03*
X146660000Y-120820000D03*
X162339996Y-117070000D03*
D26*
X127800000Y-111100000D03*
X127800000Y-115900000D03*
X128300000Y-113500000D03*
D25*
X197600000Y-114900000D03*
X165060000Y-107340000D03*
X197600000Y-119970000D03*
X168590000Y-109320000D03*
X197600000Y-117440000D03*
X170450000Y-108594990D03*
X197600000Y-122520000D03*
X166410000Y-109890000D03*
X197600024Y-112360024D03*
X170890000Y-106450000D03*
X197600000Y-127600000D03*
X171310000Y-123170000D03*
X197600000Y-125060000D03*
X166764303Y-111320000D03*
D27*
X131600000Y-113500000D02*
X130530002Y-113500000D01*
D28*
X145350000Y-112750000D02*
X144050006Y-112750000D01*
D27*
X138152502Y-107432500D02*
X138160000Y-107439998D01*
X137080000Y-107432500D02*
X138152502Y-107432500D01*
D28*
X138750000Y-108029998D02*
X138160000Y-107439998D01*
X138750000Y-109150000D02*
X138750000Y-108029998D01*
X134930000Y-117407500D02*
X134932500Y-117410000D01*
D27*
X134930000Y-116330000D02*
X134930000Y-117407500D01*
D28*
X135510000Y-115750000D02*
X134930000Y-116330000D01*
X136650000Y-115750000D02*
X135510000Y-115750000D01*
X149590001Y-112240000D02*
X149600001Y-112230000D01*
D27*
X148557500Y-112240000D02*
X149590001Y-112240000D01*
D28*
X161100000Y-125200000D02*
X160057504Y-125200000D01*
X130837500Y-116100000D02*
X131880000Y-116100000D01*
X130837500Y-110900000D02*
X131879998Y-110900000D01*
X149589998Y-113750000D02*
X149590000Y-113750002D01*
X148557500Y-113750000D02*
X149589998Y-113750000D01*
D29*
X165000000Y-132637500D02*
X165000000Y-133970000D01*
X152900000Y-128290014D02*
X152899986Y-128290000D01*
X152900000Y-129562500D02*
X152900000Y-128290014D01*
D28*
X127728386Y-116740000D02*
X127788313Y-116799927D01*
X126465000Y-116740000D02*
X127728386Y-116740000D01*
X127748956Y-110240000D02*
X127788890Y-110200066D01*
X126465000Y-110240000D02*
X127748956Y-110240000D01*
D29*
X172505000Y-130140000D02*
X171990000Y-129625000D01*
X173750000Y-130140000D02*
X172505000Y-130140000D01*
X170442500Y-129625000D02*
X170280000Y-129787500D01*
X171990000Y-129625000D02*
X170442500Y-129625000D01*
X170280000Y-129787500D02*
X170280000Y-130880000D01*
X171990000Y-129625000D02*
X171990000Y-130670000D01*
X150490000Y-130325000D02*
X150490000Y-129270000D01*
D28*
X158250000Y-121960000D02*
X157150000Y-121960000D01*
D27*
X160350000Y-119100000D02*
X161339996Y-119100000D01*
D28*
X161339996Y-119100000D02*
X161340000Y-119100004D01*
D30*
X173750000Y-114900000D02*
X172400000Y-114900000D01*
X173750000Y-112360000D02*
X172400000Y-112360000D01*
X173750000Y-104760000D02*
X172400000Y-104760000D01*
X173750000Y-102220000D02*
X172400000Y-102220000D01*
X173750000Y-99680000D02*
X172400000Y-99680000D01*
X196250000Y-99710000D02*
X197600000Y-99710000D01*
X196250000Y-104790000D02*
X197600000Y-104790000D01*
X196250000Y-130140000D02*
X197600000Y-130140000D01*
D28*
X146650000Y-120810000D02*
X146660000Y-120820000D01*
D27*
X146650000Y-119720000D02*
X146650000Y-120810000D01*
D28*
X142242500Y-121490000D02*
X142240000Y-121487500D01*
X143310000Y-121490000D02*
X142242500Y-121490000D01*
D27*
X144910000Y-119557500D02*
X144910000Y-120590000D01*
D28*
X144907500Y-119560000D02*
X144910000Y-119557500D01*
X144183910Y-119557500D02*
X144910000Y-119557500D01*
X143250000Y-118623590D02*
X144183910Y-119557500D01*
X143250000Y-117850000D02*
X143250000Y-118623590D01*
D27*
X162277504Y-118162500D02*
X161340000Y-119100004D01*
X155700000Y-117562500D02*
X155700000Y-116300000D01*
X162339996Y-118122504D02*
X162300000Y-118162500D01*
X162339996Y-117070000D02*
X162339996Y-118122504D01*
X129400000Y-113500000D02*
X128300000Y-113500000D01*
X126490000Y-115900000D02*
X127800000Y-115900000D01*
X126490000Y-111100000D02*
X127800000Y-111100000D01*
D28*
X137312500Y-109150000D02*
X137137500Y-108975000D01*
X138250000Y-109150000D02*
X137312500Y-109150000D01*
X144687500Y-117850000D02*
X144862500Y-118025000D01*
X143750000Y-117850000D02*
X144687500Y-117850000D01*
X136650000Y-117267500D02*
X136507500Y-117410000D01*
X136650000Y-116250000D02*
X136650000Y-117267500D01*
D27*
X138750000Y-115750000D02*
X143250000Y-115750000D01*
X138750000Y-111250000D02*
X138750000Y-115750000D01*
D28*
X143300000Y-115750000D02*
X143250000Y-115750000D01*
D27*
X144910000Y-117982500D02*
X144910000Y-117360000D01*
X144910000Y-117360000D02*
X143300000Y-115750000D01*
D28*
X138700000Y-115750000D02*
X138750000Y-115750000D01*
D27*
X136507500Y-117410000D02*
X137040000Y-117410000D01*
X137040000Y-117410000D02*
X138700000Y-115750000D01*
D28*
X138750000Y-111215000D02*
X138750000Y-111250000D01*
D27*
X137080000Y-109545000D02*
X138750000Y-111215000D01*
X137080000Y-109007500D02*
X137080000Y-109545000D01*
X138750000Y-111250000D02*
X143250000Y-111250000D01*
D28*
X145350000Y-117542500D02*
X144910000Y-117982500D01*
X145350000Y-116250000D02*
X145350000Y-117542500D01*
X143450000Y-111250000D02*
X143250000Y-111250000D01*
X144450000Y-112250000D02*
X143450000Y-111250000D01*
X145350000Y-112250000D02*
X144450000Y-112250000D01*
X146972500Y-112250000D02*
X146982500Y-112240000D01*
X145350000Y-112250000D02*
X146972500Y-112250000D01*
D27*
X157562500Y-120637500D02*
X158150000Y-120050000D01*
X155700000Y-120637500D02*
X157562500Y-120637500D01*
X146487500Y-117982500D02*
X146650000Y-117820000D01*
X144910000Y-117982500D02*
X146487500Y-117982500D01*
X147730000Y-117820000D02*
X146650000Y-117820000D01*
X150547500Y-120637500D02*
X147730000Y-117820000D01*
X155700000Y-120637500D02*
X150547500Y-120637500D01*
D28*
X122110000Y-102395000D02*
X122110000Y-102932500D01*
X122110000Y-100740000D02*
X122110000Y-102395000D01*
X125850000Y-97000000D02*
X122110000Y-100740000D01*
X127000000Y-97000000D02*
X125850000Y-97000000D01*
X128412500Y-115250000D02*
X129262500Y-116100000D01*
X126490000Y-115250000D02*
X128412500Y-115250000D01*
X128490000Y-114450000D02*
X129360000Y-114450000D01*
X128280000Y-114240000D02*
X128490000Y-114450000D01*
X126465000Y-114240000D02*
X128280000Y-114240000D01*
X127600000Y-114065002D02*
X127425002Y-114240000D01*
X127600000Y-113414998D02*
X127600000Y-114065002D01*
X127425002Y-114240000D02*
X126465000Y-114240000D01*
X127425002Y-113240000D02*
X127600000Y-113414998D01*
X126465000Y-113240000D02*
X127425002Y-113240000D01*
X129360000Y-114450000D02*
X131560000Y-114450000D01*
X131560000Y-114450000D02*
X134500000Y-114450000D01*
X134800000Y-114750000D02*
X136650000Y-114750000D01*
X134500000Y-114450000D02*
X134800000Y-114750000D01*
X126465000Y-112740000D02*
X128580000Y-112740000D01*
X128770000Y-112550000D02*
X129360000Y-112550000D01*
X128580000Y-112740000D02*
X128770000Y-112550000D01*
X125330000Y-112914998D02*
X125504998Y-112740000D01*
X125504998Y-112740000D02*
X126465000Y-112740000D01*
X125330000Y-113580000D02*
X125330000Y-112914998D01*
X125490000Y-113740000D02*
X125330000Y-113580000D01*
X126465000Y-113740000D02*
X125490000Y-113740000D01*
X129360000Y-112550000D02*
X131560000Y-112550000D01*
X135970000Y-114250000D02*
X136650000Y-114250000D01*
X135000000Y-114250000D02*
X135970000Y-114250000D01*
X133300000Y-112550000D02*
X135000000Y-114250000D01*
X131560000Y-112550000D02*
X133300000Y-112550000D01*
X127912500Y-112250000D02*
X129262500Y-110900000D01*
X126490000Y-112250000D02*
X127912500Y-112250000D01*
X122140000Y-105170000D02*
X122140000Y-104537500D01*
X135240000Y-112250000D02*
X133979989Y-110989990D01*
X136650000Y-112250000D02*
X135240000Y-112250000D01*
X133979989Y-110989990D02*
X133979989Y-108876398D01*
X133979989Y-108876398D02*
X131903558Y-106799969D01*
X122140000Y-104537500D02*
X122110000Y-104507500D01*
X131903558Y-106799969D02*
X123769969Y-106799969D01*
X123769969Y-106799969D02*
X122140000Y-105170000D01*
X123610000Y-104969112D02*
X123610000Y-104507500D01*
X135376410Y-111750000D02*
X134430000Y-110803590D01*
X136650000Y-111750000D02*
X135376410Y-111750000D01*
X123610000Y-105160000D02*
X123610000Y-104969112D01*
X134430000Y-110803590D02*
X134430000Y-108689998D01*
X134430000Y-108689998D02*
X132089957Y-106349959D01*
X132089957Y-106349959D02*
X124799959Y-106349959D01*
X124799959Y-106349959D02*
X123610000Y-105160000D01*
X125110000Y-102395000D02*
X125110000Y-102932500D01*
X125110000Y-102240000D02*
X125110000Y-102395000D01*
X127000000Y-100810000D02*
X126540000Y-100810000D01*
X126540000Y-100810000D02*
X125110000Y-102240000D01*
X123610000Y-102395000D02*
X123610000Y-102932500D01*
X123610000Y-101780000D02*
X123610000Y-102395000D01*
X125850000Y-99540000D02*
X123610000Y-101780000D01*
X127000000Y-99540000D02*
X125850000Y-99540000D01*
X125110000Y-105240000D02*
X125110000Y-104507500D01*
X135512820Y-111250000D02*
X134880011Y-110617191D01*
X136650000Y-111250000D02*
X135512820Y-111250000D01*
X134880011Y-110617191D02*
X134880011Y-108503599D01*
X134880011Y-108503599D02*
X132266412Y-105890000D01*
X132266412Y-105890000D02*
X125760000Y-105890000D01*
X125760000Y-105890000D02*
X125110000Y-105240000D01*
X141750000Y-119422500D02*
X142240000Y-119912500D01*
X141750000Y-117850000D02*
X141750000Y-119422500D01*
X146482500Y-113250000D02*
X146982500Y-113750000D01*
X145350000Y-113250000D02*
X146482500Y-113250000D01*
X144650001Y-125835001D02*
X145500000Y-126685000D01*
X144230000Y-123590000D02*
X144230000Y-125415000D01*
X141633600Y-122900011D02*
X143540011Y-122900011D01*
X143540011Y-122900011D02*
X144230000Y-123590000D01*
X140750000Y-122016411D02*
X141633600Y-122900011D01*
X144230000Y-125415000D02*
X144650001Y-125835001D01*
X140750000Y-117850000D02*
X140750000Y-122016411D01*
X141655000Y-126685000D02*
X142960000Y-126685000D01*
X134090000Y-116090000D02*
X134090000Y-119120000D01*
X136650000Y-115250000D02*
X134930000Y-115250000D01*
X134090000Y-119120000D02*
X141655000Y-126685000D01*
X134930000Y-115250000D02*
X134090000Y-116090000D01*
X143795000Y-122440000D02*
X145500000Y-124145000D01*
X141810000Y-122440000D02*
X143795000Y-122440000D01*
X141250000Y-121880000D02*
X141810000Y-122440000D01*
X141250000Y-117850000D02*
X141250000Y-121880000D01*
X141185000Y-124145000D02*
X142960000Y-124145000D01*
X138250000Y-117850000D02*
X138250000Y-121210000D01*
X138250000Y-121210000D02*
X141185000Y-124145000D01*
D29*
X155820000Y-131100000D02*
X162120000Y-131100000D01*
D28*
X155820000Y-131100000D02*
X156400000Y-131100000D01*
D29*
X163160000Y-130060000D02*
X162120000Y-131100000D01*
X163160000Y-129700000D02*
X163160000Y-130060000D01*
X164862500Y-129700000D02*
X163160000Y-129700000D01*
D27*
X164460000Y-129430000D02*
X164592500Y-129562500D01*
D29*
X172465000Y-127600000D02*
X171990000Y-128075000D01*
X173750000Y-127600000D02*
X172465000Y-127600000D01*
X170442500Y-128075000D02*
X170280000Y-127912500D01*
X171990000Y-128075000D02*
X170442500Y-128075000D01*
X166700000Y-127912500D02*
X165050000Y-129562500D01*
X170280000Y-127912500D02*
X166700000Y-127912500D01*
D27*
X165050000Y-122787500D02*
X162300000Y-120037500D01*
X165050000Y-129562500D02*
X165050000Y-122787500D01*
D28*
X162287500Y-120050000D02*
X162300000Y-120037500D01*
D27*
X160350000Y-120050000D02*
X162287500Y-120050000D01*
D28*
X159560000Y-118150000D02*
X160350000Y-118150000D01*
X159370000Y-118340000D02*
X159560000Y-118150000D01*
X159370000Y-119840000D02*
X159370000Y-118340000D01*
X159580000Y-120050000D02*
X159370000Y-119840000D01*
X160350000Y-120050000D02*
X159580000Y-120050000D01*
D29*
X173750000Y-127600000D02*
X173750000Y-125060000D01*
D28*
X162187500Y-126700000D02*
X165050000Y-129562500D01*
X159987500Y-126700000D02*
X162187500Y-126700000D01*
X196250000Y-114900000D02*
X197600000Y-114900000D01*
X142750000Y-107830000D02*
X142750000Y-109150000D01*
X143410000Y-107170000D02*
X142750000Y-107830000D01*
X164890000Y-107170000D02*
X143410000Y-107170000D01*
X165060000Y-107340000D02*
X164890000Y-107170000D01*
X197590000Y-119980000D02*
X197600000Y-119970000D01*
X196250000Y-119980000D02*
X197590000Y-119980000D01*
X165884999Y-106614999D02*
X168590000Y-109320000D01*
X142250000Y-107670000D02*
X143305001Y-106614999D01*
X142250000Y-109150000D02*
X142250000Y-107670000D01*
X143305001Y-106614999D02*
X165884999Y-106614999D01*
X196250000Y-117440000D02*
X197600000Y-117440000D01*
X141750000Y-109150000D02*
X141750000Y-107533589D01*
X141750000Y-107533589D02*
X143118601Y-106164988D01*
X143118601Y-106164988D02*
X168019998Y-106164988D01*
X168019998Y-106164988D02*
X170450000Y-108594990D01*
D29*
X153662500Y-133400000D02*
X155820000Y-133400000D01*
X152900000Y-132637500D02*
X153662500Y-133400000D01*
X151252500Y-132637500D02*
X150490000Y-131875000D01*
X152900000Y-132637500D02*
X151252500Y-132637500D01*
X135875000Y-131875000D02*
X150490000Y-131875000D01*
X132000000Y-128000000D02*
X135875000Y-131875000D01*
D28*
X158412500Y-126700000D02*
X158412500Y-125200000D01*
X160150000Y-123537500D02*
X159987500Y-123700000D01*
X160150000Y-121960000D02*
X160150000Y-123537500D01*
X159912500Y-123700000D02*
X158412500Y-125200000D01*
X159987500Y-123700000D02*
X159912500Y-123700000D01*
X156750000Y-126700000D02*
X156987500Y-126700000D01*
X155820000Y-127630000D02*
X156750000Y-126700000D01*
X156987500Y-126700000D02*
X158412500Y-126700000D01*
X155820000Y-128800000D02*
X155820000Y-127630000D01*
X157975000Y-123700000D02*
X158412500Y-123700000D01*
X146990000Y-123700000D02*
X157975000Y-123700000D01*
X143620000Y-120330000D02*
X146990000Y-123700000D01*
X143620000Y-119630000D02*
X143620000Y-120330000D01*
X142750000Y-118760000D02*
X143620000Y-119630000D01*
X142750000Y-117850000D02*
X142750000Y-118760000D01*
X121370000Y-109170000D02*
X125550000Y-109170000D01*
X121370000Y-109170000D02*
X121370000Y-117810000D01*
X121370000Y-117810000D02*
X125550000Y-117810000D01*
X170000000Y-117440000D02*
X173750000Y-117440000D01*
X163310000Y-110750000D02*
X170000000Y-117440000D01*
X145350000Y-110750000D02*
X163310000Y-110750000D01*
X196250000Y-122520000D02*
X197600000Y-122520000D01*
X143250000Y-108250000D02*
X143879990Y-107620010D01*
X143250000Y-109150000D02*
X143250000Y-108250000D01*
X164140010Y-107620010D02*
X166410000Y-109890000D01*
X143879990Y-107620010D02*
X164140010Y-107620010D01*
X196250000Y-112360000D02*
X197600000Y-112360000D01*
X197600000Y-112360000D02*
X197600024Y-112360024D01*
X141250000Y-109150000D02*
X141250000Y-107397180D01*
X141250000Y-107397180D02*
X142932202Y-105714978D01*
X142932202Y-105714978D02*
X170154979Y-105714979D01*
X170154979Y-105714979D02*
X170890000Y-106450000D01*
X171030000Y-119980000D02*
X173750000Y-119980000D01*
X145350000Y-111250000D02*
X162300000Y-111250000D01*
X162300000Y-111250000D02*
X171030000Y-119980000D01*
X172170000Y-122520000D02*
X173750000Y-122520000D01*
X164400000Y-114750000D02*
X172170000Y-122520000D01*
X145350000Y-114750000D02*
X164400000Y-114750000D01*
X196250000Y-127600000D02*
X197600000Y-127600000D01*
X163390000Y-115250000D02*
X171310000Y-123170000D01*
X145350000Y-115250000D02*
X163390000Y-115250000D01*
X196250000Y-125060000D02*
X197600000Y-125060000D01*
X143750000Y-109150000D02*
X164594303Y-109150000D01*
X164594303Y-109150000D02*
X166764303Y-111320000D01*
D31*
X199315001Y-136315000D02*
X120685000Y-136315000D01*
X120685000Y-134450000D01*
X126611928Y-134450000D01*
X126624188Y-134574482D01*
X126660498Y-134694180D01*
X126719463Y-134804494D01*
X126798815Y-134901185D01*
X126895506Y-134980537D01*
X127005820Y-135039502D01*
X127125518Y-135075812D01*
X127250000Y-135088072D01*
X128714250Y-135085000D01*
X128873000Y-134926250D01*
X128873000Y-132827000D01*
X129127000Y-132827000D01*
X129127000Y-134926250D01*
X129285750Y-135085000D01*
X130750000Y-135088072D01*
X130874482Y-135075812D01*
X130994180Y-135039502D01*
X131104494Y-134980537D01*
X131201185Y-134901185D01*
X131280537Y-134804494D01*
X131339502Y-134694180D01*
X131375812Y-134574482D01*
X131388072Y-134450000D01*
X131385000Y-132985750D01*
X131226250Y-132827000D01*
X129127000Y-132827000D01*
X128873000Y-132827000D01*
X126773750Y-132827000D01*
X126615000Y-132985750D01*
X126611928Y-134450000D01*
X120685000Y-134450000D01*
X120685000Y-129750000D01*
X123861928Y-129750000D01*
X123874188Y-129874482D01*
X123910498Y-129994180D01*
X123969463Y-130104494D01*
X124048815Y-130201185D01*
X124145506Y-130280537D01*
X124255820Y-130339502D01*
X124375518Y-130375812D01*
X124500000Y-130388072D01*
X125714250Y-130385000D01*
X125873000Y-130226250D01*
X125873000Y-128127000D01*
X126127000Y-128127000D01*
X126127000Y-130226250D01*
X126285750Y-130385000D01*
X126956805Y-130386698D01*
X126895506Y-130419463D01*
X126798815Y-130498815D01*
X126719463Y-130595506D01*
X126660498Y-130705820D01*
X126624188Y-130825518D01*
X126611928Y-130950000D01*
X126615000Y-132414250D01*
X126773750Y-132573000D01*
X128873000Y-132573000D01*
X128873000Y-130473750D01*
X128714250Y-130315000D01*
X127793633Y-130313069D01*
X127854494Y-130280537D01*
X127951185Y-130201185D01*
X128030537Y-130104494D01*
X128089502Y-129994180D01*
X128125812Y-129874482D01*
X128138072Y-129750000D01*
X128135000Y-128285750D01*
X127976250Y-128127000D01*
X126127000Y-128127000D01*
X125873000Y-128127000D01*
X124023750Y-128127000D01*
X123865000Y-128285750D01*
X123861928Y-129750000D01*
X120685000Y-129750000D01*
X120685000Y-126250000D01*
X123861928Y-126250000D01*
X123865000Y-127714250D01*
X124023750Y-127873000D01*
X125873000Y-127873000D01*
X125873000Y-125773750D01*
X126127000Y-125773750D01*
X126127000Y-127873000D01*
X127976250Y-127873000D01*
X128135000Y-127714250D01*
X128138072Y-126250000D01*
X128125812Y-126125518D01*
X128089502Y-126005820D01*
X128030537Y-125895506D01*
X127951185Y-125798815D01*
X127854494Y-125719463D01*
X127744180Y-125660498D01*
X127624482Y-125624188D01*
X127500000Y-125611928D01*
X126285750Y-125615000D01*
X126127000Y-125773750D01*
X125873000Y-125773750D01*
X125714250Y-125615000D01*
X124500000Y-125611928D01*
X124375518Y-125624188D01*
X124255820Y-125660498D01*
X124145506Y-125719463D01*
X124048815Y-125798815D01*
X123969463Y-125895506D01*
X123910498Y-126005820D01*
X123874188Y-126125518D01*
X123861928Y-126250000D01*
X120685000Y-126250000D01*
X120685000Y-118879282D01*
X120847501Y-118928577D01*
X121014248Y-118945000D01*
X121725752Y-118945000D01*
X121892499Y-118928577D01*
X122106447Y-118863676D01*
X122303623Y-118758284D01*
X122476449Y-118616449D01*
X122514569Y-118570000D01*
X124155431Y-118570000D01*
X124193551Y-118616449D01*
X124366377Y-118758284D01*
X124563553Y-118863676D01*
X124777501Y-118928577D01*
X124944248Y-118945000D01*
X126155752Y-118945000D01*
X126322499Y-118928577D01*
X126536447Y-118863676D01*
X126733623Y-118758284D01*
X126906449Y-118616449D01*
X127048284Y-118443623D01*
X127153676Y-118246447D01*
X127218577Y-118032499D01*
X127240491Y-117810000D01*
X127227137Y-117674414D01*
X127314482Y-117665812D01*
X127434180Y-117629502D01*
X127544494Y-117570537D01*
X127641185Y-117491185D01*
X127720537Y-117394494D01*
X127779502Y-117284180D01*
X127815812Y-117164482D01*
X127828072Y-117040000D01*
X127825000Y-117025750D01*
X127666252Y-116867002D01*
X127825000Y-116867002D01*
X127825000Y-116835000D01*
X127892089Y-116835000D01*
X128072729Y-116799068D01*
X128242889Y-116728586D01*
X128267217Y-116712331D01*
X128331329Y-116832275D01*
X128437885Y-116962115D01*
X128567725Y-117068671D01*
X128715858Y-117147850D01*
X128876592Y-117196608D01*
X129043750Y-117213072D01*
X129481250Y-117213072D01*
X129648408Y-117196608D01*
X129809142Y-117147850D01*
X129957275Y-117068671D01*
X129978930Y-117050900D01*
X130045506Y-117105537D01*
X130155820Y-117164502D01*
X130275518Y-117200812D01*
X130400000Y-117213072D01*
X130551750Y-117210000D01*
X130710500Y-117051250D01*
X130710500Y-116227000D01*
X130964500Y-116227000D01*
X130964500Y-117051250D01*
X131123250Y-117210000D01*
X131275000Y-117213072D01*
X131399482Y-117200812D01*
X131519180Y-117164502D01*
X131629494Y-117105537D01*
X131726185Y-117026185D01*
X131805537Y-116929494D01*
X131864502Y-116819180D01*
X131900812Y-116699482D01*
X131913072Y-116575000D01*
X131910000Y-116385750D01*
X131751250Y-116227000D01*
X130964500Y-116227000D01*
X130710500Y-116227000D01*
X130690500Y-116227000D01*
X130690500Y-115973000D01*
X130710500Y-115973000D01*
X130710500Y-115953000D01*
X130964500Y-115953000D01*
X130964500Y-115973000D01*
X131751250Y-115973000D01*
X131910000Y-115814250D01*
X131913072Y-115625000D01*
X131900812Y-115500518D01*
X131874286Y-115413072D01*
X132090000Y-115413072D01*
X132214482Y-115400812D01*
X132334180Y-115364502D01*
X132444494Y-115305537D01*
X132541185Y-115226185D01*
X132554468Y-115210000D01*
X133895198Y-115210000D01*
X133579002Y-115526197D01*
X133549999Y-115549999D01*
X133504413Y-115605546D01*
X133455026Y-115665724D01*
X133396893Y-115774482D01*
X133384454Y-115797754D01*
X133340997Y-115941015D01*
X133330000Y-116052668D01*
X133330000Y-116052678D01*
X133326324Y-116090000D01*
X133330000Y-116127323D01*
X133330001Y-119082668D01*
X133326324Y-119120000D01*
X133330001Y-119157333D01*
X133340998Y-119268986D01*
X133353508Y-119310226D01*
X133384454Y-119412246D01*
X133455026Y-119544276D01*
X133521870Y-119625725D01*
X133550000Y-119660001D01*
X133578998Y-119683799D01*
X141091201Y-127196003D01*
X141114999Y-127225001D01*
X141143997Y-127248799D01*
X141230724Y-127319974D01*
X141362753Y-127390546D01*
X141506014Y-127434003D01*
X141655000Y-127448677D01*
X141682471Y-127445971D01*
X141806525Y-127631632D01*
X142013368Y-127838475D01*
X142195534Y-127960195D01*
X142078645Y-128029822D01*
X141862412Y-128224731D01*
X141688359Y-128458080D01*
X141563175Y-128720901D01*
X141518524Y-128868110D01*
X141639845Y-129098000D01*
X142833000Y-129098000D01*
X142833000Y-129078000D01*
X143087000Y-129078000D01*
X143087000Y-129098000D01*
X145373000Y-129098000D01*
X145373000Y-129078000D01*
X145627000Y-129078000D01*
X145627000Y-129098000D01*
X146826250Y-129098000D01*
X146985000Y-128939250D01*
X146988072Y-128375000D01*
X146975812Y-128250518D01*
X146939502Y-128130820D01*
X146880537Y-128020506D01*
X146801185Y-127923815D01*
X146704494Y-127844463D01*
X146594180Y-127785498D01*
X146521620Y-127763487D01*
X146653475Y-127631632D01*
X146815990Y-127388411D01*
X146927932Y-127118158D01*
X146985000Y-126831260D01*
X146985000Y-126538740D01*
X146927932Y-126251842D01*
X146815990Y-125981589D01*
X146653475Y-125738368D01*
X146446632Y-125531525D01*
X146272240Y-125415000D01*
X146446632Y-125298475D01*
X146653475Y-125091632D01*
X146815990Y-124848411D01*
X146927932Y-124578158D01*
X146951459Y-124459881D01*
X146952667Y-124460000D01*
X146952675Y-124460000D01*
X146990000Y-124463676D01*
X147027325Y-124460000D01*
X157487669Y-124460000D01*
X157481329Y-124467725D01*
X157402150Y-124615858D01*
X157353392Y-124776592D01*
X157336928Y-124943750D01*
X157336928Y-125456250D01*
X157353392Y-125623408D01*
X157402150Y-125784142D01*
X157481329Y-125932275D01*
X157487669Y-125940000D01*
X156787333Y-125940000D01*
X156750000Y-125936323D01*
X156712667Y-125940000D01*
X156601014Y-125950997D01*
X156457753Y-125994454D01*
X156325724Y-126065026D01*
X156209999Y-126159999D01*
X156186201Y-126188997D01*
X155308998Y-127066201D01*
X155280000Y-127089999D01*
X155256202Y-127118997D01*
X155256201Y-127118998D01*
X155185026Y-127205724D01*
X155114454Y-127337754D01*
X155091954Y-127411928D01*
X154820000Y-127411928D01*
X154695518Y-127424188D01*
X154575820Y-127460498D01*
X154465506Y-127519463D01*
X154368815Y-127598815D01*
X154289463Y-127695506D01*
X154230498Y-127805820D01*
X154194188Y-127925518D01*
X154181928Y-128050000D01*
X154181928Y-128272459D01*
X154075000Y-128261928D01*
X153185750Y-128265000D01*
X153027000Y-128423750D01*
X153027000Y-129435500D01*
X153047000Y-129435500D01*
X153047000Y-129689500D01*
X153027000Y-129689500D01*
X153027000Y-130701250D01*
X153185750Y-130860000D01*
X154075000Y-130863072D01*
X154181928Y-130852541D01*
X154181928Y-131413656D01*
X154164851Y-131404528D01*
X153998255Y-131353992D01*
X153825001Y-131336928D01*
X151974999Y-131336928D01*
X151801745Y-131353992D01*
X151635149Y-131404528D01*
X151628313Y-131408182D01*
X151534535Y-131314404D01*
X151459300Y-131173649D01*
X151495537Y-131129494D01*
X151554502Y-131019180D01*
X151590812Y-130899482D01*
X151595748Y-130849365D01*
X151600518Y-130850812D01*
X151725000Y-130863072D01*
X152614250Y-130860000D01*
X152773000Y-130701250D01*
X152773000Y-129689500D01*
X152753000Y-129689500D01*
X152753000Y-129435500D01*
X152773000Y-129435500D01*
X152773000Y-128423750D01*
X152614250Y-128265000D01*
X151725000Y-128261928D01*
X151600518Y-128274188D01*
X151480820Y-128310498D01*
X151370506Y-128369463D01*
X151273815Y-128448815D01*
X151194463Y-128545506D01*
X151135498Y-128655820D01*
X151099188Y-128775518D01*
X151086928Y-128900000D01*
X151089776Y-129249277D01*
X151089482Y-129249188D01*
X150965000Y-129236928D01*
X150775750Y-129240000D01*
X150617000Y-129398750D01*
X150617000Y-130198000D01*
X150637000Y-130198000D01*
X150637000Y-130452000D01*
X150617000Y-130452000D01*
X150617000Y-130472000D01*
X150363000Y-130472000D01*
X150363000Y-130452000D01*
X149538750Y-130452000D01*
X149380000Y-130610750D01*
X149377583Y-130740000D01*
X136345133Y-130740000D01*
X135187023Y-129581890D01*
X141518524Y-129581890D01*
X141563175Y-129729099D01*
X141688359Y-129991920D01*
X141862412Y-130225269D01*
X142078645Y-130420178D01*
X142328748Y-130569157D01*
X142603109Y-130666481D01*
X142833000Y-130545814D01*
X142833000Y-129352000D01*
X143087000Y-129352000D01*
X143087000Y-130545814D01*
X143316891Y-130666481D01*
X143591252Y-130569157D01*
X143841355Y-130420178D01*
X144037502Y-130243374D01*
X144060498Y-130319180D01*
X144119463Y-130429494D01*
X144198815Y-130526185D01*
X144295506Y-130605537D01*
X144405820Y-130664502D01*
X144525518Y-130700812D01*
X144650000Y-130713072D01*
X145214250Y-130710000D01*
X145373000Y-130551250D01*
X145373000Y-129352000D01*
X145627000Y-129352000D01*
X145627000Y-130551250D01*
X145785750Y-130710000D01*
X146350000Y-130713072D01*
X146474482Y-130700812D01*
X146594180Y-130664502D01*
X146704494Y-130605537D01*
X146801185Y-130526185D01*
X146880537Y-130429494D01*
X146939502Y-130319180D01*
X146975812Y-130199482D01*
X146988072Y-130075000D01*
X146986984Y-129875000D01*
X149376928Y-129875000D01*
X149380000Y-130039250D01*
X149538750Y-130198000D01*
X150363000Y-130198000D01*
X150363000Y-129398750D01*
X150204250Y-129240000D01*
X150015000Y-129236928D01*
X149890518Y-129249188D01*
X149770820Y-129285498D01*
X149660506Y-129344463D01*
X149563815Y-129423815D01*
X149484463Y-129520506D01*
X149425498Y-129630820D01*
X149389188Y-129750518D01*
X149376928Y-129875000D01*
X146986984Y-129875000D01*
X146985000Y-129510750D01*
X146826250Y-129352000D01*
X145627000Y-129352000D01*
X145373000Y-129352000D01*
X143087000Y-129352000D01*
X142833000Y-129352000D01*
X141639845Y-129352000D01*
X141518524Y-129581890D01*
X135187023Y-129581890D01*
X134388072Y-128782940D01*
X134388072Y-126250000D01*
X134375812Y-126125518D01*
X134339502Y-126005820D01*
X134280537Y-125895506D01*
X134201185Y-125798815D01*
X134104494Y-125719463D01*
X133994180Y-125660498D01*
X133874482Y-125624188D01*
X133750000Y-125611928D01*
X130250000Y-125611928D01*
X130125518Y-125624188D01*
X130005820Y-125660498D01*
X129895506Y-125719463D01*
X129798815Y-125798815D01*
X129719463Y-125895506D01*
X129660498Y-126005820D01*
X129624188Y-126125518D01*
X129611928Y-126250000D01*
X129611928Y-129750000D01*
X129624188Y-129874482D01*
X129660498Y-129994180D01*
X129719463Y-130104494D01*
X129798815Y-130201185D01*
X129895506Y-130280537D01*
X129957345Y-130313591D01*
X129285750Y-130315000D01*
X129127000Y-130473750D01*
X129127000Y-132573000D01*
X131226250Y-132573000D01*
X131385000Y-132414250D01*
X131388072Y-130950000D01*
X131375812Y-130825518D01*
X131339502Y-130705820D01*
X131280537Y-130595506D01*
X131201185Y-130498815D01*
X131104494Y-130419463D01*
X131045767Y-130388072D01*
X132782940Y-130388072D01*
X135033013Y-132638146D01*
X135068551Y-132681449D01*
X135111854Y-132716987D01*
X135111856Y-132716989D01*
X135172036Y-132766377D01*
X135241377Y-132823284D01*
X135438553Y-132928676D01*
X135652501Y-132993577D01*
X135717716Y-133000000D01*
X135875000Y-133015491D01*
X135930752Y-133010000D01*
X150019869Y-133010000D01*
X150410504Y-133400635D01*
X150446051Y-133443949D01*
X150568183Y-133544180D01*
X150618877Y-133585784D01*
X150816053Y-133691176D01*
X151030001Y-133756077D01*
X151252500Y-133777991D01*
X151308252Y-133772500D01*
X151462233Y-133772500D01*
X151481613Y-133788405D01*
X151635149Y-133870472D01*
X151801745Y-133921008D01*
X151974999Y-133938072D01*
X152595441Y-133938072D01*
X152820504Y-134163135D01*
X152856051Y-134206449D01*
X153028877Y-134348284D01*
X153226053Y-134453676D01*
X153440001Y-134518577D01*
X153662500Y-134540491D01*
X153718252Y-134535000D01*
X154314499Y-134535000D01*
X154368815Y-134601185D01*
X154465506Y-134680537D01*
X154575820Y-134739502D01*
X154695518Y-134775812D01*
X154820000Y-134788072D01*
X156820000Y-134788072D01*
X156944482Y-134775812D01*
X157064180Y-134739502D01*
X157174494Y-134680537D01*
X157271185Y-134601185D01*
X157350537Y-134504494D01*
X157409502Y-134394180D01*
X157445812Y-134274482D01*
X157458072Y-134150000D01*
X157458072Y-132650000D01*
X157445812Y-132525518D01*
X157409502Y-132405820D01*
X157350537Y-132295506D01*
X157313191Y-132250000D01*
X157325501Y-132235000D01*
X160481928Y-132235000D01*
X160481928Y-133000000D01*
X160494188Y-133124482D01*
X160530498Y-133244180D01*
X160589463Y-133354494D01*
X160668815Y-133451185D01*
X160765506Y-133530537D01*
X160875820Y-133589502D01*
X160995518Y-133625812D01*
X161120000Y-133638072D01*
X163120000Y-133638072D01*
X163244482Y-133625812D01*
X163317321Y-133603716D01*
X163344463Y-133654494D01*
X163423815Y-133751185D01*
X163520506Y-133830537D01*
X163630820Y-133889502D01*
X163750518Y-133925812D01*
X163875000Y-133938072D01*
X164764250Y-133935000D01*
X164923000Y-133776250D01*
X164923000Y-132764500D01*
X165177000Y-132764500D01*
X165177000Y-133776250D01*
X165335750Y-133935000D01*
X166225000Y-133938072D01*
X166349482Y-133925812D01*
X166469180Y-133889502D01*
X166579494Y-133830537D01*
X166676185Y-133751185D01*
X166755537Y-133654494D01*
X166814502Y-133544180D01*
X166850812Y-133424482D01*
X166863072Y-133300000D01*
X166860000Y-132923250D01*
X166701250Y-132764500D01*
X165177000Y-132764500D01*
X164923000Y-132764500D01*
X164903000Y-132764500D01*
X164903000Y-132510500D01*
X164923000Y-132510500D01*
X164923000Y-131498750D01*
X165177000Y-131498750D01*
X165177000Y-132510500D01*
X166701250Y-132510500D01*
X166860000Y-132351750D01*
X166863072Y-131975000D01*
X166850812Y-131850518D01*
X166814502Y-131730820D01*
X166755537Y-131620506D01*
X166676185Y-131523815D01*
X166579494Y-131444463D01*
X166469180Y-131385498D01*
X166349482Y-131349188D01*
X166225000Y-131336928D01*
X165335750Y-131340000D01*
X165177000Y-131498750D01*
X164923000Y-131498750D01*
X164764250Y-131340000D01*
X163875000Y-131336928D01*
X163758072Y-131348444D01*
X163758072Y-131067060D01*
X163923140Y-130901992D01*
X163966449Y-130866449D01*
X163980870Y-130848877D01*
X164124999Y-130863072D01*
X165975001Y-130863072D01*
X166148255Y-130846008D01*
X166314851Y-130795472D01*
X166468387Y-130713405D01*
X166602962Y-130602962D01*
X166713405Y-130468387D01*
X166795472Y-130314851D01*
X166807560Y-130275000D01*
X168941928Y-130275000D01*
X168954188Y-130399482D01*
X168990498Y-130519180D01*
X169049463Y-130629494D01*
X169128815Y-130726185D01*
X169225506Y-130805537D01*
X169335820Y-130864502D01*
X169455518Y-130900812D01*
X169580000Y-130913072D01*
X169994250Y-130910000D01*
X170153000Y-130751250D01*
X170153000Y-129914500D01*
X169103750Y-129914500D01*
X168945000Y-130073250D01*
X168941928Y-130275000D01*
X166807560Y-130275000D01*
X166846008Y-130148255D01*
X166863072Y-129975001D01*
X166863072Y-129354560D01*
X167170132Y-129047500D01*
X168994945Y-129047500D01*
X168990498Y-129055820D01*
X168954188Y-129175518D01*
X168941928Y-129300000D01*
X168945000Y-129501750D01*
X169103750Y-129660500D01*
X170153000Y-129660500D01*
X170153000Y-129640500D01*
X170407000Y-129640500D01*
X170407000Y-129660500D01*
X170427000Y-129660500D01*
X170427000Y-129914500D01*
X170407000Y-129914500D01*
X170407000Y-130751250D01*
X170565750Y-130910000D01*
X170980000Y-130913072D01*
X171104482Y-130900812D01*
X171224180Y-130864502D01*
X171334494Y-130805537D01*
X171431185Y-130726185D01*
X171447410Y-130706415D01*
X171515000Y-130713072D01*
X171704250Y-130710000D01*
X171863000Y-130551250D01*
X171863000Y-129752000D01*
X171843000Y-129752000D01*
X171843000Y-129498000D01*
X171863000Y-129498000D01*
X171863000Y-129478000D01*
X172117000Y-129478000D01*
X172117000Y-129498000D01*
X172137000Y-129498000D01*
X172137000Y-129752000D01*
X172117000Y-129752000D01*
X172117000Y-130551250D01*
X172275750Y-130710000D01*
X172363110Y-130711418D01*
X172361928Y-130890000D01*
X172374188Y-131014482D01*
X172410498Y-131134180D01*
X172469463Y-131244494D01*
X172548815Y-131341185D01*
X172645506Y-131420537D01*
X172755820Y-131479502D01*
X172875518Y-131515812D01*
X173000000Y-131528072D01*
X173464250Y-131525000D01*
X173623000Y-131366250D01*
X173623000Y-130267000D01*
X173877000Y-130267000D01*
X173877000Y-131366250D01*
X174035750Y-131525000D01*
X174500000Y-131528072D01*
X174624482Y-131515812D01*
X174744180Y-131479502D01*
X174854494Y-131420537D01*
X174951185Y-131341185D01*
X175030537Y-131244494D01*
X175089502Y-131134180D01*
X175125812Y-131014482D01*
X175138072Y-130890000D01*
X194861928Y-130890000D01*
X194874188Y-131014482D01*
X194910498Y-131134180D01*
X194969463Y-131244494D01*
X195048815Y-131341185D01*
X195145506Y-131420537D01*
X195255820Y-131479502D01*
X195375518Y-131515812D01*
X195500000Y-131528072D01*
X195964250Y-131525000D01*
X196123000Y-131366250D01*
X196123000Y-130267000D01*
X196377000Y-130267000D01*
X196377000Y-131366250D01*
X196535750Y-131525000D01*
X197000000Y-131528072D01*
X197124482Y-131515812D01*
X197244180Y-131479502D01*
X197354494Y-131420537D01*
X197451185Y-131341185D01*
X197530537Y-131244494D01*
X197589502Y-131134180D01*
X197625812Y-131014482D01*
X197638072Y-130890000D01*
X197635000Y-130425750D01*
X197476250Y-130267000D01*
X196377000Y-130267000D01*
X196123000Y-130267000D01*
X195023750Y-130267000D01*
X194865000Y-130425750D01*
X194861928Y-130890000D01*
X175138072Y-130890000D01*
X175135000Y-130425750D01*
X174976250Y-130267000D01*
X173877000Y-130267000D01*
X173623000Y-130267000D01*
X173603000Y-130267000D01*
X173603000Y-130013000D01*
X173623000Y-130013000D01*
X173623000Y-129993000D01*
X173877000Y-129993000D01*
X173877000Y-130013000D01*
X174976250Y-130013000D01*
X175135000Y-129854250D01*
X175138072Y-129390000D01*
X175125812Y-129265518D01*
X175089502Y-129145820D01*
X175030537Y-129035506D01*
X174951185Y-128938815D01*
X174867333Y-128870000D01*
X174951185Y-128801185D01*
X175030537Y-128704494D01*
X175089502Y-128594180D01*
X175125812Y-128474482D01*
X175138072Y-128350000D01*
X175138072Y-126850000D01*
X175125812Y-126725518D01*
X175089502Y-126605820D01*
X175030537Y-126495506D01*
X174951185Y-126398815D01*
X174885000Y-126344499D01*
X174885000Y-126315501D01*
X174951185Y-126261185D01*
X175030537Y-126164494D01*
X175089502Y-126054180D01*
X175125812Y-125934482D01*
X175138072Y-125810000D01*
X175138072Y-124310000D01*
X175125812Y-124185518D01*
X175089502Y-124065820D01*
X175030537Y-123955506D01*
X174951185Y-123858815D01*
X174867333Y-123790000D01*
X174951185Y-123721185D01*
X175030537Y-123624494D01*
X175089502Y-123514180D01*
X175125812Y-123394482D01*
X175138072Y-123270000D01*
X175138072Y-121770000D01*
X175125812Y-121645518D01*
X175089502Y-121525820D01*
X175030537Y-121415506D01*
X174951185Y-121318815D01*
X174867333Y-121250000D01*
X174951185Y-121181185D01*
X175030537Y-121084494D01*
X175089502Y-120974180D01*
X175125812Y-120854482D01*
X175138072Y-120730000D01*
X175138072Y-119230000D01*
X175125812Y-119105518D01*
X175089502Y-118985820D01*
X175030537Y-118875506D01*
X174951185Y-118778815D01*
X174867333Y-118710000D01*
X174951185Y-118641185D01*
X175030537Y-118544494D01*
X175089502Y-118434180D01*
X175125812Y-118314482D01*
X175138072Y-118190000D01*
X175138072Y-116690000D01*
X175125812Y-116565518D01*
X175089502Y-116445820D01*
X175030537Y-116335506D01*
X174951185Y-116238815D01*
X174867333Y-116170000D01*
X174951185Y-116101185D01*
X175030537Y-116004494D01*
X175089502Y-115894180D01*
X175125812Y-115774482D01*
X175138072Y-115650000D01*
X175135000Y-115185750D01*
X174976250Y-115027000D01*
X173877000Y-115027000D01*
X173877000Y-115047000D01*
X173623000Y-115047000D01*
X173623000Y-115027000D01*
X172523750Y-115027000D01*
X172365000Y-115185750D01*
X172361928Y-115650000D01*
X172374188Y-115774482D01*
X172410498Y-115894180D01*
X172469463Y-116004494D01*
X172548815Y-116101185D01*
X172632667Y-116170000D01*
X172548815Y-116238815D01*
X172469463Y-116335506D01*
X172410498Y-116445820D01*
X172374188Y-116565518D01*
X172362913Y-116680000D01*
X170314802Y-116680000D01*
X166744802Y-113110000D01*
X172361928Y-113110000D01*
X172374188Y-113234482D01*
X172410498Y-113354180D01*
X172469463Y-113464494D01*
X172548815Y-113561185D01*
X172632667Y-113630000D01*
X172548815Y-113698815D01*
X172469463Y-113795506D01*
X172410498Y-113905820D01*
X172374188Y-114025518D01*
X172361928Y-114150000D01*
X172365000Y-114614250D01*
X172523750Y-114773000D01*
X173623000Y-114773000D01*
X173623000Y-113673750D01*
X173579250Y-113630000D01*
X173623000Y-113586250D01*
X173623000Y-112487000D01*
X173877000Y-112487000D01*
X173877000Y-113586250D01*
X173920750Y-113630000D01*
X173877000Y-113673750D01*
X173877000Y-114773000D01*
X174976250Y-114773000D01*
X175135000Y-114614250D01*
X175138072Y-114150000D01*
X175125812Y-114025518D01*
X175089502Y-113905820D01*
X175030537Y-113795506D01*
X174951185Y-113698815D01*
X174867333Y-113630000D01*
X174951185Y-113561185D01*
X175030537Y-113464494D01*
X175089502Y-113354180D01*
X175125812Y-113234482D01*
X175138072Y-113110000D01*
X175135000Y-112645750D01*
X174976250Y-112487000D01*
X173877000Y-112487000D01*
X173623000Y-112487000D01*
X172523750Y-112487000D01*
X172365000Y-112645750D01*
X172361928Y-113110000D01*
X166744802Y-113110000D01*
X163873804Y-110239003D01*
X163850001Y-110209999D01*
X163734276Y-110115026D01*
X163602247Y-110044454D01*
X163458986Y-110000997D01*
X163347333Y-109990000D01*
X163347322Y-109990000D01*
X163310000Y-109986324D01*
X163272678Y-109990000D01*
X146031192Y-109990000D01*
X146000000Y-109986928D01*
X144700000Y-109986928D01*
X144575518Y-109999188D01*
X144468282Y-110031718D01*
X144500812Y-109924482D01*
X144502238Y-109910000D01*
X164279502Y-109910000D01*
X165729303Y-111359803D01*
X165729303Y-111421939D01*
X165769077Y-111621898D01*
X165847098Y-111810256D01*
X165960366Y-111979774D01*
X166104529Y-112123937D01*
X166274047Y-112237205D01*
X166462405Y-112315226D01*
X166662364Y-112355000D01*
X166866242Y-112355000D01*
X167066201Y-112315226D01*
X167254559Y-112237205D01*
X167424077Y-112123937D01*
X167568240Y-111979774D01*
X167681508Y-111810256D01*
X167759529Y-111621898D01*
X167761895Y-111610000D01*
X172361928Y-111610000D01*
X172365000Y-112074250D01*
X172523750Y-112233000D01*
X173623000Y-112233000D01*
X173623000Y-111133750D01*
X173877000Y-111133750D01*
X173877000Y-112233000D01*
X174976250Y-112233000D01*
X175135000Y-112074250D01*
X175138072Y-111610000D01*
X194861928Y-111610000D01*
X194861928Y-113110000D01*
X194874188Y-113234482D01*
X194910498Y-113354180D01*
X194969463Y-113464494D01*
X195048815Y-113561185D01*
X195132667Y-113630000D01*
X195048815Y-113698815D01*
X194969463Y-113795506D01*
X194910498Y-113905820D01*
X194874188Y-114025518D01*
X194861928Y-114150000D01*
X194861928Y-115650000D01*
X194874188Y-115774482D01*
X194910498Y-115894180D01*
X194969463Y-116004494D01*
X195048815Y-116101185D01*
X195132667Y-116170000D01*
X195048815Y-116238815D01*
X194969463Y-116335506D01*
X194910498Y-116445820D01*
X194874188Y-116565518D01*
X194861928Y-116690000D01*
X194861928Y-118190000D01*
X194874188Y-118314482D01*
X194910498Y-118434180D01*
X194969463Y-118544494D01*
X195048815Y-118641185D01*
X195132667Y-118710000D01*
X195048815Y-118778815D01*
X194969463Y-118875506D01*
X194910498Y-118985820D01*
X194874188Y-119105518D01*
X194861928Y-119230000D01*
X194861928Y-120730000D01*
X194874188Y-120854482D01*
X194910498Y-120974180D01*
X194969463Y-121084494D01*
X195048815Y-121181185D01*
X195132667Y-121250000D01*
X195048815Y-121318815D01*
X194969463Y-121415506D01*
X194910498Y-121525820D01*
X194874188Y-121645518D01*
X194861928Y-121770000D01*
X194861928Y-123270000D01*
X194874188Y-123394482D01*
X194910498Y-123514180D01*
X194969463Y-123624494D01*
X195048815Y-123721185D01*
X195132667Y-123790000D01*
X195048815Y-123858815D01*
X194969463Y-123955506D01*
X194910498Y-124065820D01*
X194874188Y-124185518D01*
X194861928Y-124310000D01*
X194861928Y-125810000D01*
X194874188Y-125934482D01*
X194910498Y-126054180D01*
X194969463Y-126164494D01*
X195048815Y-126261185D01*
X195132667Y-126330000D01*
X195048815Y-126398815D01*
X194969463Y-126495506D01*
X194910498Y-126605820D01*
X194874188Y-126725518D01*
X194861928Y-126850000D01*
X194861928Y-128350000D01*
X194874188Y-128474482D01*
X194910498Y-128594180D01*
X194969463Y-128704494D01*
X195048815Y-128801185D01*
X195132667Y-128870000D01*
X195048815Y-128938815D01*
X194969463Y-129035506D01*
X194910498Y-129145820D01*
X194874188Y-129265518D01*
X194861928Y-129390000D01*
X194865000Y-129854250D01*
X195023750Y-130013000D01*
X196123000Y-130013000D01*
X196123000Y-129993000D01*
X196377000Y-129993000D01*
X196377000Y-130013000D01*
X197476250Y-130013000D01*
X197635000Y-129854250D01*
X197638072Y-129390000D01*
X197625812Y-129265518D01*
X197589502Y-129145820D01*
X197530537Y-129035506D01*
X197451185Y-128938815D01*
X197367333Y-128870000D01*
X197451185Y-128801185D01*
X197530537Y-128704494D01*
X197567683Y-128635000D01*
X197701939Y-128635000D01*
X197901898Y-128595226D01*
X198090256Y-128517205D01*
X198259774Y-128403937D01*
X198403937Y-128259774D01*
X198517205Y-128090256D01*
X198595226Y-127901898D01*
X198635000Y-127701939D01*
X198635000Y-127498061D01*
X198595226Y-127298102D01*
X198517205Y-127109744D01*
X198403937Y-126940226D01*
X198259774Y-126796063D01*
X198090256Y-126682795D01*
X197901898Y-126604774D01*
X197701939Y-126565000D01*
X197567683Y-126565000D01*
X197530537Y-126495506D01*
X197451185Y-126398815D01*
X197367333Y-126330000D01*
X197451185Y-126261185D01*
X197530537Y-126164494D01*
X197567683Y-126095000D01*
X197701939Y-126095000D01*
X197901898Y-126055226D01*
X198090256Y-125977205D01*
X198259774Y-125863937D01*
X198403937Y-125719774D01*
X198517205Y-125550256D01*
X198595226Y-125361898D01*
X198635000Y-125161939D01*
X198635000Y-124958061D01*
X198595226Y-124758102D01*
X198517205Y-124569744D01*
X198403937Y-124400226D01*
X198259774Y-124256063D01*
X198090256Y-124142795D01*
X197901898Y-124064774D01*
X197701939Y-124025000D01*
X197567683Y-124025000D01*
X197530537Y-123955506D01*
X197451185Y-123858815D01*
X197367333Y-123790000D01*
X197451185Y-123721185D01*
X197530537Y-123624494D01*
X197567683Y-123555000D01*
X197701939Y-123555000D01*
X197901898Y-123515226D01*
X198090256Y-123437205D01*
X198259774Y-123323937D01*
X198403937Y-123179774D01*
X198517205Y-123010256D01*
X198595226Y-122821898D01*
X198635000Y-122621939D01*
X198635000Y-122418061D01*
X198595226Y-122218102D01*
X198517205Y-122029744D01*
X198403937Y-121860226D01*
X198259774Y-121716063D01*
X198090256Y-121602795D01*
X197901898Y-121524774D01*
X197701939Y-121485000D01*
X197567683Y-121485000D01*
X197530537Y-121415506D01*
X197451185Y-121318815D01*
X197367333Y-121250000D01*
X197451185Y-121181185D01*
X197530537Y-121084494D01*
X197573028Y-121005000D01*
X197701939Y-121005000D01*
X197901898Y-120965226D01*
X198090256Y-120887205D01*
X198259774Y-120773937D01*
X198403937Y-120629774D01*
X198517205Y-120460256D01*
X198595226Y-120271898D01*
X198635000Y-120071939D01*
X198635000Y-119868061D01*
X198595226Y-119668102D01*
X198517205Y-119479744D01*
X198403937Y-119310226D01*
X198259774Y-119166063D01*
X198090256Y-119052795D01*
X197901898Y-118974774D01*
X197701939Y-118935000D01*
X197562338Y-118935000D01*
X197530537Y-118875506D01*
X197451185Y-118778815D01*
X197367333Y-118710000D01*
X197451185Y-118641185D01*
X197530537Y-118544494D01*
X197567683Y-118475000D01*
X197701939Y-118475000D01*
X197901898Y-118435226D01*
X198090256Y-118357205D01*
X198259774Y-118243937D01*
X198403937Y-118099774D01*
X198517205Y-117930256D01*
X198595226Y-117741898D01*
X198635000Y-117541939D01*
X198635000Y-117338061D01*
X198595226Y-117138102D01*
X198517205Y-116949744D01*
X198403937Y-116780226D01*
X198259774Y-116636063D01*
X198090256Y-116522795D01*
X197901898Y-116444774D01*
X197701939Y-116405000D01*
X197567683Y-116405000D01*
X197530537Y-116335506D01*
X197451185Y-116238815D01*
X197367333Y-116170000D01*
X197451185Y-116101185D01*
X197530537Y-116004494D01*
X197567683Y-115935000D01*
X197701939Y-115935000D01*
X197901898Y-115895226D01*
X198090256Y-115817205D01*
X198259774Y-115703937D01*
X198403937Y-115559774D01*
X198517205Y-115390256D01*
X198595226Y-115201898D01*
X198635000Y-115001939D01*
X198635000Y-114798061D01*
X198595226Y-114598102D01*
X198517205Y-114409744D01*
X198403937Y-114240226D01*
X198259774Y-114096063D01*
X198090256Y-113982795D01*
X197901898Y-113904774D01*
X197701939Y-113865000D01*
X197567683Y-113865000D01*
X197530537Y-113795506D01*
X197451185Y-113698815D01*
X197367333Y-113630000D01*
X197451185Y-113561185D01*
X197530537Y-113464494D01*
X197567670Y-113395024D01*
X197701963Y-113395024D01*
X197901922Y-113355250D01*
X198090280Y-113277229D01*
X198259798Y-113163961D01*
X198403961Y-113019798D01*
X198517229Y-112850280D01*
X198595250Y-112661922D01*
X198635024Y-112461963D01*
X198635024Y-112258085D01*
X198595250Y-112058126D01*
X198517229Y-111869768D01*
X198403961Y-111700250D01*
X198259798Y-111556087D01*
X198090280Y-111442819D01*
X197901922Y-111364798D01*
X197701963Y-111325024D01*
X197567696Y-111325024D01*
X197530537Y-111255506D01*
X197451185Y-111158815D01*
X197354494Y-111079463D01*
X197244180Y-111020498D01*
X197124482Y-110984188D01*
X197000000Y-110971928D01*
X195500000Y-110971928D01*
X195375518Y-110984188D01*
X195255820Y-111020498D01*
X195145506Y-111079463D01*
X195048815Y-111158815D01*
X194969463Y-111255506D01*
X194910498Y-111365820D01*
X194874188Y-111485518D01*
X194861928Y-111610000D01*
X175138072Y-111610000D01*
X175125812Y-111485518D01*
X175089502Y-111365820D01*
X175030537Y-111255506D01*
X174951185Y-111158815D01*
X174854494Y-111079463D01*
X174744180Y-111020498D01*
X174624482Y-110984188D01*
X174500000Y-110971928D01*
X174035750Y-110975000D01*
X173877000Y-111133750D01*
X173623000Y-111133750D01*
X173464250Y-110975000D01*
X173000000Y-110971928D01*
X172875518Y-110984188D01*
X172755820Y-111020498D01*
X172645506Y-111079463D01*
X172548815Y-111158815D01*
X172469463Y-111255506D01*
X172410498Y-111365820D01*
X172374188Y-111485518D01*
X172361928Y-111610000D01*
X167761895Y-111610000D01*
X167799303Y-111421939D01*
X167799303Y-111218061D01*
X167759529Y-111018102D01*
X167681508Y-110829744D01*
X167568240Y-110660226D01*
X167424077Y-110516063D01*
X167294371Y-110429396D01*
X167327205Y-110380256D01*
X167405226Y-110191898D01*
X167445000Y-109991939D01*
X167445000Y-109788061D01*
X167405226Y-109588102D01*
X167327205Y-109399744D01*
X167213937Y-109230226D01*
X167069774Y-109086063D01*
X166900256Y-108972795D01*
X166711898Y-108894774D01*
X166511939Y-108855000D01*
X166449802Y-108855000D01*
X165729256Y-108134455D01*
X165863937Y-107999774D01*
X165977205Y-107830256D01*
X165991337Y-107796138D01*
X167555000Y-109359802D01*
X167555000Y-109421939D01*
X167594774Y-109621898D01*
X167672795Y-109810256D01*
X167786063Y-109979774D01*
X167930226Y-110123937D01*
X168099744Y-110237205D01*
X168288102Y-110315226D01*
X168488061Y-110355000D01*
X168691939Y-110355000D01*
X168891898Y-110315226D01*
X169080256Y-110237205D01*
X169249774Y-110123937D01*
X169393937Y-109979774D01*
X169507205Y-109810256D01*
X169585226Y-109621898D01*
X169625000Y-109421939D01*
X169625000Y-109223241D01*
X169646063Y-109254764D01*
X169790226Y-109398927D01*
X169959744Y-109512195D01*
X170148102Y-109590216D01*
X170348061Y-109629990D01*
X170551939Y-109629990D01*
X170751898Y-109590216D01*
X170940256Y-109512195D01*
X171109774Y-109398927D01*
X171253937Y-109254764D01*
X171367205Y-109085246D01*
X171445226Y-108896888D01*
X171485000Y-108696929D01*
X171485000Y-108493051D01*
X171445226Y-108293092D01*
X171367205Y-108104734D01*
X171253937Y-107935216D01*
X171109774Y-107791053D01*
X170940256Y-107677785D01*
X170751898Y-107599764D01*
X170551939Y-107559990D01*
X170489802Y-107559990D01*
X169404790Y-106474979D01*
X169840178Y-106474979D01*
X169855000Y-106489801D01*
X169855000Y-106551939D01*
X169894774Y-106751898D01*
X169972795Y-106940256D01*
X170086063Y-107109774D01*
X170230226Y-107253937D01*
X170399744Y-107367205D01*
X170588102Y-107445226D01*
X170788061Y-107485000D01*
X170991939Y-107485000D01*
X171191898Y-107445226D01*
X171380256Y-107367205D01*
X171549774Y-107253937D01*
X171693937Y-107109774D01*
X171807205Y-106940256D01*
X171885226Y-106751898D01*
X171925000Y-106551939D01*
X171925000Y-106348061D01*
X171885226Y-106148102D01*
X171807205Y-105959744D01*
X171693937Y-105790226D01*
X171549774Y-105646063D01*
X171380256Y-105532795D01*
X171325225Y-105510000D01*
X172361928Y-105510000D01*
X172374188Y-105634482D01*
X172410498Y-105754180D01*
X172469463Y-105864494D01*
X172548815Y-105961185D01*
X172645506Y-106040537D01*
X172755820Y-106099502D01*
X172875518Y-106135812D01*
X173000000Y-106148072D01*
X173464250Y-106145000D01*
X173623000Y-105986250D01*
X173623000Y-104887000D01*
X173877000Y-104887000D01*
X173877000Y-105986250D01*
X174035750Y-106145000D01*
X174500000Y-106148072D01*
X174624482Y-106135812D01*
X174744180Y-106099502D01*
X174854494Y-106040537D01*
X174951185Y-105961185D01*
X175030537Y-105864494D01*
X175089502Y-105754180D01*
X175125812Y-105634482D01*
X175135117Y-105540000D01*
X194861928Y-105540000D01*
X194874188Y-105664482D01*
X194910498Y-105784180D01*
X194969463Y-105894494D01*
X195048815Y-105991185D01*
X195145506Y-106070537D01*
X195255820Y-106129502D01*
X195375518Y-106165812D01*
X195500000Y-106178072D01*
X195964250Y-106175000D01*
X196123000Y-106016250D01*
X196123000Y-104917000D01*
X196377000Y-104917000D01*
X196377000Y-106016250D01*
X196535750Y-106175000D01*
X197000000Y-106178072D01*
X197124482Y-106165812D01*
X197244180Y-106129502D01*
X197354494Y-106070537D01*
X197451185Y-105991185D01*
X197530537Y-105894494D01*
X197589502Y-105784180D01*
X197625812Y-105664482D01*
X197638072Y-105540000D01*
X197635000Y-105075750D01*
X197476250Y-104917000D01*
X196377000Y-104917000D01*
X196123000Y-104917000D01*
X195023750Y-104917000D01*
X194865000Y-105075750D01*
X194861928Y-105540000D01*
X175135117Y-105540000D01*
X175138072Y-105510000D01*
X175135000Y-105045750D01*
X174976250Y-104887000D01*
X173877000Y-104887000D01*
X173623000Y-104887000D01*
X172523750Y-104887000D01*
X172365000Y-105045750D01*
X172361928Y-105510000D01*
X171325225Y-105510000D01*
X171191898Y-105454774D01*
X170991939Y-105415000D01*
X170929801Y-105415000D01*
X170718778Y-105203977D01*
X170694980Y-105174979D01*
X170635694Y-105126324D01*
X170579255Y-105080005D01*
X170447225Y-105009433D01*
X170347421Y-104979159D01*
X170303965Y-104965977D01*
X170192312Y-104954980D01*
X170154979Y-104951303D01*
X170117647Y-104954980D01*
X142969525Y-104954978D01*
X142932202Y-104951302D01*
X142894879Y-104954978D01*
X142894870Y-104954978D01*
X142783217Y-104965975D01*
X142683412Y-104996250D01*
X142639955Y-105009432D01*
X142507925Y-105080004D01*
X142421199Y-105151179D01*
X142421195Y-105151183D01*
X142392202Y-105174977D01*
X142368408Y-105203970D01*
X140738998Y-106833381D01*
X140710000Y-106857179D01*
X140686202Y-106886177D01*
X140686201Y-106886178D01*
X140615026Y-106972904D01*
X140544454Y-107104934D01*
X140529102Y-107155546D01*
X140501748Y-107245724D01*
X140500998Y-107248195D01*
X140486324Y-107397180D01*
X140490001Y-107434512D01*
X140490001Y-107873254D01*
X140375000Y-107861928D01*
X140125000Y-107861928D01*
X140000518Y-107874188D01*
X140000000Y-107874345D01*
X139999482Y-107874188D01*
X139875000Y-107861928D01*
X139625000Y-107861928D01*
X139500518Y-107874188D01*
X139500000Y-107874345D01*
X139499482Y-107874188D01*
X139375000Y-107861928D01*
X139125000Y-107861928D01*
X139000518Y-107874188D01*
X138997742Y-107875030D01*
X138908750Y-107865000D01*
X138843078Y-107930672D01*
X138770506Y-107969463D01*
X138750000Y-107986292D01*
X138729494Y-107969463D01*
X138656922Y-107930672D01*
X138591250Y-107865000D01*
X138502258Y-107875030D01*
X138499482Y-107874188D01*
X138375000Y-107861928D01*
X138192909Y-107861928D01*
X138190000Y-107718250D01*
X138031250Y-107559500D01*
X137207000Y-107559500D01*
X137207000Y-107579500D01*
X136953000Y-107579500D01*
X136953000Y-107559500D01*
X136128750Y-107559500D01*
X135970000Y-107718250D01*
X135966928Y-107870000D01*
X135979188Y-107994482D01*
X136015498Y-108114180D01*
X136074463Y-108224494D01*
X136129100Y-108291070D01*
X136111329Y-108312725D01*
X136032150Y-108460858D01*
X135983392Y-108621592D01*
X135966928Y-108788750D01*
X135966928Y-109226250D01*
X135983392Y-109393408D01*
X136032150Y-109554142D01*
X136111329Y-109702275D01*
X136217885Y-109832115D01*
X136250357Y-109858764D01*
X136258411Y-109885313D01*
X136312725Y-109986928D01*
X136000000Y-109986928D01*
X135875518Y-109999188D01*
X135755820Y-110035498D01*
X135645506Y-110094463D01*
X135640011Y-110098973D01*
X135640011Y-108540921D01*
X135643687Y-108503598D01*
X135640011Y-108466275D01*
X135640011Y-108466266D01*
X135629014Y-108354613D01*
X135585557Y-108211352D01*
X135563835Y-108170714D01*
X135514985Y-108079322D01*
X135443810Y-107992596D01*
X135420012Y-107963598D01*
X135391014Y-107939800D01*
X134446214Y-106995000D01*
X135966928Y-106995000D01*
X135970000Y-107146750D01*
X136128750Y-107305500D01*
X136953000Y-107305500D01*
X136953000Y-106518750D01*
X137207000Y-106518750D01*
X137207000Y-107305500D01*
X138031250Y-107305500D01*
X138190000Y-107146750D01*
X138193072Y-106995000D01*
X138180812Y-106870518D01*
X138144502Y-106750820D01*
X138085537Y-106640506D01*
X138006185Y-106543815D01*
X137909494Y-106464463D01*
X137799180Y-106405498D01*
X137679482Y-106369188D01*
X137555000Y-106356928D01*
X137365750Y-106360000D01*
X137207000Y-106518750D01*
X136953000Y-106518750D01*
X136794250Y-106360000D01*
X136605000Y-106356928D01*
X136480518Y-106369188D01*
X136360820Y-106405498D01*
X136250506Y-106464463D01*
X136153815Y-106543815D01*
X136074463Y-106640506D01*
X136015498Y-106750820D01*
X135979188Y-106870518D01*
X135966928Y-106995000D01*
X134446214Y-106995000D01*
X132830216Y-105379003D01*
X132806413Y-105349999D01*
X132690688Y-105255026D01*
X132558659Y-105184454D01*
X132415398Y-105140997D01*
X132303745Y-105130000D01*
X132303734Y-105130000D01*
X132266412Y-105126324D01*
X132229090Y-105130000D01*
X126117303Y-105130000D01*
X126157850Y-105054142D01*
X126206608Y-104893408D01*
X126223072Y-104726250D01*
X126223072Y-104288750D01*
X126206608Y-104121592D01*
X126157850Y-103960858D01*
X126078671Y-103812725D01*
X126002574Y-103720000D01*
X126078671Y-103627275D01*
X126157850Y-103479142D01*
X126206608Y-103318408D01*
X126223072Y-103151250D01*
X126223072Y-102970000D01*
X172361928Y-102970000D01*
X172374188Y-103094482D01*
X172410498Y-103214180D01*
X172469463Y-103324494D01*
X172548815Y-103421185D01*
X172632667Y-103490000D01*
X172548815Y-103558815D01*
X172469463Y-103655506D01*
X172410498Y-103765820D01*
X172374188Y-103885518D01*
X172361928Y-104010000D01*
X172365000Y-104474250D01*
X172523750Y-104633000D01*
X173623000Y-104633000D01*
X173623000Y-103533750D01*
X173579250Y-103490000D01*
X173623000Y-103446250D01*
X173623000Y-102347000D01*
X173877000Y-102347000D01*
X173877000Y-103446250D01*
X173920750Y-103490000D01*
X173877000Y-103533750D01*
X173877000Y-104633000D01*
X174976250Y-104633000D01*
X175135000Y-104474250D01*
X175138072Y-104010000D01*
X175125812Y-103885518D01*
X175089502Y-103765820D01*
X175030537Y-103655506D01*
X174951185Y-103558815D01*
X174867333Y-103490000D01*
X174951185Y-103421185D01*
X175030537Y-103324494D01*
X175089502Y-103214180D01*
X175125812Y-103094482D01*
X175138072Y-102970000D01*
X175135000Y-102505750D01*
X174976250Y-102347000D01*
X173877000Y-102347000D01*
X173623000Y-102347000D01*
X172523750Y-102347000D01*
X172365000Y-102505750D01*
X172361928Y-102970000D01*
X126223072Y-102970000D01*
X126223072Y-102713750D01*
X126206608Y-102546592D01*
X126157850Y-102385858D01*
X126116432Y-102308370D01*
X126456702Y-101968100D01*
X126577523Y-101980000D01*
X127422477Y-101980000D01*
X127594360Y-101963071D01*
X127814906Y-101896169D01*
X128018162Y-101787526D01*
X128196318Y-101641318D01*
X128342526Y-101463162D01*
X128451169Y-101259906D01*
X128518071Y-101039360D01*
X128540661Y-100810000D01*
X128518071Y-100580640D01*
X128472375Y-100430000D01*
X172361928Y-100430000D01*
X172374188Y-100554482D01*
X172410498Y-100674180D01*
X172469463Y-100784494D01*
X172548815Y-100881185D01*
X172632667Y-100950000D01*
X172548815Y-101018815D01*
X172469463Y-101115506D01*
X172410498Y-101225820D01*
X172374188Y-101345518D01*
X172361928Y-101470000D01*
X172365000Y-101934250D01*
X172523750Y-102093000D01*
X173623000Y-102093000D01*
X173623000Y-100993750D01*
X173579250Y-100950000D01*
X173623000Y-100906250D01*
X173623000Y-99807000D01*
X173877000Y-99807000D01*
X173877000Y-100906250D01*
X173920750Y-100950000D01*
X173877000Y-100993750D01*
X173877000Y-102093000D01*
X174976250Y-102093000D01*
X175135000Y-101934250D01*
X175138072Y-101470000D01*
X175125812Y-101345518D01*
X175089502Y-101225820D01*
X175030537Y-101115506D01*
X174951185Y-101018815D01*
X174867333Y-100950000D01*
X174951185Y-100881185D01*
X175030537Y-100784494D01*
X175089502Y-100674180D01*
X175125812Y-100554482D01*
X175135117Y-100460000D01*
X194861928Y-100460000D01*
X194874188Y-100584482D01*
X194910498Y-100704180D01*
X194969463Y-100814494D01*
X195048815Y-100911185D01*
X195132667Y-100980000D01*
X195048815Y-101048815D01*
X194969463Y-101145506D01*
X194910498Y-101255820D01*
X194874188Y-101375518D01*
X194861928Y-101500000D01*
X194861928Y-103000000D01*
X194874188Y-103124482D01*
X194910498Y-103244180D01*
X194969463Y-103354494D01*
X195048815Y-103451185D01*
X195132667Y-103520000D01*
X195048815Y-103588815D01*
X194969463Y-103685506D01*
X194910498Y-103795820D01*
X194874188Y-103915518D01*
X194861928Y-104040000D01*
X194865000Y-104504250D01*
X195023750Y-104663000D01*
X196123000Y-104663000D01*
X196123000Y-104643000D01*
X196377000Y-104643000D01*
X196377000Y-104663000D01*
X197476250Y-104663000D01*
X197635000Y-104504250D01*
X197638072Y-104040000D01*
X197625812Y-103915518D01*
X197589502Y-103795820D01*
X197530537Y-103685506D01*
X197451185Y-103588815D01*
X197367333Y-103520000D01*
X197451185Y-103451185D01*
X197530537Y-103354494D01*
X197589502Y-103244180D01*
X197625812Y-103124482D01*
X197638072Y-103000000D01*
X197638072Y-101500000D01*
X197625812Y-101375518D01*
X197589502Y-101255820D01*
X197530537Y-101145506D01*
X197451185Y-101048815D01*
X197367333Y-100980000D01*
X197451185Y-100911185D01*
X197530537Y-100814494D01*
X197589502Y-100704180D01*
X197625812Y-100584482D01*
X197638072Y-100460000D01*
X197635000Y-99995750D01*
X197476250Y-99837000D01*
X196377000Y-99837000D01*
X196377000Y-99857000D01*
X196123000Y-99857000D01*
X196123000Y-99837000D01*
X195023750Y-99837000D01*
X194865000Y-99995750D01*
X194861928Y-100460000D01*
X175135117Y-100460000D01*
X175138072Y-100430000D01*
X175135000Y-99965750D01*
X174976250Y-99807000D01*
X173877000Y-99807000D01*
X173623000Y-99807000D01*
X172523750Y-99807000D01*
X172365000Y-99965750D01*
X172361928Y-100430000D01*
X128472375Y-100430000D01*
X128451169Y-100360094D01*
X128352234Y-100175000D01*
X128451169Y-99989906D01*
X128518071Y-99769360D01*
X128540661Y-99540000D01*
X128518071Y-99310640D01*
X128451169Y-99090094D01*
X128365597Y-98930000D01*
X172361928Y-98930000D01*
X172365000Y-99394250D01*
X172523750Y-99553000D01*
X173623000Y-99553000D01*
X173623000Y-98453750D01*
X173877000Y-98453750D01*
X173877000Y-99553000D01*
X174976250Y-99553000D01*
X175135000Y-99394250D01*
X175137873Y-98960000D01*
X194861928Y-98960000D01*
X194865000Y-99424250D01*
X195023750Y-99583000D01*
X196123000Y-99583000D01*
X196123000Y-98483750D01*
X196377000Y-98483750D01*
X196377000Y-99583000D01*
X197476250Y-99583000D01*
X197635000Y-99424250D01*
X197638072Y-98960000D01*
X197625812Y-98835518D01*
X197589502Y-98715820D01*
X197530537Y-98605506D01*
X197451185Y-98508815D01*
X197354494Y-98429463D01*
X197244180Y-98370498D01*
X197124482Y-98334188D01*
X197000000Y-98321928D01*
X196535750Y-98325000D01*
X196377000Y-98483750D01*
X196123000Y-98483750D01*
X195964250Y-98325000D01*
X195500000Y-98321928D01*
X195375518Y-98334188D01*
X195255820Y-98370498D01*
X195145506Y-98429463D01*
X195048815Y-98508815D01*
X194969463Y-98605506D01*
X194910498Y-98715820D01*
X194874188Y-98835518D01*
X194861928Y-98960000D01*
X175137873Y-98960000D01*
X175138072Y-98930000D01*
X175125812Y-98805518D01*
X175089502Y-98685820D01*
X175030537Y-98575506D01*
X174951185Y-98478815D01*
X174854494Y-98399463D01*
X174744180Y-98340498D01*
X174624482Y-98304188D01*
X174500000Y-98291928D01*
X174035750Y-98295000D01*
X173877000Y-98453750D01*
X173623000Y-98453750D01*
X173464250Y-98295000D01*
X173000000Y-98291928D01*
X172875518Y-98304188D01*
X172755820Y-98340498D01*
X172645506Y-98399463D01*
X172548815Y-98478815D01*
X172469463Y-98575506D01*
X172410498Y-98685820D01*
X172374188Y-98805518D01*
X172361928Y-98930000D01*
X128365597Y-98930000D01*
X128350846Y-98902404D01*
X128408377Y-98814421D01*
X128493900Y-98577383D01*
X128368244Y-98397000D01*
X127627560Y-98397000D01*
X127594360Y-98386929D01*
X127422477Y-98370000D01*
X126853000Y-98370000D01*
X126853000Y-98173072D01*
X127900000Y-98173072D01*
X128024482Y-98160812D01*
X128083200Y-98143000D01*
X128368244Y-98143000D01*
X128493900Y-97962617D01*
X128452615Y-97848190D01*
X128489502Y-97779180D01*
X128525812Y-97659482D01*
X128538072Y-97535000D01*
X128538072Y-96465000D01*
X128525812Y-96340518D01*
X128489502Y-96220820D01*
X128430537Y-96110506D01*
X128351185Y-96013815D01*
X128254494Y-95934463D01*
X128144180Y-95875498D01*
X128024482Y-95839188D01*
X127900000Y-95826928D01*
X126100000Y-95826928D01*
X125975518Y-95839188D01*
X125855820Y-95875498D01*
X125745506Y-95934463D01*
X125648815Y-96013815D01*
X125569463Y-96110506D01*
X125510498Y-96220820D01*
X125474694Y-96338851D01*
X125425724Y-96365026D01*
X125309999Y-96459999D01*
X125286201Y-96488997D01*
X121599003Y-100176196D01*
X121569999Y-100199999D01*
X121514871Y-100267174D01*
X121475026Y-100315724D01*
X121413944Y-100430000D01*
X121404454Y-100447754D01*
X121360997Y-100591015D01*
X121350000Y-100702668D01*
X121350000Y-100702678D01*
X121346324Y-100740000D01*
X121350000Y-100777323D01*
X121350001Y-102024081D01*
X121247885Y-102107885D01*
X121141329Y-102237725D01*
X121062150Y-102385858D01*
X121013392Y-102546592D01*
X120996928Y-102713750D01*
X120996928Y-103151250D01*
X121013392Y-103318408D01*
X121062150Y-103479142D01*
X121141329Y-103627275D01*
X121217426Y-103720000D01*
X121141329Y-103812725D01*
X121062150Y-103960858D01*
X121013392Y-104121592D01*
X120996928Y-104288750D01*
X120996928Y-104726250D01*
X121013392Y-104893408D01*
X121062150Y-105054142D01*
X121141329Y-105202275D01*
X121247885Y-105332115D01*
X121377725Y-105438671D01*
X121439503Y-105471692D01*
X121505026Y-105594276D01*
X121530230Y-105624987D01*
X121599999Y-105710001D01*
X121629003Y-105733804D01*
X123206170Y-107310972D01*
X123229968Y-107339970D01*
X123345693Y-107434943D01*
X123477722Y-107505515D01*
X123620983Y-107548972D01*
X123732636Y-107559969D01*
X123732645Y-107559969D01*
X123769968Y-107563645D01*
X123807291Y-107559969D01*
X131588756Y-107559969D01*
X133219990Y-109191201D01*
X133219989Y-110952667D01*
X133216313Y-110989990D01*
X133219989Y-111027313D01*
X133219989Y-111027322D01*
X133230986Y-111138975D01*
X133274443Y-111282236D01*
X133345015Y-111414265D01*
X133439988Y-111529991D01*
X133468992Y-111553794D01*
X134676201Y-112761003D01*
X134699999Y-112790001D01*
X134815724Y-112884974D01*
X134947753Y-112955546D01*
X135091014Y-112999003D01*
X135202667Y-113010000D01*
X135202677Y-113010000D01*
X135240000Y-113013676D01*
X135277323Y-113010000D01*
X135373254Y-113010000D01*
X135361928Y-113125000D01*
X135361928Y-113375000D01*
X135373254Y-113490000D01*
X135314802Y-113490000D01*
X133863804Y-112039003D01*
X133840001Y-112009999D01*
X133724276Y-111915026D01*
X133592247Y-111844454D01*
X133448986Y-111800997D01*
X133337333Y-111790000D01*
X133337322Y-111790000D01*
X133300000Y-111786324D01*
X133262678Y-111790000D01*
X132554468Y-111790000D01*
X132541185Y-111773815D01*
X132444494Y-111694463D01*
X132334180Y-111635498D01*
X132214482Y-111599188D01*
X132090000Y-111586928D01*
X131874286Y-111586928D01*
X131900812Y-111499482D01*
X131913072Y-111375000D01*
X131910000Y-111185750D01*
X131751250Y-111027000D01*
X130964500Y-111027000D01*
X130964500Y-111047000D01*
X130710500Y-111047000D01*
X130710500Y-111027000D01*
X130690500Y-111027000D01*
X130690500Y-110773000D01*
X130710500Y-110773000D01*
X130710500Y-109948750D01*
X130964500Y-109948750D01*
X130964500Y-110773000D01*
X131751250Y-110773000D01*
X131910000Y-110614250D01*
X131913072Y-110425000D01*
X131900812Y-110300518D01*
X131864502Y-110180820D01*
X131805537Y-110070506D01*
X131726185Y-109973815D01*
X131629494Y-109894463D01*
X131519180Y-109835498D01*
X131399482Y-109799188D01*
X131275000Y-109786928D01*
X131123250Y-109790000D01*
X130964500Y-109948750D01*
X130710500Y-109948750D01*
X130551750Y-109790000D01*
X130400000Y-109786928D01*
X130275518Y-109799188D01*
X130155820Y-109835498D01*
X130045506Y-109894463D01*
X129978930Y-109949100D01*
X129957275Y-109931329D01*
X129809142Y-109852150D01*
X129648408Y-109803392D01*
X129481250Y-109786928D01*
X129043750Y-109786928D01*
X128876592Y-109803392D01*
X128715858Y-109852150D01*
X128567725Y-109931329D01*
X128437885Y-110037885D01*
X128331329Y-110167725D01*
X128267217Y-110287669D01*
X128242889Y-110271414D01*
X128072729Y-110200932D01*
X127892089Y-110165000D01*
X127825000Y-110165000D01*
X127825000Y-110112998D01*
X127666252Y-110112998D01*
X127825000Y-109954250D01*
X127828072Y-109940000D01*
X127815812Y-109815518D01*
X127779502Y-109695820D01*
X127720537Y-109585506D01*
X127641185Y-109488815D01*
X127544494Y-109409463D01*
X127434180Y-109350498D01*
X127314482Y-109314188D01*
X127227137Y-109305586D01*
X127240491Y-109170000D01*
X127218577Y-108947501D01*
X127153676Y-108733553D01*
X127048284Y-108536377D01*
X126906449Y-108363551D01*
X126733623Y-108221716D01*
X126536447Y-108116324D01*
X126322499Y-108051423D01*
X126155752Y-108035000D01*
X124944248Y-108035000D01*
X124777501Y-108051423D01*
X124563553Y-108116324D01*
X124366377Y-108221716D01*
X124193551Y-108363551D01*
X124155431Y-108410000D01*
X122514569Y-108410000D01*
X122476449Y-108363551D01*
X122303623Y-108221716D01*
X122106447Y-108116324D01*
X121892499Y-108051423D01*
X121725752Y-108035000D01*
X121014248Y-108035000D01*
X120847501Y-108051423D01*
X120685000Y-108100718D01*
X120685000Y-90685000D01*
X199315000Y-90685000D01*
X199315001Y-136315000D01*
G04 #@! TA.AperFunction,Conductor*
D32*
G36*
X199315001Y-136315000D02*
G01*
X120685000Y-136315000D01*
X120685000Y-134450000D01*
X126611928Y-134450000D01*
X126624188Y-134574482D01*
X126660498Y-134694180D01*
X126719463Y-134804494D01*
X126798815Y-134901185D01*
X126895506Y-134980537D01*
X127005820Y-135039502D01*
X127125518Y-135075812D01*
X127250000Y-135088072D01*
X128714250Y-135085000D01*
X128873000Y-134926250D01*
X128873000Y-132827000D01*
X129127000Y-132827000D01*
X129127000Y-134926250D01*
X129285750Y-135085000D01*
X130750000Y-135088072D01*
X130874482Y-135075812D01*
X130994180Y-135039502D01*
X131104494Y-134980537D01*
X131201185Y-134901185D01*
X131280537Y-134804494D01*
X131339502Y-134694180D01*
X131375812Y-134574482D01*
X131388072Y-134450000D01*
X131385000Y-132985750D01*
X131226250Y-132827000D01*
X129127000Y-132827000D01*
X128873000Y-132827000D01*
X126773750Y-132827000D01*
X126615000Y-132985750D01*
X126611928Y-134450000D01*
X120685000Y-134450000D01*
X120685000Y-129750000D01*
X123861928Y-129750000D01*
X123874188Y-129874482D01*
X123910498Y-129994180D01*
X123969463Y-130104494D01*
X124048815Y-130201185D01*
X124145506Y-130280537D01*
X124255820Y-130339502D01*
X124375518Y-130375812D01*
X124500000Y-130388072D01*
X125714250Y-130385000D01*
X125873000Y-130226250D01*
X125873000Y-128127000D01*
X126127000Y-128127000D01*
X126127000Y-130226250D01*
X126285750Y-130385000D01*
X126956805Y-130386698D01*
X126895506Y-130419463D01*
X126798815Y-130498815D01*
X126719463Y-130595506D01*
X126660498Y-130705820D01*
X126624188Y-130825518D01*
X126611928Y-130950000D01*
X126615000Y-132414250D01*
X126773750Y-132573000D01*
X128873000Y-132573000D01*
X128873000Y-130473750D01*
X128714250Y-130315000D01*
X127793633Y-130313069D01*
X127854494Y-130280537D01*
X127951185Y-130201185D01*
X128030537Y-130104494D01*
X128089502Y-129994180D01*
X128125812Y-129874482D01*
X128138072Y-129750000D01*
X128135000Y-128285750D01*
X127976250Y-128127000D01*
X126127000Y-128127000D01*
X125873000Y-128127000D01*
X124023750Y-128127000D01*
X123865000Y-128285750D01*
X123861928Y-129750000D01*
X120685000Y-129750000D01*
X120685000Y-126250000D01*
X123861928Y-126250000D01*
X123865000Y-127714250D01*
X124023750Y-127873000D01*
X125873000Y-127873000D01*
X125873000Y-125773750D01*
X126127000Y-125773750D01*
X126127000Y-127873000D01*
X127976250Y-127873000D01*
X128135000Y-127714250D01*
X128138072Y-126250000D01*
X128125812Y-126125518D01*
X128089502Y-126005820D01*
X128030537Y-125895506D01*
X127951185Y-125798815D01*
X127854494Y-125719463D01*
X127744180Y-125660498D01*
X127624482Y-125624188D01*
X127500000Y-125611928D01*
X126285750Y-125615000D01*
X126127000Y-125773750D01*
X125873000Y-125773750D01*
X125714250Y-125615000D01*
X124500000Y-125611928D01*
X124375518Y-125624188D01*
X124255820Y-125660498D01*
X124145506Y-125719463D01*
X124048815Y-125798815D01*
X123969463Y-125895506D01*
X123910498Y-126005820D01*
X123874188Y-126125518D01*
X123861928Y-126250000D01*
X120685000Y-126250000D01*
X120685000Y-118879282D01*
X120847501Y-118928577D01*
X121014248Y-118945000D01*
X121725752Y-118945000D01*
X121892499Y-118928577D01*
X122106447Y-118863676D01*
X122303623Y-118758284D01*
X122476449Y-118616449D01*
X122514569Y-118570000D01*
X124155431Y-118570000D01*
X124193551Y-118616449D01*
X124366377Y-118758284D01*
X124563553Y-118863676D01*
X124777501Y-118928577D01*
X124944248Y-118945000D01*
X126155752Y-118945000D01*
X126322499Y-118928577D01*
X126536447Y-118863676D01*
X126733623Y-118758284D01*
X126906449Y-118616449D01*
X127048284Y-118443623D01*
X127153676Y-118246447D01*
X127218577Y-118032499D01*
X127240491Y-117810000D01*
X127227137Y-117674414D01*
X127314482Y-117665812D01*
X127434180Y-117629502D01*
X127544494Y-117570537D01*
X127641185Y-117491185D01*
X127720537Y-117394494D01*
X127779502Y-117284180D01*
X127815812Y-117164482D01*
X127828072Y-117040000D01*
X127825000Y-117025750D01*
X127666252Y-116867002D01*
X127825000Y-116867002D01*
X127825000Y-116835000D01*
X127892089Y-116835000D01*
X128072729Y-116799068D01*
X128242889Y-116728586D01*
X128267217Y-116712331D01*
X128331329Y-116832275D01*
X128437885Y-116962115D01*
X128567725Y-117068671D01*
X128715858Y-117147850D01*
X128876592Y-117196608D01*
X129043750Y-117213072D01*
X129481250Y-117213072D01*
X129648408Y-117196608D01*
X129809142Y-117147850D01*
X129957275Y-117068671D01*
X129978930Y-117050900D01*
X130045506Y-117105537D01*
X130155820Y-117164502D01*
X130275518Y-117200812D01*
X130400000Y-117213072D01*
X130551750Y-117210000D01*
X130710500Y-117051250D01*
X130710500Y-116227000D01*
X130964500Y-116227000D01*
X130964500Y-117051250D01*
X131123250Y-117210000D01*
X131275000Y-117213072D01*
X131399482Y-117200812D01*
X131519180Y-117164502D01*
X131629494Y-117105537D01*
X131726185Y-117026185D01*
X131805537Y-116929494D01*
X131864502Y-116819180D01*
X131900812Y-116699482D01*
X131913072Y-116575000D01*
X131910000Y-116385750D01*
X131751250Y-116227000D01*
X130964500Y-116227000D01*
X130710500Y-116227000D01*
X130690500Y-116227000D01*
X130690500Y-115973000D01*
X130710500Y-115973000D01*
X130710500Y-115953000D01*
X130964500Y-115953000D01*
X130964500Y-115973000D01*
X131751250Y-115973000D01*
X131910000Y-115814250D01*
X131913072Y-115625000D01*
X131900812Y-115500518D01*
X131874286Y-115413072D01*
X132090000Y-115413072D01*
X132214482Y-115400812D01*
X132334180Y-115364502D01*
X132444494Y-115305537D01*
X132541185Y-115226185D01*
X132554468Y-115210000D01*
X133895198Y-115210000D01*
X133579002Y-115526197D01*
X133549999Y-115549999D01*
X133504413Y-115605546D01*
X133455026Y-115665724D01*
X133396893Y-115774482D01*
X133384454Y-115797754D01*
X133340997Y-115941015D01*
X133330000Y-116052668D01*
X133330000Y-116052678D01*
X133326324Y-116090000D01*
X133330000Y-116127323D01*
X133330001Y-119082668D01*
X133326324Y-119120000D01*
X133330001Y-119157333D01*
X133340998Y-119268986D01*
X133353508Y-119310226D01*
X133384454Y-119412246D01*
X133455026Y-119544276D01*
X133521870Y-119625725D01*
X133550000Y-119660001D01*
X133578998Y-119683799D01*
X141091201Y-127196003D01*
X141114999Y-127225001D01*
X141143997Y-127248799D01*
X141230724Y-127319974D01*
X141362753Y-127390546D01*
X141506014Y-127434003D01*
X141655000Y-127448677D01*
X141682471Y-127445971D01*
X141806525Y-127631632D01*
X142013368Y-127838475D01*
X142195534Y-127960195D01*
X142078645Y-128029822D01*
X141862412Y-128224731D01*
X141688359Y-128458080D01*
X141563175Y-128720901D01*
X141518524Y-128868110D01*
X141639845Y-129098000D01*
X142833000Y-129098000D01*
X142833000Y-129078000D01*
X143087000Y-129078000D01*
X143087000Y-129098000D01*
X145373000Y-129098000D01*
X145373000Y-129078000D01*
X145627000Y-129078000D01*
X145627000Y-129098000D01*
X146826250Y-129098000D01*
X146985000Y-128939250D01*
X146988072Y-128375000D01*
X146975812Y-128250518D01*
X146939502Y-128130820D01*
X146880537Y-128020506D01*
X146801185Y-127923815D01*
X146704494Y-127844463D01*
X146594180Y-127785498D01*
X146521620Y-127763487D01*
X146653475Y-127631632D01*
X146815990Y-127388411D01*
X146927932Y-127118158D01*
X146985000Y-126831260D01*
X146985000Y-126538740D01*
X146927932Y-126251842D01*
X146815990Y-125981589D01*
X146653475Y-125738368D01*
X146446632Y-125531525D01*
X146272240Y-125415000D01*
X146446632Y-125298475D01*
X146653475Y-125091632D01*
X146815990Y-124848411D01*
X146927932Y-124578158D01*
X146951459Y-124459881D01*
X146952667Y-124460000D01*
X146952675Y-124460000D01*
X146990000Y-124463676D01*
X147027325Y-124460000D01*
X157487669Y-124460000D01*
X157481329Y-124467725D01*
X157402150Y-124615858D01*
X157353392Y-124776592D01*
X157336928Y-124943750D01*
X157336928Y-125456250D01*
X157353392Y-125623408D01*
X157402150Y-125784142D01*
X157481329Y-125932275D01*
X157487669Y-125940000D01*
X156787333Y-125940000D01*
X156750000Y-125936323D01*
X156712667Y-125940000D01*
X156601014Y-125950997D01*
X156457753Y-125994454D01*
X156325724Y-126065026D01*
X156209999Y-126159999D01*
X156186201Y-126188997D01*
X155308998Y-127066201D01*
X155280000Y-127089999D01*
X155256202Y-127118997D01*
X155256201Y-127118998D01*
X155185026Y-127205724D01*
X155114454Y-127337754D01*
X155091954Y-127411928D01*
X154820000Y-127411928D01*
X154695518Y-127424188D01*
X154575820Y-127460498D01*
X154465506Y-127519463D01*
X154368815Y-127598815D01*
X154289463Y-127695506D01*
X154230498Y-127805820D01*
X154194188Y-127925518D01*
X154181928Y-128050000D01*
X154181928Y-128272459D01*
X154075000Y-128261928D01*
X153185750Y-128265000D01*
X153027000Y-128423750D01*
X153027000Y-129435500D01*
X153047000Y-129435500D01*
X153047000Y-129689500D01*
X153027000Y-129689500D01*
X153027000Y-130701250D01*
X153185750Y-130860000D01*
X154075000Y-130863072D01*
X154181928Y-130852541D01*
X154181928Y-131413656D01*
X154164851Y-131404528D01*
X153998255Y-131353992D01*
X153825001Y-131336928D01*
X151974999Y-131336928D01*
X151801745Y-131353992D01*
X151635149Y-131404528D01*
X151628313Y-131408182D01*
X151534535Y-131314404D01*
X151459300Y-131173649D01*
X151495537Y-131129494D01*
X151554502Y-131019180D01*
X151590812Y-130899482D01*
X151595748Y-130849365D01*
X151600518Y-130850812D01*
X151725000Y-130863072D01*
X152614250Y-130860000D01*
X152773000Y-130701250D01*
X152773000Y-129689500D01*
X152753000Y-129689500D01*
X152753000Y-129435500D01*
X152773000Y-129435500D01*
X152773000Y-128423750D01*
X152614250Y-128265000D01*
X151725000Y-128261928D01*
X151600518Y-128274188D01*
X151480820Y-128310498D01*
X151370506Y-128369463D01*
X151273815Y-128448815D01*
X151194463Y-128545506D01*
X151135498Y-128655820D01*
X151099188Y-128775518D01*
X151086928Y-128900000D01*
X151089776Y-129249277D01*
X151089482Y-129249188D01*
X150965000Y-129236928D01*
X150775750Y-129240000D01*
X150617000Y-129398750D01*
X150617000Y-130198000D01*
X150637000Y-130198000D01*
X150637000Y-130452000D01*
X150617000Y-130452000D01*
X150617000Y-130472000D01*
X150363000Y-130472000D01*
X150363000Y-130452000D01*
X149538750Y-130452000D01*
X149380000Y-130610750D01*
X149377583Y-130740000D01*
X136345133Y-130740000D01*
X135187023Y-129581890D01*
X141518524Y-129581890D01*
X141563175Y-129729099D01*
X141688359Y-129991920D01*
X141862412Y-130225269D01*
X142078645Y-130420178D01*
X142328748Y-130569157D01*
X142603109Y-130666481D01*
X142833000Y-130545814D01*
X142833000Y-129352000D01*
X143087000Y-129352000D01*
X143087000Y-130545814D01*
X143316891Y-130666481D01*
X143591252Y-130569157D01*
X143841355Y-130420178D01*
X144037502Y-130243374D01*
X144060498Y-130319180D01*
X144119463Y-130429494D01*
X144198815Y-130526185D01*
X144295506Y-130605537D01*
X144405820Y-130664502D01*
X144525518Y-130700812D01*
X144650000Y-130713072D01*
X145214250Y-130710000D01*
X145373000Y-130551250D01*
X145373000Y-129352000D01*
X145627000Y-129352000D01*
X145627000Y-130551250D01*
X145785750Y-130710000D01*
X146350000Y-130713072D01*
X146474482Y-130700812D01*
X146594180Y-130664502D01*
X146704494Y-130605537D01*
X146801185Y-130526185D01*
X146880537Y-130429494D01*
X146939502Y-130319180D01*
X146975812Y-130199482D01*
X146988072Y-130075000D01*
X146986984Y-129875000D01*
X149376928Y-129875000D01*
X149380000Y-130039250D01*
X149538750Y-130198000D01*
X150363000Y-130198000D01*
X150363000Y-129398750D01*
X150204250Y-129240000D01*
X150015000Y-129236928D01*
X149890518Y-129249188D01*
X149770820Y-129285498D01*
X149660506Y-129344463D01*
X149563815Y-129423815D01*
X149484463Y-129520506D01*
X149425498Y-129630820D01*
X149389188Y-129750518D01*
X149376928Y-129875000D01*
X146986984Y-129875000D01*
X146985000Y-129510750D01*
X146826250Y-129352000D01*
X145627000Y-129352000D01*
X145373000Y-129352000D01*
X143087000Y-129352000D01*
X142833000Y-129352000D01*
X141639845Y-129352000D01*
X141518524Y-129581890D01*
X135187023Y-129581890D01*
X134388072Y-128782940D01*
X134388072Y-126250000D01*
X134375812Y-126125518D01*
X134339502Y-126005820D01*
X134280537Y-125895506D01*
X134201185Y-125798815D01*
X134104494Y-125719463D01*
X133994180Y-125660498D01*
X133874482Y-125624188D01*
X133750000Y-125611928D01*
X130250000Y-125611928D01*
X130125518Y-125624188D01*
X130005820Y-125660498D01*
X129895506Y-125719463D01*
X129798815Y-125798815D01*
X129719463Y-125895506D01*
X129660498Y-126005820D01*
X129624188Y-126125518D01*
X129611928Y-126250000D01*
X129611928Y-129750000D01*
X129624188Y-129874482D01*
X129660498Y-129994180D01*
X129719463Y-130104494D01*
X129798815Y-130201185D01*
X129895506Y-130280537D01*
X129957345Y-130313591D01*
X129285750Y-130315000D01*
X129127000Y-130473750D01*
X129127000Y-132573000D01*
X131226250Y-132573000D01*
X131385000Y-132414250D01*
X131388072Y-130950000D01*
X131375812Y-130825518D01*
X131339502Y-130705820D01*
X131280537Y-130595506D01*
X131201185Y-130498815D01*
X131104494Y-130419463D01*
X131045767Y-130388072D01*
X132782940Y-130388072D01*
X135033013Y-132638146D01*
X135068551Y-132681449D01*
X135111854Y-132716987D01*
X135111856Y-132716989D01*
X135172036Y-132766377D01*
X135241377Y-132823284D01*
X135438553Y-132928676D01*
X135652501Y-132993577D01*
X135717716Y-133000000D01*
X135875000Y-133015491D01*
X135930752Y-133010000D01*
X150019869Y-133010000D01*
X150410504Y-133400635D01*
X150446051Y-133443949D01*
X150568183Y-133544180D01*
X150618877Y-133585784D01*
X150816053Y-133691176D01*
X151030001Y-133756077D01*
X151252500Y-133777991D01*
X151308252Y-133772500D01*
X151462233Y-133772500D01*
X151481613Y-133788405D01*
X151635149Y-133870472D01*
X151801745Y-133921008D01*
X151974999Y-133938072D01*
X152595441Y-133938072D01*
X152820504Y-134163135D01*
X152856051Y-134206449D01*
X153028877Y-134348284D01*
X153226053Y-134453676D01*
X153440001Y-134518577D01*
X153662500Y-134540491D01*
X153718252Y-134535000D01*
X154314499Y-134535000D01*
X154368815Y-134601185D01*
X154465506Y-134680537D01*
X154575820Y-134739502D01*
X154695518Y-134775812D01*
X154820000Y-134788072D01*
X156820000Y-134788072D01*
X156944482Y-134775812D01*
X157064180Y-134739502D01*
X157174494Y-134680537D01*
X157271185Y-134601185D01*
X157350537Y-134504494D01*
X157409502Y-134394180D01*
X157445812Y-134274482D01*
X157458072Y-134150000D01*
X157458072Y-132650000D01*
X157445812Y-132525518D01*
X157409502Y-132405820D01*
X157350537Y-132295506D01*
X157313191Y-132250000D01*
X157325501Y-132235000D01*
X160481928Y-132235000D01*
X160481928Y-133000000D01*
X160494188Y-133124482D01*
X160530498Y-133244180D01*
X160589463Y-133354494D01*
X160668815Y-133451185D01*
X160765506Y-133530537D01*
X160875820Y-133589502D01*
X160995518Y-133625812D01*
X161120000Y-133638072D01*
X163120000Y-133638072D01*
X163244482Y-133625812D01*
X163317321Y-133603716D01*
X163344463Y-133654494D01*
X163423815Y-133751185D01*
X163520506Y-133830537D01*
X163630820Y-133889502D01*
X163750518Y-133925812D01*
X163875000Y-133938072D01*
X164764250Y-133935000D01*
X164923000Y-133776250D01*
X164923000Y-132764500D01*
X165177000Y-132764500D01*
X165177000Y-133776250D01*
X165335750Y-133935000D01*
X166225000Y-133938072D01*
X166349482Y-133925812D01*
X166469180Y-133889502D01*
X166579494Y-133830537D01*
X166676185Y-133751185D01*
X166755537Y-133654494D01*
X166814502Y-133544180D01*
X166850812Y-133424482D01*
X166863072Y-133300000D01*
X166860000Y-132923250D01*
X166701250Y-132764500D01*
X165177000Y-132764500D01*
X164923000Y-132764500D01*
X164903000Y-132764500D01*
X164903000Y-132510500D01*
X164923000Y-132510500D01*
X164923000Y-131498750D01*
X165177000Y-131498750D01*
X165177000Y-132510500D01*
X166701250Y-132510500D01*
X166860000Y-132351750D01*
X166863072Y-131975000D01*
X166850812Y-131850518D01*
X166814502Y-131730820D01*
X166755537Y-131620506D01*
X166676185Y-131523815D01*
X166579494Y-131444463D01*
X166469180Y-131385498D01*
X166349482Y-131349188D01*
X166225000Y-131336928D01*
X165335750Y-131340000D01*
X165177000Y-131498750D01*
X164923000Y-131498750D01*
X164764250Y-131340000D01*
X163875000Y-131336928D01*
X163758072Y-131348444D01*
X163758072Y-131067060D01*
X163923140Y-130901992D01*
X163966449Y-130866449D01*
X163980870Y-130848877D01*
X164124999Y-130863072D01*
X165975001Y-130863072D01*
X166148255Y-130846008D01*
X166314851Y-130795472D01*
X166468387Y-130713405D01*
X166602962Y-130602962D01*
X166713405Y-130468387D01*
X166795472Y-130314851D01*
X166807560Y-130275000D01*
X168941928Y-130275000D01*
X168954188Y-130399482D01*
X168990498Y-130519180D01*
X169049463Y-130629494D01*
X169128815Y-130726185D01*
X169225506Y-130805537D01*
X169335820Y-130864502D01*
X169455518Y-130900812D01*
X169580000Y-130913072D01*
X169994250Y-130910000D01*
X170153000Y-130751250D01*
X170153000Y-129914500D01*
X169103750Y-129914500D01*
X168945000Y-130073250D01*
X168941928Y-130275000D01*
X166807560Y-130275000D01*
X166846008Y-130148255D01*
X166863072Y-129975001D01*
X166863072Y-129354560D01*
X167170132Y-129047500D01*
X168994945Y-129047500D01*
X168990498Y-129055820D01*
X168954188Y-129175518D01*
X168941928Y-129300000D01*
X168945000Y-129501750D01*
X169103750Y-129660500D01*
X170153000Y-129660500D01*
X170153000Y-129640500D01*
X170407000Y-129640500D01*
X170407000Y-129660500D01*
X170427000Y-129660500D01*
X170427000Y-129914500D01*
X170407000Y-129914500D01*
X170407000Y-130751250D01*
X170565750Y-130910000D01*
X170980000Y-130913072D01*
X171104482Y-130900812D01*
X171224180Y-130864502D01*
X171334494Y-130805537D01*
X171431185Y-130726185D01*
X171447410Y-130706415D01*
X171515000Y-130713072D01*
X171704250Y-130710000D01*
X171863000Y-130551250D01*
X171863000Y-129752000D01*
X171843000Y-129752000D01*
X171843000Y-129498000D01*
X171863000Y-129498000D01*
X171863000Y-129478000D01*
X172117000Y-129478000D01*
X172117000Y-129498000D01*
X172137000Y-129498000D01*
X172137000Y-129752000D01*
X172117000Y-129752000D01*
X172117000Y-130551250D01*
X172275750Y-130710000D01*
X172363110Y-130711418D01*
X172361928Y-130890000D01*
X172374188Y-131014482D01*
X172410498Y-131134180D01*
X172469463Y-131244494D01*
X172548815Y-131341185D01*
X172645506Y-131420537D01*
X172755820Y-131479502D01*
X172875518Y-131515812D01*
X173000000Y-131528072D01*
X173464250Y-131525000D01*
X173623000Y-131366250D01*
X173623000Y-130267000D01*
X173877000Y-130267000D01*
X173877000Y-131366250D01*
X174035750Y-131525000D01*
X174500000Y-131528072D01*
X174624482Y-131515812D01*
X174744180Y-131479502D01*
X174854494Y-131420537D01*
X174951185Y-131341185D01*
X175030537Y-131244494D01*
X175089502Y-131134180D01*
X175125812Y-131014482D01*
X175138072Y-130890000D01*
X194861928Y-130890000D01*
X194874188Y-131014482D01*
X194910498Y-131134180D01*
X194969463Y-131244494D01*
X195048815Y-131341185D01*
X195145506Y-131420537D01*
X195255820Y-131479502D01*
X195375518Y-131515812D01*
X195500000Y-131528072D01*
X195964250Y-131525000D01*
X196123000Y-131366250D01*
X196123000Y-130267000D01*
X196377000Y-130267000D01*
X196377000Y-131366250D01*
X196535750Y-131525000D01*
X197000000Y-131528072D01*
X197124482Y-131515812D01*
X197244180Y-131479502D01*
X197354494Y-131420537D01*
X197451185Y-131341185D01*
X197530537Y-131244494D01*
X197589502Y-131134180D01*
X197625812Y-131014482D01*
X197638072Y-130890000D01*
X197635000Y-130425750D01*
X197476250Y-130267000D01*
X196377000Y-130267000D01*
X196123000Y-130267000D01*
X195023750Y-130267000D01*
X194865000Y-130425750D01*
X194861928Y-130890000D01*
X175138072Y-130890000D01*
X175135000Y-130425750D01*
X174976250Y-130267000D01*
X173877000Y-130267000D01*
X173623000Y-130267000D01*
X173603000Y-130267000D01*
X173603000Y-130013000D01*
X173623000Y-130013000D01*
X173623000Y-129993000D01*
X173877000Y-129993000D01*
X173877000Y-130013000D01*
X174976250Y-130013000D01*
X175135000Y-129854250D01*
X175138072Y-129390000D01*
X175125812Y-129265518D01*
X175089502Y-129145820D01*
X175030537Y-129035506D01*
X174951185Y-128938815D01*
X174867333Y-128870000D01*
X174951185Y-128801185D01*
X175030537Y-128704494D01*
X175089502Y-128594180D01*
X175125812Y-128474482D01*
X175138072Y-128350000D01*
X175138072Y-126850000D01*
X175125812Y-126725518D01*
X175089502Y-126605820D01*
X175030537Y-126495506D01*
X174951185Y-126398815D01*
X174885000Y-126344499D01*
X174885000Y-126315501D01*
X174951185Y-126261185D01*
X175030537Y-126164494D01*
X175089502Y-126054180D01*
X175125812Y-125934482D01*
X175138072Y-125810000D01*
X175138072Y-124310000D01*
X175125812Y-124185518D01*
X175089502Y-124065820D01*
X175030537Y-123955506D01*
X174951185Y-123858815D01*
X174867333Y-123790000D01*
X174951185Y-123721185D01*
X175030537Y-123624494D01*
X175089502Y-123514180D01*
X175125812Y-123394482D01*
X175138072Y-123270000D01*
X175138072Y-121770000D01*
X175125812Y-121645518D01*
X175089502Y-121525820D01*
X175030537Y-121415506D01*
X174951185Y-121318815D01*
X174867333Y-121250000D01*
X174951185Y-121181185D01*
X175030537Y-121084494D01*
X175089502Y-120974180D01*
X175125812Y-120854482D01*
X175138072Y-120730000D01*
X175138072Y-119230000D01*
X175125812Y-119105518D01*
X175089502Y-118985820D01*
X175030537Y-118875506D01*
X174951185Y-118778815D01*
X174867333Y-118710000D01*
X174951185Y-118641185D01*
X175030537Y-118544494D01*
X175089502Y-118434180D01*
X175125812Y-118314482D01*
X175138072Y-118190000D01*
X175138072Y-116690000D01*
X175125812Y-116565518D01*
X175089502Y-116445820D01*
X175030537Y-116335506D01*
X174951185Y-116238815D01*
X174867333Y-116170000D01*
X174951185Y-116101185D01*
X175030537Y-116004494D01*
X175089502Y-115894180D01*
X175125812Y-115774482D01*
X175138072Y-115650000D01*
X175135000Y-115185750D01*
X174976250Y-115027000D01*
X173877000Y-115027000D01*
X173877000Y-115047000D01*
X173623000Y-115047000D01*
X173623000Y-115027000D01*
X172523750Y-115027000D01*
X172365000Y-115185750D01*
X172361928Y-115650000D01*
X172374188Y-115774482D01*
X172410498Y-115894180D01*
X172469463Y-116004494D01*
X172548815Y-116101185D01*
X172632667Y-116170000D01*
X172548815Y-116238815D01*
X172469463Y-116335506D01*
X172410498Y-116445820D01*
X172374188Y-116565518D01*
X172362913Y-116680000D01*
X170314802Y-116680000D01*
X166744802Y-113110000D01*
X172361928Y-113110000D01*
X172374188Y-113234482D01*
X172410498Y-113354180D01*
X172469463Y-113464494D01*
X172548815Y-113561185D01*
X172632667Y-113630000D01*
X172548815Y-113698815D01*
X172469463Y-113795506D01*
X172410498Y-113905820D01*
X172374188Y-114025518D01*
X172361928Y-114150000D01*
X172365000Y-114614250D01*
X172523750Y-114773000D01*
X173623000Y-114773000D01*
X173623000Y-113673750D01*
X173579250Y-113630000D01*
X173623000Y-113586250D01*
X173623000Y-112487000D01*
X173877000Y-112487000D01*
X173877000Y-113586250D01*
X173920750Y-113630000D01*
X173877000Y-113673750D01*
X173877000Y-114773000D01*
X174976250Y-114773000D01*
X175135000Y-114614250D01*
X175138072Y-114150000D01*
X175125812Y-114025518D01*
X175089502Y-113905820D01*
X175030537Y-113795506D01*
X174951185Y-113698815D01*
X174867333Y-113630000D01*
X174951185Y-113561185D01*
X175030537Y-113464494D01*
X175089502Y-113354180D01*
X175125812Y-113234482D01*
X175138072Y-113110000D01*
X175135000Y-112645750D01*
X174976250Y-112487000D01*
X173877000Y-112487000D01*
X173623000Y-112487000D01*
X172523750Y-112487000D01*
X172365000Y-112645750D01*
X172361928Y-113110000D01*
X166744802Y-113110000D01*
X163873804Y-110239003D01*
X163850001Y-110209999D01*
X163734276Y-110115026D01*
X163602247Y-110044454D01*
X163458986Y-110000997D01*
X163347333Y-109990000D01*
X163347322Y-109990000D01*
X163310000Y-109986324D01*
X163272678Y-109990000D01*
X146031192Y-109990000D01*
X146000000Y-109986928D01*
X144700000Y-109986928D01*
X144575518Y-109999188D01*
X144468282Y-110031718D01*
X144500812Y-109924482D01*
X144502238Y-109910000D01*
X164279502Y-109910000D01*
X165729303Y-111359803D01*
X165729303Y-111421939D01*
X165769077Y-111621898D01*
X165847098Y-111810256D01*
X165960366Y-111979774D01*
X166104529Y-112123937D01*
X166274047Y-112237205D01*
X166462405Y-112315226D01*
X166662364Y-112355000D01*
X166866242Y-112355000D01*
X167066201Y-112315226D01*
X167254559Y-112237205D01*
X167424077Y-112123937D01*
X167568240Y-111979774D01*
X167681508Y-111810256D01*
X167759529Y-111621898D01*
X167761895Y-111610000D01*
X172361928Y-111610000D01*
X172365000Y-112074250D01*
X172523750Y-112233000D01*
X173623000Y-112233000D01*
X173623000Y-111133750D01*
X173877000Y-111133750D01*
X173877000Y-112233000D01*
X174976250Y-112233000D01*
X175135000Y-112074250D01*
X175138072Y-111610000D01*
X194861928Y-111610000D01*
X194861928Y-113110000D01*
X194874188Y-113234482D01*
X194910498Y-113354180D01*
X194969463Y-113464494D01*
X195048815Y-113561185D01*
X195132667Y-113630000D01*
X195048815Y-113698815D01*
X194969463Y-113795506D01*
X194910498Y-113905820D01*
X194874188Y-114025518D01*
X194861928Y-114150000D01*
X194861928Y-115650000D01*
X194874188Y-115774482D01*
X194910498Y-115894180D01*
X194969463Y-116004494D01*
X195048815Y-116101185D01*
X195132667Y-116170000D01*
X195048815Y-116238815D01*
X194969463Y-116335506D01*
X194910498Y-116445820D01*
X194874188Y-116565518D01*
X194861928Y-116690000D01*
X194861928Y-118190000D01*
X194874188Y-118314482D01*
X194910498Y-118434180D01*
X194969463Y-118544494D01*
X195048815Y-118641185D01*
X195132667Y-118710000D01*
X195048815Y-118778815D01*
X194969463Y-118875506D01*
X194910498Y-118985820D01*
X194874188Y-119105518D01*
X194861928Y-119230000D01*
X194861928Y-120730000D01*
X194874188Y-120854482D01*
X194910498Y-120974180D01*
X194969463Y-121084494D01*
X195048815Y-121181185D01*
X195132667Y-121250000D01*
X195048815Y-121318815D01*
X194969463Y-121415506D01*
X194910498Y-121525820D01*
X194874188Y-121645518D01*
X194861928Y-121770000D01*
X194861928Y-123270000D01*
X194874188Y-123394482D01*
X194910498Y-123514180D01*
X194969463Y-123624494D01*
X195048815Y-123721185D01*
X195132667Y-123790000D01*
X195048815Y-123858815D01*
X194969463Y-123955506D01*
X194910498Y-124065820D01*
X194874188Y-124185518D01*
X194861928Y-124310000D01*
X194861928Y-125810000D01*
X194874188Y-125934482D01*
X194910498Y-126054180D01*
X194969463Y-126164494D01*
X195048815Y-126261185D01*
X195132667Y-126330000D01*
X195048815Y-126398815D01*
X194969463Y-126495506D01*
X194910498Y-126605820D01*
X194874188Y-126725518D01*
X194861928Y-126850000D01*
X194861928Y-128350000D01*
X194874188Y-128474482D01*
X194910498Y-128594180D01*
X194969463Y-128704494D01*
X195048815Y-128801185D01*
X195132667Y-128870000D01*
X195048815Y-128938815D01*
X194969463Y-129035506D01*
X194910498Y-129145820D01*
X194874188Y-129265518D01*
X194861928Y-129390000D01*
X194865000Y-129854250D01*
X195023750Y-130013000D01*
X196123000Y-130013000D01*
X196123000Y-129993000D01*
X196377000Y-129993000D01*
X196377000Y-130013000D01*
X197476250Y-130013000D01*
X197635000Y-129854250D01*
X197638072Y-129390000D01*
X197625812Y-129265518D01*
X197589502Y-129145820D01*
X197530537Y-129035506D01*
X197451185Y-128938815D01*
X197367333Y-128870000D01*
X197451185Y-128801185D01*
X197530537Y-128704494D01*
X197567683Y-128635000D01*
X197701939Y-128635000D01*
X197901898Y-128595226D01*
X198090256Y-128517205D01*
X198259774Y-128403937D01*
X198403937Y-128259774D01*
X198517205Y-128090256D01*
X198595226Y-127901898D01*
X198635000Y-127701939D01*
X198635000Y-127498061D01*
X198595226Y-127298102D01*
X198517205Y-127109744D01*
X198403937Y-126940226D01*
X198259774Y-126796063D01*
X198090256Y-126682795D01*
X197901898Y-126604774D01*
X197701939Y-126565000D01*
X197567683Y-126565000D01*
X197530537Y-126495506D01*
X197451185Y-126398815D01*
X197367333Y-126330000D01*
X197451185Y-126261185D01*
X197530537Y-126164494D01*
X197567683Y-126095000D01*
X197701939Y-126095000D01*
X197901898Y-126055226D01*
X198090256Y-125977205D01*
X198259774Y-125863937D01*
X198403937Y-125719774D01*
X198517205Y-125550256D01*
X198595226Y-125361898D01*
X198635000Y-125161939D01*
X198635000Y-124958061D01*
X198595226Y-124758102D01*
X198517205Y-124569744D01*
X198403937Y-124400226D01*
X198259774Y-124256063D01*
X198090256Y-124142795D01*
X197901898Y-124064774D01*
X197701939Y-124025000D01*
X197567683Y-124025000D01*
X197530537Y-123955506D01*
X197451185Y-123858815D01*
X197367333Y-123790000D01*
X197451185Y-123721185D01*
X197530537Y-123624494D01*
X197567683Y-123555000D01*
X197701939Y-123555000D01*
X197901898Y-123515226D01*
X198090256Y-123437205D01*
X198259774Y-123323937D01*
X198403937Y-123179774D01*
X198517205Y-123010256D01*
X198595226Y-122821898D01*
X198635000Y-122621939D01*
X198635000Y-122418061D01*
X198595226Y-122218102D01*
X198517205Y-122029744D01*
X198403937Y-121860226D01*
X198259774Y-121716063D01*
X198090256Y-121602795D01*
X197901898Y-121524774D01*
X197701939Y-121485000D01*
X197567683Y-121485000D01*
X197530537Y-121415506D01*
X197451185Y-121318815D01*
X197367333Y-121250000D01*
X197451185Y-121181185D01*
X197530537Y-121084494D01*
X197573028Y-121005000D01*
X197701939Y-121005000D01*
X197901898Y-120965226D01*
X198090256Y-120887205D01*
X198259774Y-120773937D01*
X198403937Y-120629774D01*
X198517205Y-120460256D01*
X198595226Y-120271898D01*
X198635000Y-120071939D01*
X198635000Y-119868061D01*
X198595226Y-119668102D01*
X198517205Y-119479744D01*
X198403937Y-119310226D01*
X198259774Y-119166063D01*
X198090256Y-119052795D01*
X197901898Y-118974774D01*
X197701939Y-118935000D01*
X197562338Y-118935000D01*
X197530537Y-118875506D01*
X197451185Y-118778815D01*
X197367333Y-118710000D01*
X197451185Y-118641185D01*
X197530537Y-118544494D01*
X197567683Y-118475000D01*
X197701939Y-118475000D01*
X197901898Y-118435226D01*
X198090256Y-118357205D01*
X198259774Y-118243937D01*
X198403937Y-118099774D01*
X198517205Y-117930256D01*
X198595226Y-117741898D01*
X198635000Y-117541939D01*
X198635000Y-117338061D01*
X198595226Y-117138102D01*
X198517205Y-116949744D01*
X198403937Y-116780226D01*
X198259774Y-116636063D01*
X198090256Y-116522795D01*
X197901898Y-116444774D01*
X197701939Y-116405000D01*
X197567683Y-116405000D01*
X197530537Y-116335506D01*
X197451185Y-116238815D01*
X197367333Y-116170000D01*
X197451185Y-116101185D01*
X197530537Y-116004494D01*
X197567683Y-115935000D01*
X197701939Y-115935000D01*
X197901898Y-115895226D01*
X198090256Y-115817205D01*
X198259774Y-115703937D01*
X198403937Y-115559774D01*
X198517205Y-115390256D01*
X198595226Y-115201898D01*
X198635000Y-115001939D01*
X198635000Y-114798061D01*
X198595226Y-114598102D01*
X198517205Y-114409744D01*
X198403937Y-114240226D01*
X198259774Y-114096063D01*
X198090256Y-113982795D01*
X197901898Y-113904774D01*
X197701939Y-113865000D01*
X197567683Y-113865000D01*
X197530537Y-113795506D01*
X197451185Y-113698815D01*
X197367333Y-113630000D01*
X197451185Y-113561185D01*
X197530537Y-113464494D01*
X197567670Y-113395024D01*
X197701963Y-113395024D01*
X197901922Y-113355250D01*
X198090280Y-113277229D01*
X198259798Y-113163961D01*
X198403961Y-113019798D01*
X198517229Y-112850280D01*
X198595250Y-112661922D01*
X198635024Y-112461963D01*
X198635024Y-112258085D01*
X198595250Y-112058126D01*
X198517229Y-111869768D01*
X198403961Y-111700250D01*
X198259798Y-111556087D01*
X198090280Y-111442819D01*
X197901922Y-111364798D01*
X197701963Y-111325024D01*
X197567696Y-111325024D01*
X197530537Y-111255506D01*
X197451185Y-111158815D01*
X197354494Y-111079463D01*
X197244180Y-111020498D01*
X197124482Y-110984188D01*
X197000000Y-110971928D01*
X195500000Y-110971928D01*
X195375518Y-110984188D01*
X195255820Y-111020498D01*
X195145506Y-111079463D01*
X195048815Y-111158815D01*
X194969463Y-111255506D01*
X194910498Y-111365820D01*
X194874188Y-111485518D01*
X194861928Y-111610000D01*
X175138072Y-111610000D01*
X175125812Y-111485518D01*
X175089502Y-111365820D01*
X175030537Y-111255506D01*
X174951185Y-111158815D01*
X174854494Y-111079463D01*
X174744180Y-111020498D01*
X174624482Y-110984188D01*
X174500000Y-110971928D01*
X174035750Y-110975000D01*
X173877000Y-111133750D01*
X173623000Y-111133750D01*
X173464250Y-110975000D01*
X173000000Y-110971928D01*
X172875518Y-110984188D01*
X172755820Y-111020498D01*
X172645506Y-111079463D01*
X172548815Y-111158815D01*
X172469463Y-111255506D01*
X172410498Y-111365820D01*
X172374188Y-111485518D01*
X172361928Y-111610000D01*
X167761895Y-111610000D01*
X167799303Y-111421939D01*
X167799303Y-111218061D01*
X167759529Y-111018102D01*
X167681508Y-110829744D01*
X167568240Y-110660226D01*
X167424077Y-110516063D01*
X167294371Y-110429396D01*
X167327205Y-110380256D01*
X167405226Y-110191898D01*
X167445000Y-109991939D01*
X167445000Y-109788061D01*
X167405226Y-109588102D01*
X167327205Y-109399744D01*
X167213937Y-109230226D01*
X167069774Y-109086063D01*
X166900256Y-108972795D01*
X166711898Y-108894774D01*
X166511939Y-108855000D01*
X166449802Y-108855000D01*
X165729256Y-108134455D01*
X165863937Y-107999774D01*
X165977205Y-107830256D01*
X165991337Y-107796138D01*
X167555000Y-109359802D01*
X167555000Y-109421939D01*
X167594774Y-109621898D01*
X167672795Y-109810256D01*
X167786063Y-109979774D01*
X167930226Y-110123937D01*
X168099744Y-110237205D01*
X168288102Y-110315226D01*
X168488061Y-110355000D01*
X168691939Y-110355000D01*
X168891898Y-110315226D01*
X169080256Y-110237205D01*
X169249774Y-110123937D01*
X169393937Y-109979774D01*
X169507205Y-109810256D01*
X169585226Y-109621898D01*
X169625000Y-109421939D01*
X169625000Y-109223241D01*
X169646063Y-109254764D01*
X169790226Y-109398927D01*
X169959744Y-109512195D01*
X170148102Y-109590216D01*
X170348061Y-109629990D01*
X170551939Y-109629990D01*
X170751898Y-109590216D01*
X170940256Y-109512195D01*
X171109774Y-109398927D01*
X171253937Y-109254764D01*
X171367205Y-109085246D01*
X171445226Y-108896888D01*
X171485000Y-108696929D01*
X171485000Y-108493051D01*
X171445226Y-108293092D01*
X171367205Y-108104734D01*
X171253937Y-107935216D01*
X171109774Y-107791053D01*
X170940256Y-107677785D01*
X170751898Y-107599764D01*
X170551939Y-107559990D01*
X170489802Y-107559990D01*
X169404790Y-106474979D01*
X169840178Y-106474979D01*
X169855000Y-106489801D01*
X169855000Y-106551939D01*
X169894774Y-106751898D01*
X169972795Y-106940256D01*
X170086063Y-107109774D01*
X170230226Y-107253937D01*
X170399744Y-107367205D01*
X170588102Y-107445226D01*
X170788061Y-107485000D01*
X170991939Y-107485000D01*
X171191898Y-107445226D01*
X171380256Y-107367205D01*
X171549774Y-107253937D01*
X171693937Y-107109774D01*
X171807205Y-106940256D01*
X171885226Y-106751898D01*
X171925000Y-106551939D01*
X171925000Y-106348061D01*
X171885226Y-106148102D01*
X171807205Y-105959744D01*
X171693937Y-105790226D01*
X171549774Y-105646063D01*
X171380256Y-105532795D01*
X171325225Y-105510000D01*
X172361928Y-105510000D01*
X172374188Y-105634482D01*
X172410498Y-105754180D01*
X172469463Y-105864494D01*
X172548815Y-105961185D01*
X172645506Y-106040537D01*
X172755820Y-106099502D01*
X172875518Y-106135812D01*
X173000000Y-106148072D01*
X173464250Y-106145000D01*
X173623000Y-105986250D01*
X173623000Y-104887000D01*
X173877000Y-104887000D01*
X173877000Y-105986250D01*
X174035750Y-106145000D01*
X174500000Y-106148072D01*
X174624482Y-106135812D01*
X174744180Y-106099502D01*
X174854494Y-106040537D01*
X174951185Y-105961185D01*
X175030537Y-105864494D01*
X175089502Y-105754180D01*
X175125812Y-105634482D01*
X175135117Y-105540000D01*
X194861928Y-105540000D01*
X194874188Y-105664482D01*
X194910498Y-105784180D01*
X194969463Y-105894494D01*
X195048815Y-105991185D01*
X195145506Y-106070537D01*
X195255820Y-106129502D01*
X195375518Y-106165812D01*
X195500000Y-106178072D01*
X195964250Y-106175000D01*
X196123000Y-106016250D01*
X196123000Y-104917000D01*
X196377000Y-104917000D01*
X196377000Y-106016250D01*
X196535750Y-106175000D01*
X197000000Y-106178072D01*
X197124482Y-106165812D01*
X197244180Y-106129502D01*
X197354494Y-106070537D01*
X197451185Y-105991185D01*
X197530537Y-105894494D01*
X197589502Y-105784180D01*
X197625812Y-105664482D01*
X197638072Y-105540000D01*
X197635000Y-105075750D01*
X197476250Y-104917000D01*
X196377000Y-104917000D01*
X196123000Y-104917000D01*
X195023750Y-104917000D01*
X194865000Y-105075750D01*
X194861928Y-105540000D01*
X175135117Y-105540000D01*
X175138072Y-105510000D01*
X175135000Y-105045750D01*
X174976250Y-104887000D01*
X173877000Y-104887000D01*
X173623000Y-104887000D01*
X172523750Y-104887000D01*
X172365000Y-105045750D01*
X172361928Y-105510000D01*
X171325225Y-105510000D01*
X171191898Y-105454774D01*
X170991939Y-105415000D01*
X170929801Y-105415000D01*
X170718778Y-105203977D01*
X170694980Y-105174979D01*
X170635694Y-105126324D01*
X170579255Y-105080005D01*
X170447225Y-105009433D01*
X170347421Y-104979159D01*
X170303965Y-104965977D01*
X170192312Y-104954980D01*
X170154979Y-104951303D01*
X170117647Y-104954980D01*
X142969525Y-104954978D01*
X142932202Y-104951302D01*
X142894879Y-104954978D01*
X142894870Y-104954978D01*
X142783217Y-104965975D01*
X142683412Y-104996250D01*
X142639955Y-105009432D01*
X142507925Y-105080004D01*
X142421199Y-105151179D01*
X142421195Y-105151183D01*
X142392202Y-105174977D01*
X142368408Y-105203970D01*
X140738998Y-106833381D01*
X140710000Y-106857179D01*
X140686202Y-106886177D01*
X140686201Y-106886178D01*
X140615026Y-106972904D01*
X140544454Y-107104934D01*
X140529102Y-107155546D01*
X140501748Y-107245724D01*
X140500998Y-107248195D01*
X140486324Y-107397180D01*
X140490001Y-107434512D01*
X140490001Y-107873254D01*
X140375000Y-107861928D01*
X140125000Y-107861928D01*
X140000518Y-107874188D01*
X140000000Y-107874345D01*
X139999482Y-107874188D01*
X139875000Y-107861928D01*
X139625000Y-107861928D01*
X139500518Y-107874188D01*
X139500000Y-107874345D01*
X139499482Y-107874188D01*
X139375000Y-107861928D01*
X139125000Y-107861928D01*
X139000518Y-107874188D01*
X138997742Y-107875030D01*
X138908750Y-107865000D01*
X138843078Y-107930672D01*
X138770506Y-107969463D01*
X138750000Y-107986292D01*
X138729494Y-107969463D01*
X138656922Y-107930672D01*
X138591250Y-107865000D01*
X138502258Y-107875030D01*
X138499482Y-107874188D01*
X138375000Y-107861928D01*
X138192909Y-107861928D01*
X138190000Y-107718250D01*
X138031250Y-107559500D01*
X137207000Y-107559500D01*
X137207000Y-107579500D01*
X136953000Y-107579500D01*
X136953000Y-107559500D01*
X136128750Y-107559500D01*
X135970000Y-107718250D01*
X135966928Y-107870000D01*
X135979188Y-107994482D01*
X136015498Y-108114180D01*
X136074463Y-108224494D01*
X136129100Y-108291070D01*
X136111329Y-108312725D01*
X136032150Y-108460858D01*
X135983392Y-108621592D01*
X135966928Y-108788750D01*
X135966928Y-109226250D01*
X135983392Y-109393408D01*
X136032150Y-109554142D01*
X136111329Y-109702275D01*
X136217885Y-109832115D01*
X136250357Y-109858764D01*
X136258411Y-109885313D01*
X136312725Y-109986928D01*
X136000000Y-109986928D01*
X135875518Y-109999188D01*
X135755820Y-110035498D01*
X135645506Y-110094463D01*
X135640011Y-110098973D01*
X135640011Y-108540921D01*
X135643687Y-108503598D01*
X135640011Y-108466275D01*
X135640011Y-108466266D01*
X135629014Y-108354613D01*
X135585557Y-108211352D01*
X135563835Y-108170714D01*
X135514985Y-108079322D01*
X135443810Y-107992596D01*
X135420012Y-107963598D01*
X135391014Y-107939800D01*
X134446214Y-106995000D01*
X135966928Y-106995000D01*
X135970000Y-107146750D01*
X136128750Y-107305500D01*
X136953000Y-107305500D01*
X136953000Y-106518750D01*
X137207000Y-106518750D01*
X137207000Y-107305500D01*
X138031250Y-107305500D01*
X138190000Y-107146750D01*
X138193072Y-106995000D01*
X138180812Y-106870518D01*
X138144502Y-106750820D01*
X138085537Y-106640506D01*
X138006185Y-106543815D01*
X137909494Y-106464463D01*
X137799180Y-106405498D01*
X137679482Y-106369188D01*
X137555000Y-106356928D01*
X137365750Y-106360000D01*
X137207000Y-106518750D01*
X136953000Y-106518750D01*
X136794250Y-106360000D01*
X136605000Y-106356928D01*
X136480518Y-106369188D01*
X136360820Y-106405498D01*
X136250506Y-106464463D01*
X136153815Y-106543815D01*
X136074463Y-106640506D01*
X136015498Y-106750820D01*
X135979188Y-106870518D01*
X135966928Y-106995000D01*
X134446214Y-106995000D01*
X132830216Y-105379003D01*
X132806413Y-105349999D01*
X132690688Y-105255026D01*
X132558659Y-105184454D01*
X132415398Y-105140997D01*
X132303745Y-105130000D01*
X132303734Y-105130000D01*
X132266412Y-105126324D01*
X132229090Y-105130000D01*
X126117303Y-105130000D01*
X126157850Y-105054142D01*
X126206608Y-104893408D01*
X126223072Y-104726250D01*
X126223072Y-104288750D01*
X126206608Y-104121592D01*
X126157850Y-103960858D01*
X126078671Y-103812725D01*
X126002574Y-103720000D01*
X126078671Y-103627275D01*
X126157850Y-103479142D01*
X126206608Y-103318408D01*
X126223072Y-103151250D01*
X126223072Y-102970000D01*
X172361928Y-102970000D01*
X172374188Y-103094482D01*
X172410498Y-103214180D01*
X172469463Y-103324494D01*
X172548815Y-103421185D01*
X172632667Y-103490000D01*
X172548815Y-103558815D01*
X172469463Y-103655506D01*
X172410498Y-103765820D01*
X172374188Y-103885518D01*
X172361928Y-104010000D01*
X172365000Y-104474250D01*
X172523750Y-104633000D01*
X173623000Y-104633000D01*
X173623000Y-103533750D01*
X173579250Y-103490000D01*
X173623000Y-103446250D01*
X173623000Y-102347000D01*
X173877000Y-102347000D01*
X173877000Y-103446250D01*
X173920750Y-103490000D01*
X173877000Y-103533750D01*
X173877000Y-104633000D01*
X174976250Y-104633000D01*
X175135000Y-104474250D01*
X175138072Y-104010000D01*
X175125812Y-103885518D01*
X175089502Y-103765820D01*
X175030537Y-103655506D01*
X174951185Y-103558815D01*
X174867333Y-103490000D01*
X174951185Y-103421185D01*
X175030537Y-103324494D01*
X175089502Y-103214180D01*
X175125812Y-103094482D01*
X175138072Y-102970000D01*
X175135000Y-102505750D01*
X174976250Y-102347000D01*
X173877000Y-102347000D01*
X173623000Y-102347000D01*
X172523750Y-102347000D01*
X172365000Y-102505750D01*
X172361928Y-102970000D01*
X126223072Y-102970000D01*
X126223072Y-102713750D01*
X126206608Y-102546592D01*
X126157850Y-102385858D01*
X126116432Y-102308370D01*
X126456702Y-101968100D01*
X126577523Y-101980000D01*
X127422477Y-101980000D01*
X127594360Y-101963071D01*
X127814906Y-101896169D01*
X128018162Y-101787526D01*
X128196318Y-101641318D01*
X128342526Y-101463162D01*
X128451169Y-101259906D01*
X128518071Y-101039360D01*
X128540661Y-100810000D01*
X128518071Y-100580640D01*
X128472375Y-100430000D01*
X172361928Y-100430000D01*
X172374188Y-100554482D01*
X172410498Y-100674180D01*
X172469463Y-100784494D01*
X172548815Y-100881185D01*
X172632667Y-100950000D01*
X172548815Y-101018815D01*
X172469463Y-101115506D01*
X172410498Y-101225820D01*
X172374188Y-101345518D01*
X172361928Y-101470000D01*
X172365000Y-101934250D01*
X172523750Y-102093000D01*
X173623000Y-102093000D01*
X173623000Y-100993750D01*
X173579250Y-100950000D01*
X173623000Y-100906250D01*
X173623000Y-99807000D01*
X173877000Y-99807000D01*
X173877000Y-100906250D01*
X173920750Y-100950000D01*
X173877000Y-100993750D01*
X173877000Y-102093000D01*
X174976250Y-102093000D01*
X175135000Y-101934250D01*
X175138072Y-101470000D01*
X175125812Y-101345518D01*
X175089502Y-101225820D01*
X175030537Y-101115506D01*
X174951185Y-101018815D01*
X174867333Y-100950000D01*
X174951185Y-100881185D01*
X175030537Y-100784494D01*
X175089502Y-100674180D01*
X175125812Y-100554482D01*
X175135117Y-100460000D01*
X194861928Y-100460000D01*
X194874188Y-100584482D01*
X194910498Y-100704180D01*
X194969463Y-100814494D01*
X195048815Y-100911185D01*
X195132667Y-100980000D01*
X195048815Y-101048815D01*
X194969463Y-101145506D01*
X194910498Y-101255820D01*
X194874188Y-101375518D01*
X194861928Y-101500000D01*
X194861928Y-103000000D01*
X194874188Y-103124482D01*
X194910498Y-103244180D01*
X194969463Y-103354494D01*
X195048815Y-103451185D01*
X195132667Y-103520000D01*
X195048815Y-103588815D01*
X194969463Y-103685506D01*
X194910498Y-103795820D01*
X194874188Y-103915518D01*
X194861928Y-104040000D01*
X194865000Y-104504250D01*
X195023750Y-104663000D01*
X196123000Y-104663000D01*
X196123000Y-104643000D01*
X196377000Y-104643000D01*
X196377000Y-104663000D01*
X197476250Y-104663000D01*
X197635000Y-104504250D01*
X197638072Y-104040000D01*
X197625812Y-103915518D01*
X197589502Y-103795820D01*
X197530537Y-103685506D01*
X197451185Y-103588815D01*
X197367333Y-103520000D01*
X197451185Y-103451185D01*
X197530537Y-103354494D01*
X197589502Y-103244180D01*
X197625812Y-103124482D01*
X197638072Y-103000000D01*
X197638072Y-101500000D01*
X197625812Y-101375518D01*
X197589502Y-101255820D01*
X197530537Y-101145506D01*
X197451185Y-101048815D01*
X197367333Y-100980000D01*
X197451185Y-100911185D01*
X197530537Y-100814494D01*
X197589502Y-100704180D01*
X197625812Y-100584482D01*
X197638072Y-100460000D01*
X197635000Y-99995750D01*
X197476250Y-99837000D01*
X196377000Y-99837000D01*
X196377000Y-99857000D01*
X196123000Y-99857000D01*
X196123000Y-99837000D01*
X195023750Y-99837000D01*
X194865000Y-99995750D01*
X194861928Y-100460000D01*
X175135117Y-100460000D01*
X175138072Y-100430000D01*
X175135000Y-99965750D01*
X174976250Y-99807000D01*
X173877000Y-99807000D01*
X173623000Y-99807000D01*
X172523750Y-99807000D01*
X172365000Y-99965750D01*
X172361928Y-100430000D01*
X128472375Y-100430000D01*
X128451169Y-100360094D01*
X128352234Y-100175000D01*
X128451169Y-99989906D01*
X128518071Y-99769360D01*
X128540661Y-99540000D01*
X128518071Y-99310640D01*
X128451169Y-99090094D01*
X128365597Y-98930000D01*
X172361928Y-98930000D01*
X172365000Y-99394250D01*
X172523750Y-99553000D01*
X173623000Y-99553000D01*
X173623000Y-98453750D01*
X173877000Y-98453750D01*
X173877000Y-99553000D01*
X174976250Y-99553000D01*
X175135000Y-99394250D01*
X175137873Y-98960000D01*
X194861928Y-98960000D01*
X194865000Y-99424250D01*
X195023750Y-99583000D01*
X196123000Y-99583000D01*
X196123000Y-98483750D01*
X196377000Y-98483750D01*
X196377000Y-99583000D01*
X197476250Y-99583000D01*
X197635000Y-99424250D01*
X197638072Y-98960000D01*
X197625812Y-98835518D01*
X197589502Y-98715820D01*
X197530537Y-98605506D01*
X197451185Y-98508815D01*
X197354494Y-98429463D01*
X197244180Y-98370498D01*
X197124482Y-98334188D01*
X197000000Y-98321928D01*
X196535750Y-98325000D01*
X196377000Y-98483750D01*
X196123000Y-98483750D01*
X195964250Y-98325000D01*
X195500000Y-98321928D01*
X195375518Y-98334188D01*
X195255820Y-98370498D01*
X195145506Y-98429463D01*
X195048815Y-98508815D01*
X194969463Y-98605506D01*
X194910498Y-98715820D01*
X194874188Y-98835518D01*
X194861928Y-98960000D01*
X175137873Y-98960000D01*
X175138072Y-98930000D01*
X175125812Y-98805518D01*
X175089502Y-98685820D01*
X175030537Y-98575506D01*
X174951185Y-98478815D01*
X174854494Y-98399463D01*
X174744180Y-98340498D01*
X174624482Y-98304188D01*
X174500000Y-98291928D01*
X174035750Y-98295000D01*
X173877000Y-98453750D01*
X173623000Y-98453750D01*
X173464250Y-98295000D01*
X173000000Y-98291928D01*
X172875518Y-98304188D01*
X172755820Y-98340498D01*
X172645506Y-98399463D01*
X172548815Y-98478815D01*
X172469463Y-98575506D01*
X172410498Y-98685820D01*
X172374188Y-98805518D01*
X172361928Y-98930000D01*
X128365597Y-98930000D01*
X128350846Y-98902404D01*
X128408377Y-98814421D01*
X128493900Y-98577383D01*
X128368244Y-98397000D01*
X127627560Y-98397000D01*
X127594360Y-98386929D01*
X127422477Y-98370000D01*
X126853000Y-98370000D01*
X126853000Y-98173072D01*
X127900000Y-98173072D01*
X128024482Y-98160812D01*
X128083200Y-98143000D01*
X128368244Y-98143000D01*
X128493900Y-97962617D01*
X128452615Y-97848190D01*
X128489502Y-97779180D01*
X128525812Y-97659482D01*
X128538072Y-97535000D01*
X128538072Y-96465000D01*
X128525812Y-96340518D01*
X128489502Y-96220820D01*
X128430537Y-96110506D01*
X128351185Y-96013815D01*
X128254494Y-95934463D01*
X128144180Y-95875498D01*
X128024482Y-95839188D01*
X127900000Y-95826928D01*
X126100000Y-95826928D01*
X125975518Y-95839188D01*
X125855820Y-95875498D01*
X125745506Y-95934463D01*
X125648815Y-96013815D01*
X125569463Y-96110506D01*
X125510498Y-96220820D01*
X125474694Y-96338851D01*
X125425724Y-96365026D01*
X125309999Y-96459999D01*
X125286201Y-96488997D01*
X121599003Y-100176196D01*
X121569999Y-100199999D01*
X121514871Y-100267174D01*
X121475026Y-100315724D01*
X121413944Y-100430000D01*
X121404454Y-100447754D01*
X121360997Y-100591015D01*
X121350000Y-100702668D01*
X121350000Y-100702678D01*
X121346324Y-100740000D01*
X121350000Y-100777323D01*
X121350001Y-102024081D01*
X121247885Y-102107885D01*
X121141329Y-102237725D01*
X121062150Y-102385858D01*
X121013392Y-102546592D01*
X120996928Y-102713750D01*
X120996928Y-103151250D01*
X121013392Y-103318408D01*
X121062150Y-103479142D01*
X121141329Y-103627275D01*
X121217426Y-103720000D01*
X121141329Y-103812725D01*
X121062150Y-103960858D01*
X121013392Y-104121592D01*
X120996928Y-104288750D01*
X120996928Y-104726250D01*
X121013392Y-104893408D01*
X121062150Y-105054142D01*
X121141329Y-105202275D01*
X121247885Y-105332115D01*
X121377725Y-105438671D01*
X121439503Y-105471692D01*
X121505026Y-105594276D01*
X121530230Y-105624987D01*
X121599999Y-105710001D01*
X121629003Y-105733804D01*
X123206170Y-107310972D01*
X123229968Y-107339970D01*
X123345693Y-107434943D01*
X123477722Y-107505515D01*
X123620983Y-107548972D01*
X123732636Y-107559969D01*
X123732645Y-107559969D01*
X123769968Y-107563645D01*
X123807291Y-107559969D01*
X131588756Y-107559969D01*
X133219990Y-109191201D01*
X133219989Y-110952667D01*
X133216313Y-110989990D01*
X133219989Y-111027313D01*
X133219989Y-111027322D01*
X133230986Y-111138975D01*
X133274443Y-111282236D01*
X133345015Y-111414265D01*
X133439988Y-111529991D01*
X133468992Y-111553794D01*
X134676201Y-112761003D01*
X134699999Y-112790001D01*
X134815724Y-112884974D01*
X134947753Y-112955546D01*
X135091014Y-112999003D01*
X135202667Y-113010000D01*
X135202677Y-113010000D01*
X135240000Y-113013676D01*
X135277323Y-113010000D01*
X135373254Y-113010000D01*
X135361928Y-113125000D01*
X135361928Y-113375000D01*
X135373254Y-113490000D01*
X135314802Y-113490000D01*
X133863804Y-112039003D01*
X133840001Y-112009999D01*
X133724276Y-111915026D01*
X133592247Y-111844454D01*
X133448986Y-111800997D01*
X133337333Y-111790000D01*
X133337322Y-111790000D01*
X133300000Y-111786324D01*
X133262678Y-111790000D01*
X132554468Y-111790000D01*
X132541185Y-111773815D01*
X132444494Y-111694463D01*
X132334180Y-111635498D01*
X132214482Y-111599188D01*
X132090000Y-111586928D01*
X131874286Y-111586928D01*
X131900812Y-111499482D01*
X131913072Y-111375000D01*
X131910000Y-111185750D01*
X131751250Y-111027000D01*
X130964500Y-111027000D01*
X130964500Y-111047000D01*
X130710500Y-111047000D01*
X130710500Y-111027000D01*
X130690500Y-111027000D01*
X130690500Y-110773000D01*
X130710500Y-110773000D01*
X130710500Y-109948750D01*
X130964500Y-109948750D01*
X130964500Y-110773000D01*
X131751250Y-110773000D01*
X131910000Y-110614250D01*
X131913072Y-110425000D01*
X131900812Y-110300518D01*
X131864502Y-110180820D01*
X131805537Y-110070506D01*
X131726185Y-109973815D01*
X131629494Y-109894463D01*
X131519180Y-109835498D01*
X131399482Y-109799188D01*
X131275000Y-109786928D01*
X131123250Y-109790000D01*
X130964500Y-109948750D01*
X130710500Y-109948750D01*
X130551750Y-109790000D01*
X130400000Y-109786928D01*
X130275518Y-109799188D01*
X130155820Y-109835498D01*
X130045506Y-109894463D01*
X129978930Y-109949100D01*
X129957275Y-109931329D01*
X129809142Y-109852150D01*
X129648408Y-109803392D01*
X129481250Y-109786928D01*
X129043750Y-109786928D01*
X128876592Y-109803392D01*
X128715858Y-109852150D01*
X128567725Y-109931329D01*
X128437885Y-110037885D01*
X128331329Y-110167725D01*
X128267217Y-110287669D01*
X128242889Y-110271414D01*
X128072729Y-110200932D01*
X127892089Y-110165000D01*
X127825000Y-110165000D01*
X127825000Y-110112998D01*
X127666252Y-110112998D01*
X127825000Y-109954250D01*
X127828072Y-109940000D01*
X127815812Y-109815518D01*
X127779502Y-109695820D01*
X127720537Y-109585506D01*
X127641185Y-109488815D01*
X127544494Y-109409463D01*
X127434180Y-109350498D01*
X127314482Y-109314188D01*
X127227137Y-109305586D01*
X127240491Y-109170000D01*
X127218577Y-108947501D01*
X127153676Y-108733553D01*
X127048284Y-108536377D01*
X126906449Y-108363551D01*
X126733623Y-108221716D01*
X126536447Y-108116324D01*
X126322499Y-108051423D01*
X126155752Y-108035000D01*
X124944248Y-108035000D01*
X124777501Y-108051423D01*
X124563553Y-108116324D01*
X124366377Y-108221716D01*
X124193551Y-108363551D01*
X124155431Y-108410000D01*
X122514569Y-108410000D01*
X122476449Y-108363551D01*
X122303623Y-108221716D01*
X122106447Y-108116324D01*
X121892499Y-108051423D01*
X121725752Y-108035000D01*
X121014248Y-108035000D01*
X120847501Y-108051423D01*
X120685000Y-108100718D01*
X120685000Y-90685000D01*
X199315000Y-90685000D01*
X199315001Y-136315000D01*
G37*
G04 #@! TD.AperFunction*
D31*
X161353836Y-121014458D02*
X161506291Y-121095947D01*
X161671715Y-121146128D01*
X161843750Y-121163072D01*
X162173994Y-121163072D01*
X164165001Y-123154080D01*
X164165000Y-127602699D01*
X162751304Y-126189003D01*
X162727501Y-126159999D01*
X162611776Y-126065026D01*
X162479747Y-125994454D01*
X162336486Y-125950997D01*
X162224833Y-125940000D01*
X162224822Y-125940000D01*
X162187500Y-125936324D01*
X162150178Y-125940000D01*
X161003373Y-125940000D01*
X161014502Y-125919180D01*
X161050812Y-125799482D01*
X161063072Y-125675000D01*
X161060000Y-125485750D01*
X160901250Y-125327000D01*
X160114500Y-125327000D01*
X160114500Y-125347000D01*
X159860500Y-125347000D01*
X159860500Y-125327000D01*
X159840500Y-125327000D01*
X159840500Y-125073000D01*
X159860500Y-125073000D01*
X159860500Y-125053000D01*
X160114500Y-125053000D01*
X160114500Y-125073000D01*
X160901250Y-125073000D01*
X161060000Y-124914250D01*
X161063072Y-124725000D01*
X161050812Y-124600518D01*
X161014502Y-124480820D01*
X160955537Y-124370506D01*
X160953206Y-124367665D01*
X160997850Y-124284142D01*
X161046608Y-124123408D01*
X161063072Y-123956250D01*
X161063072Y-123443750D01*
X161046608Y-123276592D01*
X160997850Y-123115858D01*
X160987379Y-123096268D01*
X161027962Y-123062962D01*
X161138405Y-122928386D01*
X161220472Y-122774850D01*
X161271008Y-122608254D01*
X161288072Y-122435000D01*
X161288072Y-121485000D01*
X161271008Y-121311746D01*
X161220472Y-121145150D01*
X161138405Y-120991614D01*
X161117755Y-120966451D01*
X161124180Y-120964502D01*
X161179373Y-120935000D01*
X161257016Y-120935000D01*
X161353836Y-121014458D01*
G04 #@! TA.AperFunction,Conductor*
D32*
G36*
X161353836Y-121014458D02*
G01*
X161506291Y-121095947D01*
X161671715Y-121146128D01*
X161843750Y-121163072D01*
X162173994Y-121163072D01*
X164165001Y-123154080D01*
X164165000Y-127602699D01*
X162751304Y-126189003D01*
X162727501Y-126159999D01*
X162611776Y-126065026D01*
X162479747Y-125994454D01*
X162336486Y-125950997D01*
X162224833Y-125940000D01*
X162224822Y-125940000D01*
X162187500Y-125936324D01*
X162150178Y-125940000D01*
X161003373Y-125940000D01*
X161014502Y-125919180D01*
X161050812Y-125799482D01*
X161063072Y-125675000D01*
X161060000Y-125485750D01*
X160901250Y-125327000D01*
X160114500Y-125327000D01*
X160114500Y-125347000D01*
X159860500Y-125347000D01*
X159860500Y-125327000D01*
X159840500Y-125327000D01*
X159840500Y-125073000D01*
X159860500Y-125073000D01*
X159860500Y-125053000D01*
X160114500Y-125053000D01*
X160114500Y-125073000D01*
X160901250Y-125073000D01*
X161060000Y-124914250D01*
X161063072Y-124725000D01*
X161050812Y-124600518D01*
X161014502Y-124480820D01*
X160955537Y-124370506D01*
X160953206Y-124367665D01*
X160997850Y-124284142D01*
X161046608Y-124123408D01*
X161063072Y-123956250D01*
X161063072Y-123443750D01*
X161046608Y-123276592D01*
X160997850Y-123115858D01*
X160987379Y-123096268D01*
X161027962Y-123062962D01*
X161138405Y-122928386D01*
X161220472Y-122774850D01*
X161271008Y-122608254D01*
X161288072Y-122435000D01*
X161288072Y-121485000D01*
X161271008Y-121311746D01*
X161220472Y-121145150D01*
X161138405Y-120991614D01*
X161117755Y-120966451D01*
X161124180Y-120964502D01*
X161179373Y-120935000D01*
X161257016Y-120935000D01*
X161353836Y-121014458D01*
G37*
G04 #@! TD.AperFunction*
D31*
X170275000Y-123209803D02*
X170275000Y-123271939D01*
X170314774Y-123471898D01*
X170392795Y-123660256D01*
X170506063Y-123829774D01*
X170650226Y-123973937D01*
X170819744Y-124087205D01*
X171008102Y-124165226D01*
X171208061Y-124205000D01*
X171411939Y-124205000D01*
X171611898Y-124165226D01*
X171800256Y-124087205D01*
X171969774Y-123973937D01*
X172113937Y-123829774D01*
X172227205Y-123660256D01*
X172305226Y-123471898D01*
X172343397Y-123280000D01*
X172362913Y-123280000D01*
X172374188Y-123394482D01*
X172410498Y-123514180D01*
X172469463Y-123624494D01*
X172548815Y-123721185D01*
X172632667Y-123790000D01*
X172548815Y-123858815D01*
X172469463Y-123955506D01*
X172410498Y-124065820D01*
X172374188Y-124185518D01*
X172361928Y-124310000D01*
X172361928Y-125810000D01*
X172374188Y-125934482D01*
X172410498Y-126054180D01*
X172469463Y-126164494D01*
X172548815Y-126261185D01*
X172615001Y-126315502D01*
X172615000Y-126344498D01*
X172548815Y-126398815D01*
X172496461Y-126462609D01*
X172464999Y-126459510D01*
X172409257Y-126465000D01*
X172409248Y-126465000D01*
X172242501Y-126481423D01*
X172028553Y-126546324D01*
X171831377Y-126651716D01*
X171658551Y-126793551D01*
X171623004Y-126836865D01*
X171519869Y-126940000D01*
X171231596Y-126940000D01*
X171226164Y-126935542D01*
X171073709Y-126854053D01*
X170908285Y-126803872D01*
X170736250Y-126786928D01*
X170431477Y-126786928D01*
X170335752Y-126777500D01*
X170335751Y-126777500D01*
X170280000Y-126772009D01*
X170224249Y-126777500D01*
X166755741Y-126777500D01*
X166699999Y-126772010D01*
X166644257Y-126777500D01*
X166644248Y-126777500D01*
X166477501Y-126793923D01*
X166263553Y-126858824D01*
X166066377Y-126964216D01*
X165935000Y-127072035D01*
X165935000Y-122830965D01*
X165939281Y-122787499D01*
X165935000Y-122744033D01*
X165935000Y-122744023D01*
X165922195Y-122614010D01*
X165871589Y-122447187D01*
X165789411Y-122293441D01*
X165735502Y-122227753D01*
X165706532Y-122192453D01*
X165706530Y-122192451D01*
X165678817Y-122158683D01*
X165645049Y-122130970D01*
X163638072Y-120123994D01*
X163638072Y-119793750D01*
X163621128Y-119621715D01*
X163570947Y-119456291D01*
X163489458Y-119303836D01*
X163379792Y-119170208D01*
X163373436Y-119164992D01*
X163451185Y-119101185D01*
X163530537Y-119004494D01*
X163589502Y-118894180D01*
X163625812Y-118774482D01*
X163638072Y-118650000D01*
X163635000Y-118448250D01*
X163476250Y-118289500D01*
X162427000Y-118289500D01*
X162427000Y-118309500D01*
X162173000Y-118309500D01*
X162173000Y-118289500D01*
X162153000Y-118289500D01*
X162153000Y-118035500D01*
X162173000Y-118035500D01*
X162173000Y-117198750D01*
X162427000Y-117198750D01*
X162427000Y-118035500D01*
X163476250Y-118035500D01*
X163635000Y-117876750D01*
X163638072Y-117675000D01*
X163625812Y-117550518D01*
X163589502Y-117430820D01*
X163530537Y-117320506D01*
X163451185Y-117223815D01*
X163354494Y-117144463D01*
X163244180Y-117085498D01*
X163124482Y-117049188D01*
X163000000Y-117036928D01*
X162585750Y-117040000D01*
X162427000Y-117198750D01*
X162173000Y-117198750D01*
X162014250Y-117040000D01*
X161600000Y-117036928D01*
X161475518Y-117049188D01*
X161355820Y-117085498D01*
X161245506Y-117144463D01*
X161148815Y-117223815D01*
X161134639Y-117241089D01*
X161124180Y-117235498D01*
X161004482Y-117199188D01*
X160880000Y-117186928D01*
X159820000Y-117186928D01*
X159695518Y-117199188D01*
X159575820Y-117235498D01*
X159465506Y-117294463D01*
X159368815Y-117373815D01*
X159325126Y-117427050D01*
X159267753Y-117444454D01*
X159212421Y-117474030D01*
X159210537Y-117470506D01*
X159131185Y-117373815D01*
X159034494Y-117294463D01*
X158924180Y-117235498D01*
X158804482Y-117199188D01*
X158680000Y-117186928D01*
X157620000Y-117186928D01*
X157510645Y-117197698D01*
X157513072Y-116900000D01*
X157500812Y-116775518D01*
X157464502Y-116655820D01*
X157405537Y-116545506D01*
X157326185Y-116448815D01*
X157229494Y-116369463D01*
X157119180Y-116310498D01*
X156999482Y-116274188D01*
X156875000Y-116261928D01*
X155985750Y-116265000D01*
X155827000Y-116423750D01*
X155827000Y-117435500D01*
X155847000Y-117435500D01*
X155847000Y-117689500D01*
X155827000Y-117689500D01*
X155827000Y-118701250D01*
X155985750Y-118860000D01*
X156875000Y-118863072D01*
X156999482Y-118850812D01*
X157086714Y-118824351D01*
X157089463Y-118829494D01*
X157168815Y-118926185D01*
X157265506Y-119005537D01*
X157375820Y-119064502D01*
X157492841Y-119100000D01*
X157375820Y-119135498D01*
X157265506Y-119194463D01*
X157168815Y-119273815D01*
X157089463Y-119370506D01*
X157047628Y-119448773D01*
X156964851Y-119404528D01*
X156798255Y-119353992D01*
X156625001Y-119336928D01*
X154774999Y-119336928D01*
X154601745Y-119353992D01*
X154435149Y-119404528D01*
X154281613Y-119486595D01*
X154147038Y-119597038D01*
X154036595Y-119731613D01*
X154025431Y-119752500D01*
X150914079Y-119752500D01*
X149386579Y-118225000D01*
X153886928Y-118225000D01*
X153899188Y-118349482D01*
X153935498Y-118469180D01*
X153994463Y-118579494D01*
X154073815Y-118676185D01*
X154170506Y-118755537D01*
X154280820Y-118814502D01*
X154400518Y-118850812D01*
X154525000Y-118863072D01*
X155414250Y-118860000D01*
X155573000Y-118701250D01*
X155573000Y-117689500D01*
X154048750Y-117689500D01*
X153890000Y-117848250D01*
X153886928Y-118225000D01*
X149386579Y-118225000D01*
X148386534Y-117224956D01*
X148358817Y-117191183D01*
X148224059Y-117080589D01*
X148070313Y-116998411D01*
X147903490Y-116947805D01*
X147773477Y-116935000D01*
X147773469Y-116935000D01*
X147740420Y-116931745D01*
X147701739Y-116900000D01*
X153886928Y-116900000D01*
X153890000Y-117276750D01*
X154048750Y-117435500D01*
X155573000Y-117435500D01*
X155573000Y-116423750D01*
X155414250Y-116265000D01*
X154525000Y-116261928D01*
X154400518Y-116274188D01*
X154280820Y-116310498D01*
X154170506Y-116369463D01*
X154073815Y-116448815D01*
X153994463Y-116545506D01*
X153935498Y-116655820D01*
X153899188Y-116775518D01*
X153886928Y-116900000D01*
X147701739Y-116900000D01*
X147618386Y-116831595D01*
X147464850Y-116749528D01*
X147298254Y-116698992D01*
X147125000Y-116681928D01*
X146555962Y-116681928D01*
X146589502Y-116619180D01*
X146625812Y-116499482D01*
X146638072Y-116375000D01*
X146638072Y-116125000D01*
X146626746Y-116010000D01*
X163075199Y-116010000D01*
X170275000Y-123209803D01*
G04 #@! TA.AperFunction,Conductor*
D32*
G36*
X170275000Y-123209803D02*
G01*
X170275000Y-123271939D01*
X170314774Y-123471898D01*
X170392795Y-123660256D01*
X170506063Y-123829774D01*
X170650226Y-123973937D01*
X170819744Y-124087205D01*
X171008102Y-124165226D01*
X171208061Y-124205000D01*
X171411939Y-124205000D01*
X171611898Y-124165226D01*
X171800256Y-124087205D01*
X171969774Y-123973937D01*
X172113937Y-123829774D01*
X172227205Y-123660256D01*
X172305226Y-123471898D01*
X172343397Y-123280000D01*
X172362913Y-123280000D01*
X172374188Y-123394482D01*
X172410498Y-123514180D01*
X172469463Y-123624494D01*
X172548815Y-123721185D01*
X172632667Y-123790000D01*
X172548815Y-123858815D01*
X172469463Y-123955506D01*
X172410498Y-124065820D01*
X172374188Y-124185518D01*
X172361928Y-124310000D01*
X172361928Y-125810000D01*
X172374188Y-125934482D01*
X172410498Y-126054180D01*
X172469463Y-126164494D01*
X172548815Y-126261185D01*
X172615001Y-126315502D01*
X172615000Y-126344498D01*
X172548815Y-126398815D01*
X172496461Y-126462609D01*
X172464999Y-126459510D01*
X172409257Y-126465000D01*
X172409248Y-126465000D01*
X172242501Y-126481423D01*
X172028553Y-126546324D01*
X171831377Y-126651716D01*
X171658551Y-126793551D01*
X171623004Y-126836865D01*
X171519869Y-126940000D01*
X171231596Y-126940000D01*
X171226164Y-126935542D01*
X171073709Y-126854053D01*
X170908285Y-126803872D01*
X170736250Y-126786928D01*
X170431477Y-126786928D01*
X170335752Y-126777500D01*
X170335751Y-126777500D01*
X170280000Y-126772009D01*
X170224249Y-126777500D01*
X166755741Y-126777500D01*
X166699999Y-126772010D01*
X166644257Y-126777500D01*
X166644248Y-126777500D01*
X166477501Y-126793923D01*
X166263553Y-126858824D01*
X166066377Y-126964216D01*
X165935000Y-127072035D01*
X165935000Y-122830965D01*
X165939281Y-122787499D01*
X165935000Y-122744033D01*
X165935000Y-122744023D01*
X165922195Y-122614010D01*
X165871589Y-122447187D01*
X165789411Y-122293441D01*
X165735502Y-122227753D01*
X165706532Y-122192453D01*
X165706530Y-122192451D01*
X165678817Y-122158683D01*
X165645049Y-122130970D01*
X163638072Y-120123994D01*
X163638072Y-119793750D01*
X163621128Y-119621715D01*
X163570947Y-119456291D01*
X163489458Y-119303836D01*
X163379792Y-119170208D01*
X163373436Y-119164992D01*
X163451185Y-119101185D01*
X163530537Y-119004494D01*
X163589502Y-118894180D01*
X163625812Y-118774482D01*
X163638072Y-118650000D01*
X163635000Y-118448250D01*
X163476250Y-118289500D01*
X162427000Y-118289500D01*
X162427000Y-118309500D01*
X162173000Y-118309500D01*
X162173000Y-118289500D01*
X162153000Y-118289500D01*
X162153000Y-118035500D01*
X162173000Y-118035500D01*
X162173000Y-117198750D01*
X162427000Y-117198750D01*
X162427000Y-118035500D01*
X163476250Y-118035500D01*
X163635000Y-117876750D01*
X163638072Y-117675000D01*
X163625812Y-117550518D01*
X163589502Y-117430820D01*
X163530537Y-117320506D01*
X163451185Y-117223815D01*
X163354494Y-117144463D01*
X163244180Y-117085498D01*
X163124482Y-117049188D01*
X163000000Y-117036928D01*
X162585750Y-117040000D01*
X162427000Y-117198750D01*
X162173000Y-117198750D01*
X162014250Y-117040000D01*
X161600000Y-117036928D01*
X161475518Y-117049188D01*
X161355820Y-117085498D01*
X161245506Y-117144463D01*
X161148815Y-117223815D01*
X161134639Y-117241089D01*
X161124180Y-117235498D01*
X161004482Y-117199188D01*
X160880000Y-117186928D01*
X159820000Y-117186928D01*
X159695518Y-117199188D01*
X159575820Y-117235498D01*
X159465506Y-117294463D01*
X159368815Y-117373815D01*
X159325126Y-117427050D01*
X159267753Y-117444454D01*
X159212421Y-117474030D01*
X159210537Y-117470506D01*
X159131185Y-117373815D01*
X159034494Y-117294463D01*
X158924180Y-117235498D01*
X158804482Y-117199188D01*
X158680000Y-117186928D01*
X157620000Y-117186928D01*
X157510645Y-117197698D01*
X157513072Y-116900000D01*
X157500812Y-116775518D01*
X157464502Y-116655820D01*
X157405537Y-116545506D01*
X157326185Y-116448815D01*
X157229494Y-116369463D01*
X157119180Y-116310498D01*
X156999482Y-116274188D01*
X156875000Y-116261928D01*
X155985750Y-116265000D01*
X155827000Y-116423750D01*
X155827000Y-117435500D01*
X155847000Y-117435500D01*
X155847000Y-117689500D01*
X155827000Y-117689500D01*
X155827000Y-118701250D01*
X155985750Y-118860000D01*
X156875000Y-118863072D01*
X156999482Y-118850812D01*
X157086714Y-118824351D01*
X157089463Y-118829494D01*
X157168815Y-118926185D01*
X157265506Y-119005537D01*
X157375820Y-119064502D01*
X157492841Y-119100000D01*
X157375820Y-119135498D01*
X157265506Y-119194463D01*
X157168815Y-119273815D01*
X157089463Y-119370506D01*
X157047628Y-119448773D01*
X156964851Y-119404528D01*
X156798255Y-119353992D01*
X156625001Y-119336928D01*
X154774999Y-119336928D01*
X154601745Y-119353992D01*
X154435149Y-119404528D01*
X154281613Y-119486595D01*
X154147038Y-119597038D01*
X154036595Y-119731613D01*
X154025431Y-119752500D01*
X150914079Y-119752500D01*
X149386579Y-118225000D01*
X153886928Y-118225000D01*
X153899188Y-118349482D01*
X153935498Y-118469180D01*
X153994463Y-118579494D01*
X154073815Y-118676185D01*
X154170506Y-118755537D01*
X154280820Y-118814502D01*
X154400518Y-118850812D01*
X154525000Y-118863072D01*
X155414250Y-118860000D01*
X155573000Y-118701250D01*
X155573000Y-117689500D01*
X154048750Y-117689500D01*
X153890000Y-117848250D01*
X153886928Y-118225000D01*
X149386579Y-118225000D01*
X148386534Y-117224956D01*
X148358817Y-117191183D01*
X148224059Y-117080589D01*
X148070313Y-116998411D01*
X147903490Y-116947805D01*
X147773477Y-116935000D01*
X147773469Y-116935000D01*
X147740420Y-116931745D01*
X147701739Y-116900000D01*
X153886928Y-116900000D01*
X153890000Y-117276750D01*
X154048750Y-117435500D01*
X155573000Y-117435500D01*
X155573000Y-116423750D01*
X155414250Y-116265000D01*
X154525000Y-116261928D01*
X154400518Y-116274188D01*
X154280820Y-116310498D01*
X154170506Y-116369463D01*
X154073815Y-116448815D01*
X153994463Y-116545506D01*
X153935498Y-116655820D01*
X153899188Y-116775518D01*
X153886928Y-116900000D01*
X147701739Y-116900000D01*
X147618386Y-116831595D01*
X147464850Y-116749528D01*
X147298254Y-116698992D01*
X147125000Y-116681928D01*
X146555962Y-116681928D01*
X146589502Y-116619180D01*
X146625812Y-116499482D01*
X146638072Y-116375000D01*
X146638072Y-116125000D01*
X146626746Y-116010000D01*
X163075199Y-116010000D01*
X170275000Y-123209803D01*
G37*
G04 #@! TD.AperFunction*
D31*
X149890970Y-121232549D02*
X149918683Y-121266317D01*
X149952451Y-121294030D01*
X149952453Y-121294032D01*
X150033444Y-121360500D01*
X150053441Y-121376911D01*
X150207187Y-121459089D01*
X150374010Y-121509695D01*
X150504023Y-121522500D01*
X150504031Y-121522500D01*
X150547500Y-121526781D01*
X150590969Y-121522500D01*
X154025431Y-121522500D01*
X154036595Y-121543387D01*
X154147038Y-121677962D01*
X154281613Y-121788405D01*
X154435149Y-121870472D01*
X154601745Y-121921008D01*
X154774999Y-121938072D01*
X156625001Y-121938072D01*
X156798255Y-121921008D01*
X156964851Y-121870472D01*
X157118387Y-121788405D01*
X157179226Y-121738476D01*
X157273750Y-121833000D01*
X158123000Y-121833000D01*
X158123000Y-121813000D01*
X158377000Y-121813000D01*
X158377000Y-121833000D01*
X158397000Y-121833000D01*
X158397000Y-122087000D01*
X158377000Y-122087000D01*
X158377000Y-122107000D01*
X158123000Y-122107000D01*
X158123000Y-122087000D01*
X157273750Y-122087000D01*
X157115000Y-122245750D01*
X157111928Y-122685000D01*
X157124188Y-122809482D01*
X157160498Y-122929180D01*
X157166282Y-122940000D01*
X147304802Y-122940000D01*
X144994801Y-120630000D01*
X145037002Y-120630000D01*
X145037002Y-120471252D01*
X145195750Y-120630000D01*
X145385000Y-120633072D01*
X145438234Y-120627829D01*
X145473815Y-120671185D01*
X145570506Y-120750537D01*
X145680820Y-120809502D01*
X145800518Y-120845812D01*
X145925000Y-120858072D01*
X146364250Y-120855000D01*
X146523000Y-120696250D01*
X146523000Y-119847000D01*
X146777000Y-119847000D01*
X146777000Y-120696250D01*
X146935750Y-120855000D01*
X147375000Y-120858072D01*
X147499482Y-120845812D01*
X147619180Y-120809502D01*
X147729494Y-120750537D01*
X147826185Y-120671185D01*
X147905537Y-120574494D01*
X147964502Y-120464180D01*
X148000812Y-120344482D01*
X148013072Y-120220000D01*
X148010000Y-120005750D01*
X147851250Y-119847000D01*
X146777000Y-119847000D01*
X146523000Y-119847000D01*
X146503000Y-119847000D01*
X146503000Y-119593000D01*
X146523000Y-119593000D01*
X146523000Y-119573000D01*
X146777000Y-119573000D01*
X146777000Y-119593000D01*
X147851250Y-119593000D01*
X148010000Y-119434250D01*
X148011169Y-119352747D01*
X149890970Y-121232549D01*
G04 #@! TA.AperFunction,Conductor*
D32*
G36*
X149890970Y-121232549D02*
G01*
X149918683Y-121266317D01*
X149952451Y-121294030D01*
X149952453Y-121294032D01*
X150033444Y-121360500D01*
X150053441Y-121376911D01*
X150207187Y-121459089D01*
X150374010Y-121509695D01*
X150504023Y-121522500D01*
X150504031Y-121522500D01*
X150547500Y-121526781D01*
X150590969Y-121522500D01*
X154025431Y-121522500D01*
X154036595Y-121543387D01*
X154147038Y-121677962D01*
X154281613Y-121788405D01*
X154435149Y-121870472D01*
X154601745Y-121921008D01*
X154774999Y-121938072D01*
X156625001Y-121938072D01*
X156798255Y-121921008D01*
X156964851Y-121870472D01*
X157118387Y-121788405D01*
X157179226Y-121738476D01*
X157273750Y-121833000D01*
X158123000Y-121833000D01*
X158123000Y-121813000D01*
X158377000Y-121813000D01*
X158377000Y-121833000D01*
X158397000Y-121833000D01*
X158397000Y-122087000D01*
X158377000Y-122087000D01*
X158377000Y-122107000D01*
X158123000Y-122107000D01*
X158123000Y-122087000D01*
X157273750Y-122087000D01*
X157115000Y-122245750D01*
X157111928Y-122685000D01*
X157124188Y-122809482D01*
X157160498Y-122929180D01*
X157166282Y-122940000D01*
X147304802Y-122940000D01*
X144994801Y-120630000D01*
X145037002Y-120630000D01*
X145037002Y-120471252D01*
X145195750Y-120630000D01*
X145385000Y-120633072D01*
X145438234Y-120627829D01*
X145473815Y-120671185D01*
X145570506Y-120750537D01*
X145680820Y-120809502D01*
X145800518Y-120845812D01*
X145925000Y-120858072D01*
X146364250Y-120855000D01*
X146523000Y-120696250D01*
X146523000Y-119847000D01*
X146777000Y-119847000D01*
X146777000Y-120696250D01*
X146935750Y-120855000D01*
X147375000Y-120858072D01*
X147499482Y-120845812D01*
X147619180Y-120809502D01*
X147729494Y-120750537D01*
X147826185Y-120671185D01*
X147905537Y-120574494D01*
X147964502Y-120464180D01*
X148000812Y-120344482D01*
X148013072Y-120220000D01*
X148010000Y-120005750D01*
X147851250Y-119847000D01*
X146777000Y-119847000D01*
X146523000Y-119847000D01*
X146503000Y-119847000D01*
X146503000Y-119593000D01*
X146523000Y-119593000D01*
X146523000Y-119573000D01*
X146777000Y-119573000D01*
X146777000Y-119593000D01*
X147851250Y-119593000D01*
X148010000Y-119434250D01*
X148011169Y-119352747D01*
X149890970Y-121232549D01*
G37*
G04 #@! TD.AperFunction*
D31*
X143902067Y-121686868D02*
X143832333Y-121680000D01*
X143832322Y-121680000D01*
X143795000Y-121676324D01*
X143757678Y-121680000D01*
X143256750Y-121680000D01*
X143191250Y-121614500D01*
X142367000Y-121614500D01*
X142367000Y-121634500D01*
X142113000Y-121634500D01*
X142113000Y-121614500D01*
X142093000Y-121614500D01*
X142093000Y-121360500D01*
X142113000Y-121360500D01*
X142113000Y-121340500D01*
X142367000Y-121340500D01*
X142367000Y-121360500D01*
X143191250Y-121360500D01*
X143350000Y-121201750D01*
X143351328Y-121136129D01*
X143902067Y-121686868D01*
G04 #@! TA.AperFunction,Conductor*
D32*
G36*
X143902067Y-121686868D02*
G01*
X143832333Y-121680000D01*
X143832322Y-121680000D01*
X143795000Y-121676324D01*
X143757678Y-121680000D01*
X143256750Y-121680000D01*
X143191250Y-121614500D01*
X142367000Y-121614500D01*
X142367000Y-121634500D01*
X142113000Y-121634500D01*
X142113000Y-121614500D01*
X142093000Y-121614500D01*
X142093000Y-121360500D01*
X142113000Y-121360500D01*
X142113000Y-121340500D01*
X142367000Y-121340500D01*
X142367000Y-121360500D01*
X143191250Y-121360500D01*
X143350000Y-121201750D01*
X143351328Y-121136129D01*
X143902067Y-121686868D01*
G37*
G04 #@! TD.AperFunction*
D31*
X135059500Y-117283000D02*
X135079500Y-117283000D01*
X135079500Y-117537000D01*
X135059500Y-117537000D01*
X135059500Y-118361250D01*
X135218250Y-118520000D01*
X135370000Y-118523072D01*
X135494482Y-118510812D01*
X135614180Y-118474502D01*
X135724494Y-118415537D01*
X135791070Y-118360900D01*
X135812725Y-118378671D01*
X135960858Y-118457850D01*
X136121592Y-118506608D01*
X136288750Y-118523072D01*
X136726250Y-118523072D01*
X136893408Y-118506608D01*
X137054142Y-118457850D01*
X137202275Y-118378671D01*
X137332115Y-118272115D01*
X137360422Y-118237623D01*
X137380313Y-118231589D01*
X137486928Y-118174603D01*
X137486928Y-118500000D01*
X137490000Y-118531194D01*
X137490001Y-121172668D01*
X137486324Y-121210000D01*
X137490001Y-121247333D01*
X137500998Y-121358986D01*
X137507808Y-121381437D01*
X137543325Y-121498523D01*
X134850000Y-118805199D01*
X134850000Y-117263000D01*
X135059500Y-117263000D01*
X135059500Y-117283000D01*
G04 #@! TA.AperFunction,Conductor*
D32*
G36*
X135059500Y-117283000D02*
G01*
X135079500Y-117283000D01*
X135079500Y-117537000D01*
X135059500Y-117537000D01*
X135059500Y-118361250D01*
X135218250Y-118520000D01*
X135370000Y-118523072D01*
X135494482Y-118510812D01*
X135614180Y-118474502D01*
X135724494Y-118415537D01*
X135791070Y-118360900D01*
X135812725Y-118378671D01*
X135960858Y-118457850D01*
X136121592Y-118506608D01*
X136288750Y-118523072D01*
X136726250Y-118523072D01*
X136893408Y-118506608D01*
X137054142Y-118457850D01*
X137202275Y-118378671D01*
X137332115Y-118272115D01*
X137360422Y-118237623D01*
X137380313Y-118231589D01*
X137486928Y-118174603D01*
X137486928Y-118500000D01*
X137490000Y-118531194D01*
X137490001Y-121172668D01*
X137486324Y-121210000D01*
X137490001Y-121247333D01*
X137500998Y-121358986D01*
X137507808Y-121381437D01*
X137543325Y-121498523D01*
X134850000Y-118805199D01*
X134850000Y-117263000D01*
X135059500Y-117263000D01*
X135059500Y-117283000D01*
G37*
G04 #@! TD.AperFunction*
D31*
X145037000Y-119430500D02*
X145057000Y-119430500D01*
X145057000Y-119684500D01*
X145037000Y-119684500D01*
X145037000Y-119704500D01*
X144783000Y-119704500D01*
X144783000Y-119684500D01*
X144763000Y-119684500D01*
X144763000Y-119430500D01*
X144783000Y-119430500D01*
X144783000Y-119410500D01*
X145037000Y-119410500D01*
X145037000Y-119430500D01*
G04 #@! TA.AperFunction,Conductor*
D32*
G36*
X145037000Y-119430500D02*
G01*
X145057000Y-119430500D01*
X145057000Y-119684500D01*
X145037000Y-119684500D01*
X145037000Y-119704500D01*
X144783000Y-119704500D01*
X144783000Y-119684500D01*
X144763000Y-119684500D01*
X144763000Y-119430500D01*
X144783000Y-119430500D01*
X144783000Y-119410500D01*
X145037000Y-119410500D01*
X145037000Y-119430500D01*
G37*
G04 #@! TD.AperFunction*
D31*
X135361928Y-116125000D02*
X135361928Y-116297091D01*
X135218250Y-116300000D01*
X135059502Y-116458748D01*
X135059502Y-116300000D01*
X134954802Y-116300000D01*
X135244802Y-116010000D01*
X135373254Y-116010000D01*
X135361928Y-116125000D01*
G04 #@! TA.AperFunction,Conductor*
D32*
G36*
X135361928Y-116125000D02*
G01*
X135361928Y-116297091D01*
X135218250Y-116300000D01*
X135059502Y-116458748D01*
X135059502Y-116300000D01*
X134954802Y-116300000D01*
X135244802Y-116010000D01*
X135373254Y-116010000D01*
X135361928Y-116125000D01*
G37*
G04 #@! TD.AperFunction*
D31*
X143886201Y-112761003D02*
X143909999Y-112790001D01*
X143951202Y-112823815D01*
X144025724Y-112884974D01*
X144066813Y-112906937D01*
X144065000Y-112908750D01*
X144075030Y-112997742D01*
X144074188Y-113000518D01*
X144061928Y-113125000D01*
X144061928Y-113375000D01*
X144074188Y-113499482D01*
X144074345Y-113500000D01*
X144074188Y-113500518D01*
X144061928Y-113625000D01*
X144061928Y-113875000D01*
X144074188Y-113999482D01*
X144074345Y-114000000D01*
X144074188Y-114000518D01*
X144061928Y-114125000D01*
X144061928Y-114375000D01*
X144074188Y-114499482D01*
X144074345Y-114500000D01*
X144074188Y-114500518D01*
X144061928Y-114625000D01*
X144061928Y-114875000D01*
X144074188Y-114999482D01*
X144074345Y-115000000D01*
X144074188Y-115000518D01*
X144061928Y-115125000D01*
X144061928Y-115260350D01*
X143895046Y-115093468D01*
X143794059Y-115010590D01*
X143640313Y-114928412D01*
X143473490Y-114877805D01*
X143300000Y-114860719D01*
X143256531Y-114865000D01*
X139635000Y-114865000D01*
X139635000Y-112135000D01*
X143260199Y-112135000D01*
X143886201Y-112761003D01*
G04 #@! TA.AperFunction,Conductor*
D32*
G36*
X143886201Y-112761003D02*
G01*
X143909999Y-112790001D01*
X143951202Y-112823815D01*
X144025724Y-112884974D01*
X144066813Y-112906937D01*
X144065000Y-112908750D01*
X144075030Y-112997742D01*
X144074188Y-113000518D01*
X144061928Y-113125000D01*
X144061928Y-113375000D01*
X144074188Y-113499482D01*
X144074345Y-113500000D01*
X144074188Y-113500518D01*
X144061928Y-113625000D01*
X144061928Y-113875000D01*
X144074188Y-113999482D01*
X144074345Y-114000000D01*
X144074188Y-114000518D01*
X144061928Y-114125000D01*
X144061928Y-114375000D01*
X144074188Y-114499482D01*
X144074345Y-114500000D01*
X144074188Y-114500518D01*
X144061928Y-114625000D01*
X144061928Y-114875000D01*
X144074188Y-114999482D01*
X144074345Y-115000000D01*
X144074188Y-115000518D01*
X144061928Y-115125000D01*
X144061928Y-115260350D01*
X143895046Y-115093468D01*
X143794059Y-115010590D01*
X143640313Y-114928412D01*
X143473490Y-114877805D01*
X143300000Y-114860719D01*
X143256531Y-114865000D01*
X139635000Y-114865000D01*
X139635000Y-112135000D01*
X143260199Y-112135000D01*
X143886201Y-112761003D01*
G37*
G04 #@! TD.AperFunction*
D31*
X163965198Y-113990000D02*
X149584250Y-113990000D01*
X149471250Y-113877000D01*
X148684500Y-113877000D01*
X148684500Y-113897000D01*
X148430500Y-113897000D01*
X148430500Y-113877000D01*
X148410500Y-113877000D01*
X148410500Y-113623000D01*
X148430500Y-113623000D01*
X148430500Y-112367000D01*
X148684500Y-112367000D01*
X148684500Y-113623000D01*
X149471250Y-113623000D01*
X149630000Y-113464250D01*
X149633072Y-113275000D01*
X149620812Y-113150518D01*
X149584502Y-113030820D01*
X149565356Y-112995000D01*
X149584502Y-112959180D01*
X149620812Y-112839482D01*
X149633072Y-112715000D01*
X149630000Y-112525750D01*
X149471250Y-112367000D01*
X148684500Y-112367000D01*
X148430500Y-112367000D01*
X148410500Y-112367000D01*
X148410500Y-112113000D01*
X148430500Y-112113000D01*
X148430500Y-112093000D01*
X148684500Y-112093000D01*
X148684500Y-112113000D01*
X149471250Y-112113000D01*
X149574250Y-112010000D01*
X161985199Y-112010000D01*
X163965198Y-113990000D01*
G04 #@! TA.AperFunction,Conductor*
D32*
G36*
X163965198Y-113990000D02*
G01*
X149584250Y-113990000D01*
X149471250Y-113877000D01*
X148684500Y-113877000D01*
X148684500Y-113897000D01*
X148430500Y-113897000D01*
X148430500Y-113877000D01*
X148410500Y-113877000D01*
X148410500Y-113623000D01*
X148430500Y-113623000D01*
X148430500Y-112367000D01*
X148684500Y-112367000D01*
X148684500Y-113623000D01*
X149471250Y-113623000D01*
X149630000Y-113464250D01*
X149633072Y-113275000D01*
X149620812Y-113150518D01*
X149584502Y-113030820D01*
X149565356Y-112995000D01*
X149584502Y-112959180D01*
X149620812Y-112839482D01*
X149633072Y-112715000D01*
X149630000Y-112525750D01*
X149471250Y-112367000D01*
X148684500Y-112367000D01*
X148430500Y-112367000D01*
X148410500Y-112367000D01*
X148410500Y-112113000D01*
X148430500Y-112113000D01*
X148430500Y-112093000D01*
X148684500Y-112093000D01*
X148684500Y-112113000D01*
X149471250Y-112113000D01*
X149574250Y-112010000D01*
X161985199Y-112010000D01*
X163965198Y-113990000D01*
G37*
G04 #@! TD.AperFunction*
M02*
